<svg id="Layer_1" data-name="Layer 1" xmlns="http://www.w3.org/2000/svg" viewBox="0 0 20 20"><defs><style>.cls-1{fill:#455a64;}</style></defs><title>Artboard 4 copy 24</title><path class="cls-1" d="M10,20A10,10,0,1,1,20,10,10,10,0,0,1,10,20ZM10,1.25A8.75,8.75,0,1,0,18.75,10,8.76,8.76,0,0,0,10,1.25Z"/><rect class="cls-1" x="5" y="5" width="2.5" height="2.5"/><rect class="cls-1" x="8.75" y="5" width="2.5" height="2.5"/><rect class="cls-1" x="12.5" y="5" width="2.5" height="2.5"/><rect class="cls-1" x="5" y="8.75" width="2.5" height="2.5"/><rect class="cls-1" x="8.75" y="8.75" width="2.5" height="2.5"/><rect class="cls-1" x="12.5" y="8.75" width="2.5" height="2.5"/><rect class="cls-1" x="5" y="12.5" width="2.5" height="2.5"/><rect class="cls-1" x="8.75" y="12.5" width="2.5" height="2.5"/><rect class="cls-1" x="12.5" y="12.5" width="2.5" height="2.5"/></svg>