<svg id="Layer_1" data-name="Layer 1" xmlns="http://www.w3.org/2000/svg" viewBox="0 0 20 20"><defs><style>.cls-1{fill:#455a64;}</style></defs><title>Artboard 4 copy 21</title><rect class="cls-1" x="4.38" y="15.31" width="5.63" height="1.25"/><path class="cls-1" d="M4.38,16.56A4.38,4.38,0,0,1,0,12.19H1.25a3.13,3.13,0,0,0,3.13,3.13Z"/><polygon class="cls-1" points="16.88 17.81 15.63 17.81 15.63 12.81 15.99 12.81 15 11.82 14.01 12.81 14.38 12.81 14.38 17.81 13.13 17.81 13.13 14.06 10.99 14.06 15 10.05 19.01 14.06 16.88 14.06 16.88 17.81"/><path class="cls-1" d="M20,12.19H18.75a3.12,3.12,0,0,0-2.34-3l-.47-.12V8.44a3.09,3.09,0,0,0-3.85-3l-.41.1-.24-.34A4.06,4.06,0,0,0,4.06,7.5V9.05l-.47.12a3.12,3.12,0,0,0-2.34,3H0A4.36,4.36,0,0,1,2.81,8.11V7.5A5.3,5.3,0,0,1,12.2,4.11a4,4,0,0,1,.61,0,4.38,4.38,0,0,1,4.36,4A4.36,4.36,0,0,1,20,12.19Z"/></svg>