<svg id="Layer_1" data-name="Layer 1" xmlns="http://www.w3.org/2000/svg" viewBox="0 0 20 20"><defs><style>.cls-1{fill:#455a64;}</style></defs><title>Artboard 4 copy 19</title><path class="cls-1" d="M7.5,5.63H0V0H7.5ZM1.25,4.38h5V1.25h-5Z"/><rect class="cls-1" x="1.88" y="6.25" width="3.75" height="1.25"/><rect class="cls-1" x="3.13" y="5" width="1.25" height="1.88"/><path class="cls-1" d="M20,18.13H12.5V12.5H20Zm-6.25-1.25h5V13.75h-5Z"/><rect class="cls-1" x="14.38" y="18.75" width="3.75" height="1.25"/><rect class="cls-1" x="15.63" y="17.5" width="1.25" height="1.88"/><path class="cls-1" d="M20,3.75H16.25V0H20ZM17.5,2.5h1.25V1.25H17.5Z"/><path class="cls-1" d="M3.75,20H0V16.25H3.75Zm-2.5-1.25H2.5V17.5H1.25Z"/><rect class="cls-1" x="1.25" y="13.75" width="1.25" height="1.25"/><rect class="cls-1" x="1.25" y="11.25" width="1.25" height="1.25"/><rect class="cls-1" x="1.25" y="8.75" width="1.25" height="1.25"/><rect class="cls-1" x="17.5" y="10" width="1.25" height="1.25"/><rect class="cls-1" x="17.5" y="7.5" width="1.25" height="1.25"/><rect class="cls-1" x="17.5" y="5" width="1.25" height="1.25"/><rect class="cls-1" x="5" y="17.5" width="1.25" height="1.25"/><rect class="cls-1" x="7.5" y="17.5" width="1.25" height="1.25"/><rect class="cls-1" x="10" y="17.5" width="1.25" height="1.25"/><rect class="cls-1" x="13.75" y="1.25" width="1.25" height="1.25"/><rect class="cls-1" x="11.25" y="1.25" width="1.25" height="1.25"/><rect class="cls-1" x="8.75" y="1.25" width="1.25" height="1.25"/></svg>