<svg id="Layer_1" data-name="Layer 1" xmlns="http://www.w3.org/2000/svg" viewBox="0 0 20 20"><defs><style>.cls-1{fill:#455a64;}</style></defs><title>Artboard 4 copy 20</title><rect class="cls-1" x="4.51" y="15.14" width="5.8" height="1.29"/><path class="cls-1" d="M4.51,16.43A4.51,4.51,0,0,1,0,11.92H1.29a3.22,3.22,0,0,0,3.22,3.22Z"/><path class="cls-1" d="M1.29,11.92H0a4.5,4.5,0,0,1,2.9-4.2V7.09A5.47,5.47,0,0,1,12.57,3.6a4.1,4.1,0,0,1,.63,0,4.51,4.51,0,0,1,4.5,4.17A4.55,4.55,0,0,1,20,9.67l-1.11.65a3.25,3.25,0,0,0-2-1.5l-.48-.12V8.06a3.19,3.19,0,0,0-4-3.12L12,5l-.25-.35a4.18,4.18,0,0,0-7.6,2.41v1.6l-.48.12A3.21,3.21,0,0,0,1.29,11.92Z"/><path class="cls-1" d="M15.46,16.93V16a1.45,1.45,0,1,0,0-2.9v-1a2.41,2.41,0,0,1,0,4.83Z"/><rect class="cls-1" x="17.39" y="14.03" width="1.93" height="0.97"/><rect class="cls-1" x="17.48" y="15" width="0.97" height="1.93" transform="translate(-4.84 23.54) rotate(-60)"/><rect class="cls-1" x="16.42" y="16.06" width="0.97" height="1.93" transform="translate(-6.25 10.73) rotate(-30)"/><rect class="cls-1" x="17" y="12.58" width="1.93" height="0.97" transform="translate(-4.13 10.73) rotate(-29.99)"/><rect class="cls-1" x="15.94" y="11.52" width="1.93" height="0.97" transform="translate(-1.95 20.64) rotate(-60.01)"/><path class="cls-1" d="M15.46,16.93a2.41,2.41,0,1,1,0-4.83v1a1.45,1.45,0,0,0,0,2.9Z"/><rect class="cls-1" x="11.59" y="14.03" width="1.93" height="0.97"/><rect class="cls-1" x="12.46" y="12.1" width="0.97" height="1.93" transform="translate(-4.84 17.74) rotate(-60)"/><rect class="cls-1" x="13.52" y="11.04" width="0.97" height="1.93" transform="translate(-4.13 8.61) rotate(-30)"/><rect class="cls-1" x="11.98" y="15.48" width="1.93" height="0.97" transform="translate(-6.25 8.61) rotate(-29.99)"/><rect class="cls-1" x="13.04" y="16.54" width="1.93" height="0.97" transform="translate(-7.74 20.64) rotate(-60.01)"/><rect class="cls-1" x="14.97" y="10.65" width="0.97" height="1.93"/><rect class="cls-1" x="14.97" y="16.45" width="0.97" height="1.93"/></svg>