<svg id="Layer_1" data-name="Layer 1" xmlns="http://www.w3.org/2000/svg" viewBox="0 0 20 20"><defs><style>.cls-1{fill:#455a64;}</style></defs><title>Artboard 4 copy 23</title><path class="cls-1" d="M6.07,20a6.56,6.56,0,1,1,6.56-6.56A6.56,6.56,0,0,1,6.07,20Zm0-11.8a5.25,5.25,0,1,0,5.25,5.25A5.25,5.25,0,0,0,6.07,8.2Z"/><path class="cls-1" d="M13.93,20a6.56,6.56,0,1,1,6.56-6.56A6.56,6.56,0,0,1,13.93,20Zm0-11.8a5.25,5.25,0,1,0,5.25,5.25A5.25,5.25,0,0,0,13.93,8.2Z"/><path class="cls-1" d="M10,13.11a6.56,6.56,0,1,1,6.56-6.56A6.56,6.56,0,0,1,10,13.11Zm0-11.8a5.25,5.25,0,1,0,5.25,5.25A5.25,5.25,0,0,0,10,1.31Z"/></svg>