<svg id="Layer_1" data-name="Layer 1" xmlns="http://www.w3.org/2000/svg" viewBox="0 0 20 20"><defs><style>.cls-1{fill:#455a64;}</style></defs><title>Artboard 4 copy 22</title><path class="cls-1" d="M5,15H1.25A1.25,1.25,0,0,1,0,13.75V6.25A1.25,1.25,0,0,1,1.25,5H5A1.25,1.25,0,0,1,6.25,6.25v7.5A1.25,1.25,0,0,1,5,15ZM1.25,6.25v7.5H5V6.25Z"/><path class="cls-1" d="M18.75,15H15a1.25,1.25,0,0,1-1.25-1.25V6.25A1.25,1.25,0,0,1,15,5h3.75A1.25,1.25,0,0,1,20,6.25v7.5A1.25,1.25,0,0,1,18.75,15ZM15,6.25v7.5h3.75V6.25Z"/><polygon class="cls-1" points="11.69 4.82 10.81 3.93 12.24 2.5 10.81 1.07 11.69 0.18 14.01 2.5 11.69 4.82"/><polygon class="cls-1" points="8.31 19.82 5.99 17.5 8.31 15.18 9.19 16.07 7.76 17.5 9.19 18.93 8.31 19.82"/><polygon class="cls-1" points="17.5 18.13 6.88 18.13 6.88 16.88 16.25 16.88 16.25 15.63 17.5 15.63 17.5 18.13"/><polygon class="cls-1" points="3.75 4.38 2.5 4.38 2.5 1.88 13.13 1.88 13.13 3.13 3.75 3.13 3.75 4.38"/><rect class="cls-1" x="9.38" y="9.45" width="1.25" height="1.17"/><rect class="cls-1" x="11.25" y="9.38" width="1.25" height="1.25"/><rect class="cls-1" x="7.5" y="9.38" width="1.25" height="1.25"/></svg>