<svg id="Layer_1" data-name="Layer 1" xmlns="http://www.w3.org/2000/svg" viewBox="0 0 20 20"><defs><style>.cls-1{fill:#455a64;}</style></defs><title>Artboard 4 copy 18</title><rect class="cls-1" x="6.25" y="10" width="1.88" height="1.25"/><rect class="cls-1" x="11.88" y="10" width="1.88" height="1.25"/><path class="cls-1" d="M13.75,11.25V10a1.88,1.88,0,0,0,1.88-1.87h1.25A3.13,3.13,0,0,1,13.75,11.25Z"/><path class="cls-1" d="M6.25,11.25A3.13,3.13,0,0,1,3.13,8.13H4.38A1.88,1.88,0,0,0,6.25,10Z"/><path class="cls-1" d="M14.22,6.32a1.86,1.86,0,0,0-.47-.07V5a3.07,3.07,0,0,1,.78.11Z"/><path class="cls-1" d="M16.88,8.13H15.63a1.87,1.87,0,0,0-1.41-1.81l.31-1.21A3.12,3.12,0,0,1,16.88,8.13Z"/><path class="cls-1" d="M5.78,6.32,5.47,5.11A3.07,3.07,0,0,1,6.25,5V6.25A1.86,1.86,0,0,0,5.78,6.32Z"/><path class="cls-1" d="M4.38,8.13H3.13a3.12,3.12,0,0,1,2.34-3l.31,1.21A1.87,1.87,0,0,0,4.38,8.13Z"/><path class="cls-1" d="M15,5.71H13.75V5.63a1.88,1.88,0,0,0-1.87-1.87,1.85,1.85,0,0,0-.43.06L11,3.9l-.24-.34A2.5,2.5,0,0,0,6.25,5v.71H5V5a3.74,3.74,0,0,1,6.55-2.48l.32,0A3.13,3.13,0,0,1,15,5.63Z"/><rect class="cls-1" x="9.38" y="7.5" width="1.25" height="7.5"/><rect class="cls-1" x="7.5" y="14.38" width="5" height="1.25"/><path class="cls-1" d="M20,17.5H13.75v-5H20Zm-5-1.25h3.75v-2.5H15Z"/><rect class="cls-1" x="15.63" y="17.5" width="2.5" height="1.25"/><path class="cls-1" d="M6.25,17.5H0v-5H6.25Zm-5-1.25H5v-2.5H1.25Z"/><rect class="cls-1" x="1.88" y="17.5" width="2.5" height="1.25"/></svg>