<svg id="Layer_1" data-name="Layer 1" xmlns="http://www.w3.org/2000/svg" viewBox="0 0 20 20"><defs><style>.cls-1{fill:#455a64;}</style></defs><title>Artboard 4 copy 17</title><rect class="cls-1" x="4.32" y="14.94" width="4.32" height="1.23"/><path class="cls-1" d="M4.32,16.17A4.32,4.32,0,0,1,0,11.85H1.23a3.09,3.09,0,0,0,3.09,3.09Z"/><path class="cls-1" d="M1.23,11.85H0a4.31,4.31,0,0,1,2.78-4V7.22A5.24,5.24,0,0,1,12,3.88a3.93,3.93,0,0,1,.6,0,4.33,4.33,0,0,1,4.07,2.88l-1.16.41a3,3,0,0,0-3.62-2l-.41.1-.24-.34A4,4,0,0,0,4,7.22V8.76l-.46.12A3.08,3.08,0,0,0,1.23,11.85Z"/><path class="cls-1" d="M12.6,18H9.87V15.3l7.4-7.4L20,10.62Zm-1.49-1.23h1l6.17-6.17-1-1-6.17,6.17Z"/><rect class="cls-1" x="11.41" y="14.55" width="1.23" height="2.62" transform="translate(-7.69 13.15) rotate(-45)"/></svg>