<svg id="Layer_1" data-name="Layer 1" xmlns="http://www.w3.org/2000/svg" viewBox="0 0 20 20"><defs><style>.cls-1{fill:#455a64;}</style></defs><title>Artboard 4 copy 10</title><path class="cls-1" d="M10,13.64l.63.63v4.48H9.38V14.27l.63-.62Zm0-1.77L6.88,15H8.13v5h3.75V15h1.25L10,11.88Z"/><path class="cls-1" d="M16.88,1.77l.63.63V18.75H16.25V2.39l.63-.62Zm0-1.77L13.75,3.13H15V20h3.75V3.12H20L16.88,0Z"/><path class="cls-1" d="M3.13,8l.63.63V18.75H2.5V8.64L3.13,8Zm0-1.77L0,9.38H1.25V20H5V9.37H6.25L3.13,6.25Z"/></svg>