<svg id="Layer_1" data-name="Layer 1" xmlns="http://www.w3.org/2000/svg" viewBox="0 0 20 20"><defs><style>.cls-1{fill:#455a64;}</style></defs><title>Artboard 4 copy 11</title><path class="cls-1" d="M20,20H0V0H20ZM1.25,18.75h17.5V1.25H1.25Z"/><rect class="cls-1" x="0.63" y="2.5" width="18.75" height="1.25"/><path class="cls-1" d="M11.88,16.88H8.13V13.13h3.75Zm-2.5-1.25h1.25V14.38H9.38Z"/><path class="cls-1" d="M11.88,9.38H8.13V5.63h3.75ZM9.38,8.13h1.25V6.88H9.38Z"/><path class="cls-1" d="M16.88,16.88H13.13V13.13h3.75Zm-2.5-1.25h1.25V14.38H14.38Z"/><path class="cls-1" d="M6.88,16.88H3.13V13.13H6.88Zm-2.5-1.25H5.63V14.38H4.38Z"/><polygon class="cls-1" points="15.63 13.75 14.38 13.75 14.38 11.88 5.63 11.88 5.63 13.75 4.38 13.75 4.38 10.63 15.63 10.63 15.63 13.75"/><rect class="cls-1" x="9.38" y="9.38" width="1.25" height="4.38"/></svg>