<svg id="Layer_1" data-name="Layer 1" xmlns="http://www.w3.org/2000/svg" viewBox="0 0 20 20"><defs><style>.cls-1{fill:#455a64;}</style></defs><title>Artboard 4 copy 13</title><path class="cls-1" d="M8.75,20H1.88A1.88,1.88,0,0,1,0,18.13V14.38a1.87,1.87,0,0,1,.48-1.25A1.87,1.87,0,0,1,0,11.88V8.13A1.87,1.87,0,0,1,.48,6.88,1.87,1.87,0,0,1,0,5.63V1.88A1.88,1.88,0,0,1,1.88,0H15.63A1.88,1.88,0,0,1,17.5,1.88V5.63A1.87,1.87,0,0,1,17,6.88a1.87,1.87,0,0,1,.48,1.25v.63H16.25V8.13a.63.63,0,0,0-.62-.62V6.25a.63.63,0,0,0,.63-.62V1.88a.63.63,0,0,0-.62-.62H1.88a.63.63,0,0,0-.62.63V5.63a.63.63,0,0,0,.63.63V7.5a.63.63,0,0,0-.62.63v3.75a.63.63,0,0,0,.63.63v1.25a.63.63,0,0,0-.62.63v3.75a.63.63,0,0,0,.63.63H8.75Z"/><rect class="cls-1" x="1.88" y="6.25" width="13.75" height="1.25"/><rect class="cls-1" x="1.88" y="12.5" width="6.88" height="1.25"/><circle class="cls-1" cx="3.13" cy="3.75" r="0.63"/><circle class="cls-1" cx="3.13" cy="10" r="0.63"/><circle class="cls-1" cx="3.13" cy="16.25" r="0.63"/><path class="cls-1" d="M11.46,18.54A5,5,0,0,1,15,10v1.25a3.75,3.75,0,0,0-2.65,6.4Z"/><path class="cls-1" d="M16.12,12.88l-1-.76.61-.79a3.71,3.71,0,0,0-.74-.07V10a5,5,0,0,1,2,.43l.73.32Z"/><path class="cls-1" d="M15,20V18.75a3.75,3.75,0,0,0,2.65-6.4l.88-.88A5,5,0,0,1,15,20Z"/><path class="cls-1" d="M15,20a5,5,0,0,1-2-.43l-.73-.32,1.64-2.13,1,.76-.61.79a3.71,3.71,0,0,0,.74.07Z"/></svg>