<?xml version="1.0" encoding="utf-8"?>
<!-- Generator: Adobe Illustrator 23.0.3, SVG Export Plug-In . SVG Version: 6.00 Build 0)  -->
<svg version="1.1" xmlns="http://www.w3.org/2000/svg" xmlns:xlink="http://www.w3.org/1999/xlink" x="0px" y="0px"
	 viewBox="0 0 500 500" style="enable-background:new 0 0 500 500;" xml:space="preserve">
<style type="text/css">
	.st0{fill:#FFFFFF;}
	.st1{fill:none;stroke:#41B4E6;stroke-width:1.399;stroke-miterlimit:10;}
	.st2{fill:#A0EBFF;}
	.st3{fill:#B9D1F0;}
	.st4{fill:#E1FAFF;}
	.st5{fill:#73C8F0;}
	.st6{fill:#FA968C;}
	.st7{fill:#96DBBF;}
	.st8{fill:#FAB9AF;}
	.st9{fill:#695A6E;}
	.st10{fill:#0091C8;}
	.st11{fill:#5C4F61;}
	.st12{fill:#828291;}
	.st13{fill:#55C7A6;}
	.st14{fill:#CD5014;}
	.st15{fill:none;stroke:#82C8E6;stroke-width:2.2025;stroke-linecap:round;stroke-miterlimit:10;}
	.st16{fill:none;stroke:#FFFFFF;stroke-width:2.2025;stroke-linecap:round;stroke-miterlimit:10;}
	.st17{fill:#46738C;}
	.st18{fill:#3C5A73;}
	.st19{fill:#C8E6EB;}
	.st20{fill:#6C9BAA;}
	.st21{fill:#FF8291;}
	.st22{opacity:9.000000e-02;}
	.st23{fill:#965028;}
	.st24{fill:#FFDC64;}
	.st25{fill:#0073AA;}
	.st26{fill:#195FA0;}
	.st27{fill:#FAC855;}
	.st28{fill:#1E2D64;}
	.st29{fill:#6544AA;}
	.st30{fill:#57388C;}
	.st31{fill:#7450C8;}
	.st32{fill:#FA735F;}
	.st33{fill:#FFDCD7;}
	.st34{fill:#FFEBB4;}
	.st35{fill:#FFDC8C;}
	.st36{fill:#FFFAD7;}
	.st37{fill:none;stroke:#0091C8;stroke-width:1.1594;stroke-miterlimit:10;}
	.st38{fill:none;stroke:#C8E6EB;stroke-width:1.2729;stroke-miterlimit:10;}
	.st39{fill:none;stroke:#87AFB9;stroke-width:2.5459;stroke-miterlimit:10;}
	.st40{fill:#A5C8CD;}
	.st41{fill:#87AFB9;}
	.st42{fill:#DCBE82;}
	.st43{fill:#C8A06E;}
	.st44{fill:#E6CA93;}
	.st45{fill:#6EE1FF;}
</style>
<g id="BACKGROUND">
	<g>
		<rect class="st0" width="500" height="500"/>
		<g>
			<path class="st1" d="M369.4,165.4c-0.4,0-0.7,0-1.1,0c0.3-1.2,0.5-2.4,0.5-3.7c0-9.6-8.9-17.3-19.9-17.3
				c-10.8,0-19.6,7.6-19.8,16.9c-8.2,3.7-13.8,11.5-13.8,20.6c0,12.6,10.8,22.8,24.2,22.8c5.8,0,11.1-1.9,15.3-5.1
				c4,2.6,9.1,4.2,14.6,4.2c12.9,0,23.4-8.6,23.4-19.2C392.8,174,382.3,165.4,369.4,165.4z"/>
			<line class="st1" x1="354.7" y1="174.5" x2="354.7" y2="225"/>
			<polyline class="st1" points="331.5,182.1 354.7,193.4 373.8,182.7 			"/>
			<polyline class="st1" points="343.9,162 354.7,182.1 363.5,173.5 			"/>
		</g>
		<path class="st2" d="M365,200.9c-12.2-7.1-22.5-17.3-29.4-29.6c-17.2-30.5-55.5-51.8-100-51.8c-60.6,0-109.6,39.4-109.6,87.9
			c0,1.5,0,3,0.1,4.4c1.3,21.1-5.8,41.7-19.3,58c-6,7.3-9.5,15.6-9.5,24.4c0,28.1,34.6,50.9,77.2,50.9c14.6,0,28.2-2.7,39.9-7.3
			c17.6-7,36.9-7.9,54.9-2.1c11.5,3.7,24,5.7,37.1,5.7c54.6,0,98.8-34.9,98.8-77.9C405.2,237.9,389.4,215.1,365,200.9z"/>
		<rect x="62.8" y="369.3" class="st3" width="140.6" height="3.3"/>
		<rect x="104.8" y="372.5" class="st3" width="78" height="3.3"/>
		<rect x="324.4" y="370.2" class="st3" width="76.9" height="3.3"/>
		<g>
			<g>
				<path class="st1" d="M414.1,290.3c0,19.9-11.9,36-26.6,36c-14.7,0-26.6-16-26.7-35.9c0-19.9,26.5-50,26.5-50
					S414,270.5,414.1,290.3z"/>
				<line class="st1" x1="387.3" y1="240.4" x2="387.5" y2="341.9"/>
				<polyline class="st1" points="404.7,299.9 387.5,317.1 370.2,300 				"/>
				<polyline class="st1" points="405,282.7 387.5,300.3 369.9,282.8 				"/>
				<polyline class="st1" points="401.9,267.9 387.4,282.4 372.9,267.9 				"/>
				<polyline class="st1" points="394.7,257 387.4,264.4 380,257.1 				"/>
			</g>
			<rect x="369.7" y="341.5" class="st1" width="35.5" height="7.5"/>
			<polygon class="st1" points="397.6,369.8 378,369.8 373.3,349 401.5,349 			"/>
		</g>
	</g>
</g>
<g id="OBJECTS">
	<g>
		<g>
			<path class="st4" d="M239.7,27.2L88.3,49.5c-1.8,0.3-3,1.9-2.7,3.6l9.9,67.1c0.3,1.8,1.9,3,3.6,2.7l151.3-22.3
				c1.8-0.3,3-1.9,2.7-3.6l-9.9-67.1C243,28.2,241.4,27,239.7,27.2z"/>
			
				<rect x="101.3" y="60.1" transform="matrix(0.9893 -0.1458 0.1458 0.9893 -10.6306 18.2933)" class="st5" width="36.5" height="43.1"/>
			
				<rect x="146.7" y="52.4" transform="matrix(0.9893 -0.1458 0.1458 0.9893 -6.1124 25.4754)" class="st5" width="48.1" height="4.1"/>
			
				<rect x="148.5" y="63.2" transform="matrix(0.9893 -0.1458 0.1458 0.9893 -7.5282 27.7035)" class="st5" width="73.6" height="4.1"/>
			
				<rect x="150.3" y="75.8" transform="matrix(0.9893 -0.1458 0.1458 0.9893 -9.3505 28.1103)" class="st5" width="73.6" height="4.1"/>
			
				<rect x="152.2" y="88.4" transform="matrix(0.9893 -0.1458 0.1458 0.9893 -11.1726 28.5162)" class="st5" width="73.6" height="4.1"/>
		</g>
		<g>
			<path class="st6" d="M104.3,105.4c1,0.7,1.5,1.1,3.2-0.7c9.4-9.7,16.4-50.6,16.1-48.8c0.5-2.7,4.5-2.2,4.4,0.5
				c-3.4,87.3-35.5,67.9-51,33c-1.7-3.9,0-8.6,4-10.3c4.1-1.8,9,0.2,10.5,4.5C93.7,89.8,99.3,102,104.3,105.4z"/>
			<path class="st7" d="M100.4,99.8C100.4,99.8,100.4,99.8,100.4,99.8c-1.8-2.7-3.5-5.4-5-8.2c-1.5-2.7-3.1-5.8-4.1-8.4l-0.1-0.1
				c-0.1-0.2-0.2-0.4-0.3-0.6c-2-3.8-6.7-5.3-10.6-3.3c-3.8,2-5.3,6.7-3.3,10.6c1.9,3.6,3.7,6.5,5.8,9.6c1.4,2,2.9,4,4.5,6
				C88.5,104.1,97.7,100.8,100.4,99.8z"/>
			<path class="st8" d="M92.8,154.1c-6.8,7.8-46,11.1-46,11.1c-2.9-3.4,1.3-18.6,2.4-34.1c1.1-16.8,1.7-35.3,2-45.3
				c0.1-4.1,3.5-7.4,7.6-7.4h24.9c3.8,0,7,2.9,7.3,6.8c0.7,7.9,1.8,21.7,2.9,35.2C95.1,133.9,98.7,147.3,92.8,154.1z"/>
			<path class="st6" d="M70.1,284.4l0.1,15.4l-1.3,7.5c-0.2,1.3,0.7,2.5,2.1,2.5c6.3,0.2,22.5,0.6,22.9-0.1c2-3.3-7.2-4.6-13.9-7.2
				c-6.7-2.6-2.1-28.1-2.1-28.1L70.1,284.4z"/>
			<path class="st9" d="M80,302.6c0,0-0.1,0-0.1-0.1c-1.6,0.6-3.4,0.9-5.4,0.9c-1.7,0-3.3-0.3-4.7-0.7l-0.8,4.5
				c-0.2,1.3,0.7,2.5,2.1,2.5c6.3,0.2,22.5,0.6,22.9-0.1C95.9,306.5,86.7,305.3,80,302.6z"/>
			<path class="st10" d="M92.8,159.7c0.2,10.7-4,78.8-12.3,79c-8.3,0.2-17.6-67.5-17.9-78.3c-0.2-10.7,6.3-19.6,14.6-19.8
				C85.6,140.4,92.5,149,92.8,159.7z"/>
			<path class="st9" d="M69,224.5c-0.8,5.9-1,43.7,0.4,62.9h7.6c4.1-18.6,8.4-54.8,9.2-60.5c0-0.1,0-0.1,0-0.2
				c4.5-20.1,6.8-59.1,6.6-67c-0.2-10.7-7.2-19.3-15.5-19.1c-8.3,0.2-14.9,9-14.6,19.8C62.7,167.1,69.3,221.7,69,224.5z"/>
			<path class="st11" d="M82.5,176.6c2.8-3.6,6.2-6.9,9.9-9.6c0.1-0.1,0.1-0.1,0.2-0.2c0.1-3.2,0.2-5.7,0.1-7.1
				c-0.2-10.7-7.2-19.3-15.5-19.1c-8.3,0.2-14.9,9-14.6,19.8c0.1,3.5,1.9,19.7,3.5,34.9C70.9,188.6,76.6,182.5,82.5,176.6z"/>
			<path class="st6" d="M51.9,284.4l0.1,15.4l-1.3,7.5c-0.2,1.3,0.7,2.5,2.1,2.5c6.3,0.2,22.5,0.6,22.9-0.1c2-3.3-7.2-4.6-13.9-7.2
				c-6.7-2.6-2.1-28.1-2.1-28.1L51.9,284.4z"/>
			<path class="st9" d="M61.8,302.6c0,0-0.1,0-0.1-0.1c-1.6,0.6-3.4,0.9-5.4,0.9c-1.7,0-3.3-0.3-4.7-0.7l-0.8,4.5
				c-0.2,1.3,0.7,2.5,2.1,2.5c6.3,0.2,22.5,0.6,22.9-0.1C77.7,306.5,68.5,305.3,61.8,302.6z"/>
			<path class="st10" d="M74.6,159.7c0.2,10.7-4,78.8-12.3,79c-8.3,0.2-15.8-67.8-16.1-78.5c-0.2-10.7,4.5-19.3,12.8-19.5
				C67.4,140.4,74.3,149,74.6,159.7z"/>
			<path class="st12" d="M50.8,224.5c-0.8,5.9-1,43.7,0.4,62.9h7.6c4.1-18.6,8.4-54.8,9.2-60.5c0-0.1,0-0.1,0-0.2
				c4.5-20.1,8.6-59.3,8.4-67.3c-0.2-10.7-9-19-17.3-18.8c-8.3,0.2-13.1,8.8-12.8,19.5C46.3,166.9,51.1,221.7,50.8,224.5z"/>
			<path class="st13" d="M83.9,78.3h-4c-1.4,3.3-4.4,5.8-9,5.8c-4.6,0-7.6-2.5-9-5.8h-3.7c-3.8,0-6.9,3-7,6.8
				c-0.3,9.8-0.9,28.8-2,45.9c-1,15.5-5.3,29.9-2.4,34.1c0,0,39.2-3.3,46-11.1c5.9-6.7,2.3-20.1,1.1-33.8
				c-1.1-13.6-2.3-27.5-2.9-35.4C90.7,81.2,87.6,78.3,83.9,78.3z"/>
			<path class="st6" d="M130.3,52c0,0,0.2,5.5-1.7,6.5c-1.8,1-3.3,1.4-4.8-1.3c-1.6-2.6-2.5-7-2.5-9.7c0-0.9-0.2-1.9,0.4-3
				c1.2-2.1,3.1-2.4,3.5-2.3c1.6,0.2,2.2,1.5,0.5,1.7c-0.6,0.1-0.7,1.1-0.8,1.9c-0.1,2.4,0,5.1,1.2,4.9c1.2-0.3,3.1-5.8,4.5-5.4
				C132.5,46,130.3,52,130.3,52z"/>
			<path class="st8" d="M62.2,81.7c0.4,0.5,1.1,1.3,1.6,1.9c0.6,0.7,1.2,1.4,1.8,2.1C82.5,104.4,106,117.3,131,115
				c3.9-0.2,7.8-1,11.7-1.8l0.1,0c2.6-0.5,3.8,3.1,1.4,4.2c-35.8,16.6-75-1.3-94.4-26.2c-2.7-3.4-2-8.3,1.3-10.9
				c3.4-2.7,8.3-2,10.9,1.3L62.2,81.7z"/>
			<g>
				<path class="st7" d="M74.2,93.7C69,89,61.8,80.3,61.8,80.3s-3.2-3.7-9.7-1C47,81.5,48,87.6,48,87.6c0.1,0.9,3.3,9.6,15.2,18.5
					C63.2,106.2,75.1,94.5,74.2,93.7z"/>
			</g>
			<path class="st14" d="M69.8,69.3L66.5,70c-2,0.4-4-0.8-4.4-2.8l-2.7-12.3l6.9-1.5L69.8,69.3z"/>
			<g>
				<polygon class="st8" points="75.9,78.3 62.9,78.3 66.7,65.4 75.5,66.5 				"/>
			</g>
			<path class="st6" d="M75.5,66.5l-8.9-1.1l-1.7,6c2,2.2,4.9,5.7,8.2,5.7c1,0,2-0.3,2.8-0.8L75.5,66.5z"/>
			<path class="st8" d="M76.9,73.4L76.9,73.4C71,74.7,65.2,71,63.9,65.1l-2.6-11.8l18.1-4c0,0,2,9.2,2.1,15.7
				C81.6,69.9,79.9,72.7,76.9,73.4z"/>
			
				<rect x="61.5" y="57.7" transform="matrix(0.9762 -0.2171 0.2171 0.9762 -11.1838 15.1216)" class="st14" width="3.5" height="1.6"/>
			<path class="st8" d="M66.5,62.2c0.5,2.3-0.2,4.4-1.5,4.7c-1.4,0.3-3.5-2.4-4-4.7c-0.5-2.3,0.8-3.3,2.2-3.6
				C64.5,58.3,66,59.9,66.5,62.2z"/>
			<path class="st14" d="M81.8,53.9c0.1-1.6-0.2-3.1-0.7-4.6l0,0c-1.5-3.6-5.5-5.1-9.2-3.9c-0.4,0.1-0.8,0.2-1.2,0.3l-6.1,1.4
				c-3.7,0.8-6,4.5-5.2,8.1l0.3,1.4l3.6,2.1l1.5,2.6l0.2-0.1c1.2-0.3,1.9-1.4,1.7-2.5c-0.3-1.9,0.7-3.8,2.6-4.2l5.4-1.2
				c3.3-0.7,5.4,0.7,6,3.1l0.3,2.1L81.8,53.9z"/>
			<path class="st8" d="M148.8,111.4c0,0-6.5,0.5-7.1,2.5c-0.5,2-0.5,3.5,2.4,4.4c2.9,0.9,7.4,0.7,10,0c2.6-0.7,6.6-3.6,6.8-4.2
				c0.8-2.2-3.9-0.5-6.2,0.2c-2.3,0.7-5,1.3-5,0.1c0-1.2,4.5-2.2,4.9-3.6C155.2,109.4,148.8,111.4,148.8,111.4z"/>
			<g>
				<line class="st15" x1="64.5" y1="123.8" x2="1.5" y2="467.4"/>
				<line class="st15" x1="76" y1="467.4" x2="138.9" y2="123.8"/>
				<line class="st15" x1="133" y1="146" x2="60.2" y2="146"/>
				<line class="st15" x1="128.2" y1="179.4" x2="54.3" y2="179.4"/>
				<line class="st15" x1="121.4" y1="212.7" x2="48.3" y2="212.7"/>
				<line class="st15" x1="114.9" y1="246.1" x2="42.2" y2="246.1"/>
				<line class="st15" x1="109.7" y1="279.4" x2="36.1" y2="279.4"/>
				<line class="st15" x1="104.8" y1="312.2" x2="30.2" y2="312.2"/>
				<line class="st15" x1="97.4" y1="346.1" x2="24" y2="346.1"/>
				<line class="st15" x1="92.4" y1="379.4" x2="18.8" y2="379.4"/>
				<line class="st15" x1="85.1" y1="412.6" x2="11.5" y2="412.6"/>
			</g>
			<g>
				<line class="st16" x1="138.9" y1="123.8" x2="201.4" y2="468.3"/>
				<line class="st16" x1="126.9" y1="468.3" x2="64.5" y2="123.8"/>
				<line class="st16" x1="70.4" y1="146" x2="143" y2="146"/>
				<line class="st16" x1="75.2" y1="179.4" x2="149" y2="179.4"/>
				<line class="st16" x1="82" y1="212.7" x2="155.1" y2="212.7"/>
				<line class="st16" x1="88.5" y1="246.1" x2="161.2" y2="246.1"/>
				<line class="st16" x1="93.7" y1="279.4" x2="167.2" y2="279.4"/>
				<line class="st16" x1="98.6" y1="312.2" x2="173.2" y2="312.2"/>
				<line class="st16" x1="105.9" y1="346.1" x2="179.4" y2="346.1"/>
				<line class="st16" x1="111" y1="379.4" x2="184.6" y2="379.4"/>
				<line class="st16" x1="117.4" y1="412.6" x2="191" y2="412.6"/>
			</g>
			<path class="st14" d="M63.5,49.6c-0.4,3.4,11.7,7.6,14.9,8c3.2,0.4,6.1-2,6.5-5.4c0.4-3.4-1.8-6.4-5-6.8
				C76.7,45,63.9,46.2,63.5,49.6z"/>
		</g>
		<path class="st8" d="M474.7,352.3c0,0-4.4,2.2-6.8,1.4c-2.4-0.8-0.7-1.7-0.2-1.4c0.5,0.3,3.2-1,3.2-1S472.8,351.2,474.7,352.3z"/>
		<path class="st6" d="M177.4,234.8c0,0-0.6,6.4-2.6,6.9c-2,0.5-3.5,0.4-4.3-2.5c-0.8-2.9-0.5-7.3,0.2-9.9c0.7-2.6,3.7-6.4,4.3-6.6
			c2.2-0.7,0.4,3.8-0.3,6.1c-0.7,2.2-1.3,4.9-0.2,4.9c1.2,0,2.3-4.4,3.6-4.7C179.5,228.6,177.4,234.8,177.4,234.8z"/>
		<g>
			<path class="st17" d="M387.3,459.7V131.5c0-6.2-5.1-11.3-11.3-11.3H201.5c-6.2,0-11.3,5.1-11.3,11.3v328.2H387.3z"/>
			<path class="st18" d="M381,471.8H196.6c-3.5,0-6.4-2.9-6.4-6.4v-35.6h197.1v35.6C387.3,469,384.5,471.8,381,471.8z"/>
			<rect x="202.6" y="143.5" class="st19" width="172.4" height="286.4"/>
			<rect x="202.6" y="143.4" class="st18" width="172.4" height="18.8"/>
			<path class="st20" d="M301.1,450.9c0,6.8-5.5,12.4-12.4,12.4c-6.8,0-12.4-5.5-12.4-12.4c0-6.8,5.5-12.4,12.4-12.4
				C295.6,438.6,301.1,444.1,301.1,450.9z"/>
			<g>
				<rect x="214.4" y="151.8" class="st17" width="65.4" height="2.3"/>
			</g>
			<g>
				<rect x="364.6" y="150.6" class="st17" width="5.6" height="5.3"/>
			</g>
			<g>
				<rect x="353.3" y="150.6" class="st17" width="5.6" height="5.3"/>
			</g>
			<g>
				<rect x="342" y="150.6" class="st17" width="5.6" height="5.3"/>
			</g>
		</g>
		<rect x="347.5" y="187.3" class="st21" width="19.8" height="51.8"/>
		<rect x="330.6" y="187.3" class="st21" width="19.8" height="88.1"/>
		<path class="st22" d="M330.5,179.8h-153c-1.8,0-3.2,1.4-3.2,3.2v67.8c0,1.8,1.4,3.2,3.2,3.2h153c1.8,0,3.2-1.4,3.2-3.2V183
			C333.7,181.2,332.3,179.8,330.5,179.8z"/>
		<path class="st0" d="M330.5,177.5h-153c-1.8,0-3.2,1.4-3.2,3.2v67.8c0,1.8,1.4,3.2,3.2,3.2h153c1.8,0,3.2-1.4,3.2-3.2v-67.8
			C333.7,178.9,332.3,177.5,330.5,177.5z"/>
		<path class="st8" d="M486.7,456.2l0.1,0.9c0.1,2.1-0.5,6.9-1.7,8.6c1.8-0.2,8.6-1.3,11.9-11.2c-0.6-0.6-1.2-1.2-1.7-1.7
			c-0.6-0.6-1.5-1.2-2.4-1.6c-1.5-0.8-2.8-2-3.6-3.4l-7.8-13l-1.4,8.7l4.9,7.4C485.9,452.4,486.5,454.3,486.7,456.2z"/>
		<path class="st23" d="M489.4,470c1.4-0.5,8.8-12.4,8.8-12.4c0.5-0.6,0.4-1.5-0.2-2.1c-0.6-0.6-1.5-1.4-2.2-2.1
			c-1.8,6-5.8,12.5-10.9,12.1c-2.1-0.2-5.8,1.7-5.7,4.7C481.1,470.4,486.1,470.5,489.4,470z"/>
		<path class="st6" d="M151.5,272.1c10.6-3.1,20.5-33.4,19.9-31.6c0.9-2.5,4.7-1.5,4.2,1.1c-1.3,7-2.8,14.1-5.3,21.1
			c-4.8,14.2-15,25.2-29.3,19.6c-10.4-4.2-19.7-16.5-24.8-25.8c-2-3.7-0.6-8.4,3.1-10.4c3.9-2.1,8.9-0.5,10.7,3.7
			C133.2,257.3,143.4,274.7,151.5,272.1z"/>
		<path class="st24" d="M139.8,265.3c0,0-8.7-12.9-9.8-15.4l-0.1-0.1c-0.1-0.2-0.2-0.4-0.3-0.6c-2-3.8-6.6-5.2-10.4-3.2
			c-3.8,2-5.2,6.6-3.2,10.4c1.9,3.5,3.6,6.4,5.7,9.4c1.4,2,2.9,3.9,4.4,5.8C127.3,270.4,137.1,266.3,139.8,265.3z"/>
		<path class="st8" d="M131.5,319.5c-6.7,7.7-45.2,10.9-45.2,10.9c-2.8-3.3,1.3-18.3,2.3-33.5c1.1-16.5,1.7-34.6,2-44.5
			c0.1-4.1,3.4-7.3,7.5-7.3h24.5c3.8,0,6.9,2.9,7.2,6.6c0.6,7.8,1.8,21.3,2.9,34.5C133.7,299.7,137.2,312.8,131.5,319.5z"/>
		<path class="st6" d="M82.5,446.9l-4.8,15.8l-1.3,7.4c-0.2,1.3,0.7,2.5,2,2.5c6.2,0.2,22.1,0.6,22.5-0.1c2-3.2-7-4.5-13.6-7
			c-3.1-1.2,2.5-16.9,2.5-16.9c0.2-7-4.5-10.8-4.5-10.8L82.5,446.9z"/>
		<path class="st17" d="M87.3,465.4c0,0-0.1,0-0.1-0.1c-1.6,0.6-3.3,0.9-5.3,0.9c-1.7,0-3.3-0.2-4.7-0.7l-0.8,4.4
			c-0.2,1.3,0.7,2.5,2,2.5c6.2,0.2,22.1,0.6,22.5-0.1C102.9,469.2,93.9,468,87.3,465.4z"/>
		<path class="st25" d="M95.4,383c-2.2,5.8-10.7,44.3-13.6,64.2l7.7,1.7c8.3-18.1,20.7-53.9,22.8-59.6c0-0.1,0-0.1,0.1-0.2
			c9.1-19.4,20-58.7,21.6-66.8c2.1-11-3.1-21.2-11.6-22.9c-8.5-1.7-17.2,5.9-19.3,16.9C101.8,323.2,96.4,380.2,95.4,383z"/>
		<path class="st26" d="M116.7,340.1c4.5-4.4,9.8-8,15.5-10.5c0.8-3.3,1.4-5.8,1.7-7.3c2.1-11-3.1-21.2-11.6-22.9
			s-17.2,5.9-19.3,16.9c-0.6,3.2-2.1,17.3-3.7,31.8C105,344.8,110.9,342.5,116.7,340.1z"/>
		<path class="st6" d="M126.4,446.3l3.3,16.3l-1.3,7.4c-0.2,1.3,0.7,2.5,2,2.5c6.2,0.2,22.1,0.6,22.5-0.1c2-3.2-7-4.5-13.6-7
			c-6.1-6.3-6.1-23-6.1-23L126.4,446.3z"/>
		<path class="st17" d="M139.3,465.4c0,0-0.1,0-0.1-0.1c-1.6,0.6-3.3,0.9-5.3,0.9c-1.7,0-3.3-0.2-4.7-0.7l-0.8,4.4
			c-0.2,1.3,0.7,2.5,2,2.5c6.2,0.2,22.1,0.6,22.5-0.1C154.9,469.2,145.9,468,139.3,465.4z"/>
		<path class="st10" d="M109.3,391.1c0.9,5.8,11.2,41.5,17.7,59.2l7.2-2.1c-1.3-18.7-7.2-54-8-59.6c0-0.1,0-0.1,0-0.2
			c-1.3-20.2-8.3-58.3-10.6-65.7c-3.2-10-13.7-15.4-21.5-13c-7.8,2.5-9.9,11.9-6.7,21.9C89.2,338,108.8,388.4,109.3,391.1z"/>
		<path class="st27" d="M122.7,245h-4c-1.4,3.2-4.3,5.7-8.9,5.7c-4.6,0-7.5-2.5-8.9-5.7h-3.6c-3.7,0-6.7,2.9-6.8,6.6
			c-0.3,9.7-0.9,28.3-2,45.1c-1,15.2-5.2,29.4-2.3,33.5c0,0,40.7-2.7,48-9.6c2.4-2.3-0.6-21-1.7-34.4c-1.1-13.4-2.2-27-2.9-34.8
			C129.4,247.8,126.4,245,122.7,245z"/>
		<path class="st8" d="M157.2,264.9c17.2-7.8,19.7-16,22.6-12.4c0.7,0.8,0.7,2,0,2.8c-31.9,39.9-71.9,28.6-90.8,2.1
			c-5.8-8.2,6.4-17.2,12.5-8.9C116.6,269.2,137.5,273.7,157.2,264.9z"/>
		<g>
			<path class="st24" d="M113.2,260c-5.1-4.6-12.1-13-12.1-13s-3.1-3.7-9.5-1c-5.1,2.1-4.1,8.2-4.1,8.2c0.1,0.8,3.4,9.1,15.2,17.9
				C102.7,272.1,114.1,260.7,113.2,260z"/>
		</g>
		<path class="st28" d="M108.8,236.1l-3.2,0.7c-2,0.4-3.9-0.8-4.4-2.8L98.6,222l6.8-1.5L108.8,236.1z"/>
		<g>
			<polygon class="st8" points="114.9,245 102.1,245 105.8,232.3 114.5,233.4 			"/>
		</g>
		<path class="st6" d="M114.5,233.4l-8.7-1.1l-1.7,5.9c2,2.2,4.8,5.6,8,5.6c1,0,1.9-0.3,2.7-0.8L114.5,233.4z"/>
		<path class="st8" d="M115.8,240.1L115.8,240.1c-5.7,1.3-11.4-2.3-12.7-8.1l-2.6-11.6l17.8-4c0,0,2,9,2.1,15.4
			C120.5,236.7,118.8,239.5,115.8,240.1z"/>
		
			<rect x="100.7" y="224.7" transform="matrix(0.9762 -0.2171 0.2171 0.9762 -46.5142 27.6146)" class="st28" width="3.4" height="1.6"/>
		<path class="st8" d="M105.7,229.2c0.5,2.3-0.2,4.3-1.5,4.6c-1.3,0.3-3.5-2.3-4-4.6c-0.5-2.3,0.8-3.3,2.1-3.6
			C103.7,225.3,105.2,226.9,105.7,229.2z"/>
		<path class="st28" d="M120.7,221c0.1-1.5-0.2-3.1-0.7-4.5l0,0c-1.4-3.5-5.4-5.1-9-3.8c-0.4,0.1-0.8,0.2-1.2,0.3l-6,1.3
			c-3.6,0.8-5.9,4.4-5.1,8l0.3,1.4l3.6,2.1l1.5,2.5l0.2-0.1c1.1-0.3,1.9-1.4,1.7-2.5c-0.3-1.9,0.6-3.7,2.5-4.2l5.3-1.2
			c3.3-0.7,5.3,0.6,5.9,3.1l0.3,2.1L120.7,221z"/>
		<path class="st28" d="M102.7,216.8c-0.4,3.3,11.5,7.5,14.6,7.9c3.1,0.4,6-2,6.4-5.3c0.4-3.3-1.8-6.3-4.9-6.7
			C115.6,212.3,103.1,213.5,102.7,216.8z"/>
		<path class="st0" d="M419.3,220.1c0,0,2,4.5,0.5,9.2c-1.5,4.6-0.6,10.3,3.3,14.5c0,0,0.7-6.5,2-9.7
			C426.5,231,425.6,221.8,419.3,220.1z"/>
		<path class="st0" d="M429.4,218.1c0,0-6.9,4.3-6.1,10.2c0,0-3.7-2.6-4.5-11.6C418.2,210.5,429.4,218.1,429.4,218.1z"/>
		<path class="st0" d="M467.1,245.4c-3.4-1.5-6.3-4.1-7.7-7.6c-2.2-5.7-6.3-10.1-11.4-12.3c-2.5-1.1-4.2-3.5-4.2-6.2l0,0H437v5.2
			c-9.4,2.1-16.4,11.7-16.4,23.2c0,12.6,8.5,22.8,19.2,23.5c1.5,11.3,9.9,20,20.1,20c11.2,0,20.3-10.6,20.3-23.6
			C480.2,257.3,474.8,248.8,467.1,245.4z"/>
		<path class="st8" d="M424.2,265.2c-12.7,22.2-39.7,11.5-60.7-4.5c-2.1-1.6-0.1-4.8,2.2-3.7c19,9,45.4,17.4,47.2-3.4
			c0-0.2,0-0.5,0-0.4C413.8,241.6,436.5,243.9,424.2,265.2z"/>
		<path class="st8" d="M412.1,318.9c6.6,7.5,44.4,10.7,44.4,10.7c2.8-3.2-10.2-40.2-10.2-40.2s6.3-26.7,6-36.3
			c-0.1-4-3.4-7.1-7.3-7.1h-24c-3.7,0-6.8,2.8-7.1,6.5c-0.6,7.6,9.3,36.1,9.3,36.1S406.5,312.4,412.1,318.9z"/>
		<path class="st6" d="M434.4,468.2c4.6-0.1,6.7-0.9,9.1-2l-0.9-5.2c-0.1-0.4-0.1-0.8-0.1-1.2L443,447c0.1-1.8-0.8-3.6-2.3-4.6l0,0
			c-1.8-1.2-4.3,0.2-4.2,2.4c0.4,6.6,0.4,16.9-3.5,18.2c-1.1,0.4-8.2,2.8-9.4,3.1C426.4,467.3,431.9,468.3,434.4,468.2z"/>
		<path class="st23" d="M432.8,466.7c-2.8,0-5.5-0.3-8.1-0.7c-0.4-0.1-0.7,0-1.1,0.1c-3,1-5,2.2-4,3.8c0.4,0.7,16,0.3,22.1,0.2
			c1.3,0,2.2-1.2,2-2.4l-0.4-2.3C439.8,466.2,436.3,466.7,432.8,466.7z"/>
		<path class="st8" d="M444.5,396.3c4.5,6.5,41,56.5,42.8,54.5c1.6-1.7-24.5-57.5-29-64c-4.5-6.5-11.5-7.7-15.3-5.1
			C439.1,384.3,440,389.8,444.5,396.3z"/>
		<path class="st6" d="M425.5,394.1c0.9,5.2,7.6,33.5,12.1,51.7c2.3,9.2,3.3,16,4.1,15.6c2.2-0.9,1.6-62.5,0.2-70.3
			c-1.4-7.8-6.2-13.4-10.7-12.6C426.7,379.4,424.1,386.3,425.5,394.1z"/>
		<path class="st6" d="M412.8,325.3c0.6,10.3,9.9,75.4,17.9,74.9c8-0.5,11.7-66.2,11.1-76.6s-7.6-18.3-15.6-17.9
			C418.3,306.2,412.3,315,412.8,325.3z"/>
		<path class="st29" d="M436.6,447.1c0.8,0.6,5.7,0.7,6.6,0c0.5-18.9-0.3-50.4-1.3-55.9c-0.1-0.6-0.2-1.2-0.4-1.7
			c-1.9-7.7-3-15.6-2.1-23.5c1.9-17.9,2.7-37.2,2.4-42.4c-0.6-10.3-7.6-18.3-15.6-17.9c-8,0.5-13.7,8.3-13.7,18.7
			C412.5,349.4,436.5,446.7,436.6,447.1z"/>
		<path class="st30" d="M427.8,341c4.4,6.8,8.5,13.8,12.1,21.1c1.6-16.7,2.3-33.6,2-38.4c-0.6-10.3-7.6-18.3-15.6-17.9
			c-8,0.5-13.7,8.3-13.7,18.7c0,0.9,0,1.9,0.1,2.9c5.4,3.2,10,7.5,13.7,12.5C426.9,340,427.4,340.4,427.8,341z"/>
		<path class="st8" d="M425.2,322.8c0.2,10.3,11.8,69.2,19.8,69.1c8-0.1,10.9-59.5,10.7-69.8c-0.2-10.3-8.3-18.4-16.3-18.2
			C431.4,304,425,312.5,425.2,322.8z"/>
		<path class="st31" d="M485.9,441.5c-6.6-16.3-24.2-49.7-27.6-54.8c-2.2-3.2-2.4-57.1-2.5-64.7c-0.2-10.3-8.3-18.4-16.3-18.2
			c-8,0.1-15.5,8.4-15.4,18.8c0.1,8.5,8.4,53.8,20.5,73.6c3.2,5.2,25.9,36.2,36.8,49.2C482.6,445.1,485.1,443.3,485.9,441.5z"/>
		<path class="st32" d="M446.3,289.3c0,0,6.2-27.5,6-36.9c-0.1-3.6-3.1-6.5-6.7-6.5H442c-1.4,3.1-4.2,5.6-8.7,5.6
			c-4.5,0-7.3-2.4-8.7-5.6h-3.3c3.6,7.8-5.8,9.5-3.9,24c2.7,9.4,5.8,18.6,5.8,18.6s-16.7,23.9-11,30.4c6.6,7.5,44.4,10.7,44.4,10.7
			C459.3,325.4,446.3,289.3,446.3,289.3z"/>
		<g>
			<polygon class="st8" points="429.4,247.5 440.3,246.4 436.8,234.5 429.8,235.3 			"/>
		</g>
		<path class="st6" d="M429.8,235.3l7-0.9l1.1,3.7c-1.6,1.8-3.6,5.6-6.2,5.6c-0.8,0-1.6-0.2-2.2-0.7L429.8,235.3z"/>
		<path class="st8" d="M429.5,241.1c2.4,0,5-1.2,8.5-4.3c2-1.8,3.6-4.9,3.6-7v-11.6h-17.9c0,0-1.3,6.2,0,12.3
			C424.7,235,427.7,241.1,429.5,241.1z"/>
		
			<rect x="439.2" y="222.6" transform="matrix(-1 -1.224647e-16 1.224647e-16 -1 881.8162 446.7264)" class="st0" width="3.4" height="1.5"/>
		<path class="st8" d="M438.6,227.6c0,2.3,1.1,4.1,2.4,4.1c1.3,0,2.8-3,2.8-5.2s-1.5-3-2.8-3C439.7,223.5,438.6,225.3,438.6,227.6z"
			/>
		<path class="st0" d="M437.3,213l-6,0c-1.6,0-3.2-0.4-4.7-1.2c-2.3-1.2-5.2-0.9-6.6,1.3c-1.5,2.1-2,4.9,1.9,7.4
			c2,1.3,4.9-0.1,6.8,0.5c0.1,0,0.2,0,0.3,0h5.4c1.9,0,3.2,1.6,3.3,3.4c0.1,1.1,1,2,2.2,2h0.2l0.9-2.7l3-2.7v-1.4
			C443.8,215.9,440.9,213,437.3,213z"/>
		<path class="st8" d="M358.9,254.8c0,0,2.3,5.9,4.4,5.7c2-0.1,3.4-0.6,3.3-3.5c-0.1-3-1.6-7-3-9.2c-1.4-2.2-5.3-5-5.9-5
			c-2.2-0.1,0.7,3.7,2,5.6c1.3,1.9,2.6,4.2,1.6,4.6c-1.1,0.4-3.4-3.4-4.8-3.4S358.9,254.8,358.9,254.8z"/>
		<path class="st0" d="M424.6,219.4c1.1,2.4,0.6,4,9.1,6c8.5,2,10.6-0.3,13.9,3.4c0,0-2.6-6.8-7.3-8.1c-4.7-1.4-12.4-1.1-16-6.1
			C424.3,214.6,423.9,217.8,424.6,219.4z"/>
		<path class="st8" d="M455.3,249.6c9.2,16.1,18.6,49.2,18,89.1c0,1.2-1,2.1-2.2,2.1c-1,0-1.9-0.7-2.1-1.8
			c-11.4-57.1-26.7-82-26.7-82C437.4,248.4,450.5,241,455.3,249.6z"/>
		<path class="st8" d="M182.6,249.3c0,0-6.3,1.5-6.5,3.5c-0.2,2.1,0.1,3.5,3,3.9c3,0.4,7.3-0.5,9.7-1.5c2.5-1,5.8-4.5,6-5.2
			c0.4-2.2-3.8,0.1-6,1.2c-2.1,1-4.6,2-4.8,0.9c-0.2-1.2,4-2.9,4.2-4.3C188.4,246.3,182.6,249.3,182.6,249.3z"/>
		<path class="st28" d="M120.4,230.5c0,1.1-0.1,2-0.2,2.9c-0.3,1.7-2.2,2.4-3.6,1.5c-0.6-0.4-1.2-0.5-1.8-0.4
			c-0.6,0.1-1.1,0.5-1.4,1.1c-1.3,2-4.1,2.2-5.8,0.6c-0.5-0.4-1-0.9-1.4-1.5c-0.6-0.8-1.6-1.2-2.6-1l-0.1,0l1.5,7.1
			c1.3,5.7,6.7,9.4,12.1,8.2c2.7-0.6,4.3-3.3,4.2-8.1C121.3,235.4,120.9,232.4,120.4,230.5z"/>
		<path class="st6" d="M178.1,229c-1.4,0.4-2.5,4.8-3.6,4.7c-0.7,0-0.8-0.9-0.6-2.1c-1,1.6-2.3,3-3.8,4.2c0,1.2,0.2,2.4,0.5,3.4
			c0.8,2.9,2.2,3,4.3,2.5c2-0.5,2.6-6.9,2.6-6.9S179.5,228.6,178.1,229z"/>
		<rect x="185.5" y="192.3" class="st33" width="36.5" height="43.1"/>
		<rect x="234.4" y="192.3" class="st33" width="48.1" height="4.1"/>
		<rect x="234.4" y="205.1" class="st33" width="73.6" height="4.1"/>
		<rect x="234.4" y="217.9" class="st33" width="73.6" height="4.1"/>
		<rect x="234.4" y="230.7" class="st33" width="73.6" height="4.1"/>
		<g>
			<rect x="455.8" y="362.3" class="st34" width="29" height="36.9"/>
			<rect x="455.8" y="362.3" class="st35" width="29" height="8.6"/>
			<path class="st36" d="M487.3,368.1h-34V364c0-0.9,0.7-1.7,1.7-1.7h30.7c0.9,0,1.7,0.7,1.7,1.7V368.1z"/>
			<path class="st37" d="M457.8,362.3c0-6.7,5.4-12.1,12.1-12.1s12.1,5.4,12.1,12.1"/>
			<path class="st21" d="M478.3,380.7L478.3,380.7c-1.4,0-2.5-1.1-2.5-2.5v-16h4.9v16C480.8,379.6,479.7,380.7,478.3,380.7z"/>
			<path class="st21" d="M474,370L474,370c-1,0-1.8-0.8-1.8-1.8v-5.9h3.7v5.9C475.8,369.2,475,370,474,370z"/>
		</g>
		<path class="st8" d="M467.6,352.7c1.3-0.5,2.1-4.9,3.2-4.9c0.6,0,0.8,0.6,0.7,1.5c0,0,2,0.4,3.5,0.9c0.3-2.6,0.1-5.7-0.7-8.1
			c-1-2.8-2.4-2.7-4.3-2.1c-1.9,0.6-2,6.9-2,6.9S466.3,353.1,467.6,352.7z"/>
		<g>
			<path class="st38" d="M340.3,214.4h34.5c2.9,0,5.2,2.3,5.2,5.2v4.3c0,2.9-2.3,5.2-5.2,5.2H365c-2.8,0-5,2.2-5,5v21.1"/>
			<path class="st8" d="M375,221.6h-30c-0.7,0-1.2-0.5-1.2-1.2v-12c0-0.7,0.5-1.2,1.2-1.2h30c0.7,0,1.2,0.5,1.2,1.2v12
				C376.2,221,375.6,221.6,375,221.6z"/>
			<line class="st39" x1="360" y1="239.9" x2="360" y2="256"/>
		</g>
		<path class="st8" d="M357.5,249.9c0,0,5.6,2.2,5.8,4.1c0.1,1.9-3.3,3.1-3.3,3.1S355.8,252.3,357.5,249.9z"/>
		<rect x="218.4" y="291" class="st40" width="140.8" height="22.9"/>
		<rect x="218.4" y="324.5" class="st41" width="140.8" height="22.9"/>
		<rect x="218.4" y="357.9" class="st40" width="140.8" height="22.9"/>
		<rect x="218.4" y="391.3" class="st41" width="140.8" height="22.9"/>
		<rect x="331.4" y="414.2" class="st42" width="85" height="57.6"/>
		
			<rect x="314.2" y="414.2" transform="matrix(-1 -1.224647e-16 1.224647e-16 -1 645.5499 886.0064)" class="st43" width="17.2" height="57.6"/>
		<rect x="331.4" y="414.2" class="st44" width="86.1" height="8.2"/>
		
			<rect x="312.7" y="414.2" transform="matrix(-1 -1.224647e-16 1.224647e-16 -1 644.0968 836.5869)" class="st42" width="18.7" height="8.2"/>
		<rect x="325.7" y="409.6" class="st4" width="85.2" height="4.6"/>
		<rect x="322.8" y="405" class="st2" width="85.2" height="4.6"/>
		<rect x="322" y="395.9" class="st2" width="85.2" height="4.6"/>
		<rect x="326.6" y="391.3" class="st45" width="85.2" height="4.6"/>
		<rect x="329" y="400.5" class="st4" width="85.2" height="4.6"/>
	</g>
</g>
<g id="DESIGNED_BY_FREEPIK">
</g>
</svg>
