<?xml version="1.0" encoding="utf-8"?>
<!-- Generator: Adobe Illustrator 23.0.3, SVG Export Plug-In . SVG Version: 6.00 Build 0)  -->
<svg version="1.1" xmlns="http://www.w3.org/2000/svg" xmlns:xlink="http://www.w3.org/1999/xlink" x="0px" y="0px"
	 viewBox="0 0 500 500" style="enable-background:new 0 0 500 500;" xml:space="preserve">
<style type="text/css">
	.st0{fill:#BECCFD;}
	.st1{fill:#FFFFFF;}
	.st2{fill:none;}
	.st3{fill:#9FB5F4;}
	.st4{fill:#A4B5FD;}
	.st5{fill:#5B79C4;}
	.st6{fill:#E5B3CD;}
	.st7{fill:#DFE5FF;}
	.st8{fill:#2A2B7D;}
	.st9{fill:#1A1947;}
	.st10{fill:none;stroke:#FFFFFF;stroke-width:0.7063;stroke-miterlimit:10;}
	.st11{fill:none;stroke:#FFFFFF;stroke-width:0.5935;stroke-miterlimit:10;}
	.st12{fill:none;stroke:#FFFFFF;stroke-width:0.4739;stroke-miterlimit:10;}
	.st13{fill:#FFD258;}
	.st14{fill:#FFB936;}
	.st15{fill:#64B5F6;}
	.st16{fill:#2C417C;}
	.st17{fill:#CE4B59;}
	.st18{fill:#FDD540;}
	.st19{fill:#F3A9B8;}
	.st20{fill:#E87D91;}
	.st21{fill:none;stroke:#1A1947;stroke-width:9.442900e-02;stroke-miterlimit:10;}
	.st22{fill:none;stroke:#1A1947;stroke-width:0.1046;stroke-miterlimit:10;}
	.st23{fill:none;stroke:#1A1947;stroke-width:9.364400e-02;stroke-miterlimit:10;}
	.st24{fill:#F990A1;}
	.st25{fill:none;stroke:#1A1947;stroke-width:0.1044;stroke-miterlimit:10;}
</style>
<g id="BACKGROUND">
</g>
<g id="DESIGNED_BY_FREEPIK">
	<g>
		<g>
			<path class="st0" d="M472.3,290l-71.7,91.9l-2,5.3l2.3,0.8c0,0,0.2-0.4,0.6-1.1l0.1,0.1C401.5,387,484.8,302.8,472.3,290z"/>
			<path class="st0" d="M391.3,386.1l3.7,0.6l19.6-118.2C397.3,272.5,391.3,386.1,391.3,386.1z"/>
			<path class="st0" d="M414.4,323.1c6.6-27.2,10.5-53.2,1.8-54.7c-0.4-0.1-0.9-0.1-1.3,0l-19.6,118.3l0.5,0.1l0.8-0.4l0.1,0
				l3.7-4.7l45-117.8C436.4,262,424.3,292.2,414.4,323.1z"/>
			<path class="st0" d="M471.8,289.5c-8.2-5.9-28.7,21.5-46,48.4c15.2-32.8,29.9-70.3,20.1-73.8c-0.1,0-0.1,0-0.2,0L401,380.8
				l71-91.1C472,289.7,471.9,289.6,471.8,289.5z"/>
			<path class="st1" d="M414.6,268.5L395,386.7l0.3,0.1l19.6-118.3C414.8,268.5,414.7,268.5,414.6,268.5z"/>
			<path class="st1" d="M445.3,263.9l-45,117.8l0.7-0.9L445.6,264C445.5,264,445.4,263.9,445.3,263.9z"/>
			<path class="st1" d="M472.1,289.7l-71,91.1l-0.4,1.1l71.7-91.9C472.2,289.9,472.1,289.8,472.1,289.7z"/>
		</g>
		<g>
			<path class="st1" d="M481.2,351.6c0-0.5-0.2-1-0.5-1.4c-4-5.5-23,7.7-39.9,21.2c16.3-17.4,33.4-37.7,29-42.7L413.5,394
				L481.2,351.6z"/>
			<path class="st1" d="M469.6,328.4C469.6,328.3,469.6,328.3,469.6,328.4c-5.1-4.1-19.6,13.1-32.8,31.1
				c10.1-16,18.1-31.8,12.8-34.7c0,0-0.1,0-0.1,0L413,394L469.6,328.4z"/>
			<polygon class="st1" points="410.8,396.1 411.1,396.3 411.8,395.5 			"/>
			<path class="st1" d="M449.2,324.6c-11.5-4.1-40.7,70.2-40.7,70.2l1.9,1l1.8-1.1L449.2,324.6z"/>
			<path class="st1" d="M412.8,394.8l-0.4,0.5l-0.5,0.9l2.4,1.9c0,0,0.2-0.2,0.6-0.6l0,0.1c0,0,65.9-33.4,66.4-45.7L412.8,394.8z"/>
			<path class="st0" d="M412.8,394.8l68.5-42.9c0-0.1,0-0.3,0-0.4L413.5,394l56.4-65.4c-0.1-0.1-0.2-0.2-0.2-0.2L413,394l36.5-69.2
				c-0.1-0.1-0.2-0.1-0.3-0.1l-37,70.1l-1.8,1.1l0.3,0.2l1-0.6l-0.7,0.8l0.1,0.1l0.6-0.1l0,0l0.5-0.9L412.8,394.8z"/>
		</g>
		<g>
			<path class="st0" d="M62.1,341.2l34.3,83.5l2.3-0.9C98.7,423.8,75.3,338.1,62.1,341.2z"/>
			<path class="st0" d="M61.6,341.4c-6.1,2.5,0.8,20.9,10,39.8c-12.4-21.4-26.3-42-32.3-38.5l56.5,82.1l0.2-0.1l-34.3-83.5
				C61.7,341.4,61.7,341.4,61.6,341.4z"/>
			<path class="st0" d="M91.3,426L91.3,426c0.4,0.4,0.7,0.7,0.7,0.7l2.3-1.4l-70.5-58.9C17.8,378.2,91.3,426,91.3,426z"/>
			<path class="st0" d="M65.7,393.8c-17-17-36.4-33.8-41.5-28.2c-0.1,0.1-0.2,0.3-0.3,0.4l70.6,59.1l0.3-0.2l0.6,0.2l0,0L39.1,343
				C33,347.5,49.6,372.4,65.7,393.8z"/>
			<polygon class="st1" points="23.9,366 23.8,366.3 94.2,425.3 94.6,425.1 			"/>
			<path class="st1" d="M39.2,342.8c-0.1,0-0.1,0.1-0.2,0.1L95.5,425l0.3-0.1L39.2,342.8C39.3,342.8,39.3,342.8,39.2,342.8z"/>
			<path class="st1" d="M61.8,341.3L96,424.8l0.3-0.1l-34.3-83.5C62,341.3,61.9,341.3,61.8,341.3z"/>
		</g>
		<g>
			<path class="st1" d="M34.5,272.9c-21.3,9.8,62.1,135.7,62.1,135.7l0.1,0c0.3,1,0.4,1.5,0.4,1.5l4-0.6L35.3,272.7
				C35,272.7,34.7,272.8,34.5,272.9z"/>
			<path class="st1" d="M78.9,342.9c-14.2-35.7-31.9-72.8-43.4-70.4l65.9,136.8l1.2-0.2l0.9,0.7l0.8,0L72.2,248.2
				C59.5,250.2,68.4,299.3,78.9,342.9z"/>
			<path class="st1" d="M107.2,260.7c-11-0.3-12.4,32.3-10.9,67c-4.7-40.5-12.2-80.6-23.7-79.6l32.2,161.7l1.2,0l1.4-149.2
				C107.3,260.7,107.3,260.7,107.2,260.7z"/>
			<path class="st1" d="M107.8,260.8l-1.4,149.1l3,0.1C109.3,410,130.2,263.9,107.8,260.8z"/>
			<path class="st0" d="M72.2,248.2C72.2,248.2,72.2,248.2,72.2,248.2l32.2,161.7l0.4,0L72.5,248.2
				C72.4,248.2,72.3,248.2,72.2,248.2z"/>
			<path class="st0" d="M35.3,272.7l65.9,136.7l0.4-0.1L35.6,272.6C35.5,272.6,35.4,272.6,35.3,272.7z"/>
			<path class="st0" d="M107.4,260.7L106,409.9l0.3,0l1.4-149.1C107.6,260.8,107.5,260.7,107.4,260.7z"/>
		</g>
		<g>
			<polygon class="st2" points="131.5,457.4 131.6,457.4 149.6,438.7 131.5,457.4 			"/>
			<path class="st3" d="M60.1,432.7H14.6c5.3,13,13.1,24.7,18.1,30.4h47.2L60.1,432.7z"/>
			<path class="st3" d="M38,398.8L9.9,397c-3,10.6-0.2,23.5,4.5,35.3h45.3L38,398.8z"/>
			<path class="st3" d="M134.1,463.1h20.6c-0.5-3-2.2-12.5-5.1-24.4l-18,18.7L134.1,463.1z"/>
			<path class="st3" d="M79.7,342.5c-13.6,2-18.7,9.9-19.2,19.9l29,2.1L79.7,342.5z"/>
			<polygon class="st3" points="131,457 123.3,439.7 95.9,439.7 110.3,463.1 133.8,463.1 131,457 			"/>
			<polygon class="st3" points="131.5,457.4 131.5,457.4 131.5,457.5 			"/>
			<path class="st3" d="M131.4,457l18.1-18.7c-3.3-13.6-8.3-30.9-15.1-47.1l-20.6,26.4L131.4,457z"/>
			<polygon class="st3" points="70.8,448.5 80.3,463.1 109.9,463.1 85.7,423.6 			"/>
			<path class="st3" d="M113.6,417.3l20.6-26.5c-5.4-12.6-11.9-24.6-19.7-33.5l-16.2,25.8L113.6,417.3z"/>
			<path class="st3" d="M89.7,364.8l-29.2-2.1c-0.3,10,3.9,22.1,8.8,32.5l34.6,1.2L89.7,364.8z"/>
			<path class="st3" d="M114.3,357.1c-8.7-9.8-18.9-15.9-30.8-15.1c-1.2,0.1-2.3,0.2-3.4,0.3l18.1,40.4L114.3,357.1z"/>
			<path class="st3" d="M70.6,448.2l14.9-24.9l-15-24.5c-3.9-5.2-8.6-10.4-14-14.4L48.3,414L70.6,448.2z"/>
			<path class="st3" d="M123.1,439.3L104,396.7l-34.6-1.2c0.7,1.5,1.5,3,2.2,4.5l24.1,39.3H123.1z"/>
			<path class="st3" d="M56.2,384.2c-8.8-6.6-19.2-9.9-30.5-4.8l22.3,34.3L56.2,384.2z"/>
			<path class="st3" d="M25.4,379.5c-0.6,0.3-1.1,0.5-1.7,0.8c-7.5,4-11.7,9.7-13.7,16.3l27.8,1.8L25.4,379.5z"/>
			<polygon class="st4" points="134.1,463.1 131.6,457.4 131.5,457.4 134.1,463.1 			"/>
			<polygon class="st4" points="134.1,463.1 134.3,463.4 134.3,463.4 134.1,463.1 			"/>
			<path class="st5" d="M79.8,463.1h0.4l-9.5-14.5l14.9-24.9l24.2,39.5h0.4l-14.3-23.4h27.3l8.2,17.8l18.1-18.8l-0.1-0.4L131.4,457
				l-17.6-39.4l20.6-26.4c-0.1-0.1-0.1-0.2-0.2-0.4l-20.6,26.5l-15.3-34.1l16.2-25.8c-0.1-0.1-0.2-0.2-0.2-0.3l-16.1,25.7
				l-18.1-40.4c-0.1,0-0.2,0-0.3,0.1l9.8,21.9l-29-2.1c0,0.1,0,0.2,0,0.3l29.2,2.1l14.2,31.6l-34.6-1.2c0.1,0.1,0.1,0.2,0.2,0.3
				l34.6,1.2l19.1,42.6H95.7L71.6,400c0.2,0.4,0.4,0.7,0.5,1.1c-0.5-0.8-1.1-1.5-1.7-2.3l15,24.5l-14.9,24.9L48.3,414l8.2-29.6
				c-0.1-0.1-0.2-0.2-0.3-0.2l-8.2,29.5l-22.3-34.3c-0.1,0-0.2,0.1-0.3,0.1l12.4,19L10,396.6c0,0.1-0.1,0.2-0.1,0.3l28.1,1.9
				l21.8,33.5H14.5c0,0.1,0.1,0.2,0.1,0.3h45.4L79.8,463.1z"/>
			<polygon class="st4" points="134.1,463.1 134.1,463.1 131.6,457.4 			"/>
			<polygon class="st4" points="134.3,463.4 134.3,463.4 134.1,463.1 134.1,463.1 			"/>
			<polygon class="st4" points="133.8,463.1 133.9,463.4 134.3,463.4 134.1,463.1 			"/>
			<polygon class="st4" points="131.5,457.4 131.5,457.5 131.5,457.4 123.3,439.7 131,457 131,457 133.8,463.1 134.1,463.1 			"/>
		</g>
		<g>
			<polygon class="st2" points="414.3,333.6 414.3,333.9 414.4,333.9 414.6,333.6 			"/>
			<polygon class="st3" points="387.4,434 402.5,454.9 421.5,431.1 405.8,408.5 			"/>
			<path class="st3" d="M378.5,422.3l18-1.5l19.4-26.8c-1.3,1.5-2.7,3.1-4.1,4.7c2.5-3,4.8-6.2,6.9-9.3l-29.2,5.5L378.5,422.3z"/>
			<path class="st3" d="M456.3,387.4l-11.6-18.9c-6.2,3.6-13.3,9.2-21.3,17.4l14.5,24.6L456.3,387.4z"/>
			<path class="st3" d="M421.7,430.9l16-20.1l-14.5-24.6c-1.7,1.7-3.4,3.6-5.2,5.5l-12,16.6L421.7,430.9z"/>
			<path class="st3" d="M481.9,381.5c-0.9-5.4-3.7-11.4-8.6-15l-9.9,12.4L481.9,381.5z"/>
			<path class="st3" d="M482,381.9l-18.8-2.6L447,399.6l30.5,5.8c3.3-7.8,4.8-14.7,4.8-19.8C482.3,384.4,482.2,383.2,482,381.9z"/>
			<path class="st3" d="M473.1,366.3c-6-4.4-15.2-5.4-28.1,2l11.5,18.8L473.1,366.3z"/>
			<path class="st3" d="M420.4,318.4c-5.4-1.5-12.4-0.8-20.9,2.8c-3.6,1.5-6.9,3.9-10,6.8l18.6,20.7L420.4,318.4z"/>
			<path class="st3" d="M412.1,443.4l30.9,5.3c8-6.4,14.6-13,19.9-19.6l-34.3-6.4L412.1,443.4z"/>
			<path class="st3" d="M383.3,409.8L362,388.2c-3.2,13.5-5.5,27.2-7.1,39.1l16.4,11.6L383.3,409.8z"/>
			<path class="st3" d="M354.9,427.7c-2.7,20.4-3.4,35.4-3.4,35.4h10.1l9.7-23.9L354.9,427.7z"/>
			<polygon class="st3" points="378.3,422.7 361.9,463.1 365.9,463.1 396.3,421.1 			"/>
			<path class="st3" d="M433,331.5c-2.1-6.5-6.2-11.2-12.2-13.1l-6.1,15.1L433,331.5z"/>
			<path class="st3" d="M408,349l-18.7-20.8c-6.6,6.3-12,15.4-16.5,26l22.9,25.1L408,349z"/>
			<path class="st3" d="M395.5,379.7l-22.9-25.1c-4.3,10.2-7.7,21.6-10.5,33.2l21.3,21.6L395.5,379.7z"/>
			<path class="st3" d="M389.8,394.6l29.3-5.6c6.7-10.1,11.2-20.7,13.6-30.4l-30.2,4.8L389.8,394.6z"/>
			<polygon class="st3" points="387.2,434.3 366.3,463.1 396,463.1 402.3,455.2 			"/>
			<path class="st3" d="M396.4,463.1h25c7.9-4.4,14.9-9.2,21.1-14.1l-30.8-5.3L396.4,463.1z"/>
			<path class="st3" d="M402.6,363.1l30.2-4.8c2.4-10.1,2.5-19.3,0.3-26.5l-18.6,2.1L402.6,363.1z"/>
			<path class="st3" d="M428.8,422.4l34.3,6.4c6.5-8,11.1-15.9,14.2-23.1l-30.6-5.8L428.8,422.4z"/>
			<path class="st5" d="M463.2,379.2l18.8,2.6c0-0.1,0-0.2-0.1-0.3l-18.5-2.6l9.9-12.4c-0.1-0.1-0.2-0.1-0.3-0.2l-16.6,20.9
				L445,368.3c-0.1,0.1-0.2,0.1-0.3,0.2l11.6,18.9l-18.4,23.1l-14.5-24.6c-0.1,0.1-0.2,0.2-0.2,0.2l14.5,24.6l-16,20.1L406,408.2
				l12-16.6c-0.7,0.8-1.4,1.6-2.1,2.4l-19.4,26.8l-18,1.5l11.1-27.4l29.2-5.5l0.5-0.1l0.3-0.4l-0.5,0.1l-29.3,5.6l12.7-31.2
				l30.2-4.8c0-0.1,0.1-0.2,0.1-0.3l-30.2,4.8l11.9-29.2l-0.1,0l0-0.3l0.3,0l6.1-15.1c-0.1,0-0.2-0.1-0.3-0.1l-12.3,30.3L389.5,328
				c-0.1,0.1-0.2,0.1-0.2,0.2L408,349l-12.4,30.4l-22.9-25.1c0,0.1-0.1,0.2-0.1,0.3l22.9,25.1l-12.1,29.7l-21.3-21.6
				c0,0.1-0.1,0.2-0.1,0.4l21.2,21.6l-11.9,29.2L355,427.3c0,0.1,0,0.2,0,0.4l16.4,11.6l-9.7,23.9h0.4l16.4-40.4l17.9-1.5
				l-30.3,41.9h0.4l20.8-28.8l15.1,20.9l-6.3,7.9h0.4l15.4-19.4l30.8,5.3c0.1-0.1,0.2-0.2,0.3-0.3l-30.9-5.3l16.5-20.7l34.3,6.4
				c0.1-0.1,0.1-0.2,0.2-0.3l-34.3-6.4l17.9-22.5l30.6,5.8c0-0.1,0.1-0.2,0.1-0.3l-30.5-5.8L463.2,379.2z M402.5,454.9L387.4,434
				l18.4-25.5l15.6,22.6L402.5,454.9z"/>
			<path class="st0" d="M414.4,333.9l18.6-2.1c0-0.1-0.1-0.2-0.1-0.3l-18.4,2L414.4,333.9z"/>
		</g>
		<path class="st0" d="M461.3,294.9c0-0.1,0-0.3,0.1-0.4"/>
		<path class="st7" d="M499.1,458.4c0,8.4-111.5,15.1-249.1,15.1S0.9,466.8,0.9,458.4c0-8.4,111.5-15.1,249.1-15.1
			S499.1,450.1,499.1,458.4z"/>
		<g>
			<g>
				
					<rect x="216" y="406" transform="matrix(-1 -1.224647e-16 1.224647e-16 -1 506.3879 868.6396)" class="st8" width="74.4" height="56.6"/>
				<path class="st9" d="M423.9,422H82.5c-2.5,0-4.5-2-4.5-4.5V209.4c0-2.5,2-4.5,4.5-4.5h341.3c2.5,0,4.5,2,4.5,4.5v208.1
					C428.4,420,426.4,422,423.9,422z"/>
				<rect x="86.9" y="212.1" class="st1" width="329.8" height="201.5"/>
				<path class="st9" d="M207.7,463.1h90.6v-2.8c0-2.7-2.2-4.8-4.8-4.8h-80.9c-2.7,0-4.8,2.2-4.8,4.8V463.1z"/>
			</g>
			<g>
				<g>
					<path class="st7" d="M212.3,285.1l7.9-11.5l-17.5-17.5l-11.6,7.9c-4.5-2.6-9.5-4.7-14.7-6l-2.5-13.6h-24.7l-2.6,13.8
						c-5.2,1.4-10.1,3.5-14.6,6.1l-11.5-7.9L103.1,274l7.9,11.6c-2.6,4.5-4.7,9.5-6,14.7l-13.6,2.5v24.7l13.8,2.6
						c1.4,5.2,3.5,10.1,6.1,14.6l-7.9,11.5l17.5,17.5l11.6-7.9c4.5,2.6,9.5,4.7,14.7,6l2.5,13.6h24.7l2.6-13.8
						c5.2-1.4,10.1-3.5,14.6-6.1l11.5,7.9l17.5-17.5l-7.9-11.6c2.6-4.5,4.7-9.5,6-14.7l13.6-2.5v-24.7l-13.8-2.6
						C217.1,294.5,215,289.6,212.3,285.1z M161.8,344.4c-16.3,0-29.5-13.2-29.5-29.5c0-16.3,13.2-29.5,29.5-29.5
						c16.3,0,29.5,13.2,29.5,29.5C191.3,331.2,178.1,344.4,161.8,344.4z"/>
					<path class="st7" d="M411.7,325.3v-20.8l-11.6-2.2c-1.2-4.4-2.9-8.5-5.2-12.3l6.6-9.6l-14.7-14.7l-9.7,6.7
						c-3.8-2.2-7.9-3.9-12.3-5.1l-2.1-11.5h-20.8l-2.2,11.6c-4.4,1.2-8.5,2.9-12.3,5.2l-9.6-6.6l-14.7,14.7l6.7,9.7
						c-2.2,3.8-3.9,7.9-5.1,12.3l-11.5,2.1v20.8l11.6,2.2c1.2,4.4,2.9,8.5,5.2,12.3l-6.6,9.6l14.7,14.7l9.7-6.7
						c3.8,2.2,7.9,3.9,12.3,5.1l2.1,11.5h20.8l2.2-11.6c4.4-1.2,8.5-2.9,12.3-5.2l9.6,6.6l14.7-14.7l-6.7-9.7
						c2.2-3.8,3.9-7.9,5.1-12.3L411.7,325.3z M352.5,339.9c-13.7,0-24.8-11.1-24.8-24.8s11.1-24.8,24.8-24.8
						c13.7,0,24.8,11.1,24.8,24.8S366.2,339.9,352.5,339.9z"/>
					<path class="st7" d="M291,296.1l11.7-11.7l-5.3-7.8c1.8-3,3.1-6.3,4-9.8l9.2-1.7v-16.6l-9.2-1.7c-0.9-3.5-2.3-6.8-4.1-9.8
						l5.3-7.7l-11.7-11.7l-7.8,5.3c-3-1.8-6.3-3.1-9.8-4l-1.7-9.2h-16.6l-1.7,9.2c-3.5,0.9-6.8,2.3-9.8,4.1l-7.7-5.3l-11.7,11.7
						l5.3,7.8c-1.8,3-3.1,6.3-4,9.8l-9.2,1.7v16.6l9.2,1.7c0.9,3.5,2.3,6.8,4.1,9.8l-5.3,7.7l11.7,11.7l7.8-5.3c3,1.8,6.3,3.1,9.8,4
						l1.7,9.2h16.6l1.7-9.2c3.5-0.9,6.8-2.3,9.8-4.1L291,296.1z M263.3,276.7c-10.9,0-19.8-8.9-19.8-19.8s8.9-19.8,19.8-19.8
						c10.9,0,19.8,8.9,19.8,19.8S274.2,276.7,263.3,276.7z"/>
				</g>
				<g>
					<g>
						<path class="st1" d="M161.6,355.5c-22.3,0-40.4-18.1-40.4-40.4c0-22.3,18.1-40.4,40.4-40.4s40.4,18.1,40.4,40.4
							C202,337.4,183.9,355.5,161.6,355.5z M161.6,275.9c-21.7,0-39.3,17.6-39.3,39.3c0,21.7,17.6,39.3,39.3,39.3
							c21.7,0,39.3-17.6,39.3-39.3C200.9,293.5,183.2,275.9,161.6,275.9z"/>
					</g>
					
						<ellipse transform="matrix(0.9764 -0.2158 0.2158 0.9764 -64.2033 42.2983)" class="st10" cx="161.6" cy="315.1" rx="53" ry="53"/>
				</g>
				<g>
					<g>
						<path class="st1" d="M352.3,349.2c-18.7,0-33.9-15.2-33.9-33.9c0-18.7,15.2-33.9,33.9-33.9c18.7,0,33.9,15.2,33.9,33.9
							C386.2,334,371,349.2,352.3,349.2z M352.3,282.3c-18.2,0-33,14.8-33,33c0,18.2,14.8,33,33,33s33-14.8,33-33
							C385.3,297.1,370.5,282.3,352.3,282.3z"/>
					</g>
					<circle class="st11" cx="352.3" cy="315.3" r="44.5"/>
				</g>
				<g>
					<path class="st1" d="M263.1,284.2c-14.9,0-27.1-12.2-27.1-27.1c0-14.9,12.2-27.1,27.1-27.1c14.9,0,27.1,12.2,27.1,27.1
						C290.2,272,278.1,284.2,263.1,284.2z M263.1,230.7c-14.5,0-26.4,11.8-26.4,26.4c0,14.5,11.8,26.4,26.4,26.4
						c14.5,0,26.4-11.8,26.4-26.4C289.5,242.6,277.7,230.7,263.1,230.7z"/>
				</g>
				
					<ellipse transform="matrix(0.9864 -0.1646 0.1646 0.9864 -38.719 46.8066)" class="st12" cx="263.1" cy="257.1" rx="35.5" ry="35.5"/>
			</g>
			<g>
				
					<ellipse transform="matrix(3.148178e-02 -0.9995 0.9995 3.148178e-02 -119.3322 610.6652)" class="st13" cx="255.4" cy="366.9" rx="26.8" ry="26.8"/>
				
					<ellipse transform="matrix(0.9266 -0.3762 0.3762 0.9266 -119.2577 123.0356)" class="st14" cx="255.4" cy="366.9" rx="22" ry="22"/>
				<g>
					<path class="st13" d="M253.2,381.7v-3.9c-2.2,0-4.5-0.7-5.9-1.7l0.9-2.6c1.4,0.9,3.4,1.7,5.5,1.7c2.7,0,4.6-1.6,4.6-3.8
						c0-2.1-1.5-3.4-4.3-4.6c-3.9-1.5-6.3-3.3-6.3-6.6c0-3.2,2.3-5.6,5.8-6.2v-3.9h2.4v3.7c2.3,0.1,3.9,0.7,5,1.3l-1,2.5
						c-0.8-0.5-2.4-1.3-4.8-1.3c-3,0-4.1,1.8-4.1,3.3c0,2,1.4,3,4.8,4.4c4,1.6,6,3.6,6,7c0,3-2.1,5.9-6.1,6.5v4H253.2z"/>
				</g>
			</g>
			<g>
				<g>
					<g>
						
							<rect x="180.2" y="136.6" transform="matrix(0.9677 0.2522 -0.2522 0.9677 46.9337 -44.552)" class="st1" width="34.1" height="48.3"/>
						<g>
							
								<rect x="188.4" y="142" transform="matrix(0.9677 0.2522 -0.2522 0.9677 42.5394 -46.3204)" class="st7" width="27.1" height="1.4"/>
							
								<rect x="187.2" y="146.5" transform="matrix(0.9677 0.2522 -0.2522 0.9677 43.6381 -45.8785)" class="st7" width="27.1" height="1.4"/>
							
								<rect x="186" y="151" transform="matrix(0.9677 0.2522 -0.2522 0.9677 44.7368 -45.4364)" class="st7" width="27.1" height="1.4"/>
							
								<rect x="184.9" y="155.6" transform="matrix(0.9677 0.2522 -0.2522 0.9677 45.8352 -44.9942)" class="st7" width="27.1" height="1.4"/>
							
								<rect x="183.7" y="160.1" transform="matrix(0.9677 0.2522 -0.2522 0.9677 46.9331 -44.5516)" class="st7" width="27.1" height="1.4"/>
							
								<rect x="182.5" y="164.6" transform="matrix(0.9677 0.2522 -0.2522 0.9677 48.0317 -44.1095)" class="st7" width="27.1" height="1.4"/>
							
								<rect x="181.3" y="169.1" transform="matrix(0.9677 0.2522 -0.2522 0.9677 49.1304 -43.6675)" class="st7" width="27.1" height="1.4"/>
							
								<rect x="180.2" y="173.6" transform="matrix(0.9677 0.2522 -0.2522 0.9677 50.2291 -43.2255)" class="st7" width="27.1" height="1.4"/>
							
								<rect x="179" y="178.1" transform="matrix(0.9677 0.2522 -0.2522 0.9677 51.3278 -42.7835)" class="st7" width="27.1" height="1.4"/>
						</g>
					</g>
					<g>
						
							<rect x="272.4" y="126.1" transform="matrix(0.9552 -0.2958 0.2958 0.9552 -31.5045 92.3701)" class="st0" width="34.1" height="48.3"/>
						<g>
							
								<rect x="270.4" y="131.8" transform="matrix(0.9552 -0.2958 0.2958 0.9552 -26.4871 89.9421)" class="st1" width="27.1" height="1.4"/>
							
								<rect x="271.8" y="136.2" transform="matrix(0.9552 -0.2958 0.2958 0.9552 -27.7413 90.5488)" class="st1" width="27.1" height="1.4"/>
							
								<rect x="273.2" y="140.7" transform="matrix(0.9552 -0.2958 0.2958 0.9552 -28.9956 91.1554)" class="st1" width="27.1" height="1.4"/>
							
								<rect x="274.6" y="145.1" transform="matrix(0.9552 -0.2958 0.2958 0.9552 -30.2499 91.7621)" class="st1" width="27.1" height="1.4"/>
							
								<rect x="275.9" y="149.6" transform="matrix(0.9552 -0.2958 0.2958 0.9552 -31.5042 92.3688)" class="st1" width="27.1" height="1.4"/>
							
								<rect x="277.3" y="154" transform="matrix(0.9552 -0.2958 0.2958 0.9552 -32.7585 92.9754)" class="st1" width="27.1" height="1.4"/>
							
								<rect x="278.7" y="158.5" transform="matrix(0.9552 -0.2958 0.2958 0.9552 -34.0128 93.582)" class="st1" width="27.1" height="1.4"/>
							
								<rect x="280.1" y="162.9" transform="matrix(0.9552 -0.2958 0.2958 0.9552 -35.2674 94.1905)" class="st1" width="27.1" height="1.4"/>
							
								<rect x="281.5" y="167.4" transform="matrix(0.9552 -0.2958 0.2958 0.9552 -36.5218 94.7971)" class="st1" width="27.1" height="1.4"/>
						</g>
					</g>
					<g>
						<g>
							
								<rect x="203.1" y="143.9" transform="matrix(-0.9582 0.2862 -0.2862 -0.9582 484.6802 245.5485)" class="st15" width="42.5" height="28.6"/>
						</g>
						<g>
							<polyline class="st15" points="247.1,165.3 223.6,155.6 209.3,176.6 							"/>
							<path class="st16" d="M223.6,155.4c0.1,0,0.1,0,0.2,0l23.5,9.7c0.1,0.1,0.2,0.2,0.1,0.3c-0.1,0.1-0.2,0.2-0.3,0.1l-23.3-9.6
								l-14.3,20.8c-0.1,0.1-0.2,0.1-0.4,0.1c-0.1-0.1-0.1-0.2-0.1-0.4l14.4-21C223.4,155.4,223.5,155.4,223.6,155.4z"/>
						</g>
						<g>
							<polyline class="st15" points="201.7,151.1 225.2,160.8 239.5,139.8 							"/>
							<path class="st16" d="M201.6,150.9c0.1,0,0.1,0,0.2,0l23.3,9.6l14.3-20.8c0.1-0.1,0.2-0.1,0.4-0.1c0.1,0.1,0.1,0.2,0.1,0.4
								l-14.4,21c-0.1,0.1-0.2,0.1-0.3,0.1l-23.5-9.7c-0.1-0.1-0.2-0.2-0.1-0.3C201.4,151,201.5,150.9,201.6,150.9z"/>
						</g>
					</g>
					<path class="st17" d="M260.5,151.4c-5-16.2-34-8.1-18.2,12.8c12.9,17.1,28,18.8,28,18.8s11.5-10,12.4-31.4
						C284,125.4,255.5,135.2,260.5,151.4z"/>
					<g>
						<g>
							
								<rect x="299.2" y="131.2" transform="matrix(0.4749 -0.88 0.88 0.4749 28.2209 358.0411)" class="st15" width="30" height="48.3"/>
							<path class="st1" d="M341.2,154.1l-13.3,24.6l-40.8-22l13.3-24.6L341.2,154.1 M343.8,153.3l-1.7-0.9l-40.8-22l-1.7-0.9
								l-0.9,1.7l-13.3,24.6l-0.9,1.7l1.7,0.9l40.8,22l1.7,0.9l0.9-1.7l13.3-24.6L343.8,153.3L343.8,153.3z"/>
						</g>
						<polygon class="st9" points="287.1,156.7 310.4,149.7 315.3,166.1 323.3,163.7 327.8,178.8 						"/>
						<path class="st18" d="M320.7,151.1c-1,1.9-0.3,4.2,1.6,5.3c1.9,1,4.2,0.3,5.3-1.6c1-1.9,0.3-4.2-1.6-5.3
							C324.1,148.5,321.8,149.2,320.7,151.1z"/>
					</g>
				</g>
				<path class="st9" d="M348.1,167.1l-185.3,0.2l76.8,96.6v68.8c10.4,0.1,20.7-0.1,31.1,0v-68.8L348.1,167.1z"/>
			</g>
			<g>
				<path class="st9" d="M381,90c0,0,4.5-1,4.5,4.8c0,5.8-3.5,10.4-7,9.1C375.1,102.6,381,90,381,90z"/>
				<path class="st19" d="M352.1,117.3c0,0-3.6-0.7-4-0.1c-0.3,0.5,2,0.8,2,0.8s-2.1,0.5-3.2,0.6c-1.1,0.1-0.9,1.6,1.1,1.9
					c2.1,0.4,4-1.2,4-1.2L352.1,117.3z"/>
				<path class="st19" d="M372.1,112.3l-4.8,5.8l-15.7-0.9l0,2.1c0,0,8.9,3.6,15.6,3.6c3.6,0,7.2-2.4,9.8-4.7c2-1.8,1.8-5.2-0.5-6.7
					l0,0C375.1,110.6,373.2,110.9,372.1,112.3z"/>
				<polygon class="st19" points="389.1,141.9 395,202.2 391,202.2 379,150 371.7,202.2 368.1,202.2 369,141.9 				"/>
				<g>
					<path class="st19" d="M382.9,97.7c0,0,1.5-0.2,1.5,1.4c0,1.5-1.9,1.7-1.9,1.7L382.9,97.7z"/>
				</g>
				<path class="st20" d="M378.5,110.3L378.5,110.3c1.5,0,2.8-1.2,2.8-2.8v-4.6h-5.5v4.6C375.8,109,377,110.3,378.5,110.3z"/>
				<path class="st19" d="M378.5,104.9L378.5,104.9c2.5,0,4.5-2,4.5-4.5v-3.5c0-2.5-2-4.5-4.5-4.5l0,0c-2.5,0-4.5,2-4.5,4.5v3.5
					C374.1,102.9,376.1,104.9,378.5,104.9z"/>
				<path class="st17" d="M377.4,101.7c0,0,0.6-0.5,1.1,0.1c0.5-0.6,1.1-0.1,1.1-0.1s-0.3,0.8-1,0.8
					C377.6,102.5,377.4,101.7,377.4,101.7z"/>
				<g>
					<path class="st9" d="M380.8,98.8c0,0.3-0.2,0.6-0.4,0.6s-0.4-0.3-0.4-0.6c0-0.3,0.2-0.6,0.4-0.6S380.8,98.5,380.8,98.8z"/>
					<path class="st9" d="M377,98.8c0,0.3-0.2,0.6-0.4,0.6c-0.2,0-0.4-0.3-0.4-0.6c0-0.3,0.2-0.6,0.4-0.6
						C376.8,98.2,377,98.5,377,98.8z"/>
				</g>
				<path class="st21" d="M380.1,101.4c0,0-0.4,0.5-1.5,0.5c-1.1,0-1.6-0.5-1.6-0.5"/>
				<path class="st20" d="M378.7,101v-2.2C378.7,98.8,377,101,378.7,101z"/>
				<path class="st17" d="M387.7,132.5c-0.9-2.9,0.3-6,0.6-8.9c0.3-3.1,0.4-6.4-0.2-9.5c-1.3-6.8-6.7-7.5-6.7-7.5s-2.3,1.1-5.5,0.2
					c-4.9,3.8-7.7,9-4.9,21.4c0.6,2.6-0.6,5.3-1.3,7.8c-0.8,2.6-1.4,5.3-1.9,8c-1.2,6.1-2,12.4-2.7,18.6c0,0,14.9,3.8,30-0.3
					c0.4-0.1-0.3-7-0.4-7.7c-0.3-2.7-0.7-5.4-1.3-8c-0.6-2.6-1.4-5.2-2.4-7.7c-0.8-1.9-1.8-3.5-2.8-5.3
					C387.9,133.3,387.8,132.9,387.7,132.5z"/>
				<g>
					<path class="st21" d="M381,97.8c0,0-0.4-0.4-1-0.3"/>
					<path class="st21" d="M376.1,97.9c0,0,0.4-0.4,1-0.3"/>
				</g>
				<g>
					<g>
						<path class="st1" d="M343,91.1c-12.3,0-22.2,9.9-22.2,22.2s9.9,22.2,22.2,22.2s22.2-9.9,22.2-22.2S355.2,91.1,343,91.1z
							 M343,131.8c-10.2,0-18.5-8.3-18.5-18.5s8.3-18.5,18.5-18.5s18.5,8.3,18.5,18.5S353.2,131.8,343,131.8z"/>
						<path class="st17" d="M343,94.8c-10.2,0-18.5,8.3-18.5,18.5s8.3,18.5,18.5,18.5s18.5-8.3,18.5-18.5S353.2,94.8,343,94.8z
							 M343,128.1c-8.2,0-14.8-6.6-14.8-14.8c0-8.2,6.6-14.8,14.8-14.8c8.2,0,14.8,6.6,14.8,14.8C357.8,121.5,351.1,128.1,343,128.1
							z"/>
						<path class="st1" d="M343,98.5c-8.2,0-14.8,6.6-14.8,14.8c0,8.2,6.6,14.8,14.8,14.8c8.2,0,14.8-6.6,14.8-14.8
							C357.8,105.2,351.1,98.5,343,98.5z M343,124.4c-6.1,0-11.1-5-11.1-11.1c0-6.1,5-11.1,11.1-11.1c6.1,0,11.1,5,11.1,11.1
							C354.1,119.5,349.1,124.4,343,124.4z"/>
						<path class="st17" d="M343,102.2c-6.1,0-11.1,5-11.1,11.1c0,6.1,5,11.1,11.1,11.1c6.1,0,11.1-5,11.1-11.1
							C354.1,107.2,349.1,102.2,343,102.2z M343,120.7c-4.1,0-7.4-3.3-7.4-7.4s3.3-7.4,7.4-7.4c4.1,0,7.4,3.3,7.4,7.4
							S347.1,120.7,343,120.7z"/>
						<path class="st1" d="M343,105.9c-4.1,0-7.4,3.3-7.4,7.4s3.3,7.4,7.4,7.4c4.1,0,7.4-3.3,7.4-7.4S347.1,105.9,343,105.9z
							 M343,117c-2,0-3.7-1.7-3.7-3.7s1.7-3.7,3.7-3.7s3.7,1.7,3.7,3.7S345,117,343,117z"/>
						<path class="st17" d="M343,109.6c-2,0-3.7,1.7-3.7,3.7s1.7,3.7,3.7,3.7s3.7-1.7,3.7-3.7S345,109.6,343,109.6z"/>
					</g>
					<polygon class="st9" points="360.8,95.5 360.8,91.4 357.2,95.1 356.2,99.2 342.5,112.9 343.4,113.8 357.1,100.1 361.2,99.1 
						364.9,95.5 					"/>
				</g>
				<g>
					<path class="st20" d="M382.8,100.6c0,0.7-0.6,1.3-1.3,1.3c-0.7,0-1.3-0.6-1.3-1.3c0-0.7,0.6-1.3,1.3-1.3
						C382.2,99.3,382.8,99.9,382.8,100.6z"/>
					<path class="st20" d="M376.9,100.6c0,0.7-0.6,1.3-1.3,1.3c-0.7,0-1.3-0.6-1.3-1.3c0-0.7,0.6-1.3,1.3-1.3
						C376.3,99.3,376.9,99.9,376.9,100.6z"/>
				</g>
				<path class="st19" d="M361.4,125.2c0,0-4,0.9-4.1,1.6c-0.1,0.6,2.3-0.2,2.3-0.2s-1.9,1.4-3,2c-1,0.6-0.3,1.8,1.9,1.3
					c2.2-0.6,3.6-2.9,3.6-2.9L361.4,125.2z"/>
				<path class="st19" d="M379.5,111.9l-2.5,7.4l-16.2,6l0.8,1.9c0,0,10.4-0.6,17.2-3.5c3.6-1.5,6.3-5.4,8.1-8.6
					c1.4-2.5-0.3-5.6-3.1-5.9l0,0C381.9,109,380.1,110.1,379.5,111.9z"/>
				<path class="st9" d="M381,90c0,0,2.1-2.6,4.7-0.4c2.6,2.2,1.5,6-1.1,5"/>
				<path class="st9" d="M381.3,90l2.5,6.4c0,0,0.1,2.1-1.2,2.5c-0.7-2.9-4.8-0.5-7-4.5c-1,3.3-2,3.9-2,3.9S370.8,90,381.3,90z"/>
				<path class="st9" d="M395,196.4l0.6,5.8h0.1c0,0,2.5-0.4,5,2.7c-7.2,0-9.5,0-9.5,0l-1.7-8.5H395z"/>
				<path class="st9" d="M362.2,204.9c2.5-3.1,5-2.7,5-2.7h0.1l0.6-5.8h5.5l-1.7,8.5l0,0l0,0C371.6,204.9,369.3,204.9,362.2,204.9z"
					/>
			</g>
			<g>
				<g>
					<g>
						<g>
							<path class="st20" d="M159.8,118c0-14.5-7.2-12.3-14.4-12.3s-6.9,12.3-6.9,12.3l-1.4,24.7h23.5L159.8,118z"/>
							<polygon class="st17" points="137,142.7 133.6,202.2 138.9,202.2 148.9,152.4 154.8,202.2 160.2,202.2 160.5,142.7 							
								"/>
						</g>
						<path class="st9" d="M160.5,202.2c0,0,3.1-0.4,6.2,2.7c-8.9,0-11.7,0-11.7,0l-0.2-2.7H160.5z"/>
						<path class="st9" d="M133.2,202.2c0,0-3.1-0.4-6.2,2.7c8.9,0,11.7,0,11.7,0l0.2-2.7H133.2z"/>
						<g>
							<path class="st19" d="M144,95.5c0,0-1.6-0.2-1.6,1.5c0,1.7,2.1,1.9,2.1,1.9L144,95.5z"/>
							<path class="st19" d="M153.8,95.5c0,0,1.6-0.2,1.6,1.5c0,1.7-2.1,1.9-2.1,1.9L153.8,95.5z"/>
						</g>
						<path class="st20" d="M150,109.5h-2.2c-1.1,0-2-0.9-2-2v-6.2h6.1v6.2C152,108.6,151.1,109.5,150,109.5z"/>
						<path class="st19" d="M150.7,103.6h-3.6c-1.8,0-3.2-1.4-3.2-3.2v-7.5c0-1.8,1.4-3.2,3.2-3.2h3.6c1.8,0,3.2,1.4,3.2,3.2v7.5
							C153.9,102.2,152.4,103.6,150.7,103.6z"/>
						<path class="st19" d="M136.9,78.5c0,0,0.8-4.5,0.1-5c-0.6-0.3-0.9,2.5-0.9,2.5s-0.6-2.6-0.7-3.9c-0.1-1.3-1.8-1.1-2.2,1.4
							c-0.4,2.5,1.4,5,1.4,5L136.9,78.5z"/>
						<g>
							<path class="st9" d="M146.4,96.8c0,0.4,0.2,0.7,0.4,0.7c0.2,0,0.4-0.3,0.4-0.7s-0.2-0.7-0.4-0.7
								C146.6,96.2,146.4,96.5,146.4,96.8z"/>
							<path class="st9" d="M150.6,96.8c0,0.4,0.2,0.7,0.4,0.7c0.2,0,0.4-0.3,0.4-0.7s-0.2-0.7-0.4-0.7
								C150.8,96.2,150.6,96.5,150.6,96.8z"/>
						</g>
						<path class="st22" d="M147.2,99.7c0,0,0.5,0.5,1.7,0.5c1.2,0,1.8-0.5,1.8-0.5"/>
						<path class="st20" d="M148.9,99.2v-2.4C148.9,96.8,147,99.2,148.9,99.2z"/>
						<g>
							<path class="st22" d="M146.2,95.7c0,0,0.4-0.5,1.2-0.3"/>
							<path class="st22" d="M151.6,95.8c0,0-0.4-0.5-1.2-0.3"/>
						</g>
						<g>
							<path class="st20" d="M144.2,98.8c0,0.8,0.7,1.5,1.5,1.5c0.8,0,1.5-0.7,1.5-1.5c0-0.8-0.7-1.5-1.5-1.5
								C144.9,97.3,144.2,98,144.2,98.8z"/>
							<path class="st20" d="M150.7,98.8c0,0.8,0.7,1.5,1.5,1.5c0.8,0,1.5-0.7,1.5-1.5c0-0.8-0.7-1.5-1.5-1.5
								C151.4,97.3,150.7,98,150.7,98.8z"/>
						</g>
						<path class="st19" d="M145.3,105.7L137,98l0-20.2h-2.3c0,0-4,11.1-4,19.4c0,8.3,9.8,17,9.8,17L145.3,105.7z"/>
						<path class="st19" d="M160.9,78.5c0,0-0.8-4.5-0.1-5c0.6-0.3,0.9,2.5,0.9,2.5s0.6-2.6,0.7-3.9c0.1-1.3,1.8-1.1,2.2,1.4
							c0.4,2.5-1.4,5-1.4,5L160.9,78.5z"/>
						<path class="st19" d="M152.4,105.7l8.8-8.5l-0.5-19.4h2.3c0,0,4,11.1,4,19.4c0,8.3-9.8,17-9.8,17L152.4,105.7z"/>
						<path class="st9" d="M164.1,106.3c-2.6-4.9-6.3-5.4-6.3-5.4l-5.7,4.8c0,0.7-0.1,1.2-0.4,1.7c-1,2.2-4.4,2.2-5.4,0
							c-0.2-0.5-0.4-1-0.4-1.7l-5.7-4.8c0,0-3.7,0.5-6.3,5.4c1.9,4.5,4.2,7.3,4.2,7.3l-1.9,32.5c9.3,1.8,16.4,1.8,25.7,0l-1.9-32.5
							C159.9,113.7,162.2,110.9,164.1,106.3z"/>
					</g>
					<g>
						<path class="st13" d="M150.1,26.5c-21,0-23.5,22-14.7,30.9c8.8,8.8,9.9,15.7,9.9,15.7h4.8h4.8c0,0,1.1-6.9,9.9-15.7
							C173.7,48.5,171.2,26.5,150.1,26.5z"/>
						<path class="st9" d="M145.2,73.9h10c0.9,0,1.7-0.8,1.7-1.7l0,0c0-0.9-0.8-1.7-1.7-1.7h-10c-0.9,0-1.7,0.8-1.7,1.7l0,0
							C143.4,73.1,144.2,73.9,145.2,73.9z"/>
						<path class="st9" d="M145.2,77.4h10c0.9,0,1.7-0.8,1.7-1.7l0,0c0-0.9-0.8-1.7-1.7-1.7h-10c-0.9,0-1.7,0.8-1.7,1.7l0,0
							C143.4,76.6,144.2,77.4,145.2,77.4z"/>
						<path class="st9" d="M145.2,80.8h10c0.9,0,1.7-0.8,1.7-1.7l0,0c0-0.9-0.8-1.7-1.7-1.7h-10c-0.9,0-1.7,0.8-1.7,1.7l0,0
							C143.4,80,144.2,80.8,145.2,80.8z"/>
						<path class="st9" d="M145.2,80.8c0,0,0.6,3.5,5,3.5s5-3.5,5-3.5H145.2z"/>
						<g>
							<g>
								<path class="st9" d="M152.1,70.6c0-0.5-0.1-8.5,1.5-14.7c-2.1,0.4-4.7,0.4-6.8,0c1.5,6.2,1.5,14.2,1.5,14.7l-0.7,0
									c0-0.1,0.1-8.6-1.5-14.9c-3.7-0.9-6.2-2.8-7-4.6c-0.4-0.9-0.4-1.7,0.1-2.3c0.3-0.4,1.2-0.9,3.1-0.3c2.1,0.7,3.5,3.3,4.3,6.6
									c1.1,0.2,2.3,0.4,3.6,0.4c1.3,0,2.5-0.1,3.6-0.4c0.9-3.3,2.3-5.9,4.3-6.6c1.9-0.6,2.8-0.1,3.1,0.3c0.5,0.5,0.5,1.4,0.1,2.3
									c-0.8,1.8-3.3,3.8-7,4.6c-1.6,6.3-1.5,14.7-1.5,14.9L152.1,70.6z M159.7,49c-0.4,0-0.8,0.1-1.4,0.2c-1.8,0.6-3,2.8-3.8,5.7
									c3.5-0.9,5.5-2.8,6.1-4.1c0.3-0.6,0.3-1.2,0-1.5C160.5,49.1,160.1,49,159.7,49z M140.6,49c-0.4,0-0.8,0.1-1,0.3
									c-0.3,0.3-0.3,0.8,0,1.5c0.6,1.4,2.6,3.2,6.1,4.1c-0.8-2.9-2-5.2-3.8-5.7C141.5,49.1,141,49,140.6,49z"/>
							</g>
						</g>
					</g>
				</g>
				<path class="st9" d="M148.9,88.8c0,0-5.8,0.1-5.8,5.2c0,1.7,1.1,2.8,1.1,2.8s3.5-1.2,4.6-5c0.8,2.7,3.4,3.3,3.4,3.3
					s0.6,1.4,1.5,1.4C155.6,94.7,154.5,88.8,148.9,88.8z"/>
			</g>
			<g>
				<path class="st15" d="M351.2,350.4c-2.2-1.6-5.8-1.4-7.4,0.6c0,0,0,0-0.1,0.1c-1.8,2.4-5.1,3-4.2,6.1c0.9,3.1-3.5,4.2-0.2,7.8
					c3.3,3.6,13,3.9,15.3,1.4c2.2-2.5,1.6-8.2-0.8-10.1C351.9,354.8,353.7,352.3,351.2,350.4z"/>
				<path class="st20" d="M352.1,367.7c0,0,5.4,0.2,11.3,13.7l7.4-9h3c0,0-7.1,14.1-10.8,14.1S351.7,377.9,352.1,367.7z"/>
				<path class="st9" d="M334.8,460.4c0,0-2.5-0.4-5,2.7c7.1,0,9.4,0,9.4,0l0.1-2.7H334.8z"/>
				<path class="st9" d="M359.2,460.4c0,0,2.5-0.4,5,2.7c-7.1,0-9.4,0-9.4,0l-0.1-2.7H359.2z"/>
				<polygon class="st19" points="337.3,400.9 335.5,460.4 339.4,460.4 347.3,408.9 354.6,460.4 358.2,460.4 357.3,400.9 				"/>
				<path class="st9" d="M354.6,387.7c0.1-0.6,0.2-1.1,0.3-1.7c3.8-13.5,0.8-19.6-9.3-19.6c-10.1,0-7.5,14-6,19.2
					c0.2,0.6,0.3,1.3,0.3,2c0,1.4-2.9,9.9-2.7,13.2h20C357.3,396.9,354.9,391.4,354.6,387.7z"/>
				<g>
					<path class="st17" d="M408.5,348.7c-0.3-2.3-2.4-3.9-4.7-3.6c2.7-0.3,4.5-3.1,3.4-5.8c-0.7-1.8-2.6-2.7-4.5-2.5l-14.3,1.7
						c5.3-20.8-6-29.8-5.8-16.1c0,0.1,0,0.1,0,0.2c0.1,7.2-3.3,14-8.8,18.6c-4.8,4-11.2,9.6-14.2,13.4l2.6,20.7l21.1-2.6l8.6-1
						l14.9-1.8c1.9-0.2,3.5-1.6,3.8-3.5c0.4-2.8-2-5.1-4.7-4.8c2.3-0.3,4-2.4,3.7-4.6c-0.3-2.3-2.4-3.9-4.7-3.6
						C407.1,353.1,408.8,351,408.5,348.7z"/>
					<polygon class="st9" points="368.2,376.4 359,377.5 355.6,349.6 364.8,348.5 					"/>
				</g>
				<path class="st19" d="M359,373c0,0,1.6-3.7,2.3-3.7c0.6,0-0.5,2.2-0.5,2.2s1.7-1.6,2.4-2.5c0.7-0.9,1.8,0,0.9,2.1
					c-0.9,2.1-3.4,3-3.4,3L359,373z"/>
				<path class="st20" d="M348.8,369.7h-2c-1,0-1.8-0.8-1.8-1.8v-5.5h5.5v5.5C350.6,368.9,349.8,369.7,348.8,369.7z"/>
				<path class="st19" d="M344.3,369.3c1.5,2.2,6.4,10.9,6.4,10.9l8.6-7.8l3,0.4c0,0-9.1,13.3-12.9,13.3c-1.6,0-9.9-5.9-9.4-15.6
					C340.2,367.8,342.7,367,344.3,369.3z"/>
				<g>
					<path class="st19" d="M343.4,357.2c0,0-1.5-0.2-1.5,1.4c0,1.5,1.9,1.7,1.9,1.7L343.4,357.2z"/>
					<path class="st19" d="M352.2,357.2c0,0,1.5-0.2,1.5,1.4c0,1.5-1.9,1.7-1.9,1.7L352.2,357.2z"/>
				</g>
				<path class="st19" d="M349.4,364.4h-3.2c-1.6,0-2.9-1.3-2.9-2.9v-6.6c0-1.6,1.3-2.9,2.9-2.9h3.2c1.6,0,2.9,1.3,2.9,2.9v6.6
					C352.3,363.1,351,364.4,349.4,364.4z"/>
				<path class="st17" d="M346.6,361.2c0,0,0.7-0.4,1.2,0.1c0.6-0.5,1.2-0.1,1.2-0.1s-0.3,0.7-1.1,0.7
					C346.8,361.9,346.6,361.2,346.6,361.2z"/>
				<g>
					<path class="st9" d="M345.6,358.4c0,0.3,0.2,0.6,0.4,0.6c0.2,0,0.4-0.3,0.4-0.6c0-0.3-0.2-0.6-0.4-0.6
						C345.7,357.8,345.6,358,345.6,358.4z"/>
					<ellipse class="st9" cx="349.7" cy="358.4" rx="0.4" ry="0.6"/>
				</g>
				<path class="st23" d="M346.3,360.9c0,0,0.4,0.5,1.5,0.5c1.1,0,1.6-0.5,1.6-0.5"/>
				<path class="st20" d="M347.8,360.5v-2.1C347.8,358.4,346.1,360.5,347.8,360.5z"/>
				<g>
					<path class="st23" d="M345.4,357.4c0,0,0.4-0.4,1-0.3"/>
					<path class="st23" d="M350.2,357.4c0,0-0.4-0.4-1-0.3"/>
				</g>
				<g>
					<ellipse class="st20" cx="344.9" cy="360.1" rx="1.3" ry="1.3"/>
					<path class="st20" d="M349.4,360.1c0,0.7,0.6,1.3,1.3,1.3c0.7,0,1.3-0.6,1.3-1.3c0-0.7-0.6-1.3-1.3-1.3
						C350,358.8,349.4,359.4,349.4,360.1z"/>
				</g>
				<path class="st15" d="M342.9,356.1c0,0,4.8,1.4,7.9-3.9C345.1,349.3,342.5,353.7,342.9,356.1z"/>
				<path class="st17" d="M337.7,397.1c0,0,9.4,2.9,19.1,0c0,0,2.1,5.1,2.1,17.8c-3.3,2.9-9.6,1.7-11.2,1.1l-0.5-7.2l-0.5,7.2
					c-0.6-0.5-7,2.9-11.4-1.5C335,404.2,337.7,397.1,337.7,397.1z"/>
			</g>
			<g>
				<path class="st24" d="M150.3,363.9c0,0-12.8,0.3-13.8,15.6c-2.9-11.9-3.8-15.6-3.8-15.6h-3.5c0,0-0.3,25.8,6.8,25.8
					S150.3,363.9,150.3,363.9z"/>
				<path class="st24" d="M157.4,364c0,0,10.1-0.6,14.6,20.1c4.5,20.8,4.1,26.2,4.1,26.2h-2.4C173.6,410.3,159.7,375.7,157.4,364z"
					/>
				<g>
					<path class="st20" d="M142.2,376.3c0-14.4,8-12.3,15.2-12.3c7.2,0,6.9,12.3,6.9,12.3l1.4,24.6h-23.5V376.3z"/>
					<polygon class="st17" points="165.7,400.9 169.1,460.4 163.7,460.4 153.8,410.6 147.9,460.4 142.5,460.4 142.2,400.9 					"/>
				</g>
				<path class="st9" d="M142.2,460.4c0,0-3.1-0.4-6.2,2.7c8.9,0,11.7,0,11.7,0l0.2-2.7H142.2z"/>
				<path class="st9" d="M169.4,460.4c0,0,3.1-0.4,6.2,2.7c-8.9,0-11.7,0-11.7,0l-0.2-2.7H169.4z"/>
				<path class="st9" d="M132.3,352.7h-2.2v4.7h2.2c1.3,0,2.4-1.1,2.4-2.4l0,0C134.7,353.7,133.6,352.7,132.3,352.7z"/>
				<polygon class="st9" points="129.5,357.4 116.3,360.5 116.3,349.5 129.5,352.7 				"/>
				<g>
					<path class="st24" d="M159,353.9c0,0,1.6-0.2,1.6,1.5s-2.1,1.9-2.1,1.9L159,353.9z"/>
					<path class="st24" d="M149.2,353.9c0,0-1.6-0.2-1.6,1.5s2.1,1.9,2.1,1.9L149.2,353.9z"/>
				</g>
				<rect x="129.5" y="352.7" class="st17" width="1.2" height="4.7"/>
				<rect x="129.5" y="357.3" class="st17" width="1.2" height="4.7"/>
				<path class="st20" d="M154.1,367.8L154.1,367.8c1.7,0,3-1.4,3-3v-5.1h-6.1v5.1C151.1,366.4,152.4,367.8,154.1,367.8z"/>
				<path class="st24" d="M129.2,363.9c0,0-3.2-3.4,0-4.4c3.2-1.1,3.5,4.4,3.5,4.4H129.2z"/>
				<path class="st24" d="M154.1,361.9L154.1,361.9c2.7,0,5-2.2,5-5V353c0-2.7-2.2-5-5-5l0,0c-2.7,0-5,2.2-5,5v3.9
					C149.2,359.7,151.4,361.9,154.1,361.9z"/>
				<path class="st17" d="M159.1,356.4c0,0-1-2.4-1-6.1c-3.1,2-8,0-8,0s0.2,4.1-0.9,6.1c-1.7-3.6-1.1-9.6,5-9.6
					C160.1,346.8,160.7,352.7,159.1,356.4z"/>
				<path class="st24" d="M173.5,409.9c0,0-0.8,4.5-0.1,5c0.6,0.3,0.9-2.5,0.9-2.5s0.6,2.6,0.7,3.9c0.1,1.3,1.8,1.1,2.1-1.4
					c0.4-2.5-1.4-5-1.4-5L173.5,409.9z"/>
				<g>
					<circle class="st20" cx="157.4" cy="357.1" r="1.5"/>
					<path class="st20" d="M152.3,357.1c0,0.8-0.7,1.5-1.5,1.5c-0.8,0-1.5-0.7-1.5-1.5s0.7-1.5,1.5-1.5
						C151.6,355.6,152.3,356.3,152.3,357.1z"/>
				</g>
				<g>
					<ellipse class="st9" cx="156.2" cy="355.1" rx="0.4" ry="0.7"/>
					<ellipse class="st9" cx="152" cy="355.1" rx="0.4" ry="0.7"/>
				</g>
				<path class="st17" d="M149.6,355.1c0,0,1.6,2.9,4.5,2.9c2.9,0,4.5-2.9,4.5-2.9h0.8c0,0,1.2,7.6-5.4,7.6s-5.3-7.4-5.3-7.4
					L149.6,355.1z"/>
				<path class="st25" d="M155.8,358c0,0-0.5,0.5-1.7,0.5c-1.2,0-1.8-0.5-1.8-0.5"/>
				<path class="st20" d="M154.1,357.5v-2.4C154.1,355.1,156,357.5,154.1,357.5z"/>
				<g>
					<path class="st25" d="M156.8,354.1c0,0-0.4-0.5-1.2-0.3"/>
					<path class="st25" d="M151.4,354.1c0,0,0.4-0.5,1.2-0.3"/>
				</g>
				<path class="st15" d="M151.1,363c0,0-11.8,0.9-14.9,12.9c2.8,2.8,6,5,6,5l-0.7,23.6c0,0,9.2,0.9,25.2,0
					c-0.7-9.6-2.1-23.4-2.1-23.4l5.9-5.9c0,0-3.3-12.2-13.3-12.2c0,0,0,3.9-3.1,3.9C151.1,367,151.1,363,151.1,363z"/>
			</g>
		</g>
	</g>
</g>
</svg>
