<?xml version="1.0" encoding="utf-8"?>
<!-- Generator: Adobe Illustrator 23.0.3, SVG Export Plug-In . SVG Version: 6.00 Build 0)  -->
<svg version="1.1" xmlns="http://www.w3.org/2000/svg" xmlns:xlink="http://www.w3.org/1999/xlink" x="0px" y="0px"
	 viewBox="0 0 500 500" style="enable-background:new 0 0 500 500;" xml:space="preserve">
<style type="text/css">
	.st0{opacity:0.17;fill:#44004E;}
	.st1{fill:#986AA3;}
	.st2{fill:#D3A2DD;}
	.st3{fill:#4C2954;}
	.st4{fill:#683972;}
	.st5{fill:#44004E;}
	.st6{fill:#34003D;}
	.st7{fill:#FAF0FC;}
	.st8{fill:#F99345;}
	.st9{opacity:9.000000e-02;fill:#986AA3;}
	.st10{opacity:0.43;fill:#986AA3;}
	.st11{opacity:0.28;fill:#986AA3;}
	.st12{fill:#380042;}
	.st13{fill:#652BA4;}
	.st14{opacity:0.5;fill:#461782;}
	.st15{fill:#F6B6A6;}
	.st16{fill:#461782;}
	.st17{fill:#36203A;}
	.st18{opacity:0.52;fill:#D86C56;}
	.st19{fill:#DB7631;}
	.st20{fill:#DD988A;}
	.st21{opacity:0.33;fill:#44004E;}
	.st22{fill:#290030;}
	.st23{fill:#EA7A2F;}
	.st24{fill:#FFFFFF;}
</style>
<g id="BACKGROUND">
</g>
<g id="OBJECTS">
	<g>
		<ellipse class="st0" cx="257.2" cy="478.2" rx="241.8" ry="12.3"/>
		<path class="st0" d="M411.2,190c-26.5-63.3-89-107.7-161.9-107.7c-1.8,0-3.5,0-5.2,0.1c-23.7-25-57.3-40.7-94.5-40.7
			C77.6,41.7,19.3,100,19.3,171.9c0,44.2,22,83.3,55.7,106.8c10.3,87.1,84.4,154.6,174.3,154.6c18.5,0,36.4-2.9,53.2-8.2
			c19.5,11.6,42.2,18.3,66.6,18.3c71.9,0,130.2-58.3,130.2-130.2C499.2,256.1,462.4,207.5,411.2,190z"/>
		<g>
			<g>
				<g>
					<path class="st1" d="M349.4,458.2c0,0,10,16.7,25.4,15.8s11.7-20.7,23.9-40c12.3-19.3,17.1-13.3,31.4-22.6
						c14.3-9.3,6.2-19.6,16.1-39.9c9.9-20.3,28.9-26,28.9-26s-31.6-9.9-49.2,6c-17.6,15.9-11.1,28.9-27.8,37.2
						c-16.7,8.3-61.3,4.3-65.8,26.3C327.8,437.1,349.4,458.2,349.4,458.2z"/>
					<g>
						<path class="st2" d="M340.5,450.3c1.5-3.4,3.5-6.5,5.8-9.5c2.3-2.9,4.9-5.6,7.8-7.9c2.9-2.4,6.1-4.3,9.4-6l2.5-1.2l2.6-1
							c1.7-0.7,3.5-1.2,5.3-1.8c7-2.4,14.2-4.3,20.7-7.8c6.5-3.4,11.8-8.7,16-14.8c0.5-0.8,1.1-1.5,1.6-2.3l1.5-2.3
							c1-1.5,2-3.1,2.9-4.7c2-3.2,3.9-6.3,6-9.4c4.1-6.2,8.5-12.2,13.5-17.7c5-5.4,10.7-10.4,17.4-13.9c6.6-3.4,14.1-5.1,21.5-4.5
							c-7.4-0.5-14.9,1.4-21.3,4.9c-6.5,3.5-12.1,8.5-17,14c-4.9,5.5-9.3,11.5-13.4,17.7c-2,3.1-4,6.2-5.9,9.4
							c-1,1.6-1.9,3.2-2.9,4.7l-1.5,2.4c-0.5,0.8-1.1,1.5-1.6,2.3c-2.2,3-4.5,6-7.3,8.5c-2.7,2.6-5.8,4.8-9.1,6.5
							c-6.7,3.5-13.9,5.4-20.9,7.7c-1.8,0.6-3.6,1.1-5.3,1.7l-2.6,1l-2.5,1.2c-3.3,1.6-6.5,3.5-9.4,5.8c-2.9,2.3-5.6,4.8-7.9,7.7
							C344.1,443.8,342,446.9,340.5,450.3z"/>
					</g>
				</g>
				<g>
					<path class="st3" d="M332.4,445.6c0,0-9.5-15-1.2-25.9c8.3-10.9,23.4,0.9,45.9,0.8c22.5-0.1,19.7-6.4,34.7-12.7
						c15-6.3,19.8,4.4,42,6.5c22.2,2.1,36.3-9.3,36.3-9.3s-6.9,27.8-29.1,33.4c-22.2,5.6-30.1-5.1-45.4,3.3
						c-15.3,8.5-33.6,43.1-54.6,36.2C339.9,471.2,332.4,445.6,332.4,445.6z"/>
					<g>
						<path class="st2" d="M334.8,455.8c3.5,0.4,7.1,0.3,10.6-0.1c3.5-0.4,7-1.1,10.3-2.2c3.4-1,6.6-2.5,9.7-4.2l2.3-1.3
							c0.8-0.5,1.4-1,2.2-1.5c1.4-1,2.8-2.1,4.2-3.2c2.8-2.2,5.5-4.4,8.4-6.5c2.8-2.1,5.8-4.1,9-5.7c6.4-3.3,13.6-4.6,20.6-4.9
							c3.5-0.2,7.1-0.1,10.6-0.1c3.5,0,7.1,0,10.6,0c7-0.1,14.1-0.5,21.1-1.5c6.9-1,13.9-2.7,20.2-5.7c6.4-3,12-7.7,15.5-13.8
							c-3.4,6.2-8.9,11.1-15.3,14.3c-6.4,3.2-13.3,4.9-20.3,6.1c-7,1.1-14.1,1.5-21.2,1.7c-3.5,0.1-7.1,0.1-10.6,0.1
							c-3.5,0-7.1-0.1-10.6,0.1c-7,0.3-14,1.5-20.3,4.7c-6.3,3.1-11.7,7.8-17.3,12c-1.4,1.1-2.8,2.2-4.3,3.1c-0.7,0.5-1.4,1-2.2,1.5
							l-2.3,1.3c-3.1,1.7-6.4,3.1-9.8,4.1c-3.4,1-6.9,1.6-10.4,2C341.9,456.2,338.3,456.2,334.8,455.8z"/>
					</g>
				</g>
				<g>
					<path class="st4" d="M341.1,444.5c0,0,14.6,12.6,28.9,6.7c14.4-5.9,4.8-23.4,10.5-45.7c5.8-22.3,12.2-18.1,23-31.6
						c10.8-13.5-0.1-20.6,3.1-43c3.2-22.4,19.5-34,19.5-34s-33.1,0.9-45,21.7c-11.8,20.8-1.7,31-15.1,44.3
						c-13.4,13.3-57,24-54.5,46.3S341.1,444.5,341.1,444.5z"/>
					<g>
						<path class="st2" d="M330.3,439.8c0.4-3.7,1.4-7.4,2.6-10.9c1.3-3.5,3-6.9,5-10c2-3.2,4.4-6.1,7.1-8.7l2-2l2.2-1.8
							c1.4-1.2,3-2.3,4.4-3.4c5.9-4.5,12.2-8.7,17.3-14.1c2.6-2.7,4.7-5.7,6.5-8.9c1.8-3.2,3.1-6.7,4.2-10.3l0.8-2.7l0.7-2.7
							c0.5-1.8,0.9-3.6,1.4-5.4c0.9-3.6,1.8-7.3,2.8-10.9c2-7.2,4.3-14.4,7.5-21.2c3.1-6.8,7-13.4,12.2-18.8
							c5.2-5.4,11.8-9.5,19.1-11.3c-7.2,2-13.7,6.1-18.8,11.6c-5.1,5.4-8.9,12-11.9,18.7c-3,6.8-5.3,13.9-7.3,21.1
							c-1,3.6-1.9,7.2-2.8,10.8c-0.5,1.8-0.8,3.6-1.3,5.4l-0.7,2.7c-0.3,0.9-0.5,1.8-0.8,2.7c-1.1,3.6-2.5,7.1-4.3,10.4
							c-1.8,3.3-4.1,6.4-6.7,9.1c-5.3,5.4-11.5,9.6-17.5,14.1c-1.5,1.1-3,2.2-4.5,3.4l-2.2,1.7l-2,1.9c-2.7,2.6-5.1,5.4-7.1,8.5
							c-2.1,3.1-3.8,6.4-5.2,9.9C331.8,432.5,330.7,436.1,330.3,439.8z"/>
					</g>
				</g>
			</g>
			<g>
				<g>
					<path class="st1" d="M174.7,456.5c0,0-8.2,15.7-20.9,14.9c-12.7-0.9-9.6-19.4-19.7-37.6c-10.1-18.1-14.1-12.5-25.9-21.3
						c-11.8-8.8-5.1-18.4-13.3-37.5c-8.1-19.1-23.8-24.4-23.8-24.4s26.1-9.3,40.5,5.6c14.5,15,9.1,27.2,22.9,35
						c13.8,7.8,50.5,4.1,54.2,24.8C192.4,436.7,174.7,456.5,174.7,456.5z"/>
					<g>
						<path class="st2" d="M182,449.1c-1.2-3-2.9-5.8-4.7-8.4c-1.9-2.6-4-5-6.4-7.2c-2.4-2.2-5-4-7.8-5.6l-2.1-1.1
							c-0.7-0.4-1.5-0.6-2.2-1c-1.5-0.6-3-1.2-4.5-1.7c-3-1.1-6.1-2.1-9.1-3.3c-3-1.2-6-2.5-8.8-4.3c-5.6-3.5-9.8-8.7-13.2-14.2
							c-1.7-2.8-3.2-5.6-4.7-8.5c-1.5-2.8-3.1-5.7-4.7-8.5c-3.2-5.6-6.7-11-10.6-16.2c-3.9-5.1-8.4-9.8-13.8-13.3
							c-5.3-3.6-11.8-5.6-18.3-5.1c6.5-0.6,13,1.2,18.5,4.7c5.5,3.5,10.1,8.2,14.1,13.3c4,5.1,7.5,10.6,10.8,16.2
							c1.6,2.8,3.2,5.6,4.7,8.5c1.6,2.8,3,5.7,4.7,8.4c3.3,5.5,7.4,10.6,12.8,14c5.4,3.4,11.6,5.3,17.7,7.7c1.5,0.6,3,1.1,4.5,1.8
							c0.7,0.3,1.5,0.6,2.2,1l2.1,1.2c2.8,1.7,5.5,3.6,7.8,5.8c2.3,2.3,4.4,4.7,6.2,7.4C179.3,443.2,180.8,446.1,182,449.1z"/>
					</g>
				</g>
				<g>
					<path class="st3" d="M188.7,444.7c0,0,7.8-14.1,1-24.4c-6.8-10.3-19.3,0.9-37.8,0.8c-18.5-0.1-16.2-6-28.5-11.9
						c-12.3-5.9-16.3,4.2-34.6,6.1c-18.3,2-29.9-8.7-29.9-8.7s5.7,26.2,24,31.4c18.3,5.2,24.8-4.8,37.4,3.1s27.6,40.5,44.9,34.1
						C182.5,468.7,188.7,444.7,188.7,444.7z"/>
					<g>
						<path class="st2" d="M186.7,454.2c-2.9,0.5-5.9,0.4-8.9,0.1c-3-0.3-5.9-1-8.7-1.9c-2.8-0.9-5.5-2.3-8.1-3.9l-1.9-1.2l-1.8-1.4
							c-1.2-0.9-2.3-1.9-3.4-2.9c-4.5-3.8-8.8-8-13.9-11c-5.1-3-10.9-4.3-16.8-4.6c-2.9-0.2-5.9-0.1-8.9-0.1c-3,0-6,0-8.9-0.1
							c-6-0.2-11.9-0.6-17.8-1.7c-5.8-1.1-11.7-2.9-16.8-6c-5.1-3.1-9.4-7.6-11.9-13c1.3,2.6,3.1,5.1,5.1,7.2c2.1,2.1,4.4,3.9,7,5.4
							c5.1,3,10.9,4.6,16.7,5.7c5.8,1,11.8,1.4,17.7,1.5c3,0.1,5.9,0.1,8.9,0c3,0,6-0.1,8.9,0.1c6,0.3,12,1.6,17.2,4.8
							c5.2,3.1,9.5,7.3,13.9,11.2c1.1,1,2.2,2,3.4,2.9l1.7,1.4l1.8,1.2c2.5,1.6,5.1,3,7.9,4C174.7,454,180.7,454.9,186.7,454.2z"/>
					</g>
				</g>
				<g>
					<path class="st4" d="M181.5,443.6c0,0-12,11.9-23.8,6.3c-11.8-5.5-4-22-8.7-42.9c-4.7-20.9-10-17.1-18.9-29.7
						c-8.9-12.7,0-19.3-2.6-40.4c-2.6-21.1-16.1-31.9-16.1-31.9s27.3,0.8,37,20.4s1.4,29.1,12.4,41.6c11,12.5,46.9,22.6,44.9,43.5
						C203.6,431.5,181.5,443.6,181.5,443.6z"/>
					<g>
						<path class="st2" d="M190.4,439.3c-0.4-3.4-1.2-6.6-2.3-9.8c-1.1-3.2-2.5-6.3-4.1-9.2c-1.6-2.9-3.7-5.6-5.8-8.1l-1.7-1.8
							c-0.6-0.6-1.2-1.1-1.8-1.7c-1.2-1.1-2.5-2.2-3.8-3.3c-2.6-2.2-5.2-4.3-7.7-6.5c-2.5-2.2-5-4.6-7.1-7.2
							c-4.3-5.3-7-11.7-8.8-18.3c-0.9-3.3-1.6-6.6-2.3-9.9c-0.7-3.3-1.4-6.6-2.2-9.9c-1.6-6.5-3.4-13-5.7-19.3
							c-2.4-6.3-5.3-12.4-9.5-17.7c-4-5.3-9.6-9.6-16-11.7c6.5,1.9,12.2,6.1,16.4,11.4c4.3,5.3,7.3,11.4,9.8,17.7
							c2.5,6.3,4.3,12.8,5.9,19.4c0.8,3.3,1.5,6.6,2.2,9.9c0.7,3.3,1.4,6.6,2.3,9.8c1.7,6.5,4.3,12.8,8.5,17.9
							c4.2,5.2,9.6,9.3,14.7,13.7c1.3,1.1,2.6,2.2,3.8,3.4c0.6,0.6,1.3,1.1,1.8,1.8l1.7,1.9c2.2,2.6,4.2,5.3,5.8,8.3
							c1.6,3,2.9,6.1,4,9.3C189.4,432.6,190.1,435.9,190.4,439.3z"/>
					</g>
				</g>
			</g>
			<g>
				<g>
					<path class="st5" d="M357.8,479.7H178.5c-7.7,0-14-6.3-14-14V66.5c0-7.7,6.3-14,14-14h179.3c7.7,0,14,6.3,14,14v399.2
						C371.7,473.5,365.5,479.7,357.8,479.7z"/>
					<path class="st6" d="M268.4,479.7H164.5V66.9c0-7.9,6.4-14.3,14.3-14.3h89.6V479.7z"/>
					<path class="st7" d="M361.9,415.3H173.8c-1.5,0-2.8-1.2-2.8-2.8V67.3c0-1.5,1.2-2.8,2.8-2.8h188.1c1.5,0,2.8,1.2,2.8,2.8v345.3
						C364.7,414.1,363.4,415.3,361.9,415.3z"/>
					<path class="st5" d="M298.6,77.2h-59.8c-7.2,0-13-5.8-13-13v-4.8h85.9v4.8C311.6,71.4,305.8,77.2,298.6,77.2z"/>
					<ellipse class="st8" cx="267.8" cy="447.2" rx="15" ry="14.6"/>
				</g>
				<rect x="186.6" y="92.4" class="st9" width="161.3" height="95.1"/>
				<rect x="185.3" y="267.2" class="st10" width="163.9" height="51.5"/>
				<rect x="184.3" y="334.5" class="st11" width="75.7" height="51.5"/>
				<rect x="271.3" y="334.5" class="st11" width="75.5" height="51.5"/>
				<rect x="186.6" y="200.8" class="st11" width="75.7" height="51.5"/>
				<rect x="273.6" y="200.8" class="st11" width="75.5" height="51.5"/>
			</g>
			<g>
				<g>
					<path class="st12" d="M98.8,479.5l-56.9-1.2c0,0,0.7-2.7,1.6-6.1c1-3.9,2.3-8.5,2.8-10.5c1-3.7,4.1-9,7.5-8.5
						c3.4,0.5,9.5-1.7,15.3,2.4c5.8,4.1,11.7,10,20.7,12.9c4.4,1.4,6.6,4.1,7.8,6.4C98.8,477.4,98.8,479.5,98.8,479.5z"/>
					<path class="st13" d="M180.8,176.6c0,0-15.8,48.1-18.7,51.3c-0.9,0.9-4.5,1.1-9.3,0.8c-11.1-0.7-27.9-3.6-27.9-3.6
						s-2.9-6.3-4.6-17c-0.7-4.4-1.2-13-1.6-21.7c-0.5-12.5-0.8-25-0.8-25s28.2,33.6,33.3,36l15.8-27.5L180.8,176.6z"/>
					<path class="st14" d="M152.8,228.6c-11.1-0.7-27.9-3.6-27.9-3.6s-2.9-6.3-4.6-17c-0.7-4.4-1.2-13-1.6-21.7
						c3.5,2.4,8.2,6.9,9.9,14.4c2.9,12.9,2.7,13.9,10.9,16.1C145.4,218.3,150.4,224.9,152.8,228.6z"/>
					<path class="st15" d="M54.9,420.4l-1.3,34.9c-0.1,3.6,2.4,6.9,6,7.6c0.8,0.1,1.6,0.1,2.4,0c4.1-1,4.5-6.6,4.5-6.6l1.2-35.7
						L54.9,420.4z"/>
					<path class="st12" d="M166.7,479.5l-62-0.5c0,0,0.5-2.1,1-5c0.6-3.5,1.1-8.1,0.7-11.5c-0.7-6.3,2.2-9,4.6-10
						c2.4-1,8.3-0.5,12.7-0.5c4.4,0,7.8,3.4,14.6,9c6.8,5.6,17,5.6,21.4,6.3c2.3,0.4,4.1,3.8,5.4,6.8
						C166.1,476.9,166.7,479.5,166.7,479.5z"/>
					<path class="st15" d="M108.1,421.6l3,31.1c0.3,3.3,3.3,5.7,6.6,5.1c0.2,0,0.4-0.1,0.6-0.2c0.2-0.1,0.4-0.1,0.6-0.2
						c2.2-0.9,3.6-3,3.5-5.4l-0.7-31.6L108.1,421.6z"/>
					<polygon class="st8" points="73.3,454.7 67.2,464.4 77.4,468.8 81.1,461.2 					"/>
					<path class="st8" d="M98.8,479.5l-56.9-1.2c0,0,0.7-2.7,1.6-6.1l53.9,2.7l0.2,0.1C98.8,477.4,98.8,479.5,98.8,479.5z"/>
					<path class="st8" d="M166.7,479.5l-62-0.5c0,0,0.5-2.1,1-5l6.5-0.6l52.9,0.8C166.1,476.9,166.7,479.5,166.7,479.5z"/>
					<polygon class="st8" points="132.4,453.4 126.9,462.6 138.7,466.7 141.8,459.1 					"/>
					<path class="st8" d="M85.8,278.4c0,0,9.1,74.1,9.9,93.4c0.7,19.3,4.4,27.7,4.4,36.9c0,9.1,0.7,16.4,0.7,16.4l29.6-0.7
						c0,0-0.7-73.7-1.1-79.9c-0.4-6.2-3.6-66.4-3.6-66.4L85.8,278.4z"/>
					<path class="st8" d="M109.5,281.3c0,0-3.6,21.9-8.8,36.9c-5.1,15-22.6,86.9-24.1,93.8c-1.5,6.9-3.3,15-3.3,15H48.2
						c0,0,0.4-16.4,0.4-28.8c0-12.4-1.1-36.1,1.5-50.4c2.6-14.2,1.1-36.9,0.7-49.3c-0.4-12.4,3.3-27.7,3.3-27.7L109.5,281.3z"/>
					<path class="st13" d="M128.5,293.4c0,0-3.3,2.9-9.9,4.4c-6.6,1.5-14.2-1.8-24.5-7.7c-10.2-5.8-13.1,7.7-25.5,3.6
						c-12.4-4-20.8-21.5-20.8-21.5s0.7-9.9,4.4-24.5c3.6-14.6,5.1-56.2,7.3-66.1c2.2-9.9,5.1-12.8,12-19.7c5.3-5.3,12.8-8,16.2-9
						c1.1-0.3,1.7-0.5,1.7-0.5s13,3.1,21.1,5.5c3,0.9,5.3,1.7,6,2.2c2.6,1.8,5.5,4.7,6.9,10.2c1.5,5.5,2.9,23.7,1.8,32.8
						c-1.1,9.1-0.4,38.7-0.4,47.4C124.9,259.4,128.5,293.4,128.5,293.4z"/>
					<path class="st13" d="M79.6,175.1c0,0-8.8-8-16.8-3.6c-8,4.4-12.4,23.6-13.5,42.3c-1.1,18.6,1.4,48.6,12,48.3
						c10.6-0.4,58.8-33.9,58.8-33.9l-9.5-15l-35.4,12.8C75.2,225.8,84,182.8,79.6,175.1z"/>
					<polygon class="st16" points="110.6,213.1 117.6,210.6 123.8,224 120.1,228 					"/>
					<path class="st15" d="M139.1,201.1l-20.7,10.5l4.7,11.1c0,0,15.4-7.8,16.7-13C141,204.4,139.1,201.1,139.1,201.1z"/>
					<polygon class="st16" points="167,169.8 171.3,163.8 182.2,168.8 180.8,176.6 					"/>
					<path class="st15" d="M186.7,147c0,0-2.8-2.8-5.5-0.5c-2.7,2.3-9.7,18-9.7,18l10.5,4.5c0,0,2.8-11.6,4-15.2
						C187.1,150.2,186.7,147,186.7,147z"/>
					<path class="st16" d="M110.5,158c-8-2.4-21.1-5.5-21.1-5.5s-0.6,0.2-1.7,0.5c0.8,2.8,2.8,8.5,6.1,13.8
						c4.5,7.3,15.6,6.7,17.5,2.9C113.2,166,110.7,158.5,110.5,158z"/>
					<g>
						<path class="st15" d="M92,128.2l-1.5,25.1c0,0,4.7,11.7,10.1,13.6c5.4,1.9,7.8,0.5,8.6-1.3c0.9-1.8-1.9-8.3-1.9-8.3l-0.4-10
							l0.4-3.8L92,128.2z"/>
						<path class="st15" d="M90.7,107.2c0,0-3.3,33.7,10,38.8c13.3,5.1,28.8-11.8,27.6-31.6c-1.2-19.8-17.3-21-21-20.8
							C103.5,93.8,91.7,98.2,90.7,107.2z"/>
						<path class="st5" d="M92.5,125.8c0,0,3.9-2.7,5.4-7.9c1.5-5.2-1.1-10.1-1.1-10.1l3.8,6.9l-0.7-11.2c0,0,5.6,9.1,12.3,10.3
							c0,0-3.6-5.4-3.8-9c0,0,7.7,8.9,19.2,8.5c11.6-0.4,19.6-2.7,21.7-12.4c0,0-18.9-3.2-24.8-8.9c0,0,9.6-0.4,12.3-3.4
							c0,0-11.6,1.5-18.5-1.1c-6.9-2.6-20-1.8-22.6,0.7c-2.7,2.6-3,6.7-3,6.7s-8.2,0.1-10.1,5c-1.9,4.9-0.1,34.1,9.1,38.8l0.5-6.5
							l-0.8-4.9L92.5,125.8z"/>
						<path class="st15" d="M98.9,124c0,4.5-3.7,8.2-8.2,8.2s-8.2-3.7-8.2-8.2c0-4.5,3.7-8.2,8.2-8.2S98.9,119.5,98.9,124z"/>
						<path class="st17" d="M113.1,120.4c0,1.2-1,2.2-2.2,2.2s-2.2-1-2.2-2.2s1-2.2,2.2-2.2S113.1,119.2,113.1,120.4z"/>
						<path class="st17" d="M126,125.7c0,1-0.8,1.8-1.8,1.8c-1,0-1.8-0.8-1.8-1.8c0-1,0.8-1.8,1.8-1.8
							C125.2,123.9,126,124.7,126,125.7z"/>
						<g>
							<g>
								<path class="st17" d="M110.5,128.1c-4.4,0-8.1-3.6-8.1-8.1c0-4.4,3.6-8.1,8.1-8.1c4.4,0,8.1,3.6,8.1,8.1
									C118.5,124.5,114.9,128.1,110.5,128.1z M110.5,112.8c-4,0-7.3,3.3-7.3,7.3c0,4,3.3,7.3,7.3,7.3c4,0,7.3-3.3,7.3-7.3
									C117.8,116.1,114.5,112.8,110.5,112.8z"/>
							</g>
							<g>
								<path class="st17" d="M126.7,134.1c-4.1,0-7.5-3.3-7.5-7.5c0-4.1,3.3-7.5,7.5-7.5c4.1,0,7.5,3.3,7.5,7.5
									C134.2,130.8,130.8,134.1,126.7,134.1z M126.7,120c-3.7,0-6.7,3-6.7,6.7c0,3.7,3,6.7,6.7,6.7c3.7,0,6.7-3,6.7-6.7
									C133.4,123,130.4,120,126.7,120z"/>
							</g>
							<g>
								
									<rect x="118.6" y="122" transform="matrix(0.3443 -0.9389 0.9389 0.3443 -37.6658 192.5638)" class="st17" width="0.8" height="2.6"/>
							</g>
						</g>
						<path class="st17" d="M108.3,134.6l5,2.8c0,0-2.1,3.4-5.2,1.9C105.1,137.9,108.3,134.6,108.3,134.6z"/>
						<path class="st18" d="M106.6,130.3c-0.4,0.9-2.1,1.1-3.7,0.4c-1.6-0.7-2.6-2.1-2.1-3c0.4-0.9,2.1-1.1,3.7-0.4
							C106,128,107,129.3,106.6,130.3z"/>
						<path class="st18" d="M123.5,138.6c-0.4,0.9-2.1,1.1-3.7,0.4c-1.6-0.7-2.6-2.1-2.1-3c0.4-0.9,2.1-1.1,3.7-0.4
							C122.9,136.3,123.9,137.7,123.5,138.6z"/>
					</g>
					<g>
						<path class="st19" d="M52.9,427l-2.1-0.9c0-0.1,4.3-10.9,3.9-25.5c-0.3-13.3-0.1-16.1,1-27.5l0.5-4.8
							c0.9-9.3,2.5-20.9,3.8-30.1c0.9-6.3,1.6-11.2,1.7-13.3c0.4-5.2,5-20.1,5.2-20.7L69,305c0,0.2-4.7,15.3-5.1,20.2
							c-0.2,2.1-0.8,7.1-1.7,13.4c-1.3,9.2-2.9,20.8-3.8,30l-0.5,4.8c-1.1,11.3-1.3,14-1,27.2C57.4,415.6,53.1,426.5,52.9,427z"/>
					</g>
					<path class="st12" d="M67.2,292.9l-3.1,19.8c0,0,10.5-2.4,13.1-7.9c2.6-5.5,2.4-12,2.4-12S69.6,295.6,67.2,292.9z"/>
					<path class="st14" d="M76.9,172.2c0,0,5.8,4.4,5.8,14.6S74,226.9,74,226.9l34.1-12.9l-28.7,6.8
						C79.4,220.9,93.7,180.5,76.9,172.2z"/>
					<path class="st20" d="M94.1,132.9c0,0,2,12.1,12.9,14.3l0.4,10C107.3,157.2,94.5,158.4,94.1,132.9z"/>
					<path class="st20" d="M94.6,124c0,0-3.5-4-6.2-3c-2.7,1-1.6,3.4-1.6,3.4s2.4-2.9,3.5-1.7c1.1,1.2-0.7,2.8-0.7,2.8
						s-0.4,2.1,1,1.3C91.9,126.1,94.6,124,94.6,124z"/>
					<polygon class="st20" points="124.1,208.7 123.2,222.7 118.4,211.6 					"/>
					<polygon class="st20" points="173.8,159.3 181.6,169.1 171.1,164.6 					"/>
					<path class="st19" d="M92.4,344.8l11.7-30.3l14.2-9.5c0,0-13.5,16.4-14.2,25.2c-0.7,8.8,0.4,20.1-0.4,30.3
						c-0.7,10.2-6.9,24.8-6.9,24.8L92.4,344.8z"/>
					<polygon class="st20" points="54.3,427.2 67.2,436.7 67.4,426.7 					"/>
					<polygon class="st20" points="108.4,425.1 121.6,439.7 121.9,424.7 					"/>
					<path class="st14" d="M47.5,271.3l4.6-22.5c0,0,3.8,17.4,10.2,17.2c6.4-0.3,27.4-18.2,27.4-18.2s-16.1,22-23.8,24.6
						c-7.7,2.6-13.3,7.9-13.3,7.9L47.5,271.3z"/>
				</g>
				<g>
					<polygon class="st13" points="146,121.3 149.6,138.9 155.3,139.8 150.4,118.5 					"/>
					<polygon class="st5" points="146.4,124.3 149.7,123.5 149.8,125.7 147,126.5 					"/>
					<polygon class="st5" points="147.5,128.9 150.7,128 150.9,130.2 148.1,131.1 					"/>
					<polygon class="st5" points="148.4,133.2 151.7,132.3 151.8,134.5 149,135.3 					"/>
					<g>
						<polygon class="st13" points="236.1,141.4 216.2,141 203.2,140.8 195,140.7 193.8,140.6 170.4,140.2 159.8,140 156.4,115.4 
							187.9,100.5 188.8,100.1 195.8,96.8 206.3,91.8 224.7,83.1 225.3,86.3 						"/>
						<path class="st21" d="M225.3,86.3c-2.1,2.4-5.6,6.3-11.6,12.4c-12.6,12.7-22,8.7-27.1,16.2c-5.1,7.5-0.2,13.5-7.3,16.8
							c-4.8,2.2-7.6,6.2-8.9,8.6l-10.5-0.2l-3.5-24.6l31.5-14.9l0.9-0.4l7-3.3l10.6-5l18.4-8.7L225.3,86.3z"/>
						<polygon class="st8" points="186.5,140.2 186.1,168.2 182.8,168.5 179.6,168.8 177.1,159.2 171,139.9 176.8,140 						"/>
						<path class="st5" d="M236.5,141.7c-1.5,0.3-3.3-0.6-5-2.5c-3.9-4.3-8-13.6-10.5-24.7c-2.3-10.4-2.7-19.8-1.3-25.6v0
							c0.7-3.2,2-5.3,3.8-5.7c5-1.1,11.9,11.1,15.6,27.2C242.6,126.6,241.4,140.6,236.5,141.7z"/>
						<path class="st22" d="M231.4,139.1c-3.9-4.3-8-13.6-10.5-24.7c-2.3-10.4-2.7-19.8-1.3-25.6c3.9,4.3,8,13.5,10.5,24.7
							C232.4,123.9,232.8,133.4,231.4,139.1z"/>
						<path class="st8" d="M219.4,104.7l13.2-2.4l4.7,16.2l-13.5,5.8C223.7,124.4,219.6,113.5,219.4,104.7z"/>
						<path class="st23" d="M237.4,109.7c1.3,4.5,1.2,8.4-0.1,8.8s-3.5-2.9-4.8-7.4c-1.3-4.5-1.2-8.4,0.1-8.8
							C233.9,102,236.1,105.3,237.4,109.7z"/>
						<path class="st5" d="M215.1,140.9l-13-0.2c-3.2-9.1-8.1-26.1-7.4-43.4l10.6-4.9l-0.1,0.3c0,0-1.1,15.8,2.2,28.6
							C209.7,130,212.9,136.8,215.1,140.9z"/>
						<path class="st8" d="M216.2,141l-13-0.2c-3.2-9.3-8.1-26.5-7.4-44l10.6-5l-0.1,0.3c0,0-1.1,16,2.2,28.9
							C210.7,130,214,136.9,216.2,141z"/>
						<path class="st8" d="M195,140.7l-1.2,0c-1.5-6.6-5.5-25.3-5.9-40.1l0.9-0.4C188.9,103.3,190.2,129.2,195,140.7z"/>
						<path class="st21" d="M225.3,86.3c-2.1,2.4-5.6,6.3-11.6,12.4c-12.6,12.7-22,8.7-27.1,16.2c-5.1,7.5-0.2,13.5-7.3,16.8
							c-4.8,2.2-7.6,6.2-8.9,8.6l-10.5-0.2l-3.5-24.6l31.5-14.9l0.9-0.4l7-3.3l10.6-5l18.4-8.7L225.3,86.3z"/>
						<polygon class="st8" points="160.1,110.3 167.7,143.1 156,143.1 149.4,114.9 						"/>
						<path class="st21" d="M186.5,140.2l-0.4,28.1l-3.3,0.3c-0.4-1.7-1.5-6-1.5-7.8c0-2.3,0.5-5.6-2.2-12.3c-1.4-3.6-2-6.5-2.3-8.5
							L186.5,140.2z"/>
					</g>
				</g>
				<path class="st15" d="M186.1,146.1c0,0-4.2-0.1-5.2,5c-1,5.1,3.3,8.7,5.5,7.8C188.5,157.9,191,146.1,186.1,146.1z"/>
			</g>
			<g>
				<polygon class="st8" points="464.3,91 272.6,91 272.6,164.5 272.6,164.5 272.5,181.6 287.6,164.5 464.3,164.5 				"/>
				
					<ellipse transform="matrix(0.9256 -0.3785 0.3785 0.9256 -25.3925 127.2882)" class="st5" cx="311.1" cy="128.2" rx="23.8" ry="23.8"/>
				<polygon class="st24" points="306.2,118.6 306.4,137.1 320.8,126.8 				"/>
				<rect x="339.7" y="125" class="st24" width="109.3" height="5.6"/>
				<rect x="339.7" y="124.8" class="st5" width="51" height="5.8"/>
			</g>
			<g>
				
					<ellipse transform="matrix(0.2595 -0.9657 0.9657 0.2595 34.2199 549.7248)" class="st13" cx="375.6" cy="252.5" rx="27" ry="27"/>
				<path class="st24" d="M372.8,250c0,0-9.4-4.5-10.8,1.1c-1.3,5.6,2.9,9.9,9,11.2c6.1,1.3,12.8,1.1,12.8,1.1s3.8-14.3,1.6-19.7
					c-2.2-5.4-6.3-5.8-9-4.5C373.7,240.6,372.8,250,372.8,250z"/>
			</g>
			<g>
				
					<ellipse transform="matrix(0.7828 -0.6222 0.6222 0.7828 4.6519 115.5656)" class="st8" cx="167.9" cy="51.1" rx="20.5" ry="20.5"/>
				<rect x="160.9" y="44.1" class="st24" width="5" height="14.3"/>
				<rect x="169.6" y="44.1" class="st24" width="5" height="14.3"/>
			</g>
			<g>
				<path class="st8" d="M421.2,198.3v21.3c0,3.3,2.6,5.9,5.9,5.9h34.8l9.5,8.5l0.2-8.5v-27.2c0-3.3-2.6-5.9-5.9-5.9h-38.5
					C423.8,192.4,421.2,195,421.2,198.3z"/>
				<path class="st24" d="M437.5,208.5c0,1.5-1.2,2.7-2.7,2.7s-2.7-1.2-2.7-2.7s1.2-2.7,2.7-2.7S437.5,207,437.5,208.5z"/>
				<path class="st24" d="M449.3,208.5c0,1.5-1.2,2.7-2.7,2.7s-2.7-1.2-2.7-2.7s1.2-2.7,2.7-2.7S449.3,207,449.3,208.5z"/>
				<path class="st24" d="M460.7,208.5c0,1.5-1.2,2.7-2.7,2.7s-2.7-1.2-2.7-2.7s1.2-2.7,2.7-2.7S460.7,207,460.7,208.5z"/>
			</g>
			<g>
				<path class="st13" d="M64.5,108.4v21.3c0,3.3-2.6,5.9-5.9,5.9H23.8l-9.5,8.5l-0.2-8.5v-27.2c0-3.3,2.6-5.9,5.9-5.9h38.5
					C61.9,102.4,64.5,105.1,64.5,108.4z"/>
				<path class="st24" d="M48.1,118.5c0,1.5,1.2,2.7,2.7,2.7c1.5,0,2.7-1.2,2.7-2.7s-1.2-2.7-2.7-2.7
					C49.4,115.8,48.1,117,48.1,118.5z"/>
				<path class="st24" d="M36.3,118.6c0,1.5,1.2,2.7,2.7,2.7s2.7-1.2,2.7-2.7c0-1.5-1.2-2.7-2.7-2.7S36.3,117.1,36.3,118.6z"/>
				<path class="st24" d="M25,118.6c0,1.5,1.2,2.7,2.7,2.7c1.5,0,2.7-1.2,2.7-2.7c0-1.5-1.2-2.7-2.7-2.7
					C26.2,115.9,25,117.1,25,118.6z"/>
			</g>
			<g>
				<path class="st8" d="M200.5,297v21.3c0,3.3-2.6,5.9-5.9,5.9h-34.8l-9.5,8.5l-0.2-8.5V297c0-3.3,2.6-5.9,5.9-5.9h38.5
					C197.8,291.1,200.5,293.7,200.5,297z"/>
				<path class="st24" d="M184.1,307.2c0,1.5,1.2,2.7,2.7,2.7s2.7-1.2,2.7-2.7s-1.2-2.7-2.7-2.7S184.1,305.6,184.1,307.2z"/>
				<path class="st24" d="M172.3,307.2c0,1.5,1.2,2.7,2.7,2.7s2.7-1.2,2.7-2.7s-1.2-2.7-2.7-2.7S172.3,305.7,172.3,307.2z"/>
				<path class="st24" d="M161,307.2c0,1.5,1.2,2.7,2.7,2.7s2.7-1.2,2.7-2.7s-1.2-2.7-2.7-2.7S161,305.7,161,307.2z"/>
			</g>
			<g>
				
					<rect x="388.4" y="199.6" transform="matrix(0.7071 0.7071 -0.7071 0.7071 259.7513 -218.1942)" class="st24" width="9.7" height="9.7"/>
				
					<rect x="139.9" y="273.8" transform="matrix(0.7071 0.7071 -0.7071 0.7071 239.4359 -20.7729)" class="st24" width="9.7" height="9.7"/>
				
					<rect x="121.8" y="34.3" transform="matrix(0.7071 0.7071 -0.7071 0.7071 64.8036 -78.09)" class="st24" width="9.7" height="9.7"/>
				
					<rect x="379.1" y="44.2" transform="matrix(0.7071 0.7071 -0.7071 0.7071 147.1355 -257.1215)" class="st24" width="9.7" height="9.7"/>
				
					<rect x="270.9" y="11.5" transform="matrix(0.7071 0.7071 -0.7071 0.7071 92.3499 -190.2398)" class="st24" width="9.7" height="9.7"/>
				
					<rect x="453" y="299.3" transform="matrix(0.7071 0.7071 -0.7071 0.7071 349.1805 -234.6524)" class="st24" width="9.7" height="9.7"/>
				
					<rect x="14.9" y="353.5" transform="matrix(0.7071 0.7071 -0.7071 0.7071 259.1873 91.0115)" class="st24" width="9.7" height="9.7"/>
				
					<rect x="18.1" y="200" transform="matrix(0.7071 0.7071 -0.7071 0.7071 151.5532 43.7665)" class="st24" width="9.7" height="9.7"/>
				<g>
					<path class="st8" d="M23.9,270.7c0,1.5,1.2,2.7,2.7,2.7c1.5,0,2.7-1.2,2.7-2.7s-1.2-2.7-2.7-2.7
						C25.1,268,23.9,269.2,23.9,270.7z"/>
					<path class="st8" d="M12.1,270.7c0,1.5,1.2,2.7,2.7,2.7c1.5,0,2.7-1.2,2.7-2.7s-1.2-2.7-2.7-2.7
						C13.3,268,12.1,269.2,12.1,270.7z"/>
					<path class="st8" d="M0.8,270.7c0,1.5,1.2,2.7,2.7,2.7s2.7-1.2,2.7-2.7S5,268,3.5,268S0.8,269.2,0.8,270.7z"/>
				</g>
				<g>
					<path class="st8" d="M421.9,71.3c0,2.4,1.9,4.3,4.3,4.3s4.3-1.9,4.3-4.3c0-2.4-1.9-4.3-4.3-4.3S421.9,69,421.9,71.3z"/>
					<path class="st8" d="M403.5,71.4c0,2.4,1.9,4.3,4.3,4.3c2.4,0,4.3-1.9,4.3-4.3c0-2.4-1.9-4.3-4.3-4.3
						C405.4,67.1,403.5,69,403.5,71.4z"/>
					<path class="st8" d="M385.8,71.4c0,2.4,1.9,4.3,4.3,4.3c2.4,0,4.3-1.9,4.3-4.3c0-2.4-1.9-4.3-4.3-4.3
						C387.7,67.1,385.8,69,385.8,71.4z"/>
				</g>
				<g>
					<path class="st8" d="M459.6,320.6c0,2.4,1.9,4.3,4.3,4.3c2.4,0,4.3-1.9,4.3-4.3c0-2.4-1.9-4.3-4.3-4.3
						C461.6,316.4,459.6,318.3,459.6,320.6z"/>
					<path class="st8" d="M441.2,320.7c0,2.4,1.9,4.3,4.3,4.3c2.4,0,4.3-1.9,4.3-4.3c0-2.4-1.9-4.3-4.3-4.3
						C443.1,316.4,441.2,318.3,441.2,320.7z"/>
					<path class="st8" d="M423.6,320.7c0,2.4,1.9,4.3,4.3,4.3c2.4,0,4.3-1.9,4.3-4.3c0-2.4-1.9-4.3-4.3-4.3
						C425.5,316.4,423.6,318.3,423.6,320.7z"/>
				</g>
				<g>
					<path class="st8" d="M96.2,67.8c0,2.4,1.9,4.3,4.3,4.3c2.4,0,4.3-1.9,4.3-4.3c0-2.4-1.9-4.3-4.3-4.3
						C98.2,63.6,96.2,65.5,96.2,67.8z"/>
					<path class="st8" d="M77.8,67.9c0,2.4,1.9,4.3,4.3,4.3c2.4,0,4.3-1.9,4.3-4.3c0-2.4-1.9-4.3-4.3-4.3
						C79.7,63.7,77.8,65.6,77.8,67.9z"/>
					<path class="st8" d="M60.2,67.9c0,2.4,1.9,4.3,4.3,4.3c2.4,0,4.3-1.9,4.3-4.3c0-2.4-1.9-4.3-4.3-4.3
						C62.1,63.7,60.2,65.6,60.2,67.9z"/>
				</g>
			</g>
		</g>
	</g>
</g>
</svg>
