<?xml version="1.0" encoding="utf-8"?>
<!-- Generator: Adobe Illustrator 23.0.3, SVG Export Plug-In . SVG Version: 6.00 Build 0)  -->
<svg version="1.1" xmlns="http://www.w3.org/2000/svg" xmlns:xlink="http://www.w3.org/1999/xlink" x="0px" y="0px"
	 viewBox="0 0 500 500" style="enable-background:new 0 0 500 500;" xml:space="preserve">
<style type="text/css">
	.st0{fill:#FFFFFF;}
	.st1{opacity:0.2;}
	.st2{fill:#39ACCC;}
	.st3{opacity:0.1;}
	.st4{fill:#D5D1DE;}
	.st5{fill:#A6A3AD;}
	.st6{opacity:0.15;}
	.st7{fill:#747AC2;}
	.st8{fill:#8A91E6;}
	.st9{fill:#310047;}
	.st10{fill:#2A2E5E;}
	.st11{fill:#FE9B88;}
	.st12{fill:#FFA800;}
	.st13{fill:#373C7A;}
	.st14{fill:#363A68;}
	.st15{fill:#FE8D77;}
	.st16{fill:#0E3266;}
	.st17{fill:#CF8800;}
	.st18{fill:#082951;}
	.st19{fill:#EFF4DF;}
</style>
<g id="BACKGROUND">
	<rect class="st0" width="500" height="500"/>
</g>
<g id="OBJECTS">
	<g>
		<g class="st1">
			<path class="st2" d="M65.1,332.3c-49-37.1-81.4-92.2-56.5-154.1C47.1,82.3,164.5,34.5,264.3,29.7c42.8-2,55.6,13.6,74.6,47.3
				c22.5,39.9,85.9,34.9,121.4,61.9c26.8,20.4,39.3,56.6,39.7,88.9c0.8,78.3-66.3,134.1-139.3,152.5
				c-68.1,17.2-143.4,11.9-210.7-6.3C121,366.2,90.8,351.7,65.1,332.3z"/>
		</g>
		<g class="st3">
			<ellipse cx="250" cy="417.7" rx="194.8" ry="13"/>
		</g>
		<g>
			<g>
				<g>
					<g>
						<g>
							<path class="st4" d="M284.5,364.6h-58.8c5.6,4.8,9.2,12,9.2,19.9l0,0c0,14.5-11.8,26.3-26.3,26.3h-18c-1.7,0-3.2,1.4-3.2,3.2
								l0,0c0,1.7,1.4,3.2,3.2,3.2h93.9c14.5,0,26.3-11.8,26.3-26.3l0,0C310.7,376.3,299,364.6,284.5,364.6z"/>
						</g>
					</g>
					<g>
						<g>
							<path class="st5" d="M284.7,419.9H189c-1.6,0-2.8-1.3-2.8-2.8c0-1.6,1.3-2.8,2.8-2.8h95.7c12.9,0,23.4-10.5,23.4-23.4
								c0-12.9-10.5-23.4-23.4-23.4c-1.6,0-2.8-1.3-2.8-2.8c0-1.6,1.3-2.8,2.8-2.8c16,0,29.1,13.1,29.1,29.1
								C313.8,406.9,300.8,419.9,284.7,419.9z"/>
						</g>
					</g>
				</g>
				<g class="st6">
					<path d="M234.6,381.4h77.6c-3.9-11.4-14.8-19.7-27.5-19.7c-1.6,0-2.8,1.3-2.8,2.8h-56.2C230.5,368.8,233.8,374.7,234.6,381.4z"
						/>
				</g>
			</g>
			<g>
				<g>
					<path class="st7" d="M100.7,370.9h307.8c7.2,0,13.1-5.8,13.1-13.1V155.6c0-7.2-5.8-13.1-13.1-13.1H100.7
						c-7.2,0-13.1,5.8-13.1,13.1v202.2C87.7,365,93.5,370.9,100.7,370.9z"/>
				</g>
				<g>
					<path class="st5" d="M87.7,326.2v31.6c0,7.2,5.8,13.1,13.1,13.1h307.8c7.2,0,13.1-5.8,13.1-13.1v-31.6H87.7z"/>
				</g>
				<g>
					<path class="st8" d="M91.5,370.9h307.8c7.2,0,13.1-5.8,13.1-13.1V155.6c0-7.2-5.8-13.1-13.1-13.1H91.5
						c-7.2,0-13.1,5.8-13.1,13.1v202.2C78.4,365,84.3,370.9,91.5,370.9z"/>
				</g>
				<g>
					<rect x="91.8" y="153.3" class="st0" width="307.4" height="173"/>
				</g>
				<g>
					<path class="st4" d="M78.4,326.2v31.6c0,7.2,5.8,13.1,13.1,13.1h307.8c7.2,0,13.1-5.8,13.1-13.1v-31.6H78.4z"/>
				</g>
				<g>
					<circle class="st5" cx="245.5" cy="347.5" r="8.3"/>
				</g>
			</g>
			<g>
				<g>
					<rect x="102.6" y="166.9" class="st9" width="296.7" height="154.2"/>
				</g>
				<g>
					<rect x="91.4" y="153.4" class="st10" width="307.9" height="20.8"/>
				</g>
				<g>
					<rect x="366.5" y="174.2" class="st2" width="32.8" height="76"/>
				</g>
				<g>
					<g>
						<path class="st8" d="M392.3,167.5c-0.2,0-0.3-0.1-0.5-0.2l-6-6c-0.3-0.3-0.3-0.7,0-1c0.3-0.3,0.7-0.3,0.9,0l6,6
							c0.3,0.3,0.3,0.7,0,1C392.6,167.4,392.5,167.5,392.3,167.5z"/>
					</g>
					<g>
						<path class="st8" d="M386.3,167.5c-0.2,0-0.3-0.1-0.5-0.2c-0.3-0.3-0.3-0.7,0-1l6-6c0.3-0.3,0.7-0.3,0.9,0
							c0.3,0.3,0.3,0.7,0,1l-6,6C386.6,167.4,386.5,167.5,386.3,167.5z"/>
					</g>
				</g>
				<g>
					<g>
						<g>
							<rect x="114.9" y="232.3" class="st10" width="37.3" height="4.9"/>
						</g>
						<g>
							<rect x="114.9" y="236" class="st2" width="37.3" height="19.8"/>
						</g>
					</g>
					<g>
						<g>
							<rect x="114.9" y="255.8" class="st10" width="37.3" height="4.9"/>
						</g>
						<g>
							<rect x="114.9" y="259.5" class="st2" width="37.3" height="19.8"/>
						</g>
					</g>
				</g>
				<g>
					<path class="st8" d="M379.6,167.5h-6.1c-0.4,0-0.7-0.3-0.7-0.7v-6.1c0-0.4,0.3-0.7,0.7-0.7h6.1c0.4,0,0.7,0.3,0.7,0.7v6.1
						C380.3,167.2,380,167.5,379.6,167.5z M374.2,166.2h4.8v-4.8h-4.8V166.2z"/>
				</g>
				<g>
					<rect x="91.4" y="315.9" class="st10" width="307.9" height="10.4"/>
				</g>
				<g>
					<rect x="91.4" y="174.2" class="st10" width="14.5" height="141.7"/>
				</g>
				<g>
					<g>
						<path class="st4" d="M98.9,201.1L98.9,201.1c-2.2,0-4.1-1.8-4.1-4.1v0c0-2.1,1.7-3.8,3.8-3.8h0c2.2,0,4.1,1.8,4.1,4.1v0
							C102.6,199.5,101,201.1,98.9,201.1z"/>
					</g>
					<g>
						<path class="st4" d="M98.9,215.3L98.9,215.3c-2.2,0-4.1-1.8-4.1-4.1v0c0-2.1,1.7-3.8,3.8-3.8h0c2.2,0,4.1,1.8,4.1,4.1v0
							C102.6,213.7,101,215.3,98.9,215.3z"/>
					</g>
					<g>
						<path class="st4" d="M98.9,229.5L98.9,229.5c-2.2,0-4.1-1.8-4.1-4.1v0c0-2.1,1.7-3.8,3.8-3.8h0c2.2,0,4.1,1.8,4.1,4.1v0
							C102.6,227.9,101,229.5,98.9,229.5z"/>
					</g>
					<g>
						<path class="st4" d="M98.9,243.8L98.9,243.8c-2.2,0-4.1-1.8-4.1-4.1v0c0-2.1,1.7-3.8,3.8-3.8h0c2.2,0,4.1,1.8,4.1,4.1v0
							C102.6,242.1,101,243.8,98.9,243.8z"/>
					</g>
					<g>
						<path class="st4" d="M98.9,258L98.9,258c-2.2,0-4.1-1.8-4.1-4.1v0c0-2.1,1.7-3.8,3.8-3.8h0c2.2,0,4.1,1.8,4.1,4.1v0
							C102.6,256.3,101,258,98.9,258z"/>
					</g>
				</g>
				<g>
					<rect x="366.5" y="186.8" class="st10" width="32.8" height="2.9"/>
				</g>
				<g>
					<rect x="366.5" y="202.3" class="st10" width="32.8" height="2.9"/>
				</g>
				<g>
					<rect x="366.5" y="217.8" class="st10" width="32.8" height="2.9"/>
				</g>
				<g>
					<rect x="366.5" y="233.3" class="st10" width="32.8" height="2.9"/>
				</g>
				<g>
					<rect x="168.4" y="188.1" class="st0" width="176" height="113.8"/>
				</g>
			</g>
		</g>
		<g>
			<g class="st3">
				<ellipse cx="222.9" cy="464.5" rx="48" ry="5.9"/>
			</g>
			<g>
				<path class="st11" d="M247.6,353.2c-1.7,0-3.4-0.3-5.1-1c-7.7-3.2-11.2-13.3-10.5-30.1c0.1-1.5,1.4-2.7,2.8-2.6
					c1.5,0.1,2.7,1.3,2.6,2.8c-0.6,13.9,2,22.7,7.2,24.8c5,2.1,13.3-1.9,20.6-9.8c1-1.1,2.8-1.2,3.9-0.2c1.1,1,1.2,2.8,0.2,3.9
					C263.4,347.3,255.2,353.2,247.6,353.2z"/>
			</g>
			<g>
				<g>
					<path class="st10" d="M270.5,348.8l-87.6-4c-2.5,0-4.5-2-4.5-4.5l0,0c0-2.5,2-4.5,4.5-4.5l87.6-4c2.5,0,4.5,6,4.5,8.5l0,0
						C275,342.8,273,348.8,270.5,348.8z"/>
				</g>
				<g>
					<path class="st12" d="M325.1,334.9c0,0-16.8,17.6-37.2,20.3c-11.9,1.6-19.4-6.3-19.4-14.6c0-8.3,7.4-15.6,19.4-15.6
						C304.7,325.1,325.1,334.9,325.1,334.9z"/>
				</g>
			</g>
			<g>
				<g>
					<g>
						<g>
							<rect x="226.5" y="441.7" class="st4" width="6" height="12.8"/>
						</g>
					</g>
					<g>
						<g>
							<g>
								<path class="st10" d="M246.4,461.9c0-1.6-0.7-6.4-4.1-6.4l-5.7-0.1l-1.2-4.1c-0.2-0.8-0.8-1.4-1.4-1.4l-0.9,0
									c-0.2,0-0.3,0.1-0.3,0.4c-0.1,2.1-0.3,3.2-1.5,3.1l-4.7-0.1c-1.9,0-1.8,1.1-1.8,2.5c0,0,0,4.8,0,5.9H246.4z"/>
							</g>
						</g>
						<g>
							<g>
								<path class="st13" d="M240.5,461.9h6c0-1.6-0.7-6.4-4.1-6.4l-1.8,0V461.9z"/>
							</g>
						</g>
						<g>
							<g>
								<polygon class="st13" points="246.6,463.4 224.8,463.4 224.7,461.8 246.4,461.8 								"/>
							</g>
						</g>
					</g>
				</g>
			</g>
			<g>
				<g>
					<g>
						<g>
							<path class="st14" d="M214.2,456.4h-7v-4.8c0-0.9,0.8-1.7,1.7-1.7h3.6c0.9,0,1.7,0.8,1.7,1.7V456.4z"/>
						</g>
					</g>
				</g>
				<g>
					<g>
						<g>
							<rect x="206.2" y="441.7" class="st4" width="6" height="12.8"/>
						</g>
					</g>
				</g>
				<g>
					<g>
						<path class="st10" d="M215.8,461.4h-11.1v-5.3c0-0.9,0.7-1.6,1.6-1.6h6.3c1.8,0,3.3,1.5,3.3,3.3V461.4z"/>
					</g>
				</g>
				<g>
					<g>
						<polygon class="st13" points="204.7,461.4 215.8,461.4 215.9,463.4 204.8,463.4 						"/>
					</g>
				</g>
			</g>
			<g>
				<polygon class="st10" points="234.2,448.2 225.3,448.2 224,365.7 235.6,365.7 				"/>
			</g>
			<g>
				<g>
					<path class="st10" d="M213.2,448.2c-3.3,0-5.1,0-8.5,0l-1.3-82.5c3.3,0,8.3,0,11.6,0L213.2,448.2z"/>
				</g>
			</g>
			<g>
				<path class="st10" d="M204.4,374.8c7.4,2.5,31-0.7,31.1-0.7l1.1-13.6c0,0-27.2-6.4-33.8-0.7
					C200.5,361.8,201.4,373.8,204.4,374.8z"/>
			</g>
			<g>
				<path class="st8" d="M236.5,360.5l-33.8-0.7l-1.3-42.3c0-7.2,5.9-13.1,13.1-13.1h11.7c7.2,0,12,4.8,12,12L236.5,360.5z"/>
			</g>
			<g>
				<path class="st11" d="M246.1,353.1c-0.1,0-0.2,0-0.4,0c-2-0.3-3.8-0.9-5.4-2c-1.8-1.2-3.3-3-4.6-5.1c-2.9-5.2-4.2-13.2-3.8-23.8
					c0.1-1.5,1.4-2.7,2.8-2.6c1.5,0.1,2.7,1.3,2.6,2.8c-0.4,9.5,0.6,16.6,3.1,20.9c0.8,1.4,1.8,2.6,2.9,3.3c0.9,0.6,1.9,1,3.1,1.1
					c1.5,0.2,2.6,1.6,2.4,3.1C248.6,352,247.4,353.1,246.1,353.1z"/>
			</g>
			<g>
				<path class="st8" d="M238.6,329.7c0,0-7.4,0.3-11.3,0c-1.4-3.7-1.4-8-0.4-11.8c1-3.8,3.1-7.3,6.1-9.9
					C233.8,307.2,240.1,323.5,238.6,329.7z"/>
			</g>
			<g>
				<g>
					<path class="st15" d="M230.3,292.3H229v-6h1.7l1.3,3.5c0.4,1.1-0.3,2.4-1.5,2.5C230.4,292.3,230.4,292.3,230.3,292.3z"/>
				</g>
				<g>
					<path class="st11" d="M225.4,302.7c0,0-6.5,0-6.5,0v-22.3c0,0,11.6,0,11.7,0c0.2,0,0.3,15.4,0.3,15.4
						C231,300.8,228.7,302.7,225.4,302.7z"/>
				</g>
				<g>
					<path class="st9" d="M231,285h-0.5c-0.2,0-0.4-0.2-0.4-0.4l0,0c0-0.2,0.2-0.4,0.4-0.4h0.5c0.2,0,0.4,0.2,0.4,0.4l0,0
						C231.3,284.8,231.2,285,231,285z"/>
				</g>
				<g>
					<path class="st13" d="M228.2,270.3h-11.2c-0.2,0-0.5,0-0.7,0c-0.3,0-0.6,0-0.9,0l0,0c-6.4,0-11.6,5.2-11.6,11.6v27.6
						c0,6.4,5.2,11.6,11.6,11.6l0,0c6.4,0,11.6-5.2,11.6-11.6v-25.6c0-0.8,0.6-1.4,1.4-1.4l0,0c3.7,0,6.6-3.2,6-7
						C234,272.4,231.3,270.3,228.2,270.3z"/>
				</g>
			</g>
		</g>
		<g>
			<g class="st3">
				<path d="M22.9,443.2c0,3.3,21.5,6,48,6s48-2.7,48-6c0-3.3-21.5-6-48-6S22.9,439.9,22.9,443.2z"/>
			</g>
			<g>
				<path class="st11" d="M111.1,339.6c-0.4,0-0.8-0.1-1.2-0.3c-24.3-11.9-51.3-33.7-52.8-47.3c-0.2-1.5,0.9-2.9,2.4-3
					c1.5-0.2,2.9,0.9,3,2.4c1.1,10.1,25.3,31,49.8,42.9c1.4,0.7,1.9,2.3,1.3,3.7C113.1,339.1,112.1,339.6,111.1,339.6z"/>
			</g>
			<g>
				<g>
					<polygon class="st4" points="104.6,347.4 85.2,337.8 114.5,278.4 133,285.7 133.9,288 					"/>
				</g>
				<g>
					
						<rect x="97.8" y="277.5" transform="matrix(0.8968 0.4424 -0.4424 0.8968 148.6222 -16.0167)" class="st0" width="21.7" height="66.2"/>
				</g>
				<g>
					<path class="st12" d="M124.4,296.1c-1.9,3.8-6.5,5.4-10.4,3.5c-3.8-1.9-5.4-6.5-3.5-10.4s6.5-5.4,10.4-3.5
						C124.7,287.6,126.3,292.3,124.4,296.1z"/>
				</g>
				<g>
					<path class="st10" d="M115.6,314c-1.9,3.8-6.5,5.4-10.4,3.5c-3.8-1.9-5.4-6.5-3.5-10.4c1.9-3.8,6.5-5.4,10.4-3.5
						C115.9,305.5,117.5,310.2,115.6,314z"/>
				</g>
				<g>
					<path class="st2" d="M106.8,331.9c-1.9,3.8-6.5,5.4-10.4,3.5c-3.8-1.9-5.4-6.5-3.5-10.4c1.9-3.8,6.5-5.4,10.4-3.5
						C107.1,323.4,108.6,328.1,106.8,331.9z"/>
				</g>
			</g>
			<g>
				<g>
					<g>
						<g>
							<rect x="77.1" y="422.2" class="st4" width="6" height="12.8"/>
						</g>
					</g>
					<g>
						<g>
							<g>
								<path class="st10" d="M97,442.4c0-1.6-0.7-6.4-4.1-6.4l-5.7-0.1l-1.2-4.1c-0.2-0.8-0.8-1.4-1.4-1.4l-0.9,0
									c-0.2,0-0.3,0.1-0.3,0.4c-0.1,2.1-0.3,3.2-1.5,3.1l-4.7-0.1c-1.9,0-1.8,1.1-1.8,2.5c0,0-0.1,4.8,0,5.9H97z"/>
							</g>
						</g>
						<g>
							<g>
								<path class="st13" d="M91.1,442.4h6c0-1.6-0.7-6.4-4.1-6.4l-1.8,0V442.4z"/>
							</g>
						</g>
						<g>
							<g>
								<polygon class="st13" points="97.1,443.8 75.4,443.8 75.3,442.3 97,442.3 								"/>
							</g>
						</g>
					</g>
				</g>
			</g>
			<g>
				<g>
					<g>
						<g>
							<path class="st14" d="M62.8,436.9h-7v-4.8c0-0.9,0.8-1.7,1.7-1.7h3.6c0.9,0,1.7,0.8,1.7,1.7V436.9z"/>
						</g>
					</g>
				</g>
				<g>
					<g>
						<g>
							<rect x="54.8" y="422.2" class="st4" width="6" height="12.8"/>
						</g>
					</g>
				</g>
				<g>
					<g>
						<path class="st10" d="M64.4,441.9H53.3v-5.3c0-0.9,0.7-1.6,1.6-1.6h6.3c1.8,0,3.3,1.5,3.3,3.3V441.9z"/>
					</g>
				</g>
				<g>
					<g>
						<polygon class="st13" points="53.3,441.9 64.4,441.9 64.5,443.8 53.4,443.8 						"/>
					</g>
				</g>
			</g>
			<g>
				<rect x="74.6" y="346.1" class="st10" width="11.6" height="82.5"/>
			</g>
			<g>
				<g>
					<path class="st10" d="M63.1,428.6c-3.3,0-7.8,0-11.1,0c0-43.4,0-39.1,0-82.5c3.3,0,8.3,0,11.6,0L63.1,428.6z"/>
				</g>
			</g>
			<g>
				<g>
					<path class="st15" d="M80.9,272.8h-1.3v-6h1.7l1.3,3.5c0.4,1.1-0.3,2.4-1.5,2.5C81,272.8,81,272.8,80.9,272.8z"/>
				</g>
				<g>
					<path class="st11" d="M76,283.1c0,0-6.5,0-6.5,0v-22.3c0,0,11.6,0,11.7,0c0.2,0-0.3,14.9-0.5,16.3
						C80.5,279.8,79.3,283.1,76,283.1z"/>
				</g>
				<g>
					<polygon class="st11" points="70.1,292 65.2,292 65.2,272.1 75.5,272.1 75.5,284.4 					"/>
				</g>
				<g>
					<polygon class="st11" points="69.1,283.2 65.3,282.2 64.1,280.3 59.8,272.8 69.1,272.8 					"/>
				</g>
				<g>
					<path class="st13" d="M73.7,280.1l-9.6,0.1l-9-13.7c-2.1-4.5,1.2-9.7,6.2-9.7h7.9c2.5,0,4.5,2,4.5,4.5V280.1z"/>
				</g>
				<g>
					<path class="st13" d="M79,262.9H61.7v-6.2c0-3.3,2.7-5.9,5.9-5.9H79c3.4,0,6.1,2.7,6.1,6.1l0,0C85.1,260.2,82.4,262.9,79,262.9
						z"/>
				</g>
				<g>
					<path class="st11" d="M73.4,272.8L73.4,272.8c-1.1,0-2-0.9-2-2v-2.2c0-1.1,0.9-2,2-2l0,0c1.1,0,2,0.9,2,2v2.2
						C75.5,271.9,74.5,272.8,73.4,272.8z"/>
				</g>
				<g>
					<path class="st13" d="M73.2,270.2h-2v-10.3h6.4v5.8C77.6,268.3,75.6,270.2,73.2,270.2z"/>
				</g>
				<g>
					<path class="st13" d="M77.7,272.2v-9.1l-2.2,4.7v16.6h2.2c2.4,0,4.4-2,4.4-4.4v-3.5c0-0.8-0.7-1.5-1.5-1.5l0,0
						C78.9,275.1,77.7,273.8,77.7,272.2z"/>
				</g>
			</g>
			<g>
				<path class="st10" d="M52,352.1h33.1c2.7,0,4.8-3,4.8-6.7L52,329.8V352.1z"/>
			</g>
			<g>
				<path class="st12" d="M89.8,346.5H52v-49.2c0-6.8,5.5-12.4,12.4-12.4h13.1c6.8,0,12.4,5.5,12.4,12.4V346.5z"/>
			</g>
			<g>
				<path class="st11" d="M107.3,320c-8.4,0-16.8-8.4-25.8-25.6c-0.7-1.3-0.2-3,1.2-3.7c1.3-0.7,3-0.2,3.7,1.2
					c7.9,15.2,15.5,23.2,21.6,22.6c5.2-0.5,10.4-7.7,13.9-19.2c0.4-1.4,2-2.3,3.4-1.8c1.4,0.4,2.3,2,1.8,3.4
					c-2.4,8.2-8.1,22.1-18.6,23C108,320,107.6,320,107.3,320z"/>
			</g>
			<g>
				<path class="st12" d="M86.3,289.1c4.6,5.9,6,9.1,8.4,15.1c-0.6,3.8-3,7.7-6.3,9.7c-3.3-2.2-5.8-5.7-7.2-9.3
					c-1.5-3.7-1.8-7.8-0.9-11.6c0.3-1.1,0.6-2.2,1.3-3.1C82.3,288.8,85.2,289.2,86.3,289.1z"/>
			</g>
			<g>
				<path class="st11" d="M111.1,339.6c-0.9,0-1.7-0.4-2.3-1.2l-1.6-2.4c-0.8-1.3-0.5-3,0.7-3.8c1.3-0.8,3-0.5,3.8,0.7l1.6,2.4
					c0.8,1.3,0.5,3-0.7,3.8C112.2,339.5,111.6,339.6,111.1,339.6z"/>
			</g>
		</g>
		<g>
			<g class="st3">
				<path d="M379.2,443.8c0,3.3,21.5,5.9,48,5.9c26.5,0,48-2.7,48-5.9c0-3.3-21.5-5.9-48-5.9C400.7,437.9,379.2,440.6,379.2,443.8z"
					/>
			</g>
			<g>
				<path class="st15" d="M426.4,288.5c-18.3-2.1-37.4-7.9-52.9-36.4l4.8-2.6c13.5,24.8,29.3,31.4,48.7,33.6L426.4,288.5z"/>
			</g>
			<g>
				<g>
					<path class="st12" d="M356.8,278.2l0.2-12.4c-0.1-0.4-0.2-0.6-0.5-0.7l-29.1-8.9c-0.3-0.1-0.5,0-0.8,0.3l-6.8,10.3
						c-0.5,0.8-1.2,1-2.2,0.7l-19.5-6c-0.5-0.2-0.8-0.4-1-0.8c-0.2-0.4-0.1-0.8,0.3-1.4l53.8-78c0.5-0.8,1.2-1,2.1-0.8l24.1,7.4
						c0.9,0.3,1.3,0.9,1.3,1.8l1,94.7c0,0.2,0,0.4-0.1,0.7c-0.2,0.8-0.8,1-1.8,0.7l-19.5-6C357.3,279.8,356.8,279.1,356.8,278.2z
						 M337.4,241.4l19,5.8c0.5,0.2,0.8,0,0.7-0.6l0.3-35.8c0-0.4-0.1-0.6-0.2-0.6c-0.2,0-0.4,0.1-0.5,0.3l-19.6,29.9
						C336.8,240.9,336.9,241.3,337.4,241.4z"/>
				</g>
			</g>
			<g>
				<g>
					<g>
						<polygon class="st4" points="455.8,421.8 460.3,417.8 449.9,407.8 446.3,413 						"/>
					</g>
				</g>
				<g>
					<g>
						<path class="st10" d="M449.7,434.7c-1.1-1.2-4.1-5-1.6-7.4l4-4.1l-2.1-3.7c-0.4-0.8-0.4-1.5,0-2l0.6-0.7
							c0.2-0.2,0.3-0.1,0.5,0c1.6,1.4,2.5,2,3.3,1.2l3.3-3.4c1.3-1.4,2.1-0.5,3.1,0.5c0,0,3.4,3.3,4.3,4.1L449.7,434.7z"/>
					</g>
				</g>
				<g>
					<g>
						<path class="st13" d="M453.9,430.5l-4.2,4.2c-1.1-1.2-4.1-5-1.6-7.4l1.3-1.3L453.9,430.5z"/>
					</g>
				</g>
				<g>
					<g>
						
							<rect x="447" y="426.7" transform="matrix(-0.7035 0.7107 -0.7107 -0.7035 1083.7888 402.877)" class="st13" width="21.8" height="1.7"/>
					</g>
				</g>
			</g>
			<g>
				<g>
					<g>
						<g>
							
								<rect x="414.3" y="422.1" transform="matrix(-1 -1.224647e-16 1.224647e-16 -1 834.6414 857.0267)" class="st4" width="6" height="12.8"/>
						</g>
					</g>
					<g>
						<g>
							<g>
								<path class="st13" d="M400.4,442.3c0-1.6,0.7-6.4,4.1-6.4l5.7-0.1l1.2-4.1c0.2-0.8,0.8-1.4,1.4-1.4l0.9,0
									c0.2,0,0.3,0.1,0.3,0.4c0.1,2.1,0.3,3.2,1.5,3.1l4.7-0.1c1.9,0,1.8,1.1,1.8,2.5c0,0,0,4.8,0,5.9H400.4z"/>
							</g>
						</g>
						<g>
							<g>
								<path class="st10" d="M406.4,442.3h-6c0-1.6,0.7-6.4,4.1-6.4l1.8,0V442.3z"/>
							</g>
						</g>
						<g>
							<g>
								
									<rect x="400.4" y="442.2" transform="matrix(-1 -1.224647e-16 1.224647e-16 -1 822.5481 886.0225)" class="st10" width="21.8" height="1.7"/>
							</g>
						</g>
					</g>
				</g>
			</g>
			<g>
				<rect x="411.9" y="344.5" class="st13" width="11.6" height="82.5"/>
			</g>
			<g>
				<g>
					<g>
						<path class="st10" d="M445.6,416.1c2.8-2.7,5.6-5.4,8.4-8.1c-23.2-23.7-31.4-30.2-38.5-64.5c-5-0.7-10.1-1.3-15.1-2
							C412.7,381.1,416.3,387.3,445.6,416.1z"/>
					</g>
				</g>
			</g>
			<g>
				<path class="st10" d="M433,337.1c0,5.7-4.4,8.8-9.7,8.8h-21.4c-2.5,0-4.6-3-4.6-6.7l0.1-2.1l35.6-13.4V337.1z"/>
			</g>
			<g>
				
					<rect x="319.8" y="167.2" transform="matrix(0.9541 0.2996 -0.2996 0.9541 66.3858 -89.316)" class="st8" width="9.3" height="9.3"/>
			</g>
			<g>
				
					<rect x="403.9" y="193.6" transform="matrix(0.9541 0.2996 -0.2996 0.9541 78.1516 -113.2807)" class="st8" width="9.3" height="9.3"/>
			</g>
			<g>
				
					<rect x="374.9" y="282.6" transform="matrix(0.9541 0.2996 -0.2996 0.9541 103.4928 -100.5245)" class="st8" width="9.3" height="9.3"/>
			</g>
			<g>
				<polygon class="st8" points="299.6,267 290.5,264.1 293.8,254 303,256.8 				"/>
			</g>
			<g>
				<path class="st8" d="M379.7,287.9l-83.9-26.6l28.6-90.2l83.9,26.6L379.7,287.9z M296.6,260.9l82.6,26.2l28.2-88.9l-82.6-26.2
					L296.6,260.9z"/>
			</g>
			<g>
				<g>
					<path class="st15" d="M407.5,264.4l1.3,0.2l1.2-5.9l-1.7-0.3l-1.9,3.2c-0.6,1-0.1,2.4,1,2.8
						C407.4,264.4,407.4,264.4,407.5,264.4z"/>
				</g>
				<g>
					<path class="st11" d="M410,275.5c0,0,6.3,1.2,6.3,1.2l4.3-21.9c0,0-11.4-2.2-11.5-2.2c-0.2,0-2.6,14.7-2.7,16
						C406.2,271.3,406.7,274.8,410,275.5z"/>
				</g>
				<g>
					<polygon class="st11" points="408.2,285.6 418.9,286.2 422.7,266.7 412.6,264.8 410.3,276.9 					"/>
				</g>
				<g>
					<polygon class="st11" points="416.8,276.9 420.7,276.6 426.7,267.6 418.8,266.7 					"/>
				</g>
				<g>
					<path class="st10" d="M418.3,274L418.3,274c2.3,0.5,4.8-0.5,6-2.6l5.8-9.3c2.9-4.1,0.6-9.8-4.3-10.7l-4.2-0.6
						c-2.4-0.5-4.8,1.1-5.3,3.6l-2.5,12.9C413.3,270.4,415.3,273.4,418.3,274z"/>
				</g>
				<g>
					<path class="st10" d="M410.9,255l17,3.3l1.2-6.1c0.6-3.2-1.5-6.3-4.7-6.9l-11.2-2.2c-3.3-0.6-6.5,1.5-7.1,4.8l0,0
						C405.4,251.2,407.6,254.4,410.9,255z"/>
				</g>
				<g>
					<path class="st10" d="M415.4,262.5l1.7,1.3l2-10.1l-6.3-1.2l-1.1,5.5C411.3,260.5,411.5,262.1,415.4,262.5z"/>
				</g>
				<g>
					<path class="st10" d="M407.9,257.1l0.5,0.1c0.2,0,0.4-0.1,0.4-0.3l0,0c0-0.2-0.1-0.4-0.3-0.4l-0.5-0.1c-0.2,0-0.4,0.1-0.4,0.3
						l0,0C407.6,256.8,407.7,257,407.9,257.1z"/>
				</g>
				<g>
					<path class="st11" d="M414.2,265.8L414.2,265.8c1.1,0.2,2.2-0.5,2.4-1.6l0.4-2.1c0.2-1.1-0.5-2.2-1.6-2.4l0,0
						c-1.1-0.2-2.2,0.5-2.4,1.6l-0.4,2.1C412.3,264.5,413,265.6,414.2,265.8z"/>
				</g>
			</g>
			<g>
				<path class="st2" d="M397.4,337.1H433v-46.4c0-6.6-5.4-12-12-12h-11.6c-6.6,0-12,5.4-12,12V337.1z"/>
			</g>
			<g>
				<path class="st11" d="M404.5,291c-0.2,0-0.3,0-0.5,0c-20.9-3.6-38.2-25.2-40.2-50.2c-0.1-1.5,1-2.8,2.5-3c1.5-0.1,2.8,1,3,2.5
					c1.8,22.2,17.5,42.1,35.7,45.2c1.5,0.3,2.5,1.7,2.2,3.2C407,290.1,405.8,291,404.5,291z"/>
			</g>
			<g>
				<path class="st2" d="M408.7,283.7l-18.5-8.2c0,0-5,3.3-6.1,7.4c2.1,3.4,11.8,11.2,15.4,12.8c3.6,1.6,1.2-3.1,5.1-3.8
					c1.1-0.2,2.2-0.5,3.2-1.1C408.8,290.1,408.5,284.8,408.7,283.7z"/>
			</g>
		</g>
		<g>
			<g>
				<path class="st16" d="M269.4,93.5L269.4,93.5c-9.3-0.7-16.3-8.9-15.6-18.2l1.8-24.2c0.7-9.3,8.9-16.3,18.2-15.6h0
					c9.3,0.7,16.3,8.9,15.6,18.2l-1.8,24.2C286.9,87.3,278.7,94.2,269.4,93.5z"/>
			</g>
			<g>
				<path class="st15" d="M253,105.4c-10.2,0-20.7-9.1-24.4-18.2l5.1-2.1c3.1,7.6,12.5,15.5,20.5,14.7c7.1-0.7,10.1-8.4,11.3-14.8
					l5.4,1c-3,15.6-11.4,18.8-16.1,19.2C254.1,105.3,253.5,105.4,253,105.4z"/>
			</g>
			<g>
				<path class="st17" d="M276.1,87.7c-0.4,5.5-1.9,8.3-5.2,12.7c-6.2-0.5-8.4-2.1-10.2-5.8c1.1-3.5,1.8-7.1,2.3-10.8
					C268.1,84.1,271.4,85.9,276.1,87.7z"/>
			</g>
			<g>
				<g>
					<g>
						<g>
							
								<rect x="214.1" y="176.4" transform="matrix(-0.9413 -0.3377 0.3377 -0.9413 359.8165 428.7466)" class="st4" width="6.2" height="13.3"/>
						</g>
					</g>
					<g>
						<g>
							<g>
								<path class="st13" d="M201.2,192.8c0.2-0.4-0.6-7.6,2.8-6.4l3.8,1.3l2.6-3.6c0.5-0.7,1.3-1,1.9-0.8l0.9,0.3
									c0.2,0.1,0.3,0.2,0.2,0.5c-0.6,2.1-0.8,3.2,0.3,3.6l4.6,1.6c1.9,0.7,1.4,1.7,0.9,3.1c0,0-1.6,4.7-2,5.8L201.2,192.8z"/>
							</g>
						</g>
						<g>
							<path class="st10" d="M217.1,198.1l-15.4-5.5l2.2-6.2l-1.8-0.6c-3.3-1.2-5.5,3.1-6.2,4.7l0,0l-0.6,1.6l21.2,7.6L217.1,198.1z
								"/>
						</g>
					</g>
				</g>
			</g>
			<g>
				<path class="st13" d="M283.9,145.1c3.3-0.1,22.9-19.1,22.9-19.1s-21.5,1.2-21.5,1.1c-58.4,0.9-53.2-2.9-73.9,52.9l11.7,4.1
					C242,134.1,235.1,143.6,283.9,145.1z"/>
			</g>
			<g>
				<g>
					<g>
						<g>
							
								<rect x="266.1" y="201.7" transform="matrix(-0.9861 0.166 -0.166 -0.9861 569.2372 369.0263)" class="st4" width="6.2" height="13.3"/>
						</g>
					</g>
					<g>
						<g>
							<g>
								<path class="st13" d="M260,224.6c0-0.4-4.2-6.4-0.7-6.9l3.9-0.7l0.5-4.4c0.1-0.9,0.6-1.5,1.2-1.6l0.9-0.2
									c0.2,0,0.3,0.1,0.4,0.3c0.5,2.2,0.9,3.2,2.1,3l4.8-0.9c1.9-0.3,2,0.8,2.3,2.3c0,0,0.9,4.9,1.1,6L260,224.6z"/>
							</g>
						</g>
						<g>
							<path class="st10" d="M276.5,221.4l-16.1,2.7l-1.1-6.4l-1.9,0.3c-3.5,0.6-3.3,5.4-3.1,7.1l0,0l0.3,1.7l22.2-3.7L276.5,221.4z
								"/>
						</g>
					</g>
				</g>
			</g>
			<g>
				<polygon class="st13" points="273,142.5 305.6,142.5 306.8,126 273.4,131 				"/>
			</g>
			<g>
				<path class="st13" d="M308.8,142.5c2.9-1.3,0.6-11-2-16.6c-0.6-1.3-7.3-0.3-7.4-0.4c-50.5,29.4-46,24-36.8,82.8l12.2-2.1
					C266.9,153.4,265.5,165.1,308.8,142.5z"/>
			</g>
			<g>
				<path class="st12" d="M306.8,126c0,0-21,7.4-33.7,1.2L263,88.7c-1.5-7.3,3.2-14.5,10.5-16l11.8-2.5c7.3-1.5,14.5,3.2,16,10.5
					L306.8,126z"/>
			</g>
			<g>
				<g>
					<path class="st15" d="M276.4,58.5l4.9-1l3.1,14.9c0.6,2.9-1.2,5.6-4.1,6.2l0,0c-2.9,0.6-5.6-1.2-6.2-4.1l-1.5-7.3L276.4,58.5z"
						/>
				</g>
				<g>
					<g>
						<path class="st15" d="M260.9,54.4l1.6,6.5c-1.3,0-2.8-0.9-3.1-2.1l-0.3-1.3C258.9,56.3,259.7,55,260.9,54.4z"/>
					</g>
					<g>
						<path class="st11" d="M263,63.6l-2.3-9.6c-1-4.8-0.3-7.9,3.9-8.7l13.3-2.8l3.5,15.7C283.9,70.3,265.7,74.6,263,63.6z"/>
					</g>
					<g>
						<g>
							<g>
								<g>
									<g>
										<g>
											<g>
												<g>
													<path class="st18" d="M265.7,56.9c0.1,0.5-0.2,1-0.7,1.1c-0.5,0.1-1-0.2-1.1-0.7s0.2-1,0.7-1.1
														C265.1,56,265.6,56.4,265.7,56.9z"/>
												</g>
											</g>
										</g>
									</g>
								</g>
							</g>
							<g>
								<g>
									<g>
										<g>
											<g>
												<path class="st18" d="M273.2,55.3c0.1,0.5-0.2,1-0.7,1.1c-0.5,0.1-1-0.2-1.1-0.7c-0.1-0.5,0.2-1,0.7-1.1
													C272.5,54.5,273.1,54.8,273.2,55.3z"/>
											</g>
										</g>
									</g>
								</g>
							</g>
						</g>
					</g>
					<g>
						<path class="st19" d="M274.6,58.6c0.1,2.8-2,5.4-4.6,5.9c-2.6,0.5-4.8-1.1-5.8-3.7L274.6,58.6z"/>
					</g>
					<g>
						<path class="st15" d="M268.2,59.5c-0.3,0-0.6-0.1-0.8-0.3c-0.5-0.5-0.3-1.3-0.1-2.7c0.1-0.3,0.1-0.7,0.2-1.1
							c0-0.2,0.2-0.3,0.4-0.3c0.2,0,0.3,0.2,0.3,0.4c-0.1,0.4-0.1,0.8-0.2,1.1c-0.2,1-0.3,1.9-0.1,2.1c0.1,0.1,0.3,0.2,1,0
							c0.2,0,0.4,0.1,0.4,0.3c0,0.2-0.1,0.4-0.3,0.4C268.7,59.4,268.4,59.5,268.2,59.5z"/>
					</g>
					<g>
						<path class="st11" d="M280.5,50.2l-1,0.2l1.4,6.6l1-0.2c1.5-0.3,2.4-1.8,2.1-3.2l-0.3-1.3C283.5,50.8,282,49.9,280.5,50.2z"/>
					</g>
					<g>
						<path class="st16" d="M278.5,48.3l-9.5,1.6c-1.9,0.3-3.6-0.9-3.9-2.8l0,0c-0.3-1.9-1.2-5.7,0.6-6l7.8,1.2
							c1.9-0.3,3.6,0.9,3.9,2.8v0C277.7,46.9,280.4,48,278.5,48.3z"/>
					</g>
					<g>
						<path class="st16" d="M270.7,53c-0.2,0-0.3-0.1-0.3-0.3c0-0.2,0.1-0.4,0.3-0.4l1.8-0.3c0.2,0,0.4,0.1,0.4,0.3
							c0,0.2-0.1,0.4-0.3,0.4L270.7,53C270.8,53,270.7,53,270.7,53z"/>
					</g>
					<g>
						<path class="st16" d="M263,54.5c-0.2,0-0.3-0.1-0.3-0.3c0-0.2,0.1-0.4,0.3-0.4l1.8-0.3c0.2,0,0.4,0.1,0.4,0.3
							c0,0.2-0.1,0.4-0.3,0.4L263,54.5C263,54.5,263,54.5,263,54.5z"/>
					</g>
					<g>
						<path class="st16" d="M275.3,42.2l2.1,10c0.4,2,2.4,3.3,4.5,2.9l0,0c2-0.4,4.2-0.4,3.8-2.4l-2.2-8.3c-0.4-2-2.4-3.3-4.5-2.9
							L275.3,42.2z"/>
					</g>
				</g>
			</g>
			<g>
				<path class="st15" d="M280.7,82.6L280.7,82.6c5.9-1.2,9.7-6.7,9.1-12.6c-1.4-0.2-2.9-0.1-4.5,0.2l-11.8,2.5
					c-2.2,0.5-4.2,1.5-5.8,2.8C269.6,80.6,275.1,83.8,280.7,82.6z"/>
			</g>
			<g>
				<g>
					
						<rect x="195.2" y="83.5" transform="matrix(0.9734 -0.2291 0.2291 0.9734 -19.246 54.2873)" class="st17" width="58" height="53.1"/>
				</g>
				<g>
					
						<rect x="200" y="87.9" transform="matrix(0.9734 -0.2291 0.2291 0.9734 -19.246 54.2871)" class="st12" width="48.3" height="44.3"/>
				</g>
				<g>
					<path class="st0" d="M234,121.9l-2.1-3.7c-0.1-0.1-0.2-0.1-0.3-0.1l-10.2,2.4c-0.1,0-0.2,0.1-0.2,0.2l-0.2,4.3
						c0,0.3-0.2,0.5-0.5,0.6l-6.9,1.6c-0.2,0-0.3,0-0.4-0.1c-0.1-0.1-0.2-0.2-0.2-0.5l2.5-32.5c0-0.3,0.2-0.5,0.5-0.6l8.5-2
						c0.3-0.1,0.5,0,0.7,0.3l16.8,28c0,0.1,0.1,0.1,0.1,0.2c0.1,0.3-0.1,0.4-0.4,0.5l-6.9,1.6C234.4,122.3,234.1,122.2,234,121.9z
						 M221.8,114.3l6.7-1.6c0.2,0,0.2-0.1,0.1-0.3l-6.1-10.7c-0.1-0.1-0.1-0.2-0.2-0.1c-0.1,0-0.1,0.1-0.1,0.2l-0.7,12.3
						C221.6,114.3,221.6,114.3,221.8,114.3z"/>
				</g>
			</g>
			<g>
				<path class="st11" d="M251.7,125.9c-2.1,0-4.2-0.1-6.4-0.2c-1.6-0.1-2.7-1.5-2.6-3c0.1-1.6,1.4-2.7,3-2.6
					c17,1.1,29.4-2.3,36.8-10.2c8.9-9.5,8.3-23,7.6-28.3c-0.2-1.6,0.9-3,2.4-3.2c1.6-0.2,3,0.9,3.2,2.4c0.8,6.1,1.5,21.6-9.1,32.9
					C278.9,121.8,267.2,125.9,251.7,125.9z"/>
			</g>
			<g>
				<path class="st11" d="M224.4,88.5c-1,0-1.9-0.5-2.5-1.4l-1.3-2.4c-0.8-1.4-0.3-3.1,1.1-3.9c1.4-0.8,3.1-0.3,3.9,1.1l1.3,2.3
					c0.8,1.4,0.3,3.1-1.1,3.9C225.4,88.4,224.9,88.5,224.4,88.5z"/>
			</g>
			<g>
				<path class="st12" d="M291.2,72.1c-0.1,0.2-4.4,22-4.4,22c2,3.3,7.2,4.2,10.6,3c3.5-1.3,1.2-19.1,1.2-20.7L291.2,72.1z"/>
			</g>
		</g>
	</g>
</g>
<g id="DESIGNED_BY_FREEPIK">
</g>
</svg>
