<?xml version="1.0" encoding="utf-8"?>
<!-- Generator: Adobe Illustrator 23.0.3, SVG Export Plug-In . SVG Version: 6.00 Build 0)  -->
<svg version="1.1" xmlns="http://www.w3.org/2000/svg" xmlns:xlink="http://www.w3.org/1999/xlink" x="0px" y="0px"
	 viewBox="0 0 500 500" style="enable-background:new 0 0 500 500;" xml:space="preserve">
<style type="text/css">
	.st0{display:none;}
	.st1{display:inline;fill:#EBEBEB;}
	.st2{fill:#EBEBEB;}
	.st3{fill:#E0E0E0;}
	.st4{fill:#F5F5F5;}
	.st5{fill:#FAFAFA;}
	.st6{fill:#263238;}
	.st7{fill:#E8505B;}
	.st8{opacity:0.3;}
	.st9{fill:#455A64;}
	.st10{fill:#FFFFFF;}
	.st11{fill:#FFBE9D;}
	.st12{opacity:0.5;}
	.st13{fill:#EB996E;}
	.st14{opacity:0.2;}
	.st15{opacity:0.4;}
</style>
<g id="Background_Complete">
</g>
<g id="Background_Simple" class="st0">
	<path class="st1" d="M497.9,135.2l-1.7-3.9C476.7,87.1,434.3,56.8,386,54.1c-4.5-0.2-9-0.3-13.5,0c-43.2,2.3-84.3,27.2-105.4,63.9
		c-12.4,21.6-18.8,47.6-38.5,63.2c-25.6,20.4-63,15.5-95.6,9.5c-32.6-5.9-79-16.4-104.5,4c-15.9,12.8-31.9,39.3-34.3,59.4
		c-9.6,81.8,24.5,106.2,67.6,142.4c41.9,35.2,123.8,36,178.8,33.8c76.9-3.2,154-32.1,206-87C498.6,288.5,522.1,206.6,497.9,135.2z"
		/>
</g>
<g id="Floor">
</g>
<g id="Plant">
</g>
<g id="Speech_Bubble">
</g>
<g id="Bullseye">
</g>
<g id="Graphics">
</g>
<g id="Character_2">
</g>
<g id="Character_1">
	<g>
		<g>
			<g>
				<g>
					<g>
						<path class="st2" d="M143.3,381.4h40.4c2.8,0,5.1-2.3,5.1-5.1v-12.4c0-4.8-3.9-8.7-8.7-8.7H143L143.3,381.4z"/>
					</g>
				</g>
				<g>
					<g>
						<g>
							<g>
								<path class="st2" d="M183,389.2h-79.4c-2.2,0-3.9-1.8-3.9-3.9l0,0c0-2.2,1.8-3.9,3.9-3.9H183c2.2,0,3.9,1.8,3.9,3.9l0,0
									C187,387.4,185.2,389.2,183,389.2z"/>
							</g>
						</g>
						<g>
							<g>
								<path class="st3" d="M87.5,277.1l43.7-0.8l27.7,104.8l-59.1,0.6l-22.3-91.9C75.9,283.4,80.8,277.1,87.5,277.1z"/>
							</g>
						</g>
						<g>
							<g>
								<polygon class="st2" points="109.2,389.2 96.1,465.2 99.7,465.2 116.9,389.2 								"/>
							</g>
						</g>
						<g>
							<g>
								<polygon class="st3" points="140,389.2 126.1,465.2 129.7,465.2 147.7,389.2 								"/>
							</g>
						</g>
						<g>
							<g>
								<polygon class="st2" points="174.1,389.2 189.6,465.2 186,465.2 166.4,389.2 								"/>
							</g>
						</g>
					</g>
				</g>
				<g>
					<g>
						<path class="st2" d="M126.1,276.3l21.6,104.9h16.6L147,288.6c-1.3-7.1-7.5-12.2-14.7-12.2H126.1z"/>
					</g>
				</g>
			</g>
		</g>
		<g>
			<g>
				<g>
					<g>
						<g>
							
								<rect x="193.2" y="311.6" transform="matrix(-1 -1.224647e-16 1.224647e-16 -1 446.213 626.0802)" class="st2" width="59.8" height="2.9"/>
						</g>
					</g>
					<g>
						<g>
							<polygon class="st2" points="262.3,314.5 273.5,272.5 226.8,272.5 216.6,314.5 							"/>
						</g>
					</g>
				</g>
				<g>
					<g>
						<polygon class="st3" points="219.4,311.3 261.1,311.3 270.9,274.4 228.9,274.4 						"/>
					</g>
				</g>
			</g>
			<g>
				<g>
					<g>
						<g>
							<rect x="181.4" y="323.1" class="st4" width="3" height="144.2"/>
						</g>
					</g>
					<g>
						<g>
							<rect x="184.4" y="323.5" class="st2" width="3" height="143.8"/>
						</g>
					</g>
				</g>
				<g>
					<g>
						<g>
							<rect x="367.4" y="323.1" class="st2" width="3" height="144.2"/>
						</g>
					</g>
					<g>
						<g>
							<rect x="370.4" y="323.5" class="st3" width="3" height="143.8"/>
						</g>
					</g>
				</g>
				<g>
					<g>
						<rect x="168.3" y="314.7" class="st3" width="229.4" height="11.8"/>
					</g>
				</g>
				<g>
					<g>
						<rect x="267.9" y="326.6" class="st2" width="101" height="19.6"/>
					</g>
				</g>
				<g>
					<g>
						<path class="st3" d="M322.9,335c0,1.2-1,2.3-2.3,2.3c-1.2,0-2.3-1-2.3-2.3c0-1.2,1-2.3,2.3-2.3
							C321.9,332.7,322.9,333.7,322.9,335z"/>
					</g>
				</g>
			</g>
		</g>
		<g>
			<g>
				<g>
					<g>
						<rect x="211.8" y="96.7" class="st3" width="2.1" height="19"/>
					</g>
				</g>
				<g>
					<g>
						<rect x="281.8" y="96.7" class="st3" width="2.1" height="19"/>
					</g>
				</g>
				<g>
					<g>
						<rect x="204" y="89" class="st2" width="89" height="7.6"/>
					</g>
				</g>
			</g>
			<g>
				<g>
					<g>
						<g>
							<rect x="263.1" y="31.9" class="st4" width="12.3" height="57.2"/>
						</g>
					</g>
					<g>
						<g>
							<path class="st3" d="M271.9,75.3c0,1.3-1.1,2.4-2.4,2.4c-1.3,0-2.4-1.1-2.4-2.4c0-1.3,1.1-2.4,2.4-2.4
								C270.8,72.9,271.9,74,271.9,75.3z"/>
						</g>
					</g>
					<g>
						<g>
							<rect x="267.5" y="47" class="st3" width="3.8" height="23.4"/>
						</g>
					</g>
				</g>
				<g>
					<g>
						<g>
							<rect x="250.7" y="31.9" class="st2" width="12.3" height="57.2"/>
						</g>
					</g>
					<g>
						<g>
							<path class="st5" d="M259.5,75.3c0,1.3-1.1,2.4-2.4,2.4c-1.3,0-2.4-1.1-2.4-2.4c0-1.3,1.1-2.4,2.4-2.4
								C258.4,72.9,259.5,74,259.5,75.3z"/>
						</g>
					</g>
					<g>
						<g>
							<rect x="255.1" y="47" class="st5" width="3.8" height="23.4"/>
						</g>
					</g>
				</g>
				<g>
					<g>
						<g>
							<rect x="238.8" y="31.9" class="st3" width="12.3" height="57.2"/>
						</g>
					</g>
					<g>
						<g>
							<path class="st5" d="M247.6,75.3c0,1.3-1.1,2.4-2.4,2.4c-1.3,0-2.4-1.1-2.4-2.4c0-1.3,1.1-2.4,2.4-2.4
								C246.5,72.9,247.6,74,247.6,75.3z"/>
						</g>
					</g>
					<g>
						<g>
							<rect x="243.2" y="47" class="st5" width="3.8" height="23.4"/>
						</g>
					</g>
				</g>
				<g>
					<g>
						<polygon class="st3" points="223.6,88.2 238.4,37.9 233.3,35.7 218.2,86.3 						"/>
					</g>
				</g>
			</g>
		</g>
		<g>
			<g>
				<path class="st6" d="M500,467.7c0,0.1-96.2,0.3-258.3,0.3C79.7,467.9,0,467.8,0,467.7c0-0.1,79.7-0.3,241.7-0.3
					C403.8,467.4,500,467.5,500,467.7z"/>
			</g>
		</g>
		<g>
			<g>
				<g>
					<g>
						<g>
							<path class="st6" d="M29.6,445.8c0,0,0-0.1,0.1-0.3c0.1-0.2,0.3-0.6,0.5-1c0.4-0.9,0.9-2.2,1.4-4c0.9-3.5,1.2-8.9-0.1-15.3
								c-0.6-3.2-1.6-6.6-2.8-10.3c-1.2-3.6-2.6-7.5-3.7-11.7c-1.1-4.2-2-8.7-1.8-13.4c0.2-4.7,1.6-9.5,3.1-14.2
								c1.5-4.7,3.1-9.3,3.6-14c0.5-4.6-0.5-9.2-2.6-12.9c-2-3.8-4.6-7-6.5-10.3c-2-3.3-3.2-6.8-3.9-9.9c-1.5-6.4-1-11.8-0.2-15.4
								c0.8-3.6,1.6-5.4,1.6-5.4c0,0,0,0.1-0.1,0.4c-0.1,0.3-0.2,0.6-0.3,1c-0.3,0.9-0.6,2.3-1,4.1c-0.6,3.6-1.1,8.9,0.4,15.3
								c0.8,3.1,2,6.5,3.9,9.8c1.9,3.3,4.5,6.5,6.6,10.3c2.2,3.8,3.2,8.5,2.6,13.2c-0.5,4.7-2.1,9.4-3.6,14.1
								c-1.5,4.7-2.9,9.4-3.1,14.1c-0.2,4.7,0.7,9.1,1.8,13.3c1.1,4.2,2.5,8,3.7,11.7c1.2,3.6,2.2,7.1,2.8,10.3
								c1.3,6.4,0.9,11.9,0,15.4c-0.5,1.8-1,3.1-1.5,3.9c-0.2,0.4-0.4,0.7-0.5,1C29.7,445.7,29.6,445.8,29.6,445.8z"/>
						</g>
					</g>
				</g>
				<g>
					<g>
						<g>
							<path class="st7" d="M23.3,341.7c0,0-3.9-12.5,3.1-19.8c0.2-0.3,0.7-0.1,0.7,0.2C27.5,324.2,28,330.5,23.3,341.7z"/>
						</g>
					</g>
					<g>
						<g>
							<g>
								<path class="st6" d="M25.6,326.1c0.1,0,0,0.9-0.3,2.3c-0.3,1.6-0.6,3.5-0.9,5.5c-0.3,2.1-0.6,3.9-0.9,5.5
									c-0.2,1.4-0.3,2.3-0.4,2.3c-0.1,0-0.1-0.9,0.1-2.3c0.1-1.4,0.4-3.4,0.7-5.6c0.4-2.2,0.7-4.1,1-5.5
									C25.3,326.9,25.6,326.1,25.6,326.1z"/>
							</g>
						</g>
					</g>
				</g>
				<g>
					<g>
						<g>
							<path class="st7" d="M27.9,371.2c0,0,2.4-12.9,12-16.1c0.3-0.1,0.7,0.2,0.6,0.5C39.8,357.7,37.3,363.5,27.9,371.2z"/>
						</g>
					</g>
					<g>
						<g>
							<g>
								<path class="st6" d="M37.3,358.5c0.1,0-0.5,0.8-1.3,1.9c-1,1.3-2.1,2.8-3.4,4.5c-1.3,1.7-2.4,3.2-3.4,4.5
									c-0.9,1.1-1.4,1.9-1.4,1.8c-0.1,0,0.4-0.8,1.1-2c0.8-1.2,1.9-2.8,3.2-4.6c1.3-1.7,2.6-3.3,3.5-4.4
									C36.6,359.1,37.2,358.4,37.3,358.5z"/>
							</g>
						</g>
					</g>
				</g>
				<g>
					<g>
						<g>
							<path class="st7" d="M25.3,403.6c0,0-1.5-13,6.8-18.9c0.3-0.2,0.7,0,0.7,0.4C32.8,387.1,32,393.4,25.3,403.6z"/>
						</g>
					</g>
					<g>
						<g>
							<g>
								<path class="st6" d="M30.6,388.6c0.1,0-0.2,0.9-0.7,2.2c-0.6,1.5-1.2,3.3-1.9,5.2c-0.7,2-1.4,3.7-1.9,5.2
									c-0.5,1.3-0.8,2.2-0.8,2.2c-0.1,0,0.1-0.9,0.5-2.3c0.4-1.4,1-3.3,1.8-5.3c0.8-2.1,1.5-3.9,2.1-5.2
									C30.1,389.4,30.5,388.6,30.6,388.6z"/>
							</g>
						</g>
					</g>
				</g>
				<g>
					<g>
						<g>
							<path class="st7" d="M32.5,436.1c0,0-1-13.1,7.5-18.6c0.3-0.2,0.7,0,0.7,0.4C40.6,419.9,39.6,426.2,32.5,436.1z"/>
						</g>
					</g>
					<g>
						<g>
							<g>
								<path class="st6" d="M38.4,421.4c0.1,0-0.2,0.9-0.8,2.2c-0.6,1.5-1.3,3.2-2.1,5.2c-0.8,1.9-1.5,3.7-2.1,5.2
									c-0.5,1.3-0.9,2.2-0.9,2.1c-0.1,0,0.1-0.9,0.6-2.2c0.4-1.4,1.1-3.2,2-5.2c0.8-2,1.6-3.8,2.3-5.1
									C37.9,422.1,38.3,421.3,38.4,421.4z"/>
							</g>
						</g>
					</g>
				</g>
				<g>
					<g>
						<g>
							<path class="st7" d="M17.7,330.7c0,0-11.6-6.1-11.8-16.2c0-0.4,0.4-0.6,0.7-0.4C8.2,315.4,13,319.5,17.7,330.7z"/>
						</g>
					</g>
					<g>
						<g>
							<g>
								<path class="st6" d="M8.2,318c0.1,0,0.6,0.7,1.4,1.8c0.9,1.3,2.1,2.8,3.3,4.5c1.2,1.7,2.3,3.2,3.3,4.5
									c0.8,1.1,1.4,1.9,1.3,1.9c0,0-0.7-0.6-1.6-1.7c-0.9-1.1-2.1-2.7-3.4-4.4c-1.3-1.8-2.4-3.4-3.2-4.6
									C8.6,318.8,8.2,318.1,8.2,318z"/>
							</g>
						</g>
					</g>
				</g>
				<g>
					<g>
						<g>
							<path class="st7" d="M30.1,357.6c0,0-12-5.4-12.8-15.5c0-0.4,0.3-0.6,0.7-0.4C19.8,342.8,24.8,346.6,30.1,357.6z"/>
						</g>
					</g>
					<g>
						<g>
							<g>
								<path class="st6" d="M19.9,345.5c0.1,0,0.6,0.6,1.6,1.7c1,1.2,2.2,2.7,3.5,4.3c1.3,1.6,2.5,3.1,3.6,4.3
									c0.9,1.1,1.5,1.8,1.4,1.8c0,0-0.7-0.5-1.7-1.6c-1-1-2.3-2.5-3.7-4.2c-1.4-1.7-2.6-3.3-3.4-4.4
									C20.4,346.3,19.9,345.5,19.9,345.5z"/>
							</g>
						</g>
					</g>
				</g>
				<g>
					<g>
						<g>
							<path class="st7" d="M23.3,387.6c0,0-8.2-10.2-4.4-19.6c0.1-0.3,0.6-0.4,0.8-0.1C20.8,369.7,23.5,375.4,23.3,387.6z"/>
						</g>
					</g>
					<g>
						<g>
							<g>
								<path class="st6" d="M19.7,372.1c0.1,0,0.3,0.8,0.6,2.2c0.3,1.6,0.7,3.4,1.2,5.5c0.4,2,0.9,3.9,1.2,5.5
									c0.3,1.4,0.5,2.3,0.4,2.3c-0.1,0-0.4-0.8-0.8-2.2c-0.4-1.4-0.9-3.3-1.3-5.4c-0.5-2.1-0.8-4.1-1-5.5
									C19.7,373,19.6,372.2,19.7,372.1z"/>
							</g>
						</g>
					</g>
				</g>
				<g>
					<g>
						<g>
							<path class="st7" d="M31.4,422.8c0,0-11.9-5.6-12.5-15.7c0-0.4,0.4-0.6,0.7-0.4C21.3,407.9,26.2,411.8,31.4,422.8z"/>
						</g>
					</g>
					<g>
						<g>
							<g>
								<path class="st6" d="M21.4,410.5c0.1,0,0.6,0.6,1.5,1.8c1,1.3,2.2,2.7,3.5,4.4c1.3,1.6,2.5,3.1,3.5,4.4
									c0.9,1.1,1.5,1.8,1.4,1.8c0,0-0.7-0.6-1.7-1.6c-1-1.1-2.2-2.6-3.6-4.3c-1.4-1.7-2.5-3.3-3.4-4.5
									C21.8,411.3,21.4,410.6,21.4,410.5z"/>
							</g>
						</g>
					</g>
				</g>
				<g>
					<g>
						<g>
							<g>
								<path class="st6" d="M55,371.3c0,0,0,0.1,0,0.3c0,0.2,0,0.5,0,0.8c0,0.8-0.1,1.9-0.1,3.2c-0.2,2.8-0.4,6.7-0.6,11.4l0,0l0,0
									c-0.8,4.7-3.3,10-6.5,15.1c-2.4,3.8-4.9,7.2-7,10.4c-2.2,3.2-4,6.1-5.3,8.7c-1.3,2.6-2,4.8-2.5,6.4
									c-0.2,0.8-0.4,1.4-0.5,1.8c-0.1,0.4-0.2,0.6-0.2,0.6c0,0,0-0.2,0.1-0.7c0.1-0.4,0.2-1,0.4-1.8c0.4-1.6,1.1-3.9,2.3-6.5
									c1.2-2.6,3.1-5.6,5.2-8.8c2.1-3.2,4.6-6.6,7-10.4c3.2-5.1,5.6-10.3,6.5-14.9l0,0c0.3-4.7,0.6-8.5,0.8-11.3
									c0.1-1.3,0.2-2.4,0.3-3.2c0-0.3,0.1-0.6,0.1-0.8C55,371.4,55,371.3,55,371.3z"/>
							</g>
						</g>
					</g>
					<g>
						<g>
							<g>
								<path class="st7" d="M48,401.1c0,0,5-12.1-1.3-20c-0.2-0.3-0.7-0.2-0.8,0.1C45.4,383.3,44.3,389.5,48,401.1z"/>
							</g>
						</g>
						<g>
							<g>
								<g>
									<path class="st6" d="M47.1,385.3c0.1,0,0.2,0.9,0.4,2.3c0.2,1.4,0.4,3.4,0.5,5.6c0.2,2.2,0.2,4.2,0.2,5.6
										c0,1.4-0.1,2.3-0.1,2.3c-0.1,0-0.1-0.9-0.2-2.3c-0.1-1.6-0.2-3.5-0.4-5.6c-0.1-2.1-0.3-4-0.4-5.6
										C47,386.2,47,385.3,47.1,385.3z"/>
								</g>
							</g>
						</g>
						<g class="st8">
							<g>
								<path d="M48,401.1c0,0,5-12.1-1.3-20c-0.2-0.3-0.7-0.2-0.8,0.1C45.4,383.3,44.3,389.5,48,401.1z"/>
							</g>
						</g>
					</g>
					<g>
						<g>
							<g>
								<path class="st7" d="M32.4,430.3c0,0,4-12.5-2.9-19.9c-0.2-0.3-0.7-0.1-0.7,0.2C28.3,412.7,27.8,419,32.4,430.3z"/>
							</g>
						</g>
						<g>
							<g>
								<g>
									<path class="st6" d="M30.2,414.6c0.1,0,0.3,0.8,0.6,2.3c0.3,1.4,0.7,3.4,1,5.5c0.3,2.2,0.6,4.1,0.7,5.6
										c0.1,1.4,0.1,2.3,0,2.3c-0.1,0-0.2-0.9-0.4-2.3c-0.2-1.6-0.5-3.5-0.8-5.5c-0.3-2.1-0.6-3.9-0.8-5.5
										C30.2,415.5,30.1,414.6,30.2,414.6z"/>
								</g>
							</g>
						</g>
						<g class="st8">
							<g>
								<path d="M32.4,430.3c0,0,4-12.5-2.9-19.9c-0.2-0.3-0.7-0.1-0.7,0.2C28.3,412.7,27.8,419,32.4,430.3z"/>
							</g>
						</g>
					</g>
					<g>
						<g>
							<g>
								<path class="st7" d="M54.4,386.3c0,0,10.7-7.5,9.7-17.6c0-0.4-0.5-0.5-0.7-0.3C61.8,369.8,57.5,374.5,54.4,386.3z"/>
							</g>
						</g>
						<g class="st8">
							<g>
								<path d="M54.4,386.3c0,0,10.7-7.5,9.7-17.6c0-0.4-0.5-0.5-0.7-0.3C61.8,369.8,57.5,374.5,54.4,386.3z"/>
							</g>
						</g>
						<g>
							<g>
								<g>
									<path class="st6" d="M62.1,372.5c0.1,0-0.3,0.9-0.9,2.1c-0.6,1.3-1.5,3.1-2.5,5c-1,1.9-2,3.6-2.8,4.8
										c-0.8,1.2-1.3,1.9-1.4,1.9c-0.1,0,0.4-0.8,1.1-2.1c0.8-1.4,1.7-3.1,2.7-4.9c1-1.8,1.9-3.5,2.7-4.9
										C61.6,373.2,62,372.5,62.1,372.5z"/>
								</g>
							</g>
						</g>
					</g>
					<g>
						<g>
							<g>
								<path class="st7" d="M36.7,417.9c0,0,13-2,16.4-11.6c0.1-0.3-0.2-0.7-0.5-0.6C50.6,406.4,44.8,408.7,36.7,417.9z"/>
							</g>
						</g>
						<g class="st8">
							<g>
								<path d="M36.7,417.9c0,0,13-2,16.4-11.6c0.1-0.3-0.2-0.7-0.5-0.6C50.6,406.4,44.8,408.7,36.7,417.9z"/>
							</g>
						</g>
						<g>
							<g>
								<g>
									<path class="st6" d="M49.7,408.9c0,0.1-0.6,0.6-1.7,1.5c-1.1,0.9-2.7,2.1-4.5,3.4c-1.8,1.3-3.4,2.4-4.7,3.1
										c-1.2,0.7-2,1.1-2.1,1.1c0-0.1,0.7-0.6,1.9-1.4c1.3-0.9,2.9-2,4.6-3.2c1.7-1.2,3.2-2.3,4.6-3.2
										C49,409.3,49.7,408.8,49.7,408.9z"/>
								</g>
							</g>
						</g>
					</g>
				</g>
			</g>
			<g>
				<g>
					<polygon class="st9" points="24.4,441.8 20.6,467.2 44.1,467.2 41.1,441.8 					"/>
				</g>
			</g>
			<g>
				<g>
					<g>
						<path class="st6" d="M42,449.6c0,0.1-4.3,0.2-9.5,0.2c-5.2,0-9.5-0.1-9.5-0.2s4.3-0.2,9.5-0.2C37.8,449.4,42,449.5,42,449.6z"
							/>
					</g>
				</g>
			</g>
			<g>
				<g>
					<g>
						<path class="st6" d="M42.5,451.7c0,0.1-4.4,0.2-9.8,0.2c-5.4,0-9.8-0.1-9.8-0.2c0-0.1,4.4-0.2,9.8-0.2
							C38.1,451.4,42.5,451.5,42.5,451.7z"/>
					</g>
				</g>
			</g>
		</g>
		<g>
			<g>
				<circle class="st7" cx="141" cy="94.8" r="50.8"/>
			</g>
			<g>
				<path class="st10" d="M141,137c-23.3,0-42.3-19-42.3-42.3s19-42.3,42.3-42.3s42.3,19,42.3,42.3S164.3,137,141,137z M141,59.8
					c-19.3,0-35,15.7-35,35c0,19.3,15.7,35,35,35s35-15.7,35-35C176,75.5,160.3,59.8,141,59.8z"/>
			</g>
			<g>
				<path class="st10" d="M140.7,109.2c-8.6,0-15.6-7-15.6-15.6c0-8.6,7-15.6,15.6-15.6c8.6,0,15.6,7,15.6,15.6
					C156.3,102.3,149.3,109.2,140.7,109.2z M140.7,85.3c-4.6,0-8.3,3.7-8.3,8.3c0,4.6,3.7,8.3,8.3,8.3c4.6,0,8.3-3.7,8.3-8.3
					C149,89.1,145.3,85.3,140.7,85.3z"/>
			</g>
			<g>
				<polygon class="st9" points="140.7,93.7 121,93.7 124.4,99.7 78.1,121 79.7,123.6 126.2,102.6 129.4,108.6 				"/>
			</g>
			<g>
				<path class="st6" d="M78.1,121l-0.5-0.5c-2.4-2.4-5.9-3.2-9.2-2.3L50,123.6l10.3,4.5l-4.1,11l17.3-6.2c3.9-1.4,6.4-5.2,6.2-9.3
					l0,0L78.1,121z"/>
			</g>
		</g>
		<g>
			<g>
				<g>
					<path class="st5" d="M434.1,163.6H316.4c-2.8,0-5.1-2.3-5.1-5.1V47.9c0-2.8,2.3-5.1,5.1-5.1h117.7c2.8,0,5.1,2.3,5.1,5.1v110.5
						C439.2,161.3,436.9,163.6,434.1,163.6z"/>
				</g>
				<g>
					<g>
						<path class="st6" d="M434.1,163.6c0,0,0.4,0,1.2-0.2c0.8-0.2,2-0.7,2.9-2.1c0.4-0.7,0.8-1.5,0.8-2.5c0-1,0-2.1,0-3.3
							c0-2.4,0-5.1,0-8.2c0-12.4,0-30.3-0.1-52.3c0-11.1,0-23.2,0-36.2c0-3.2,0-6.6,0-9.9c0-0.9,0-1.7-0.2-2.4
							c-0.3-0.8-0.7-1.5-1.3-2c-0.6-0.6-1.3-1-2.1-1.2c-0.8-0.2-1.6-0.2-2.5-0.2c-6.9,0-14,0-21.4,0c-29.2,0-61.3,0-95.1,0
							c-2,0-3.9,1.3-4.6,3.2c-0.4,0.9-0.3,2-0.3,3l0,3.1c0,4.2,0,8.3,0,12.4c0,8.2,0,16.3,0,24.3c0,15.9,0,31.2,0,45.9
							c0,7.3,0,14.4,0,21.4c0,0.9,0,1.7,0,2.6c0.1,0.8,0.4,1.6,0.8,2.3c0.9,1.4,2.5,2.2,4.1,2.1c3.4,0,6.7,0,9.9,0
							c13,0,25.1,0,36.2,0c22.1,0,40,0.1,52.3,0.1c6.2,0,11,0,14.2,0.1c1.6,0,2.9,0,3.7,0C433.7,163.6,434.1,163.6,434.1,163.6
							s-0.4,0-1.3,0c-0.8,0-2.1,0-3.7,0c-3.3,0-8.1,0-14.2,0.1c-12.4,0-30.3,0-52.3,0.1c-11.1,0-23.2,0-36.2,0c-3.2,0-6.6,0-9.9,0
							c-1.8,0-3.5-0.9-4.5-2.3c-0.5-0.7-0.8-1.6-0.9-2.5c0-0.9,0-1.7,0-2.6c0-6.9,0-14,0-21.4c0-14.6,0-30,0-45.9c0-8,0-16,0-24.3
							c0-4.1,0-8.2,0-12.4l0-3.1l0-1.6c0-0.6,0.1-1.1,0.3-1.6c0.7-2.1,2.8-3.6,5.1-3.6c33.7,0,65.8,0,95.1,0c7.3,0,14.4,0,21.4,0
							l1.3,0c0.4,0,0.9,0.1,1.3,0.2c0.9,0.2,1.7,0.7,2.3,1.3c0.7,0.6,1.1,1.4,1.4,2.2c0.3,0.8,0.3,1.8,0.3,2.6c0,3.4,0,6.7,0,9.9
							c0,13,0,25.1,0,36.2c0,22.1-0.1,40-0.1,52.3c0,3.1,0,5.8,0,8.2c0,1.2,0,2.3,0,3.3c-0.1,1-0.4,1.9-0.9,2.6
							c-1,1.4-2.2,1.9-3,2.1C434.5,163.6,434.1,163.6,434.1,163.6z"/>
					</g>
				</g>
			</g>
			<g>
				<g>
					<rect x="333.6" y="91.2" class="st7" width="6.9" height="59.2"/>
				</g>
				<g>
					<rect x="365" y="86.4" class="st7" width="6.9" height="64.1"/>
				</g>
				<g>
					<rect x="397.4" y="78.2" class="st7" width="6.9" height="72.2"/>
				</g>
				<g>
					<rect x="382.2" y="121.6" class="st6" width="6.9" height="28.8"/>
				</g>
				<g>
					<rect x="341.7" y="84.8" class="st9" width="6.9" height="65.6"/>
				</g>
				<g>
					<rect x="373.6" y="71.1" class="st9" width="6.9" height="79.3"/>
				</g>
				<g>
					<rect x="415.2" y="71.1" class="st6" width="6.9" height="79.3"/>
				</g>
				<g>
					<rect x="406.6" y="55.4" class="st9" width="6.9" height="95"/>
				</g>
				<g>
					<rect x="350.1" y="108.8" class="st6" width="6.9" height="41.6"/>
				</g>
				<g>
					<g>
						<path class="st6" d="M432,154c0,0.1-24.6,0.3-54.9,0.3c-30.4,0-55-0.1-55-0.3c0-0.1,24.6-0.3,55-0.3
							C407.4,153.7,432,153.9,432,154z"/>
					</g>
				</g>
				<g>
					<rect x="318.9" y="139.9" class="st6" width="4.2" height="1.6"/>
				</g>
				<g>
					<rect x="318.9" y="118.8" class="st6" width="4.2" height="1.6"/>
				</g>
				<g>
					<rect x="318.9" y="79.1" class="st6" width="4.2" height="1.6"/>
				</g>
				<g>
					<rect x="318.9" y="59.2" class="st6" width="4.2" height="1.6"/>
				</g>
				<g>
					<rect x="319.1" y="99" class="st6" width="4.2" height="1.6"/>
				</g>
			</g>
		</g>
		<g>
			<g>
				<g>
					<rect x="122.7" y="108.7" class="st10" width="238" height="185.2"/>
				</g>
				<g>
					<g>
						<path class="st6" d="M360.7,293.9c0-1.8-0.1-73.4-0.2-185.2l0.2,0.2c-67.7,0-149.7,0-238,0h0l0.3-0.3c0,66.8,0,129.9,0,185.2
							l-0.2-0.2C264,293.8,358.6,293.9,360.7,293.9c-2.1,0-96.8,0.1-238,0.2l-0.2,0v-0.2c0-55.3,0-118.5,0-185.2v-0.3h0.3h0
							c88.3,0,170.2,0,238,0h0.2l0,0.2C360.8,220.4,360.7,292,360.7,293.9z"/>
					</g>
				</g>
			</g>
			<g>
				<g>
					<g>
						<path class="st6" d="M193.1,271.2c-0.1,0-0.3-18.7-0.3-41.7c0-23.1,0.1-41.7,0.3-41.7s0.3,18.7,0.3,41.7
							C193.3,252.5,193.2,271.2,193.1,271.2z"/>
					</g>
				</g>
				<g>
					<g>
						<path class="st6" d="M289,271.2c-0.1,0-0.3-18.7-0.3-41.7c0-23.1,0.1-41.7,0.3-41.7c0.1,0,0.3,18.7,0.3,41.7
							C289.2,252.5,289.1,271.2,289,271.2z"/>
					</g>
				</g>
				<g>
					<g>
						<path class="st6" d="M225.8,271.2c-0.1,0-0.3-23.9-0.3-53.4c0-29.5,0.1-53.4,0.3-53.4c0.1,0,0.3,23.9,0.3,53.4
							C226.1,247.3,226,271.2,225.8,271.2z"/>
					</g>
				</g>
				<g>
					<g>
						<path class="st6" d="M159.4,271.2c-0.1,0-0.3-23.9-0.3-53.4c0-29.5,0.1-53.4,0.3-53.4c0.1,0,0.3,23.9,0.3,53.4
							C159.7,247.3,159.6,271.2,159.4,271.2z"/>
					</g>
				</g>
				<g>
					<g>
						<path class="st6" d="M326.6,271.2c-0.1,0-0.3-23.9-0.3-53.4c0-29.5,0.1-53.4,0.3-53.4c0.1,0,0.3,23.9,0.3,53.4
							C326.9,247.3,326.7,271.2,326.6,271.2z"/>
					</g>
				</g>
				<g>
					<g>
						<path class="st6" d="M254.5,271.2c-0.1,0-0.3-27.6-0.3-61.6c0-34,0.1-61.6,0.3-61.6s0.3,27.6,0.3,61.6
							C254.8,243.6,254.7,271.2,254.5,271.2z"/>
					</g>
				</g>
				<g>
					<path class="st6" d="M193.9,187.7c0,0.4-0.4,0.8-0.8,0.8c-0.4,0-0.8-0.4-0.8-0.8c0-0.4,0.4-0.8,0.8-0.8
						C193.5,186.9,193.9,187.3,193.9,187.7z"/>
				</g>
				<g>
					<path class="st6" d="M226.6,164.5c0,0.4-0.4,0.8-0.8,0.8s-0.8-0.4-0.8-0.8c0-0.4,0.4-0.8,0.8-0.8S226.6,164,226.6,164.5z"/>
				</g>
				<g>
					<path class="st7" d="M225.8,167.2c-1.5,0-2.8-1.2-2.8-2.8c0-1.5,1.2-2.8,2.8-2.8c1.5,0,2.8,1.2,2.8,2.8
						C228.6,166,227.3,167.2,225.8,167.2z M225.8,161.9c-1.4,0-2.5,1.1-2.5,2.5c0,1.4,1.1,2.5,2.5,2.5c1.4,0,2.5-1.1,2.5-2.5
						C228.3,163.1,227.2,161.9,225.8,161.9z"/>
				</g>
				<g>
					<circle class="st6" cx="254.5" cy="148" r="0.8"/>
				</g>
				<g>
					<path class="st6" d="M289.7,188.5c0,0.4-0.4,0.8-0.8,0.8s-0.8-0.4-0.8-0.8c0-0.4,0.4-0.8,0.8-0.8S289.7,188.1,289.7,188.5z"/>
				</g>
				<g>
					<path class="st6" d="M327.4,164.5c0,0.4-0.4,0.8-0.8,0.8c-0.4,0-0.8-0.4-0.8-0.8c0-0.4,0.4-0.8,0.8-0.8
						C327,163.7,327.4,164,327.4,164.5z"/>
				</g>
				<g>
					<path class="st6" d="M160.2,165.2c0,0.4-0.4,0.8-0.8,0.8s-0.8-0.4-0.8-0.8c0-0.4,0.4-0.8,0.8-0.8S160.2,164.8,160.2,165.2z"/>
				</g>
				<g>
					<g>
						<path class="st7" d="M334,202.2c0,0.1-0.9,0.2-2.4,0.9c-1.5,0.7-3.6,2-5.7,4.3c-2.1,2.3-4.2,5.5-6.9,9.2
							c-1.4,1.8-2.9,3.7-4.7,5.5c-0.9,0.9-2,1.8-3.1,2.6c-1.1,0.8-2.4,1.5-3.7,2c-2.7,1.1-5.8,1.7-8.9,1.5c-1.6-0.1-3.2-0.2-4.8-0.6
							c-1.6-0.3-3.3-1-4.7-2.1c-1.4-1-2.7-2.3-3.7-3.8c-1-1.4-1.9-3-2.8-4.5c-1.7-3.1-3.5-6.2-5.5-9.4c-2-3.2-3.9-6.5-5.9-9.8
							c-2.1-3.3-4.3-6.5-7.2-9.3c-1.5-1.3-3-2.6-4.8-3.4c-0.9-0.5-1.8-0.7-2.7-1.1c-0.5-0.1-1-0.2-1.5-0.3l-0.7-0.2
							c-0.2,0-0.5,0-0.7-0.1c-4-0.3-8.2,0.5-11.8,2.5c-3.6,2.1-6.6,5.1-9,8.4c-2.5,3.3-4.5,6.9-6.5,10.4c-3.9,7.1-8.3,13.9-14,19
							c-2.9,2.5-6.2,4.5-9.8,5.4c-1.8,0.5-3.6,0.6-5.4,0.6c-1.8-0.1-3.5-0.4-5.2-1c-3.3-1.1-6.1-2.8-8.7-4.5
							c-2.6-1.8-4.9-3.6-7.2-5.2c-2.3-1.7-4.5-3.1-6.8-4.1c-2.3-1-4.6-1.7-6.7-1.9c-2.2-0.2-4.2-0.1-6.1,0.4
							c-0.5,0.1-0.9,0.3-1.3,0.4c-0.4,0.2-0.9,0.3-1.2,0.5c-0.8,0.4-1.5,0.7-2.1,1.2c-1.3,0.8-2.3,1.8-3.2,2.6
							c-0.8,0.9-1.5,1.6-2,2.3c-1,1.3-1.6,2-1.6,2c0,0,0.4-0.8,1.3-2.2c0.5-0.7,1.2-1.5,2-2.4c0.9-0.8,1.9-1.9,3.2-2.8
							c0.6-0.5,1.4-0.8,2.2-1.3c0.4-0.2,0.8-0.4,1.3-0.5c0.4-0.1,0.9-0.4,1.4-0.5c1.9-0.6,4.1-0.7,6.4-0.5c2.3,0.2,4.7,0.9,7.1,1.9
							c2.4,1,4.7,2.5,7,4.1c2.3,1.6,4.7,3.4,7.2,5.1c2.5,1.7,5.3,3.3,8.4,4.3c1.5,0.5,3.1,0.8,4.8,0.9c1.6,0,3.3-0.1,5-0.6
							c3.3-0.8,6.4-2.8,9.1-5.2c5.5-4.9,9.7-11.6,13.6-18.7c2-3.5,4-7.2,6.6-10.6c2.6-3.4,5.6-6.7,9.5-8.9c3.9-2.2,8.4-3.1,12.8-2.7
							c0.3,0,0.5,0,0.8,0.1l0.8,0.2c0.5,0.1,1.1,0.2,1.6,0.4c1,0.4,2.1,0.7,3,1.2c2,0.9,3.6,2.3,5.2,3.7c3,2.9,5.3,6.3,7.4,9.6
							c2.1,3.4,3.9,6.7,5.9,9.9c2,3.2,3.8,6.4,5.5,9.5c1.7,3.1,3.4,6.1,6,7.9c1.3,0.9,2.7,1.5,4.2,1.9c1.5,0.4,3,0.5,4.5,0.6
							c3,0.2,5.9-0.3,8.5-1.3c1.3-0.5,2.4-1.2,3.5-1.9c1.1-0.8,2.1-1.5,3-2.4c1.8-1.7,3.3-3.6,4.7-5.3c2.7-3.5,4.9-6.8,7.2-9.1
							c2.2-2.3,4.4-3.6,6-4.2c0.8-0.3,1.4-0.4,1.9-0.5C333.8,202.2,334,202.2,334,202.2z"/>
					</g>
				</g>
				<g>
					<rect x="158.7" y="133" class="st6" width="38.5" height="2.1"/>
				</g>
				<g>
					<rect x="158.7" y="138" class="st6" width="19" height="2.1"/>
				</g>
			</g>
			<g>
				<rect x="122.7" y="103.3" class="st6" width="238" height="14.9"/>
			</g>
		</g>
		<g>
			<g>
				<g>
					<g>
						<g>
							<g>
								<polygon class="st11" points="406.4,410.1 441,452.5 449.8,441.8 423.6,403.9 								"/>
							</g>
						</g>
					</g>
					<g>
						<g>
							<g>
								<g>
									<g>
										<path class="st7" d="M440.3,453.5l-1-1l10.1-11.8l4.3,4l-0.6,0.7c-2.7,3.3-14.1,16.6-16.6,18.1
											C433.5,465.1,440.3,453.5,440.3,453.5z"/>
									</g>
								</g>
								<g class="st12">
									<g>
										<path class="st10" d="M449.7,448.7c-0.8-1-1.2-2.4-1.1-3.7c0.1-1.3,0.7-2.5,1.6-3.4l3.2,2.9L449.7,448.7z"/>
									</g>
								</g>
							</g>
							<g>
								<g class="st12">
									<path class="st10" d="M437.1,459.3c0,0-2.1,4.3-1.2,4.4c0.9,0.1,12.9-12.9,17.7-19.1l-0.3-0.2l-13.8,15.3
										C439.5,459.7,437.8,458.7,437.1,459.3z"/>
								</g>
							</g>
							<g>
								<g>
									<g>
										<path class="st6" d="M453.5,444.2c0,0,0,0.1-0.2,0.2c-0.1,0.2-0.3,0.4-0.5,0.6c-0.5,0.6-1.1,1.3-1.8,2.1
											c-1.5,1.8-3.7,4.3-6.2,6.9c-2.5,2.7-4.7,5-6.4,6.7c-0.8,0.8-1.4,1.4-2,2c-0.2,0.2-0.4,0.4-0.6,0.5
											c-0.1,0.1-0.2,0.2-0.2,0.2s0.1-0.1,0.2-0.2c0.2-0.2,0.3-0.3,0.5-0.6c0.5-0.6,1.2-1.2,1.9-2c1.6-1.7,3.9-4.1,6.4-6.8
											c2.5-2.7,4.6-5.1,6.2-6.9c0.7-0.8,1.4-1.5,1.9-2.1c0.2-0.2,0.4-0.4,0.5-0.6C453.4,444.3,453.5,444.2,453.5,444.2z"/>
									</g>
								</g>
							</g>
							<g>
								<g>
									<g>
										<path class="st6" d="M439.7,459.8c0,0-0.6-0.4-1.3-0.5c-0.8-0.2-1.4,0-1.4,0c0,0,0.6-0.3,1.5-0.2
											C439.2,459.3,439.7,459.8,439.7,459.8z"/>
									</g>
								</g>
							</g>
							<g>
								<g>
									<g>
										<path class="st6" d="M441.1,454.9c0,0.1-0.4,0-0.8,0c-0.4-0.1-0.7-0.2-0.7-0.2c0-0.1,0.4,0,0.8,0
											C440.8,454.8,441.1,454.9,441.1,454.9z"/>
									</g>
								</g>
							</g>
							<g>
								<g>
									<g>
										<path class="st6" d="M441.5,453.6c0,0.1-0.3,0.1-0.6,0.2c-0.4,0-0.6,0-0.7,0c0-0.1,0.3-0.1,0.6-0.2
											C441.2,453.5,441.5,453.5,441.5,453.6z"/>
									</g>
								</g>
							</g>
							<g>
								<g>
									<g>
										<path class="st6" d="M440.9,452c0,0-0.2,0.3-0.5,0.7c-0.3,0.3-0.6,0.6-0.6,0.5c0,0,0.2-0.3,0.5-0.7
											C440.6,452.2,440.9,451.9,440.9,452z"/>
									</g>
								</g>
							</g>
							<g>
								<g>
									<g>
										<path class="st6" d="M440.4,451.1c0,0-0.1,0.4-0.4,0.8c-0.3,0.4-0.7,0.6-0.7,0.6c0,0,0.3-0.3,0.6-0.7
											C440.1,451.4,440.3,451.1,440.4,451.1z"/>
									</g>
								</g>
							</g>
							<g>
								<g>
									<g>
										<path class="st6" d="M439.8,454.4c0,0-0.2,0.3-0.7,0.7c-0.2,0.2-0.5,0.4-0.9,0.6c-0.2,0.1-0.4,0.2-0.6,0.3
											c-0.1,0-0.3,0-0.4,0c-0.1-0.1-0.2-0.2-0.2-0.4c0.3-1,1.3-1.4,1.9-1.3c0.3,0,0.6,0.1,0.7,0.2c0.2,0.1,0.2,0.2,0.2,0.2
											c0,0-0.3-0.2-0.9-0.2c-0.3,0-0.6,0.1-1,0.3c-0.3,0.2-0.7,0.5-0.7,0.9c0,0.2,0.2,0.3,0.4,0.2c0.2,0,0.4-0.2,0.6-0.2
											c0.4-0.2,0.6-0.4,0.9-0.6C439.5,454.6,439.7,454.4,439.8,454.4z"/>
									</g>
								</g>
							</g>
							<g>
								<g>
									<g>
										<path class="st6" d="M439.6,454.6c0,0-0.3,0-0.6-0.4c-0.1-0.2-0.3-0.4-0.3-0.7c0-0.3-0.1-0.7,0.2-1
											c0.2-0.1,0.4-0.1,0.5,0.1c0.1,0.1,0.2,0.3,0.2,0.4c0.1,0.3,0.1,0.5,0.1,0.8C439.8,454.3,439.7,454.5,439.6,454.6
											c0-0.1,0-0.3,0-0.8c0-0.2-0.1-0.5-0.2-0.7c-0.1-0.2-0.3-0.6-0.5-0.4c-0.2,0.2-0.2,0.5-0.1,0.8c0.1,0.3,0.2,0.5,0.3,0.6
											C439.4,454.5,439.6,454.6,439.6,454.6z"/>
									</g>
								</g>
							</g>
							<g>
								<g>
									<g>
										<path class="st6" d="M450.2,441.6c0,0-0.3,0.3-0.7,0.9c-0.4,0.6-0.9,1.5-0.9,2.5c-0.1,1.1,0.2,2,0.6,2.6
											c0.3,0.6,0.6,0.9,0.6,1c0,0-0.1-0.1-0.2-0.2c-0.1-0.1-0.3-0.4-0.5-0.7c-0.4-0.6-0.7-1.6-0.6-2.7c0.1-1.1,0.6-2,1-2.6
											c0.2-0.3,0.4-0.5,0.6-0.6C450.1,441.7,450.2,441.6,450.2,441.6z"/>
									</g>
								</g>
							</g>
							<g>
								<g>
									<g>
										<path class="st6" d="M447.3,449.1c0,0-0.5,0.9-1.4,1.8c-0.8,0.9-1.6,1.6-1.7,1.5c0,0,0.7-0.7,1.5-1.7
											C446.6,449.9,447.3,449.1,447.3,449.1z"/>
									</g>
								</g>
							</g>
							<g>
								<g>
									<g>
										<path class="st6" d="M449.4,446.9c0.1,0,0.1,0.2,0.2,0.4c0.1,0.2,0.2,0.4,0.2,0.5c0,0-0.2-0.1-0.3-0.4
											C449.3,447.1,449.3,446.9,449.4,446.9z"/>
									</g>
								</g>
							</g>
							<g>
								<g>
									<g>
										<path class="st6" d="M449.1,445.1c0.1,0,0.1,0.2,0.1,0.4c0,0.2,0,0.4-0.1,0.4c-0.1,0-0.1-0.2-0.1-0.4
											C449,445.2,449,445.1,449.1,445.1z"/>
									</g>
								</g>
							</g>
							<g>
								<g>
									<g>
										<path class="st6" d="M449.7,443.4c0,0-0.1,0.2-0.2,0.4c-0.1,0.2-0.1,0.4-0.2,0.4c0,0-0.1-0.2,0-0.5
											C449.5,443.5,449.7,443.4,449.7,443.4z"/>
									</g>
								</g>
							</g>
							<g>
								<g>
									<g>
										<path class="st6" d="M450.3,442.3c0,0,0,0.1,0,0.3c-0.1,0.1-0.1,0.2-0.2,0.2c0,0,0-0.1,0-0.3
											C450.2,442.4,450.2,442.3,450.3,442.3z"/>
									</g>
								</g>
							</g>
						</g>
					</g>
				</g>
				<g>
					<g>
						<g>
							<g>
								<polygon class="st11" points="347.8,444.5 344.8,463.2 360.8,463.2 364.5,448 								"/>
							</g>
						</g>
					</g>
					<g>
						<g>
							<g>
								<g>
									<g>
										<path class="st7" d="M345.3,463.6l0-1.4l15.6-0.1l-0.2,5.9l-1,0c-4.3,0.1-21.7,0.1-24.5-0.8
											C332,466.1,345.3,463.6,345.3,463.6z"/>
									</g>
								</g>
								<g class="st12">
									<g>
										<path class="st10" d="M355.1,467.7c0.3-1.3,1-2.5,2.1-3.2c1.1-0.8,2.4-1.1,3.7-1l-0.2,4.3L355.1,467.7z"/>
									</g>
								</g>
							</g>
							<g>
								<g class="st12">
									<path class="st10" d="M338.8,465.1c0,0-4.6,1.2-4.1,1.9c0.5,0.8,18.2,1.4,26,1l0-0.3l-20.6-0.6
										C340.1,467.1,339.7,465.1,338.8,465.1z"/>
								</g>
							</g>
							<g>
								<g>
									<g>
										<path class="st6" d="M360.9,467.6c0,0-0.1,0-0.3,0c-0.2,0-0.5,0-0.8,0c-0.8,0-1.7,0-2.8,0c-2.4,0-5.7,0-9.3-0.2
											c-3.6-0.1-6.9-0.3-9.3-0.5c-1.1-0.1-2-0.2-2.8-0.2c-0.3,0-0.5-0.1-0.8-0.1c-0.2,0-0.3,0-0.3,0c0,0,0.1,0,0.3,0
											c0.2,0,0.5,0,0.8,0c0.8,0,1.7,0.1,2.8,0.2c2.4,0.1,5.6,0.3,9.3,0.4c3.6,0.1,6.9,0.2,9.3,0.2c1.1,0,2,0,2.8,0
											c0.3,0,0.5,0,0.8,0C360.8,467.6,360.9,467.6,360.9,467.6z"/>
									</g>
								</g>
							</g>
							<g>
								<g>
									<g>
										<path class="st6" d="M340.1,467.3c-0.1,0-0.1-0.7-0.5-1.4c-0.4-0.7-1-1.1-0.9-1.1c0,0,0.7,0.3,1.1,1
											C340.2,466.6,340.1,467.3,340.1,467.3z"/>
									</g>
								</g>
							</g>
							<g>
								<g>
									<g>
										<path class="st6" d="M344.7,465.2c0,0-0.3-0.2-0.5-0.6c-0.2-0.4-0.3-0.7-0.3-0.7c0,0,0.3,0.2,0.5,0.6
											C344.6,464.8,344.8,465.2,344.7,465.2z"/>
									</g>
								</g>
							</g>
							<g>
								<g>
									<g>
										<path class="st6" d="M346,464.6c0,0-0.3-0.1-0.5-0.4c-0.3-0.2-0.4-0.5-0.4-0.5c0,0,0.3,0.1,0.5,0.4
											C345.9,464.3,346,464.5,346,464.6z"/>
									</g>
								</g>
							</g>
							<g>
								<g>
									<g>
										<path class="st6" d="M346.9,463.1c0,0.1-0.4,0.1-0.8,0.1c-0.4,0-0.8-0.1-0.8-0.1c0-0.1,0.4-0.1,0.8-0.1
											C346.5,463,346.9,463.1,346.9,463.1z"/>
									</g>
								</g>
							</g>
							<g>
								<g>
									<g>
										<path class="st6" d="M347.2,462.1c0,0-0.4,0.2-0.9,0.2c-0.5,0-0.9-0.1-0.9-0.2c0-0.1,0.4,0,0.9,0
											C346.7,462.1,347.1,462.1,347.2,462.1z"/>
									</g>
								</g>
							</g>
							<g>
								<g>
									<g>
										<path class="st6" d="M344.3,463.8c0,0-0.4,0.1-1,0c-0.3,0-0.7-0.1-1-0.3c-0.2-0.1-0.4-0.1-0.6-0.3
											c-0.1-0.1-0.2-0.2-0.2-0.3c0-0.2,0-0.3,0.2-0.4c1-0.5,1.9,0.1,2.2,0.6c0.2,0.3,0.3,0.5,0.3,0.7c0,0.2,0,0.3,0,0.3
											c0,0-0.1-0.4-0.4-0.9c-0.2-0.2-0.5-0.5-0.8-0.6c-0.3-0.1-0.8-0.2-1.2,0c-0.2,0.1-0.1,0.3,0.1,0.4c0.2,0.1,0.4,0.2,0.5,0.3
											c0.4,0.1,0.7,0.2,1,0.3C343.9,463.8,344.3,463.8,344.3,463.8z"/>
									</g>
								</g>
							</g>
							<g>
								<g>
									<g>
										<path class="st6" d="M344,463.9c0,0-0.2-0.2-0.1-0.7c0-0.2,0.1-0.5,0.3-0.7c0.2-0.2,0.4-0.5,0.8-0.5
											c0.2,0,0.3,0.3,0.3,0.5c0,0.2-0.1,0.3-0.2,0.4c-0.2,0.2-0.3,0.4-0.5,0.6C344.3,463.8,344.1,463.9,344,463.9
											c0.1,0,0.3-0.2,0.6-0.5c0.1-0.2,0.3-0.3,0.4-0.6c0.1-0.2,0.3-0.6,0-0.6c-0.2,0-0.5,0.2-0.7,0.4c-0.2,0.2-0.3,0.4-0.3,0.6
											C343.9,463.6,344,463.9,344,463.9z"/>
									</g>
								</g>
							</g>
							<g>
								<g>
									<g>
										<path class="st6" d="M360.8,463.4c0,0-0.4-0.1-1.1,0c-0.7,0.1-1.7,0.3-2.5,0.9c-0.9,0.6-1.4,1.5-1.6,2.1
											c-0.3,0.7-0.3,1.1-0.3,1.1c0,0,0-0.1,0-0.3c0-0.2,0.1-0.5,0.2-0.8c0.2-0.7,0.8-1.6,1.6-2.2c0.9-0.7,1.9-0.9,2.6-0.9
											c0.4,0,0.7,0,0.8,0.1C360.7,463.4,360.8,463.4,360.8,463.4z"/>
									</g>
								</g>
							</g>
							<g>
								<g>
									<g>
										<path class="st6" d="M353.2,466.1c0,0-1,0.2-2.3,0.1c-1.3,0-2.3-0.2-2.3-0.3c0-0.1,1,0.1,2.3,0.1
											C352.2,466.1,353.2,466.1,353.2,466.1z"/>
									</g>
								</g>
							</g>
							<g>
								<g>
									<g>
										<path class="st6" d="M356.2,466.2c0,0-0.1,0.2-0.2,0.4c-0.1,0.2-0.2,0.4-0.2,0.4c0,0-0.1-0.2,0.1-0.5
											C356,466.3,356.2,466.2,356.2,466.2z"/>
									</g>
								</g>
							</g>
							<g>
								<g>
									<g>
										<path class="st6" d="M357.4,464.8c0,0-0.1,0.2-0.2,0.4c-0.2,0.2-0.3,0.3-0.4,0.2c0,0,0.1-0.2,0.2-0.4
											C357.2,464.9,357.4,464.8,357.4,464.8z"/>
									</g>
								</g>
							</g>
							<g>
								<g>
									<g>
										<path class="st6" d="M359.1,464.2c0,0.1-0.2,0-0.4,0.1c-0.2,0.1-0.4,0.2-0.4,0.2c0,0,0.1-0.2,0.4-0.3
											C358.9,464.1,359.1,464.2,359.1,464.2z"/>
									</g>
								</g>
							</g>
							<g>
								<g>
									<g>
										<path class="st6" d="M360.3,464c0,0-0.1,0.1-0.2,0.2c-0.1,0-0.2,0-0.3,0c0,0,0.1-0.1,0.2-0.2S360.2,463.9,360.3,464z"/>
									</g>
								</g>
							</g>
						</g>
					</g>
				</g>
			</g>
			<g>
				<g>
					<g>
						<path class="st7" d="M408.6,220.6l-26.3,2.2c0,0-7.9,0.2-16.4,20.2l-5.9,11.6l11.5,7.3l0,0l0.5,7.3l1,29.3l48.7-3.6
							c-1.1-6.6-6.3-15.4-8-21c1.8-4.4,12.1-22.5,12-31.8C425.8,222.3,408.6,220.6,408.6,220.6"/>
					</g>
				</g>
				<g>
					<g>
						<path class="st5" d="M397.1,262.2c0,0.1-1.3-0.6-3.4-0.3c-1.1,0.1-2.3,0.5-3.7,1c-1.3,0.5-2.8,1.1-4.5,1.4
							c-3.4,0.6-6.5-0.1-8.5-1c-1-0.4-1.8-0.9-2.3-1.3c-0.5-0.4-0.8-0.6-0.7-0.6c0.1-0.1,1.1,0.7,3.2,1.5c2,0.8,5,1.4,8.3,0.8
							c1.6-0.3,3.1-0.8,4.5-1.3c1.4-0.5,2.7-0.8,3.8-0.9c1.1-0.1,2,0.1,2.6,0.3C396.8,262,397.1,262.2,397.1,262.2z"/>
					</g>
				</g>
				<g>
					<g>
						<path class="st5" d="M369.1,254c-0.1,0.1-1.3-1.1-3.2-2.1c-1.9-1-3.6-1.3-3.5-1.5c0-0.1,1.8,0,3.8,1
							C368.1,252.4,369.2,253.9,369.1,254z"/>
					</g>
				</g>
				<g>
					<g>
						<path class="st5" d="M383.4,271.3c0,0,0-0.6,0-1.6c0-0.5,0-1.1,0.1-1.8c0.1-0.7,0.1-1.5,0.3-2.4c0.2-1.8,0.7-3.9,1.3-6.2
							c0.6-2.3,1.5-4.8,2.5-7.4c2.1-5.1,4.4-9.6,6.1-12.7c0.9-1.6,1.6-2.9,2.1-3.7c0.5-0.9,0.8-1.3,0.8-1.3c0,0-0.2,0.5-0.6,1.4
							c-0.5,1-1.1,2.3-1.9,3.8c-1.6,3.2-3.9,7.7-5.9,12.7c-1,2.5-1.9,5-2.5,7.3c-0.6,2.3-1.1,4.4-1.4,6.1c-0.2,0.9-0.3,1.7-0.4,2.4
							c-0.1,0.7-0.2,1.3-0.2,1.8C383.5,270.8,383.4,271.3,383.4,271.3z"/>
					</g>
				</g>
				<g>
					<g>
						<path class="st5" d="M371.8,245.9c0,0,0.1-0.4,0.3-1c0.2-0.6,0.6-1.5,1-2.5c0.9-2.1,2.4-5,4.4-7.9c2-2.9,4.1-5.4,5.7-7
							c0.8-0.8,1.5-1.5,2-1.9c0.5-0.4,0.8-0.6,0.8-0.6c0.1,0.1-1,1.1-2.5,2.8c-1.5,1.7-3.6,4.1-5.6,7c-2,2.9-3.5,5.7-4.5,7.7
							C372.5,244.6,371.9,246,371.8,245.9z"/>
					</g>
				</g>
				<g>
					<g>
						<path class="st5" d="M401.7,243.1c0,0.1-0.5-0.2-1.3-0.4c-0.9-0.2-2.1-0.1-3.7,0.3c-1.5,0.3-3.4,1-5.6,0.9
							c-2.2-0.1-4.4-1.2-6.4-2.6c-2-1.4-3.8-2.9-5.5-4.1c-1.8-1.1-3.5-1.8-5.1-1.9c-1.6-0.2-2.8,0.1-3.6,0.5
							c-0.8,0.4-1.2,0.7-1.2,0.6c0,0,0.1-0.1,0.3-0.3c0.2-0.2,0.5-0.4,0.9-0.6c0.8-0.4,2.1-0.8,3.8-0.7c1.6,0.1,3.5,0.8,5.3,1.9
							c1.8,1.1,3.6,2.7,5.6,4c2,1.4,4.1,2.4,6.2,2.5c2.1,0.1,3.9-0.5,5.5-0.8c1.6-0.3,2.9-0.4,3.8-0.1c0.4,0.1,0.8,0.3,1,0.4
							C401.6,243,401.7,243,401.7,243.1z"/>
					</g>
				</g>
				<g>
					<g>
						<path class="st6" d="M372,269.2c-0.1,0,0.4-1.7-0.1-4.3c-0.2-1.3-0.6-2.9-1.1-4.6c-0.5-1.7-1.1-3.6-1.3-5.7
							c-0.3-2.1-0.1-4.1,0.7-5.8c0.7-1.7,1.8-3,2.7-4c0.9-1,1.7-1.7,2.3-2.2c0.6-0.5,0.9-0.7,0.9-0.7c0.1,0.1-1.2,1.2-2.9,3.2
							c-0.9,1-1.8,2.3-2.5,3.9c-0.7,1.6-0.8,3.6-0.6,5.5c0.2,2,0.8,3.9,1.3,5.6c0.5,1.7,0.8,3.3,1,4.6c0.2,1.3,0.1,2.5,0,3.2
							C372.2,268.8,372.1,269.3,372,269.2z"/>
					</g>
				</g>
			</g>
			<g>
				<g>
					<path class="st6" d="M373.1,298.5c0,0-11.8,36-16.3,70.9c-4.5,34.9-10,82.8-10,82.8l16.2,0.3l29.9-93.5l30.4-43.1l-3-26.3
						L373.1,298.5z"/>
				</g>
				<g>
					<polyline class="st6" points="374.5,302.9 385.7,395.3 431.3,441.6 441.3,427.7 409,376.4 416.3,295.7 372.7,304 					"/>
				</g>
				<g>
					<g>
						<path class="st9" d="M405.6,342.9c0,0-0.1,0.2-0.3,0.5c-0.2,0.3-0.5,0.8-0.9,1.4c-0.8,1.2-2.2,2.7-4.1,4.5
							c-1.8,1.8-4.1,3.8-6.2,6.4c-2.1,2.6-3.6,6-4.7,9.7c-1.1,3.7-2.1,7.3-2.8,10.6c-0.7,3.3-1.2,6.3-2,8.8
							c-0.8,2.4-1.5,4.4-1.9,5.7c-0.4,1.4-0.6,2.1-0.6,2.1c0,0,0-0.2,0.1-0.6c0.1-0.4,0.2-0.9,0.4-1.6c0.3-1.4,1-3.4,1.7-5.8
							c0.7-2.4,1.2-5.4,1.8-8.7c0.6-3.3,1.6-6.9,2.7-10.7c1.1-3.7,2.7-7.2,4.8-9.9c2.1-2.7,4.5-4.6,6.3-6.4c1.9-1.7,3.3-3.2,4.2-4.3
							C405.1,343.6,405.5,342.9,405.6,342.9z"/>
					</g>
				</g>
				<g>
					<g>
						<path class="st9" d="M409.4,375.8c0.1,0.1-1.7,1-3.3,2.8c-1.7,1.7-2.4,3.6-2.6,3.5c-0.1,0,0.5-2,2.2-3.9
							C407.4,376.4,409.3,375.7,409.4,375.8z"/>
					</g>
				</g>
				<g>
					<g>
						<path class="st9" d="M408.8,376.4c0,0.2-1.6,0.1-3.4,0.3c-1.9,0.2-3.4,0.5-3.4,0.4c0-0.1,1.4-0.7,3.4-0.9
							C407.2,376,408.8,376.3,408.8,376.4z"/>
					</g>
				</g>
			</g>
			<g>
				<g>
					<polygon class="st7" points="336,261.4 333.5,272.4 366.8,274.5 					"/>
				</g>
				<g class="st8">
					<polygon points="336,261.4 333.5,272.4 366.8,274.5 					"/>
				</g>
				<g>
					<g>
						<path class="st9" d="M448.6,293.3c0,0-4.7-3.5-5.3-3.6c-0.6-0.1-3.9,2.6-3.9,2.6s1.1-4.6-0.9-6.9c-2-2.3-5.2-2.4-9,0
							c-3.7,2.4-11.5,3.6-11.5,3.6s-1.2-1.9-2.4-3.7c-1.2-1.9-2.7-1.2-7.7-1c-5,0.1-18.5-7.1-18.5-7.1s-7.4-5.4-16.4-12l2-2.6
							c1.2-1.6,1-3.8-0.6-5.1l0,0c-1.6-1.2-3.8-1-5.1,0.6l-0.2,0.3c0.5-1.1,0.2-2.4-0.7-3.2c-1.1-0.9-2.8-0.7-3.7,0.4l-1,1.3
							c0.1-0.8-0.3-1.7-1-2.2c-1.1-0.8-2.6-0.7-3.5,0.2c-5.3-4-10.1-7.6-13.3-10.2c-11.3-9.1-14-26-14-26c-4.2,1-4.2,3.7-4.2,6.6
							c0,0.8,0,1.4,0,2c-3.2-1.1-6.8-1.3-10-0.4c-2.6,0.8-5.1,2.3-6.9,4.3c0.7-1.3,0.7-3-0.2-4.3c-1.3-2-3.9-2.5-5.9-1.2
							c-2,1.3-2.5,3.9-1.2,5.9c1.3,2,3.9,2.5,5.9,1.3c0.1-0.1,0.2-0.2,0.3-0.3c-0.8,1.1-1.5,2.3-1.9,3.6c-1.5,4.4-0.6,9.7,2.5,13.2
							l1.6,0.5c-0.8,0.3-1.8,0.6-3,0.9c-2.8,0.9-5.3,1.7-5.1,6c0,0,16.9-2.4,29,5.7c3.3,2.2,8,5.5,13.1,9.2l-0.2,0.3
							c-0.9,1.1-0.7,2.8,0.4,3.7c0.7,0.6,1.6,0.7,2.4,0.4l-0.9,1.2c-0.9,1.1-0.7,2.8,0.4,3.7c1,0.8,2.3,0.7,3.2,0l-0.2,0.3
							c-1.2,1.6-1,3.8,0.6,5.1c1.6,1.2,3.8,1,5.1-0.6l3.1-3.9c9.2,6.8,16.8,12.5,16.8,12.5s10.9,10.7,12.3,15.5
							c1.4,4.8,1.1,6.4,3.3,7.1c2.2,0.6,4.3,1.2,4.3,1.2s1.2,7.7,0,12c-1.2,4.3-0.2,7.3,2.6,8.6c2.8,1.2,6.9-1.2,6.9-1.2
							s-1.6,4-1.3,4.5c0.3,0.5,5,3.9,5,3.9l19.6-27l-0.9,1.2L448.6,293.3z"/>
					</g>
					<g>
						<g>
							<path class="st6" d="M327.8,224.2c0,0,0.1,0.5,0.1,1.4c0,0.9,0,2.2-0.2,3.9c-0.1,0.8-0.3,1.7-0.8,2.6
								c-0.4,0.9-1.1,1.8-2.1,2.3c-2,1.1-4.5,1-6.4,2.5c-0.9,0.8-1.3,1.9-1.3,3c0,1.1,0.2,2.3,0.2,3.4c0,1.1-0.2,2.2-0.8,3
								c-0.5,0.9-1.2,1.5-1.9,2c-1.4,0.9-2.5,1.5-3.4,1.9c-0.8,0.4-1.4,0.4-1.4,0.4c0,0,0.5-0.2,1.3-0.6c0.8-0.4,1.9-1.1,3.3-2
								c0.6-0.5,1.3-1.1,1.7-1.9c0.5-0.8,0.7-1.8,0.6-2.8c0-1-0.2-2.2-0.2-3.4c0-1.2,0.4-2.6,1.4-3.4c1-0.9,2.2-1.3,3.4-1.5
								c1.1-0.3,2.2-0.5,3.1-1c0.9-0.5,1.6-1.2,2-2.1c0.4-0.8,0.6-1.7,0.8-2.5c0.3-1.6,0.3-2.9,0.4-3.8
								C327.8,224.7,327.8,224.2,327.8,224.2z"/>
						</g>
					</g>
					<g>
						<g>
							<path class="st6" d="M348.1,276.3c-0.1-0.1,0.9-1.1,2.3-2.8c1.5-1.7,3.5-4.1,5.5-6.8c2.1-2.7,3.9-5.2,5.2-7.1
								c1.3-1.8,2.1-3,2.1-3c0,0-0.1,0.3-0.4,0.9c-0.3,0.5-0.8,1.3-1.4,2.3c-1.2,1.9-3,4.5-5.1,7.2c-2.1,2.7-4.2,5.1-5.7,6.7
								c-0.8,0.8-1.4,1.5-1.9,1.9C348.4,276.1,348.1,276.4,348.1,276.3z"/>
						</g>
					</g>
					<g>
						<g>
							<path class="st6" d="M369.4,258c0,0-0.2,0.4-0.6,1c-0.4,0.6-1.1,1.5-1.9,2.5c-1.6,2.1-3.8,5-6.3,8.2c-2.5,3.2-4.8,6-6.5,8.1
								c-1.7,2-2.8,3.3-2.8,3.2c0,0,0.2-0.4,0.6-1c0.5-0.7,1.1-1.5,1.9-2.5c1.6-2.1,3.8-5,6.3-8.2c2.5-3.2,4.8-6,6.5-8.1
								c0.8-0.9,1.5-1.8,2-2.4C369.1,258.3,369.3,258,369.4,258z"/>
						</g>
					</g>
					<g>
						<g>
							<path class="st6" d="M359.4,282.4c-0.1-0.1,0.8-1,2.1-2.5c1.3-1.5,3.1-3.6,4.9-6.1c1.9-2.4,3.5-4.7,4.6-6.3
								c1.1-1.6,1.8-2.7,1.9-2.6c0.1,0-0.5,1.1-1.6,2.8c-1.1,1.7-2.6,4-4.5,6.4c-1.9,2.4-3.7,4.5-5.1,6
								C360.4,281.6,359.4,282.4,359.4,282.4z"/>
						</g>
					</g>
					<g>
						<g>
							<path class="st6" d="M441,289.6c0,0-0.1,0.2-0.3,0.5c-0.3,0.4-0.6,0.8-1.1,1.4c-1,1.2-2.3,3-3.9,5
								c-3.3,4.3-7.8,10.2-12.7,16.8c-4.9,6.6-9.2,12.7-12.3,17.1c-1.5,2.2-2.7,3.9-3.7,5.2c-0.4,0.6-0.7,1-1,1.4
								c-0.2,0.3-0.4,0.5-0.4,0.5c0,0,0.1-0.2,0.3-0.5c0.2-0.4,0.5-0.9,0.9-1.5c0.8-1.3,2-3.1,3.5-5.3c3-4.5,7.3-10.6,12.1-17.2
								c4.9-6.6,9.5-12.5,12.9-16.7c1.7-2.1,3.1-3.8,4.1-4.9c0.5-0.5,0.8-1,1.1-1.3C440.9,289.8,441,289.6,441,289.6z"/>
						</g>
					</g>
				</g>
				<g>
					<g>
						<path class="st11" d="M322.5,252.4c-0.2-0.9,0-1.8,0.9-1.8l0,0c0.5,0.1,0.8,0.6,0.9,1l2.3,8l0,0l-1.2-6
							c-0.2-0.9,0.1-1.7,0.8-1.6c0.4,0.1,0.8,0.6,0.9,1l1.9,6.7l-0.8-4.4c-0.2-1,0-1.4,0.5-1.5c0.5-0.1,0.9,0.5,1,0.9l1.5,4.9
							c0.8,0.6,3.3,2.5,3.3,4.4c0,0.1,0.3,0.2,0.3,0.3l0.7,0.2l-1,4.2c0,0-6.7-4.7-8.5-6.3c-1.5-1.4-1.8-2.7-2-3.4L322.5,252.4z"/>
					</g>
				</g>
			</g>
			<g>
				<g>
					<g>
						<path class="st6" d="M378.3,180.3c-2.7,2.4-3.3,6.3-3.2,9.9c0.1,3.6,0.7,7.3-0.3,10.7c-0.4,1.6-1.2,3.1-1.6,4.7
							c-0.4,1.6-0.5,3.4,0.5,4.8c1.4,2.1,4.3,2.4,6.8,2.4c1.9,0,3.8,0.1,5.7,0.1c0.6,0,1.3,0,1.8-0.4c0.4-0.4,0.5-1.1,0.5-1.7
							c0.1-10.1-1-20.3-3.1-30.1"/>
					</g>
					<g>
						<g>
							<g>
								<g>
									<g>
										<g>
											<path class="st11" d="M405.3,183.6l-0.1,2.6l-0.5,38.7c-0.1,4.5-4,8-8.8,7.9h0c-4.9-0.1-8.8-3.9-8.8-8.4
												c0-4.8-0.1-9.8-0.1-9.8s-6.1-1-7.4-9c-0.6-4-0.4-10.5-0.1-15.9c0.3-4.8,4.5-8.4,9.3-7.9L405.3,183.6z"/>
										</g>
									</g>
									<g>
										<g>
											<g>
												<path class="st6" d="M381.2,194.3c0,0.5,0.4,1,1,1c0.6,0,1-0.4,1.1-0.9c0-0.5-0.4-1-1-1
													C381.7,193.4,381.2,193.8,381.2,194.3z"/>
											</g>
										</g>
										<g>
											<g>
												<g>
													<path class="st6" d="M380.9,193.2c0.1,0.1,0.9-0.4,2-0.4c1.1,0,1.9,0.6,2,0.4c0.1-0.1-0.1-0.3-0.4-0.6
														c-0.3-0.3-0.9-0.5-1.6-0.5c-0.7,0-1.3,0.3-1.6,0.5C381,192.9,380.9,193.1,380.9,193.2z"/>
												</g>
											</g>
										</g>
									</g>
									<g>
										<g>
											<g>
												<path class="st6" d="M392.2,194.3c0,0.5,0.4,1,1,1c0.6,0,1-0.4,1.1-0.9c0-0.5-0.4-1-1-1
													C392.7,193.4,392.3,193.8,392.2,194.3z"/>
											</g>
										</g>
										<g>
											<g>
												<g>
													<path class="st6" d="M391.8,193.4c0.1,0.1,0.9-0.4,2-0.4c1.1,0,1.9,0.6,2,0.4c0.1-0.1-0.1-0.3-0.4-0.6
														c-0.3-0.3-0.9-0.5-1.6-0.5c-0.7,0-1.3,0.3-1.6,0.5C391.9,193.1,391.8,193.3,391.8,193.4z"/>
												</g>
											</g>
										</g>
									</g>
									<g>
										<g>
											<g>
												<path class="st6" d="M387.8,201.6c0-0.1-0.7-0.2-1.8-0.3c-0.3,0-0.5-0.1-0.6-0.3c-0.1-0.2,0.1-0.5,0.2-0.8
													c0.3-0.7,0.5-1.4,0.8-2.1c1.2-3.1,2-5.6,1.9-5.6c-0.1,0-1.2,2.4-2.3,5.5c-0.3,0.8-0.5,1.5-0.8,2.2
													c-0.1,0.3-0.3,0.7-0.1,1.1c0.1,0.2,0.3,0.4,0.5,0.4c0.2,0.1,0.3,0.1,0.5,0.1C387.1,201.6,387.8,201.7,387.8,201.6z"/>
											</g>
										</g>
									</g>
									<g>
										<g>
											<path class="st13" d="M387,214.7c0,0,5.4,0.3,10.7-2.9c0,0-2.6,5.5-10.6,4.8L387,214.7z"/>
										</g>
									</g>
									<g>
										<g>
											<path class="st13" d="M388.3,204.3c0.4-0.5,1.1-0.8,1.8-0.7c0.5,0.1,1,0.3,1.3,0.7c0.3,0.4,0.4,0.9,0.1,1.3
												c-0.3,0.4-0.9,0.5-1.4,0.4c-0.5-0.2-1-0.5-1.4-0.8c-0.1-0.1-0.2-0.2-0.3-0.3C388.1,204.6,388.1,204.4,388.3,204.3"/>
										</g>
									</g>
									<g>
										<g>
											<g>
												<path class="st6" d="M391.1,202.4c-0.2,0-0.2,1.2-1.2,2c-1,0.9-2.3,0.7-2.3,0.9c0,0.1,0.3,0.2,0.8,0.2
													c0.5,0,1.3-0.2,1.9-0.7c0.6-0.5,0.9-1.2,0.9-1.7C391.3,202.6,391.1,202.3,391.1,202.4z"/>
											</g>
										</g>
									</g>
								</g>
							</g>
						</g>
					</g>
				</g>
				<g>
					<g>
						<path class="st6" d="M415.5,202c-0.6-2.3-0.6-4.6-0.9-7c-0.5-4.5-1.8-9.1-4.3-12.9c-1.7-2.5-3.9-4.7-6.5-6.1
							c1.7-0.7,3.2-2.1,3.7-3.9c0.6-2.3-0.6-4.9-2.8-5.9c-2.2-1-5-0.2-6.3,1.8c-1.2,1.9-1,4.6,0.5,6.2c-2.2-0.4-4.6-0.3-6.7,0.4
							c-0.2,0-0.4,0-0.6,0c-2.7,0.2-5.4-0.2-7.9,0.6c-2.5,0.8-4.9,2.4-6.1,4.8c-1.4,2.6-1.1,5.8-0.8,8.8c0.1,0.8,0.2,1.8,0.9,2.3
							c0.5,0.4,1.2,0.4,1.8,0.4c1.9,0,3.7,0,5.6,0c1.3,0,2.7,0,3.8-0.7c0.6-0.3,1-0.9,1.2-1.5c0.4,0.9,1.3,1.7,2.3,2.1
							c1.6,0.6,3.3,0.4,5,0.3c1.1-0.1,2.2-0.3,3.2-0.7c0.1,5.2,0.3,10.4,0.4,15.6c0,0.9,0.1,1.8,0.5,2.5c0.7,1,2.1,1.3,3.3,1.4
							c1.7,0.1,3.5,0.1,5-0.9c1.2-0.8,2-2.3,1.8-3.6c0.5,1.3,1.6,2.3,3,2.8c1.6,0.5,3.4,0.1,4.7-1C417.2,206.5,416,204.3,415.5,202z
							"/>
					</g>
					<g>
						<g>
							<path class="st9" d="M391.9,175.2c0,0.1-1.4-0.3-3.7,0c-2.2,0.3-5.4,1.4-7.6,4.1c-2.2,2.7-2.8,6-2.6,8.3
								c0.1,2.3,0.8,3.6,0.7,3.6c0,0-0.2-0.3-0.4-0.9c-0.2-0.6-0.5-1.5-0.6-2.7c-0.3-2.3,0.3-5.8,2.6-8.6c2.4-2.8,5.7-4,8-4.1
								c1.2-0.1,2.1,0,2.8,0.1C391.6,175,391.9,175.1,391.9,175.2z"/>
						</g>
					</g>
					<g>
						<g>
							<path class="st9" d="M385.6,191c0,0-0.2-0.2-0.4-0.6c-0.2-0.4-0.4-1.1-0.6-1.9c-0.4-1.6-0.5-4.1,0.4-6.6
								c0.9-2.5,2.5-4.3,3.9-5.3c0.7-0.5,1.3-0.9,1.7-1.1c0.4-0.2,0.7-0.3,0.7-0.3c0,0.1-0.9,0.5-2.1,1.6c-1.2,1.1-2.7,2.9-3.6,5.2
								c-0.8,2.4-0.8,4.7-0.5,6.3C385.2,190,385.6,190.9,385.6,191z"/>
						</g>
					</g>
					<g>
						<g>
							<path class="st9" d="M389.5,185.9c-0.1,0-0.4-0.6-0.7-1.6c-0.3-1-0.4-2.6-0.1-4.3c0.4-1.6,1.2-3,1.9-3.8
								c0.7-0.8,1.3-1.2,1.3-1.2c0.1,0.1-0.4,0.5-1,1.4c-0.6,0.9-1.3,2.1-1.7,3.7c-0.4,1.6-0.3,3-0.1,4.1
								C389.3,185.3,389.6,185.9,389.5,185.9z"/>
						</g>
					</g>
				</g>
			</g>
			<g>
				<g>
					<path class="st5" d="M426.3,240.3c-0.1,0.1-0.9-0.9-2.7-2.2c-1.7-1.2-4.3-2.6-7.5-3.2c-3.2-0.6-6.1-0.1-8.1,0.5
						c-2,0.6-3.2,1.2-3.2,1.2c0,0,0.3-0.2,0.8-0.5c0.5-0.3,1.3-0.7,2.3-1c2-0.7,5.1-1.2,8.4-0.6c3.3,0.6,6,2.1,7.6,3.4
						c0.8,0.7,1.5,1.3,1.9,1.7C426.1,240,426.3,240.3,426.3,240.3z"/>
				</g>
			</g>
			<g>
				<g>
					<g>
						<g>
							<g>
								<path class="st7" d="M357.7,266.2l-4.9,16.8c0,0,24.4,9.9,38.4,9.7c13.1-0.2,17.1-4.4,22.2-12.9c6-10,10.5-22.5,11.6-29.5
									c0,0,7.4-32.2-20.8-29.3l-0.8,25.2c0,0-3.1,10.3-3.4,10.9c-2.1,5.6-4.8,13.7-7.5,14.7C389.9,272.8,357.7,266.2,357.7,266.2z
									"/>
							</g>
						</g>
					</g>
					<g>
						<g>
							<path class="st6" d="M357.7,266.2c0,0,0.2,0,0.7,0.1c0.5,0.1,1.2,0.2,2,0.3c1.7,0.3,4.2,0.8,7.4,1.5c3.1,0.7,6.8,1.5,11,2.3
								c4.2,0.8,8.9,1.3,13.8,1.2l-0.2,0.2c0.5-1.4,1.1-2.8,1.6-4.3c3.7-10.4,6.6-20,9-26.8c1.2-3.4,2.2-6.2,2.9-8.1
								c0.4-0.9,0.7-1.7,0.9-2.2c0.2-0.5,0.3-0.7,0.3-0.7c0,0-0.1,0.3-0.2,0.8c-0.2,0.6-0.5,1.3-0.8,2.2c-0.7,1.9-1.6,4.7-2.7,8.1
								c-2.3,6.9-5.1,16.5-8.8,26.9c-0.5,1.5-1.1,3-1.6,4.3l-0.1,0.2l-0.2,0c-5,0.1-9.7-0.5-13.9-1.3c-4.2-0.8-7.9-1.7-11-2.4
								c-3.1-0.7-5.6-1.2-7.3-1.6c-0.8-0.2-1.5-0.3-2-0.4C357.9,266.3,357.7,266.2,357.7,266.2z"/>
						</g>
					</g>
					<g>
						<g>
							<path class="st6" d="M352.7,283c0,0,0.3,0.1,0.8,0.2c0.6,0.2,1.3,0.4,2.2,0.8c2,0.7,4.8,1.6,8.4,2.5c3.6,1,7.8,2.1,12.5,3.3
								c4.7,1.1,10,2.4,15.6,2.7c1.4,0,2.8,0,4.1-0.1c1.3-0.1,2.7-0.4,3.9-0.8c2.5-0.9,4.6-2.3,6.4-3.9c3.6-3.3,5.9-7.1,7.7-10.3
								c1.8-3.2,3-5.9,3.9-7.8c0.4-0.9,0.7-1.6,1-2.2c0.2-0.5,0.4-0.7,0.4-0.7s-0.1,0.3-0.3,0.8c-0.2,0.5-0.5,1.3-0.9,2.2
								c-0.8,1.9-2,4.7-3.7,7.9c-1.8,3.2-4.1,7.1-7.7,10.4c-1.8,1.7-4,3.1-6.6,4c-1.3,0.4-2.6,0.7-4,0.8c-1.4,0.2-2.8,0.2-4.2,0.1
								c-5.7-0.3-10.9-1.6-15.7-2.7c-4.7-1.2-9-2.3-12.5-3.4c-3.5-1-6.4-2-8.3-2.7c-1-0.4-1.7-0.7-2.2-0.9
								C353,283.2,352.7,283.1,352.7,283z"/>
						</g>
					</g>
					<g class="st14">
						<g>
							<path d="M371.4,268.9c4.8,0.1,9.6,0.2,14.4,0.3c1.1,0,2.3,0,3.4-0.4c1.5-0.6,2.5-2.1,3.3-3.5c2.5-4.2,4.9-8.5,7-12.9
								c0,0-3.8,12.1-6.2,17.4c-0.7,1.5-1.7,2-3.4,1.7C383.5,271.5,377.4,270.6,371.4,268.9z"/>
						</g>
					</g>
					<g class="st14">
						<path d="M415,277.5c0,0-4.9,18.6-17.4,18.2c-12.5-0.4-24.4-5.7-24.4-5.7l0.6-0.6c0,0,21.3,4.6,27.2,1.7
							C412.2,285.6,415,277.5,415,277.5z"/>
					</g>
					<g>
						<g>
							<g>
								<g>
									<path class="st11" d="M353.2,281.3l-3.9,0c-3.6-0.3-5.6-0.4-6.6-1.4c-1.3-1.3,0.5-2.5,0.5-2.5s-2.6-0.9-2.4-2.5
										c0.2-1.1,1.4-1.2,1.4-1.2s-2.3-0.9-2.7-1.8c-0.6-1.3,1-2,1-2c-3.1-1.9-2.8-3.8-2.1-4c0.7-0.2,3.2,0.9,3.2,0.9
										c2.1,0.6,7.7,2.3,5.6-0.8c-2.1-3.1-2.5-6.3-2-7.2c0.5-0.9,2-0.6,2.1,0.5c0.1,0.9,0.9,2.4,1.5,3.5c0.5,0.9,1.1,1.7,1.9,2.4
										c0.9,0.8,1.7,1.4,2.3,1.9l3.5,3.4L353.2,281.3z"/>
								</g>
							</g>
						</g>
					</g>
				</g>
				<g>
					<g>
						<path class="st5" d="M420.6,266.4c0,0.1-1.3-0.5-3.5-1.2c-2.1-0.7-5.2-1.5-8.6-1.8c-3.4-0.3-6.6-0.1-8.8,0.2
							c-2.2,0.3-3.6,0.7-3.6,0.6c0,0,0.3-0.2,0.9-0.3c0.6-0.2,1.5-0.4,2.6-0.6c2.3-0.4,5.4-0.7,8.9-0.4c3.5,0.3,6.6,1.2,8.7,2
							c1.1,0.4,1.9,0.8,2.5,1.1C420.3,266.2,420.6,266.4,420.6,266.4z"/>
					</g>
				</g>
				<g>
					<g>
						<path class="st5" d="M391.9,292.6c-0.1,0,0.7-1.1,0.7-3c0-1-0.2-2.1-0.6-3.3c-0.4-1.2-1.2-2.4-1.9-3.7c-0.8-1.3-1.5-2.5-2-3.8
							c-0.5-1.2-0.8-2.4-0.8-3.4c0-1,0.1-1.8,0.3-2.4c0.2-0.5,0.4-0.8,0.4-0.8c0.1,0-0.6,1.2-0.4,3.1c0.1,1,0.4,2.1,0.9,3.3
							c0.5,1.2,1.3,2.4,2,3.7c0.8,1.3,1.5,2.6,1.9,3.8c0.4,1.3,0.6,2.5,0.5,3.5c-0.1,1-0.3,1.8-0.6,2.3
							C392.1,292.4,391.9,292.6,391.9,292.6z"/>
					</g>
				</g>
				<g>
					<g>
						<path class="st5" d="M365.1,286.2c-0.1,0,0-1,0.2-2.5c0.2-1.5,0.6-3.7,1.2-6c0.6-2.3,1.2-4.4,1.8-5.8c0.5-1.5,0.9-2.3,1-2.3
							c0.1,0-0.2,0.9-0.6,2.4c-0.4,1.5-1,3.5-1.6,5.8c-0.6,2.3-1,4.4-1.3,5.9C365.4,285.3,365.2,286.2,365.1,286.2z"/>
					</g>
				</g>
				<g>
					<g>
						<path class="st5" d="M419.2,225.3c0,0,0.1,0.3,0.3,1c0.1,0.7,0.2,1.7,0.1,3.1c-0.2,1.3-0.6,2.9-1.2,4.7
							c-0.6,1.8-1.4,3.8-2.1,6c-1.4,4.5-2.4,10.1-3.8,16.2c-0.7,3.1-1.6,6.3-2.8,9.5c-1.3,3.2-2.9,6.4-5.2,9.2
							c-2.3,2.8-5.2,5.2-8.3,6.6c-3.2,1.5-6.6,1.8-9.7,1.7c-3.2-0.2-6.1-0.8-8.8-1.5c-2.7-0.7-5.2-1.5-7.5-2.2
							c-4.5-1.5-8.1-3-10.5-4.1c-1.2-0.5-2.1-1-2.8-1.3c-0.3-0.1-0.5-0.3-0.7-0.4c-0.2-0.1-0.2-0.1-0.2-0.1c0,0,0.1,0,0.3,0.1
							c0.2,0.1,0.4,0.2,0.7,0.3c0.7,0.3,1.6,0.7,2.8,1.2c2.5,1,6,2.4,10.5,3.9c2.3,0.7,4.7,1.5,7.4,2.2c2.7,0.7,5.6,1.3,8.7,1.5
							c3.1,0.2,6.4-0.2,9.5-1.7c3.1-1.4,5.9-3.7,8.1-6.4c2.3-2.8,3.9-5.9,5.2-9.1c1.3-3.2,2.1-6.3,2.8-9.4
							c1.4-6.1,2.4-11.7,3.9-16.2c0.7-2.3,1.5-4.3,2.2-6c0.7-1.8,1.1-3.3,1.3-4.6C419.7,226.8,419.1,225.3,419.2,225.3z"/>
					</g>
				</g>
			</g>
		</g>
		<g>
			<g>
				<g>
					<path class="st11" d="M184.9,200.9c0.4,0.8,0.4,1.8,0,2.6l-21.6,38.6c-3.9,6.2-12,8.2-18.3,4.6l-12.1-6.9l8.4-14.5l9,5.4
						l21.7-28.7c0.1-0.5,0.3-2.1,0.3-4.8c0-0.8-0.2-1.6-0.4-2.4c-0.3-0.9-0.9-2.2-1.3-2.8c-0.6-0.7,0-1.8,0.8-1.6
						c0.8,0.2,2.5,2.2,3.3,5.1c0.8,2.9,2.8-1.4,3.5-3c0.7-1.6,3.3-6.4,4-6.5c1-0.2,1.4,0.8,0.6,2.3c-0.8,1.6-2.8,6.4-1.9,6.8
						c0,0,1.5,0.3,1.9,1.3L184.9,200.9z"/>
				</g>
				<g>
					<g>
						<path class="st13" d="M182.2,196c0.1,0-0.1,0.7-0.4,1.8c-0.2,0.6-0.4,1.3-0.6,1.9c-0.1,0.4-0.3,0.7-0.4,1.1
							c-0.1,0.2-0.1,0.4-0.3,0.7c-0.2,0.3-0.7,0.2-0.9,0.1c-0.3-0.1-0.4-0.3-0.6-0.4c-0.2-0.1-0.4-0.4-0.4-0.6
							c-0.1-0.6,0.2-0.9,0.3-1.3c0.3-0.6,0.5-1.3,0.7-1.9c0.4-1.1,0.7-1.7,0.8-1.7c0.1,0-0.1,0.7-0.5,1.8c-0.2,0.6-0.4,1.3-0.6,1.9
							c-0.1,0.4-0.3,0.8-0.2,1c0,0.2,0.5,0.5,0.8,0.7c0.2,0.1,0.2,0.1,0.3,0c0.1-0.1,0.2-0.3,0.2-0.5c0.1-0.4,0.3-0.8,0.4-1.1
							c0.3-0.7,0.5-1.3,0.7-1.9C181.8,196.6,182.1,195.9,182.2,196z"/>
					</g>
				</g>
				<g>
					<g>
						<path class="st13" d="M183,199.2c0.1,0-0.1,0.7-0.4,1.7c-0.2,0.6-0.4,1.2-0.6,1.8l-0.2,0.5c-0.1,0.2-0.1,0.4-0.4,0.6
							c-0.3,0.2-0.6,0.1-0.8,0c-0.2-0.1-0.4-0.2-0.5-0.4c-0.2-0.1-0.4-0.3-0.5-0.6c-0.1-0.3-0.1-0.5,0-0.7c0.1-0.4,0.3-0.7,0.4-1
							c0.2-0.6,0.5-1.1,0.7-1.7c0.4-1,0.7-1.5,0.8-1.5c0.1,0-0.1,0.7-0.4,1.7c-0.2,0.6-0.4,1.1-0.6,1.7c-0.1,0.3-0.2,0.7-0.3,1
							c-0.1,0.3,0,0.5,0.3,0.7c0.3,0.2,0.6,0.4,0.7,0.3c0.1-0.1,0.3-0.5,0.4-0.8c0.2-0.6,0.4-1.1,0.7-1.7
							C182.6,199.8,182.9,199.2,183,199.2z"/>
					</g>
				</g>
				<g>
					<g>
						<path class="st13" d="M184.4,201c0.1,0-0.1,0.7-0.4,1.7c-0.2,0.6-0.4,1.2-0.6,1.8l-0.2,0.5c-0.1,0.2-0.1,0.4-0.4,0.6
							c-0.3,0.2-0.6,0.1-0.8,0c-0.2-0.1-0.4-0.2-0.5-0.4c-0.2-0.1-0.4-0.3-0.5-0.6c-0.1-0.3-0.1-0.5,0-0.7c0.1-0.4,0.3-0.7,0.4-1
							c0.2-0.6,0.5-1.1,0.7-1.7c0.4-1,0.7-1.5,0.8-1.5c0.1,0-0.1,0.7-0.4,1.7c-0.2,0.6-0.4,1.1-0.6,1.7c-0.1,0.3-0.2,0.7-0.3,1
							c-0.1,0.3,0,0.5,0.3,0.7c0.3,0.2,0.6,0.4,0.7,0.3c0.1-0.1,0.3-0.5,0.4-0.8c0.2-0.6,0.4-1.1,0.7-1.7
							C184.1,201.6,184.4,201,184.4,201z"/>
					</g>
				</g>
				<g>
					<g>
						<path class="st13" d="M177.9,204.8c-0.2,0,0.2-1.5-0.4-3.2c-0.5-1.7-1.6-2.7-1.5-2.8c0-0.1,0.4,0.1,0.8,0.6
							c0.4,0.4,0.9,1.2,1.2,2.1c0.3,0.9,0.3,1.8,0.2,2.4C178.2,204.5,178,204.9,177.9,204.8z"/>
					</g>
				</g>
			</g>
			<g>
				<g>
					<g>
						<path class="st6" d="M109.4,150.8c-2.6-2.6-6.8-3.4-10.2-1.8c-1.5,0.7-2.9,1.9-4.5,2.3c-2,0.5-4-0.1-6-0.4
							c-2-0.3-4.4,0-5.5,1.7c-0.7,1.1-0.8,2.6-1.7,3.5c-1.3,1.3-3.4,0.8-5.2,1.3c-1.7,0.5-3,2.1-3.3,3.8c-0.3,1.7,0.4,3.6,1.6,4.8
							c0.7,0.7,1.6,1.3,2.1,2.2c0.6,1.2,0.1,2.6-0.1,3.9c-0.2,1.3,0,2.9,1.1,3.5c0.6,0.3,1.4,0.2,2-0.3c0.5-0.5,0.8-1.2,0.5-1.9
							l25-8c3.8,0,5-3.4,5.6-4.6C112.7,157.7,112,153.4,109.4,150.8z"/>
					</g>
					<g>
						<g>
							<g>
								<g>
									<g>
										<path class="st11" d="M79.6,159.5l0.1,2.7l0.5,40.5c0.1,4.7,4.2,8.4,9.2,8.3h0c5.1-0.1,9.2-4,9.2-8.8
											c0-5,0.1-10.2,0.1-10.2s6.4-1.1,7.8-9.5c0.7-4.2,0.5-11,0.1-16.6c-0.3-5-4.8-8.8-9.8-8.3L79.6,159.5z"/>
									</g>
								</g>
								<g>
									<g>
										<g>
											<path class="st6" d="M104.9,170.7c0,0.6-0.4,1.1-1,1.1c-0.6,0-1.1-0.4-1.1-1c0-0.6,0.4-1.1,1-1.1
												C104.4,169.7,104.9,170.1,104.9,170.7z"/>
										</g>
									</g>
									<g>
										<g>
											<g>
												<path class="st6" d="M105.1,169.5c-0.1,0.1-0.9-0.5-2.1-0.5c-1.2,0-2,0.6-2.1,0.4c-0.1-0.1,0.1-0.3,0.4-0.6
													c0.4-0.3,1-0.5,1.7-0.5c0.7,0,1.3,0.3,1.7,0.5C105.1,169.2,105.2,169.4,105.1,169.5z"/>
											</g>
										</g>
									</g>
								</g>
								<g>
									<g>
										<g>
											<path class="st6" d="M93.3,170.7c0,0.6-0.4,1.1-1,1.1c-0.6,0-1.1-0.4-1.1-1c0-0.6,0.4-1.1,1-1.1
												C92.8,169.7,93.3,170.1,93.3,170.7z"/>
										</g>
									</g>
									<g>
										<g>
											<g>
												<path class="st6" d="M93.8,169.7c-0.1,0.1-0.9-0.5-2.1-0.5c-1.2,0-2,0.6-2.1,0.4c-0.1-0.1,0.1-0.3,0.4-0.6
													c0.4-0.3,1-0.5,1.7-0.5c0.7,0,1.3,0.3,1.7,0.5C93.7,169.4,93.8,169.6,93.8,169.7z"/>
											</g>
										</g>
									</g>
								</g>
								<g>
									<g>
										<g>
											<path class="st6" d="M98,178.3c0-0.1,0.7-0.2,1.9-0.3c0.3,0,0.6-0.1,0.6-0.3c0.1-0.2-0.1-0.5-0.2-0.9
												c-0.3-0.7-0.6-1.5-0.9-2.2c-1.2-3.2-2.1-5.8-2-5.9c0.1,0,1.2,2.5,2.4,5.7c0.3,0.8,0.6,1.5,0.8,2.3
												c0.1,0.3,0.3,0.7,0.2,1.2c-0.1,0.2-0.3,0.4-0.5,0.4c-0.2,0.1-0.4,0.1-0.5,0.1C98.7,178.4,98,178.4,98,178.3z"/>
										</g>
									</g>
								</g>
								<g>
									<g>
										<path class="st13" d="M98.8,192c0,0-5.6,0.4-11.2-3c0,0,2.7,5.8,11.1,5L98.8,192z"/>
									</g>
								</g>
								<g>
									<g>
										<g>
											<path class="st6" d="M94.5,179.1c0.2,0,0.2,1.2,1.3,2.1c1.1,0.9,2.4,0.8,2.4,0.9c0,0.1-0.3,0.2-0.9,0.3
												c-0.6,0-1.4-0.2-2-0.7c-0.7-0.5-0.9-1.3-1-1.8C94.3,179.4,94.5,179.1,94.5,179.1z"/>
										</g>
									</g>
								</g>
							</g>
						</g>
					</g>
					<g>
						<g>
							<path class="st6" d="M94.1,165.2c-0.1,0.3-1.3,0.2-2.6,0.3c-1.4,0.1-2.5,0.5-2.6,0.3c-0.1-0.1,0.1-0.4,0.6-0.7
								c0.4-0.3,1.1-0.6,2-0.7c0.8-0.1,1.6,0,2.1,0.2C93.9,164.8,94.1,165,94.1,165.2z"/>
						</g>
					</g>
					<g>
						<g>
							<path class="st6" d="M104.7,166.1c-0.2,0.3-1,0-2,0c-1,0-1.8,0.2-2-0.1c-0.1-0.1,0-0.4,0.4-0.6c0.3-0.2,0.9-0.5,1.6-0.4
								c0.7,0,1.2,0.3,1.6,0.5C104.7,165.7,104.8,166,104.7,166.1z"/>
						</g>
					</g>
					<g>
						<g>
							<path class="st6" d="M106.9,162.2c0,0-4.3,2.2-10-0.4c-3.8-1.7-8.1-2.5-9.1-1.7c-0.9,0.8-1,4.6-4.7,5.8c0,0,0.5,7.3-2.4,7.1
								s-2.5-14.8-2.5-14.8l8-0.4l7.7-1.7l7.4,0.8l5.7,1.4L106.9,162.2z"/>
						</g>
					</g>
					<g>
						<g>
							<g>
								<path class="st6" d="M78,156.2c0-0.1,0.6-0.4,1.5-0.1c0.8,0.3,1.2,0.9,1.1,1c-0.1,0.1-0.5-0.3-1.2-0.6
									C78.7,156.3,78.1,156.3,78,156.2z"/>
							</g>
						</g>
					</g>
					<g>
						<g>
							<g>
								<path class="st6" d="M80.5,153.7c0.1,0,0.1,0.9,0.2,1.9c0.1,1,0.6,1.7,0.5,1.8c-0.1,0.1-0.7-0.6-0.9-1.7
									C80.1,154.5,80.4,153.7,80.5,153.7z"/>
							</g>
						</g>
					</g>
				</g>
				<g>
					<g>
						<g>
							<g>
								<path class="st11" d="M80.9,170c-0.1-0.1-4.8-1.7-4.9,3.2c-0.1,4.9,4.9,3.9,4.9,3.8C80.9,176.9,80.9,170,80.9,170z"/>
							</g>
						</g>
					</g>
					<g>
						<g>
							<g>
								<g>
									<path class="st13" d="M79.4,175.2c0,0-0.1,0.1-0.2,0.1c-0.1,0.1-0.4,0.1-0.6,0c-0.5-0.2-0.9-1-1-1.9c0-0.4,0.1-0.9,0.3-1.2
										c0.2-0.4,0.4-0.6,0.6-0.6c0.3-0.1,0.4,0.1,0.5,0.2c0.1,0.1,0,0.2,0.1,0.2c0,0,0.1-0.1,0.1-0.3c0-0.1-0.1-0.2-0.2-0.3
										c-0.1-0.1-0.3-0.1-0.5-0.1c-0.4,0-0.7,0.4-0.9,0.7c-0.2,0.4-0.3,0.9-0.3,1.4c0,1,0.5,1.9,1.2,2.1c0.3,0.1,0.6,0,0.8-0.1
										C79.4,175.3,79.4,175.2,79.4,175.2z"/>
								</g>
							</g>
						</g>
					</g>
				</g>
			</g>
			<g>
				<g>
					<g>
						<path class="st7" d="M100.1,202.5c3.6,0.2,9.6,0.7,21.5,7.7c2.6,1.5,29.3,19.5,29.3,19.5l-11.8,15.1l-21.8-12.3l2.9,26.1
							l3.3,31l-52.8-0.7l-1.3-31.2L69,236.6l-3.4,28.3l-20.9-2l5.8-37.3c0.7-4.5,2.5-8.9,5.5-12.4c3.6-4.2,8.2-6.7,13.4-8.6
							c2.3-0.8,6.8-1.6,9.8-1.8l-0.2-6.2c0,0,9.4,0.9,11.9,6.9c0,0,3.1-7.1,9.1-7.7L100.1,202.5z"/>
					</g>
					<g>
						<g>
							<path class="st5" d="M86,287.6c-0.1,0-0.8-1-1.4-3.1c-0.7-2.1-1-5.3-0.9-9.2c0.1-2,0.2-4.1,0.3-6.3c0.1-2.3,0.1-4.7-0.1-7.2
								c-0.4-5.1-1.6-10.5-2.8-16.3c-1.2-5.8-2.3-11.4-2.4-16.6c-0.1-5.2,0.3-9.8,0.1-13.6c-0.2-3.8-1-6.8-1.7-8.8
								c-0.8-2-1.5-3-1.4-3.1c0.1-0.1,0.9,0.8,1.9,2.8c1,2,2,5.1,2.3,9c0.4,3.9,0.1,8.6,0.3,13.6c0.3,5.1,1.3,10.6,2.5,16.3
								c1.2,5.8,2.4,11.4,2.7,16.5c0.2,2.6,0.2,5.1,0,7.4c-0.2,2.3-0.4,4.4-0.5,6.3c-0.3,3.8-0.1,6.9,0.4,9
								C85.6,286.4,86.1,287.5,86,287.6z"/>
						</g>
					</g>
					<g>
						<g>
							<path class="st5" d="M107.7,289.1c-0.1,0-0.3-1.2-0.5-3.3c-0.2-2.2-0.6-5.3-1-9.1c-0.8-7.7-2-18.3-3.8-30
								c-0.9-5.8-1.8-11.4-2.6-16.4c-0.9-5-1.7-9.6-2.2-13.5c-0.5-3.9-0.6-7-0.5-9.2c0.1-2.2,0.2-3.4,0.3-3.4
								c0.3,0,0.1,4.8,1.3,12.4c0.6,3.8,1.5,8.3,2.5,13.4c1,5,1.9,10.6,2.8,16.5c1.7,11.7,2.8,22.4,3.3,30.1c0.3,3.9,0.4,7,0.5,9.2
								C107.8,287.9,107.8,289.1,107.7,289.1z"/>
						</g>
					</g>
					<g>
						<g>
							<path class="st5" d="M106.5,203.4c0.1,0,0.2,1.2,0.5,3.3c0.3,2.1,1.1,5.2,2.3,8.9c0.6,1.9,1.2,3.9,1.7,6.2
								c0.5,2.3,0.9,4.7,1.1,7.3c0.5,5.2,0.4,10.9,0.7,16.8c0.6,11.9,1.8,22.6,2.5,30.3c0.4,3.9,0.7,7,0.9,9.2
								c0.2,2.2,0.2,3.4,0.1,3.4c-0.1,0-0.4-1.2-0.7-3.3c-0.4-2.2-0.9-5.3-1.4-9.1c-1.1-7.7-2.4-18.4-3-30.4
								c-0.3-6-0.2-11.6-0.6-16.7c-0.2-2.5-0.5-4.9-1-7.2c-0.5-2.2-1-4.3-1.5-6.2c-1-3.8-1.6-6.9-1.8-9.1
								C106.3,204.7,106.4,203.4,106.5,203.4z"/>
						</g>
					</g>
					<g>
						<g>
							<path class="st5" d="M98.2,203.1c-0.5-0.1-0.5-1.4-0.9-2.8c-0.4-1.4-1-2.6-0.7-2.9c0.2-0.1,0.6,0,1,0.4c0.4,0.4,1,1.1,1.2,2
								c0.3,0.9,0.2,1.8,0,2.4C98.7,202.9,98.4,203.2,98.2,203.1z"/>
						</g>
					</g>
					<g>
						<g>
							<path class="st5" d="M81.5,203.7c-0.2,0.1-0.6-0.2-0.8-0.9c-0.3-0.7-0.4-1.7-0.1-2.7c0.3-1,0.9-1.9,1.5-2.3
								c0.6-0.4,1-0.5,1.2-0.3c0.3,0.4-0.6,1.5-1.1,3.1C81.7,202.1,82,203.5,81.5,203.7z"/>
						</g>
					</g>
					<g>
						<g>
							<path class="st5" d="M98,288.6c-0.1,0,0.1-1.2,0-3.3c-0.1-2.1-0.8-5.1-2-8.8c-0.6-1.8-1.4-3.8-2-6c-0.6-2.2-1.2-4.6-1.7-7.1
								c-1-5.1-1.6-10.7-2.4-16.5c-1.5-11.7-2.7-22.3-3.5-30c-0.4-3.8-0.7-7-0.9-9.1c-0.2-2.2-0.2-3.4-0.1-3.4
								c0.1,0,0.4,1.2,0.7,3.3c0.4,2.1,0.8,5.2,1.4,9.1c1.1,7.7,2.5,18.2,4,29.9c0.7,5.9,1.3,11.4,2.2,16.4c0.4,2.5,0.9,4.9,1.5,7
								c0.6,2.2,1.2,4.2,1.8,6c1.1,3.7,1.7,6.9,1.6,9.1C98.6,287.5,98.1,288.6,98,288.6z"/>
						</g>
					</g>
					<g>
						<g>
							<path class="st5" d="M76.5,287.4c-0.2,0-0.6-3.2-1.2-8.4c-0.6-5.2-1.4-12.3-2.2-20.2c-0.8-7.9-1.4-15.1-1.7-20.3
								c-0.2-5.2-0.2-8.4,0-8.5c0.2,0,0.6,3.2,1.1,8.4c0.6,5.2,1.3,12.4,2.1,20.2c0.8,7.9,1.5,15.1,1.8,20.3
								C76.7,284.2,76.7,287.4,76.5,287.4z"/>
						</g>
					</g>
					<g>
						<g>
							<path class="st5" d="M48.3,263.1c-0.2-0.1,0.4-3.4,1.5-8.9c1.2-5.4,2.9-12.9,4.8-21.2c1-4.1,2-8,2.8-11.6
								c0.9-3.6,1.8-6.9,3.2-9.3c1.4-2.5,3.2-4.1,4.6-4.9c1.4-0.8,2.3-0.9,2.3-0.8c0,0.1-0.8,0.4-2,1.3c-1.2,0.9-2.8,2.5-4,4.9
								c-1.2,2.4-2,5.6-2.8,9.2c-0.8,3.6-1.8,7.5-2.7,11.6c-2,8.2-3.9,15.7-5.3,21.1C49.6,259.9,48.6,263.2,48.3,263.1z"/>
						</g>
					</g>
					<g>
						<g>
							<path class="st5" d="M73,210.7c0.1,0.1-0.5,0.6-1.1,1.9c-0.6,1.2-1.3,3.1-1.9,5.6c-0.3,1.2-0.6,2.6-1,4
								c-0.3,1.4-0.6,3-0.9,4.6c-0.3,1.7-0.8,3.4-1.5,5.2c-0.7,1.7-1.5,3.5-2.4,5.2c-0.9,1.7-1.8,3.4-2.5,5
								c-0.7,1.6-1.1,3.3-1.4,4.9c-0.6,3.2-0.8,6.2-0.9,8.7c-0.2,5-0.1,8.2-0.4,8.2c-0.2,0-0.7-3.1-0.8-8.2c0-2.5,0-5.6,0.6-9
								c0.3-1.7,0.6-3.5,1.4-5.2c0.7-1.7,1.6-3.4,2.5-5.1c0.9-1.7,1.7-3.4,2.4-5c0.7-1.6,1.1-3.3,1.5-4.9c0.4-1.6,0.7-3.2,1.1-4.6
								c0.4-1.5,0.8-2.8,1.2-4c0.8-2.4,1.6-4.4,2.5-5.6C72.2,211.1,73,210.7,73,210.7z"/>
						</g>
					</g>
					<g>
						<g>
							<path class="st5" d="M146.2,235.1c-0.1,0.2-2.1-0.5-5.1-2.2c-3-1.7-7-4.3-10.9-7.7c-2-1.8-3.6-3.6-5.2-5.2
								c-1.6-1.5-3.1-2.8-4.5-3.7c-2.8-1.8-4.9-2.2-4.8-2.5c0-0.1,0.6-0.1,1.5,0.1c1,0.2,2.3,0.6,3.9,1.4c1.6,0.8,3.2,2.1,4.9,3.6
								c1.7,1.5,3.4,3.4,5.3,5c3.8,3.4,7.7,6.1,10.4,8C144.4,233.8,146.3,234.9,146.2,235.1z"/>
						</g>
					</g>
					<g>
						<g>
							<path class="st5" d="M141.2,242c-0.1,0.2-1.6-0.6-3.9-1.9c-2.3-1.3-5.4-3.2-8.8-5.4c-3.4-2.2-6.4-4.3-8.5-6
								c-2.1-1.7-3.2-3-3-3.1c0.2-0.2,1.5,0.7,3.7,2.2c2.2,1.5,5.3,3.4,8.7,5.6c3.4,2.2,6.5,4.2,8.6,5.8
								C140.2,240.7,141.4,241.9,141.2,242z"/>
						</g>
					</g>
					<g>
						<g>
							<path class="st6" d="M67.9,205.8c0,0,0.1,0,0.3,0.1c0.2,0.1,0.5,0.2,0.9,0.4c0.7,0.4,1.8,1.2,2.7,2.4
								c0.9,1.2,1.8,2.9,2.3,4.9c0.5,2,0.5,4.3,0.2,6.6c-0.3,2.3-1,4.5-1.6,6.4c-0.6,1.9-1.3,3.6-1.8,5.1c-0.5,1.4-0.9,2.6-1.1,3.4
								c-0.2,0.8-0.4,1.3-0.4,1.3c0,0,0-0.5,0.2-1.3c0.2-0.8,0.5-2,1-3.5c0.9-2.9,2.5-6.8,3.2-11.4c0.3-2.3,0.3-4.5-0.1-6.4
								c-0.4-1.9-1.2-3.6-2.1-4.8C69.7,206.5,67.8,205.9,67.9,205.8z"/>
						</g>
					</g>
					<g>
						<g>
							<path class="st6" d="M118,238.3c0,0-0.1-0.4-0.2-1.3c-0.1-0.9-0.3-2.1-0.4-3.4c-0.4-3-0.8-7-1.4-11.3
								c-0.5-4.4-1-8.3-1.4-11.3c-0.2-1.4-0.3-2.5-0.4-3.4c-0.1-0.8-0.1-1.3-0.1-1.3c0,0,0.1,0.4,0.3,1.2c0.2,0.8,0.4,2,0.6,3.4
								c0.4,2.9,1,6.9,1.5,11.3c0.5,4.4,1,8.5,1.2,11.4c0.1,1.5,0.2,2.6,0.3,3.5C118,237.8,118,238.3,118,238.3z"/>
						</g>
					</g>
					<g>
						<g>
							<path class="st6" d="M89.2,201.1c0,0.1-0.8-0.3-1.8,0.2c-0.5,0.3-0.9,0.8-1.2,1.4c-0.2,0.3-0.3,0.7-0.4,1.1
								c-0.1,0.2-0.1,0.4-0.2,0.6c-0.1,0.2-0.1,0.5-0.3,0.7c-0.1,0.1-0.3,0.2-0.5,0.2c-0.2,0-0.3,0-0.4-0.1
								c-0.2-0.1-0.4-0.2-0.6-0.3c-0.4-0.2-0.7-0.4-1.1-0.5c-0.6-0.3-1.3-0.6-1.9-0.9c-1.1-0.6-1.7-0.9-1.7-1c0-0.1,0.7,0.2,1.8,0.7
								c0.6,0.3,1.2,0.6,1.9,0.8c0.4,0.2,0.7,0.3,1.1,0.5c0.2,0.1,0.4,0.2,0.6,0.3c0.2,0.1,0.3,0.1,0.3,0c0.2-0.2,0.2-0.7,0.4-1.1
								c0.1-0.4,0.3-0.8,0.5-1.2c0.4-0.7,0.9-1.3,1.5-1.6c0.6-0.3,1.1-0.3,1.5-0.2C89.1,200.9,89.2,201,89.2,201.1z"/>
						</g>
					</g>
					<g>
						<g>
							<path class="st6" d="M100.2,202.1c0.1,0.1-1.7,1.6-4.1,3.4l-0.3,0.3l-0.1-0.4c0-0.2-0.1-0.4-0.1-0.5
								c-0.2-1.6-0.8-2.9-1.5-3.6c-0.7-0.7-1.4-0.8-1.4-0.9c0-0.1,0.8-0.1,1.6,0.6c0.4,0.3,0.9,0.9,1.2,1.5c0.3,0.7,0.5,1.4,0.6,2.2
								c0,0.2,0.1,0.4,0.1,0.5l-0.4-0.2C98.2,203.3,100.1,202,100.2,202.1z"/>
						</g>
					</g>
					<g>
						<g>
							<path class="st6" d="M64.7,264c0,0.1-1-0.2-2.5-0.7c-1.5-0.5-3.7-1.1-6.1-1.7c-2.4-0.6-4.6-1.1-6.2-1.4
								c-1.6-0.3-2.6-0.5-2.6-0.6c0-0.1,1,0,2.6,0.2c1.6,0.2,3.8,0.6,6.2,1.2c2.4,0.6,4.5,1.3,6.1,1.9
								C63.8,263.5,64.8,263.9,64.7,264z"/>
						</g>
					</g>
					<g>
						<g>
							<path class="st6" d="M49.1,257.4c0-0.1,1,0.1,2.5,0.5c1.5,0.4,3.6,1,5.9,1.8c1.1,0.4,2.2,0.8,3.2,1.2c1,0.4,1.8,0.7,2.5,1.2
								c1.4,0.9,1.7,1.9,1.7,1.9c-0.1,0-0.5-0.9-1.9-1.6c-0.7-0.4-1.5-0.7-2.5-1c-1-0.4-2.1-0.7-3.2-1.1c-2.3-0.8-4.3-1.5-5.8-1.9
								C50,257.8,49.1,257.5,49.1,257.4z"/>
						</g>
					</g>
					<g>
						<g>
							<path class="st6" d="M140.8,240.8c-0.1,0,0.3-0.8,0.9-2c0.6-1.2,1.6-2.8,2.7-4.5c1.2-1.7,2.3-3.2,3.2-4.2
								c0.9-1,1.5-1.6,1.6-1.5c0.1,0.1-2,2.6-4.4,6C142.5,237.9,140.9,240.8,140.8,240.8z"/>
						</g>
					</g>
					<g>
						<g>
							<path class="st6" d="M139.2,238.3c-0.1,0,0.3-0.7,0.9-1.8c0.7-1.1,1.7-2.5,3.1-3.8c1.4-1.3,2.8-2.4,3.8-3
								c1.1-0.7,1.8-1,1.8-0.9c0.1,0.1-2.6,1.6-5.3,4.3C140.9,235.7,139.3,238.4,139.2,238.3z"/>
						</g>
					</g>
				</g>
				<g>
					<g>
						<path class="st6" d="M102.1,291.4c0,0-0.1-0.3-0.1-0.8c-0.1-0.6-0.2-1.4-0.3-2.4c-0.2-2.1-0.6-5.1-1-8.8
							c-0.9-7.4-2-17.7-3.5-29c-1.4-11.3-2.8-21.6-3.9-28.9c-0.6-3.7-1-6.7-1.4-8.7c-0.2-1-0.3-1.8-0.4-2.4
							c-0.1-0.5-0.1-0.8-0.1-0.8c0,0,0.1,0.3,0.2,0.8c0.1,0.6,0.3,1.4,0.5,2.4c0.4,2,0.9,5,1.5,8.7c1.2,7.4,2.6,17.6,4.1,28.9
							c1.4,11.3,2.5,21.6,3.3,29c0.4,3.7,0.7,6.7,0.9,8.8c0.1,1,0.1,1.8,0.2,2.4C102.1,291.1,102.1,291.4,102.1,291.4z"/>
					</g>
				</g>
				<g>
					<g>
						<path class="st6" d="M95.3,226.9c-0.1,0-0.1-0.4,0.4-0.8c0.2-0.2,0.7-0.3,1.1-0.1c0.4,0.2,0.7,0.6,0.6,1.2
							c-0.1,0.5-0.6,0.8-1,0.9c-0.5,0-0.8-0.4-0.9-0.6c-0.1-0.3,0-0.6,0.1-0.7c0.1-0.1,0.2-0.2,0.2-0.1c0.1,0-0.1,0.3,0.1,0.7
							c0.1,0.2,0.3,0.3,0.5,0.3c0.2,0,0.5-0.2,0.5-0.5c0-0.2-0.1-0.5-0.3-0.7c-0.2-0.1-0.5-0.1-0.6,0
							C95.5,226.6,95.4,226.9,95.3,226.9z"/>
					</g>
				</g>
				<g>
					<g>
						<path class="st6" d="M98.4,244.9c-0.1,0-0.1-0.4,0.4-0.8c0.2-0.2,0.7-0.3,1.1-0.1c0.4,0.2,0.7,0.6,0.6,1.2
							c-0.1,0.5-0.6,0.8-1,0.9c-0.5,0-0.8-0.4-0.9-0.6c-0.1-0.3,0-0.6,0.1-0.7c0.1-0.1,0.2-0.2,0.2-0.1c0.1,0-0.1,0.3,0.1,0.7
							c0.1,0.2,0.3,0.3,0.5,0.3c0.2,0,0.5-0.2,0.5-0.5c0-0.2-0.1-0.5-0.3-0.7c-0.2-0.1-0.5-0.1-0.6,0
							C98.6,244.6,98.5,244.9,98.4,244.9z"/>
					</g>
				</g>
			</g>
			<g>
				<g>
					<g>
						<g>
							<g>
								<g>
									<g>
										<path class="st7" d="M90.5,462.8l-0.2-9.2l-17.2,0.3l0.2,13.5l1.1,0.1c4.8,0.2,24.2,0.6,27.4-0.4
											C105.2,465.9,90.5,462.8,90.5,462.8z"/>
									</g>
								</g>
							</g>
						</g>
						<g class="st15">
							<g>
								<g>
									<path class="st10" d="M97.7,464.6c0,0,5.2,1.4,4.5,2.3c-0.6,0.9-20.3,1.2-29,0.5l0-0.4l23-0.2
										C96.2,466.8,96.7,464.6,97.7,464.6z"/>
								</g>
							</g>
						</g>
						<g>
							<g>
								<g>
									<g>
										<path class="st6" d="M73,467c0,0,0.1,0,0.3,0c0.3,0,0.5,0,0.9,0c0.9,0,1.9,0.1,3.1,0.1c2.6,0.1,6.3,0.1,10.3,0
											c4-0.1,7.7-0.2,10.3-0.3c1.2-0.1,2.3-0.1,3.1-0.2c0.3,0,0.6,0,0.9-0.1c0.2,0,0.3,0,0.3,0c0,0-0.1,0-0.3,0
											c-0.3,0-0.5,0-0.9,0c-0.9,0-1.9,0.1-3.1,0.1c-2.6,0.1-6.3,0.2-10.3,0.3c-4,0.1-7.7,0.1-10.3,0c-1.2,0-2.3,0-3.1,0
											c-0.3,0-0.6,0-0.9,0C73.1,466.9,73,467,73,467z"/>
									</g>
								</g>
							</g>
						</g>
						<g>
							<g>
								<g>
									<g>
										<path class="st6" d="M96.2,467.1c0.1,0,0.1-0.7,0.6-1.5c0.4-0.8,1.1-1.2,1-1.2c0-0.1-0.7,0.3-1.2,1.1
											C96.1,466.3,96.2,467.1,96.2,467.1z"/>
									</g>
								</g>
							</g>
						</g>
						<g>
							<g>
								<g>
									<g>
										<path class="st6" d="M91.1,464.6c0,0,0.3-0.3,0.5-0.7c0.2-0.4,0.4-0.7,0.4-0.8c0,0-0.3,0.3-0.5,0.7
											C91.2,464.2,91.1,464.5,91.1,464.6z"/>
									</g>
								</g>
							</g>
						</g>
						<g>
							<g>
								<g>
									<g>
										<path class="st6" d="M89.7,463.9c0,0,0.3-0.1,0.6-0.4c0.3-0.3,0.5-0.5,0.5-0.6c0,0-0.3,0.1-0.6,0.4
											C89.9,463.6,89.7,463.8,89.7,463.9z"/>
									</g>
								</g>
							</g>
						</g>
						<g>
							<g>
								<g>
									<g>
										<path class="st6" d="M88.8,462.2c0,0.1,0.4,0.1,0.9,0.1c0.5,0,0.9-0.1,0.9-0.1c0-0.1-0.4-0.1-0.9-0.1
											C89.2,462.1,88.8,462.2,88.8,462.2z"/>
									</g>
								</g>
							</g>
						</g>
						<g>
							<g>
								<g>
									<g>
										<path class="st6" d="M88.5,461.1c0,0.1,0.4,0.2,1,0.3c0.6,0,1-0.1,1-0.2c0-0.1-0.5,0-1-0.1
											C88.9,461.1,88.5,461,88.5,461.1z"/>
									</g>
								</g>
							</g>
						</g>
						<g>
							<g>
								<g>
									<g>
										<path class="st6" d="M91.7,463.1c0,0,0.4,0.1,1.1,0c0.3,0,0.7-0.1,1.2-0.3c0.2-0.1,0.4-0.1,0.7-0.3
											c0.1-0.1,0.2-0.2,0.3-0.3c0-0.2,0-0.4-0.2-0.4c-1.1-0.5-2.1,0.1-2.5,0.6c-0.2,0.3-0.3,0.6-0.3,0.7c0,0.2,0,0.3,0,0.3
											c0,0,0.1-0.4,0.5-1c0.2-0.3,0.5-0.5,0.9-0.6c0.4-0.1,0.9-0.2,1.3,0.1c0.2,0.1,0.1,0.3-0.1,0.5c-0.2,0.1-0.4,0.2-0.6,0.3
											c-0.4,0.2-0.8,0.3-1.1,0.3C92.1,463,91.7,463,91.7,463.1z"/>
									</g>
								</g>
							</g>
						</g>
						<g>
							<g>
								<g>
									<g>
										<path class="st6" d="M92,463.1c0,0,0.2-0.3,0.1-0.8c0-0.2-0.1-0.5-0.3-0.8c-0.2-0.2-0.5-0.6-0.9-0.6
											c-0.3,0-0.4,0.3-0.3,0.5c0,0.2,0.1,0.4,0.2,0.5c0.2,0.3,0.4,0.5,0.5,0.7C91.6,463,91.8,463.1,92,463.1
											c-0.1,0-0.3-0.2-0.6-0.6c-0.2-0.2-0.3-0.4-0.5-0.7c-0.2-0.2-0.3-0.7,0-0.7c0.3,0,0.6,0.2,0.7,0.5c0.2,0.2,0.3,0.5,0.3,0.7
											C92,462.8,91.9,463.1,92,463.1z"/>
									</g>
								</g>
							</g>
						</g>
						<g>
							<g>
								<g>
									<g>
										<path class="st6" d="M73.3,462.2c0,0,0.5-0.1,1.3,0c0.8,0.1,1.9,0.4,2.8,1.1c0.9,0.7,1.5,1.7,1.8,2.4
											c0.3,0.7,0.3,1.2,0.3,1.2c0,0,0-0.1,0-0.3c0-0.2-0.1-0.5-0.2-0.9c-0.2-0.8-0.8-1.8-1.8-2.5c-1-0.8-2.1-1-2.9-1.1
											c-0.4,0-0.7,0-0.9,0C73.4,462.2,73.3,462.2,73.3,462.2z"/>
									</g>
								</g>
							</g>
						</g>
						<g>
							<g>
								<g>
									<g>
										<path class="st6" d="M74.9,455c-0.1,0-0.1,1.6-0.1,3.5c0,2,0.1,3.5,0.1,3.5c0.1,0,0.1-1.6,0.1-3.5
											C75.1,456.6,75,455,74.9,455z"/>
									</g>
								</g>
							</g>
						</g>
						<g>
							<g>
								<g>
									<g>
										<path class="st6" d="M81.6,465.4c0,0.1,1.1,0.2,2.5,0.2c1.4,0,2.5-0.2,2.5-0.2c0-0.1-1.1,0-2.5,0
											C82.8,465.4,81.6,465.3,81.6,465.4z"/>
									</g>
								</g>
							</g>
						</g>
						<g>
							<g>
								<g>
									<g>
										<path class="st6" d="M78.3,465.4c0,0,0.1,0.2,0.2,0.5c0.1,0.3,0.2,0.5,0.2,0.5c0.1,0,0.1-0.3-0.1-0.6
											C78.5,465.6,78.3,465.4,78.3,465.4z"/>
									</g>
								</g>
							</g>
						</g>
						<g>
							<g>
								<g>
									<g>
										<path class="st6" d="M77,463.9c0,0,0.1,0.2,0.3,0.4c0.2,0.2,0.4,0.3,0.4,0.2c0,0-0.1-0.2-0.3-0.4
											C77.2,464,77,463.8,77,463.9z"/>
									</g>
								</g>
							</g>
						</g>
						<g>
							<g>
								<g>
									<g>
										<path class="st6" d="M75.1,463.2c0,0.1,0.2,0.1,0.5,0.1c0.3,0.1,0.4,0.2,0.5,0.2c0,0-0.1-0.3-0.4-0.4
											C75.4,463,75.1,463.1,75.1,463.2z"/>
									</g>
								</g>
							</g>
						</g>
						<g>
							<g>
								<g>
									<g>
										<path class="st6" d="M73.8,462.9c0,0.1,0.1,0.1,0.2,0.2c0.1,0.1,0.3,0.1,0.3,0c0-0.1-0.1-0.1-0.2-0.2
											C74,462.8,73.8,462.8,73.8,462.9z"/>
									</g>
								</g>
							</g>
						</g>
					</g>
				</g>
				<g class="st8">
					<polygon points="73.3,461.8 90.5,461.2 90.4,459.1 73.1,460.7 					"/>
				</g>
			</g>
			<g>
				<g>
					<g>
						<g>
							<g>
								<g>
									<g>
										<path class="st7" d="M130.5,463l-0.3-9.2l-17.2,0.4l0.2,13.5l1.1,0c4.8,0.2,24.2,0.5,27.4-0.5
											C145.2,466,130.5,463,130.5,463z"/>
									</g>
								</g>
							</g>
						</g>
						<g class="st15">
							<g>
								<g>
									<path class="st10" d="M137.7,464.7c0,0,5.2,1.4,4.5,2.2c-0.6,0.9-20.3,1.3-29,0.7l0-0.4l23-0.3
										C136.2,467,136.7,464.8,137.7,464.7z"/>
								</g>
							</g>
						</g>
						<g>
							<g>
								<g>
									<g>
										<path class="st6" d="M113,467.2c0,0,0.1,0,0.3,0c0.3,0,0.5,0,0.9,0c0.9,0,1.9,0,3.1,0.1c2.6,0,6.3,0,10.3,0
											c4-0.1,7.7-0.2,10.3-0.4c1.2-0.1,2.3-0.1,3.1-0.2c0.3,0,0.6,0,0.9-0.1c0.2,0,0.3,0,0.3,0c0,0-0.1,0-0.3,0
											c-0.3,0-0.5,0-0.9,0c-0.9,0-1.9,0.1-3.1,0.1c-2.6,0.1-6.3,0.2-10.3,0.3c-4,0.1-7.7,0.1-10.3,0.1c-1.2,0-2.3,0-3.1,0
											c-0.3,0-0.6,0-0.9,0C113.1,467.2,113,467.2,113,467.2z"/>
									</g>
								</g>
							</g>
						</g>
						<g>
							<g>
								<g>
									<g>
										<path class="st6" d="M136.2,467.2c0.1,0,0.1-0.7,0.6-1.5c0.4-0.8,1.1-1.2,1-1.2c0-0.1-0.7,0.3-1.2,1.1
											C136.1,466.4,136.2,467.2,136.2,467.2z"/>
									</g>
								</g>
							</g>
						</g>
						<g>
							<g>
								<g>
									<g>
										<path class="st6" d="M131.1,464.7c0,0,0.3-0.3,0.5-0.7c0.2-0.4,0.4-0.8,0.4-0.8c0,0-0.3,0.3-0.5,0.7
											C131.2,464.4,131,464.7,131.1,464.7z"/>
									</g>
								</g>
							</g>
						</g>
						<g>
							<g>
								<g>
									<g>
										<path class="st6" d="M129.7,464c0,0,0.3-0.1,0.6-0.4c0.3-0.3,0.5-0.5,0.5-0.6c0,0-0.3,0.1-0.6,0.4
											C129.8,463.7,129.6,464,129.7,464z"/>
									</g>
								</g>
							</g>
						</g>
						<g>
							<g>
								<g>
									<g>
										<path class="st6" d="M128.8,462.4c0,0.1,0.4,0.1,0.9,0.1c0.5,0,0.9-0.1,0.9-0.1c0-0.1-0.4-0.1-0.9-0.1
											C129.2,462.3,128.8,462.4,128.8,462.4z"/>
									</g>
								</g>
							</g>
						</g>
						<g>
							<g>
								<g>
									<g>
										<path class="st6" d="M128.4,461.3c0,0.1,0.4,0.2,1,0.3c0.6,0,1-0.1,1-0.2c0-0.1-0.5,0-1,0
											C128.9,461.3,128.4,461.2,128.4,461.3z"/>
									</g>
								</g>
							</g>
						</g>
						<g>
							<g>
								<g>
									<g>
										<path class="st6" d="M131.6,463.2c0,0,0.4,0.1,1.1,0c0.3,0,0.7-0.1,1.2-0.3c0.2-0.1,0.4-0.1,0.7-0.3
											c0.1-0.1,0.2-0.2,0.3-0.3c0-0.2-0.1-0.4-0.2-0.4c-1.1-0.5-2.1,0.1-2.5,0.6c-0.2,0.3-0.3,0.6-0.3,0.7c0,0.2,0,0.3,0,0.3
											c0,0,0.1-0.4,0.5-1c0.2-0.3,0.5-0.5,0.9-0.6c0.4-0.1,0.9-0.2,1.3,0.1c0.2,0.1,0.1,0.3-0.1,0.5c-0.2,0.1-0.4,0.2-0.6,0.3
											c-0.4,0.2-0.8,0.3-1.1,0.3C132.1,463.2,131.6,463.2,131.6,463.2z"/>
									</g>
								</g>
							</g>
						</g>
						<g>
							<g>
								<g>
									<g>
										<path class="st6" d="M131.9,463.3c0,0,0.2-0.3,0.1-0.8c0-0.2-0.1-0.5-0.3-0.8c-0.2-0.2-0.5-0.6-0.9-0.5
											c-0.3,0-0.4,0.3-0.3,0.5c0,0.2,0.1,0.4,0.2,0.5c0.2,0.3,0.4,0.5,0.5,0.7C131.5,463.2,131.8,463.3,131.9,463.3
											c-0.1,0-0.3-0.2-0.6-0.6c-0.2-0.2-0.3-0.4-0.5-0.7c-0.2-0.2-0.3-0.6,0-0.7c0.3,0,0.6,0.2,0.7,0.5c0.2,0.2,0.3,0.5,0.3,0.7
											C132,463,131.9,463.3,131.9,463.3z"/>
									</g>
								</g>
							</g>
						</g>
						<g>
							<g>
								<g>
									<g>
										<path class="st6" d="M113.2,462.5c0,0,0.5-0.1,1.3,0c0.8,0.1,1.9,0.4,2.8,1.1c0.9,0.7,1.5,1.7,1.8,2.4
											c0.3,0.7,0.3,1.2,0.4,1.2c0,0,0-0.1,0-0.3c0-0.2-0.1-0.5-0.2-0.9c-0.2-0.8-0.8-1.8-1.8-2.5c-1-0.8-2.1-1-2.9-1.1
											c-0.4,0-0.7,0-0.9,0C113.4,462.5,113.2,462.5,113.2,462.5z"/>
									</g>
								</g>
							</g>
						</g>
						<g>
							<g>
								<g>
									<g>
										<path class="st6" d="M114.9,455.3c-0.1,0-0.1,1.6-0.1,3.5c0,2,0.1,3.5,0.1,3.5s0.1-1.6,0.1-3.5
											C115,456.9,114.9,455.3,114.9,455.3z"/>
									</g>
								</g>
							</g>
						</g>
						<g>
							<g>
								<g>
									<g>
										<path class="st6" d="M121.6,465.6c0,0.1,1.1,0.2,2.5,0.2c1.4,0,2.5-0.2,2.5-0.3c0-0.1-1.1,0-2.5,0
											C122.8,465.6,121.6,465.6,121.6,465.6z"/>
									</g>
								</g>
							</g>
						</g>
						<g>
							<g>
								<g>
									<g>
										<path class="st6" d="M118.2,465.7c0,0,0.1,0.2,0.2,0.5c0.1,0.3,0.2,0.5,0.2,0.5c0.1,0,0.1-0.3-0.1-0.6
											C118.5,465.8,118.3,465.6,118.2,465.7z"/>
									</g>
								</g>
							</g>
						</g>
						<g>
							<g>
								<g>
									<g>
										<path class="st6" d="M116.9,464.1c0,0,0.1,0.2,0.3,0.4c0.2,0.2,0.4,0.3,0.4,0.2c0,0-0.1-0.2-0.3-0.4
											C117.2,464.2,117,464.1,116.9,464.1z"/>
									</g>
								</g>
							</g>
						</g>
						<g>
							<g>
								<g>
									<g>
										<path class="st6" d="M115.1,463.4c0,0.1,0.2,0.1,0.5,0.1c0.3,0.1,0.4,0.2,0.5,0.2c0,0-0.1-0.3-0.4-0.4
											C115.3,463.3,115.1,463.4,115.1,463.4z"/>
									</g>
								</g>
							</g>
						</g>
						<g>
							<g>
								<g>
									<g>
										<path class="st6" d="M113.8,463.1c0,0.1,0.1,0.1,0.2,0.2c0.1,0.1,0.3,0.1,0.3,0c0-0.1-0.1-0.1-0.2-0.2
											C114,463.1,113.8,463.1,113.8,463.1z"/>
									</g>
								</g>
							</g>
						</g>
					</g>
				</g>
				<g class="st8">
					<polygon points="113.3,462 130.5,461.4 130.4,459.3 113.1,461 					"/>
				</g>
			</g>
			<g>
				<g>
					<g>
						<polygon class="st6" points="69.9,286.1 69.9,460.5 97.1,460.5 99.5,309.3 109,460.5 136.2,460.5 124,289.1 						"/>
					</g>
				</g>
				<g>
					<g>
						<path class="st9" d="M101.8,287.4c0.1,0,0.2,1.1,0.2,2.8c0.1,1.7,0.1,4.1,0.2,6.8c0,1.3,0,2.6,0,3.7c0,1.2-0.1,2.2-0.6,3.1
							c-0.4,0.8-1.1,1.3-1.5,1.6c-0.5,0.2-0.8,0.2-0.8,0.2c0,0,0.3-0.1,0.7-0.4c0.4-0.3,1-0.8,1.3-1.6c0.4-0.8,0.5-1.8,0.4-2.9
							c0-1.2,0-2.4-0.1-3.7c0-2.6,0-5,0-6.8C101.7,288.5,101.7,287.4,101.8,287.4z"/>
					</g>
				</g>
				<g>
					<g>
						<path class="st9" d="M96.9,289.4c0,0.1-0.4,0.3-0.4,0.8c0,0.3,0.1,0.6,0.4,0.8c0.3,0.2,0.7,0.2,1.1-0.1
							c0.6-0.3,0.5-0.9,0.1-1.2C97.7,289.4,97.2,289.4,96.9,289.4l0.1-0.1c0.2,0.1,0.3,0.2,0.3,0.2
							C97.3,289.5,97.1,289.5,96.9,289.4l-0.2,0L96.9,289.4c0.2-0.3,0.9-0.4,1.4,0c0.3,0.2,0.5,0.5,0.6,0.9c0,0.4-0.2,0.8-0.6,1
							c-0.5,0.3-1.2,0.4-1.7,0c-0.5-0.3-0.5-0.8-0.5-1.2c0.1-0.3,0.3-0.6,0.4-0.7C96.8,289.4,96.9,289.4,96.9,289.4z"/>
					</g>
				</g>
			</g>
			<g>
				<path class="st11" d="M116.2,255.4c-0.7-0.9-9.3,0.5-9.3,0.5l3.1-2.4c-1.6-2.8-7.1,0.6-8.9,2.3c-0.5,0.4-0.7,1-0.9,1.7
					l-34.6,7.3l-19.3-2c0,0-0.4,3.3-1.4,9.6c-0.9,5.9,8.9,11.8,14.9,10.9c5.5-0.8,39.4-10.4,45.1-12l0,0l0,0
					c0.5-0.2,0.8-0.2,0.8-0.2l0,0c1.9-0.6,6.3-2.2,6.8-3c0.6-1,0.4-9,0.4-9l3.2-1.4C116.3,257.6,116.9,256.3,116.2,255.4z"/>
			</g>
		</g>
	</g>
</g>
</svg>
