<?xml version="1.0" encoding="utf-8"?>
<!-- Generator: Adobe Illustrator 23.0.3, SVG Export Plug-In . SVG Version: 6.00 Build 0)  -->
<svg version="1.1" xmlns="http://www.w3.org/2000/svg" xmlns:xlink="http://www.w3.org/1999/xlink" x="0px" y="0px"
	 viewBox="0 0 500 500" style="enable-background:new 0 0 500 500;" xml:space="preserve">
<style type="text/css">
	.st0{fill:#D99B00;}
	.st1{fill:#9C6D00;}
	.st2{fill:#FFD261;}
	.st3{fill:#FFFFFF;}
	.st4{fill:#D9D9DB;}
	.st5{fill:#3C57AB;}
	.st6{fill:#6582DB;}
	.st7{opacity:0.2;}
	.st8{fill:#C3D4FB;}
	.st9{fill:#5F9E7A;}
	.st10{fill:#FF6344;}
	.st11{fill:#FF927D;}
	.st12{fill:#2E8253;}
	.st13{fill:url(#SVGID_1_);}
	.st14{fill:#414657;}
	.st15{fill:#782E20;}
	.st16{fill:url(#SVGID_2_);}
	.st17{fill:url(#SVGID_3_);}
	.st18{fill:url(#SVGID_4_);}
	.st19{fill:url(#SVGID_5_);}
	.st20{fill:url(#SVGID_6_);}
	.st21{fill:url(#SVGID_7_);}
	.st22{fill:none;stroke:#535373;stroke-width:1.2273;stroke-miterlimit:10;}
</style>
<g id="BACKGROUND">
</g>
<g id="OBJECTS">
	<g>
		<g>
			<path class="st0" d="M432.6,244.7c0.4-13.4,5.8-24.8-1.1-36.7c-6.6-11.3-14.5-10.4-12.8-22.7c1.6-12.3-6.2-18.3-17.7-18.3
				c-11.5,0-19.3,6-17.7,18.3c1.6,12.3-6.3,11.4-12.8,22.7c-6.9,11.9-1.5,23.3-1.1,36.7c0.4,13.4-9.7,17.6-9.7,43.8
				c0,22.2,11.7,43.4,41.3,43.4c29.6,0,41.3-21.2,41.3-43.4C442.2,262.4,432.2,258.1,432.6,244.7z"/>
			<g>
				<rect x="399.8" y="193.7" class="st1" width="2.4" height="247.6"/>
			</g>
			<g>
				<path class="st1" d="M400.2,232.7c-14.8-10.9-19.6-26.4-19.8-27.1l2.3-0.7c0,0.2,4.8,15.5,18.9,25.8L400.2,232.7z"/>
			</g>
			<g>
				<path class="st1" d="M401.6,250.4l-1.3-2c16.2-10.7,23.4-32.6,23.5-32.8l2.2,0.7C425.7,217.3,418.5,239.3,401.6,250.4z"/>
			</g>
			<g>
				<path class="st1" d="M400.5,287.2c-25.3-10.3-31.4-28-31.6-28.7l2.2-0.7c0.1,0.2,6,17.5,30.3,27.3L400.5,287.2z"/>
			</g>
			<g>
				<path class="st1" d="M401.1,306.4l-0.3-2.3c20.5-2.2,32.2-27.3,32.3-27.5l2.1,1C434.8,278.6,422.9,304,401.1,306.4z"/>
			</g>
		</g>
		<path class="st2" d="M67.6,101.6c-15.1-10.3-35.7-6.5-46,8.6c-10.3,15.1-6.5,35.7,8.6,46c13,8.9,30.1,7.2,41.2-3.1l18.3,3.6
			l-10-15.7C85.3,127,80.6,110.5,67.6,101.6z"/>
		<path class="st3" d="M54.9,138c-0.7,0-1.4,0.2-2,0.5l-11.1-8c0-0.2,0.1-0.5,0.1-0.7c0-0.2,0-0.5-0.1-0.7l11.1-8
			c0.6,0.3,1.3,0.5,2,0.5c2.4,0,4.3-1.9,4.3-4.3s-1.9-4.3-4.3-4.3c-2.4,0-4.3,1.9-4.3,4.3c0,0.2,0,0.5,0.1,0.7l-11.1,8
			c-0.6-0.3-1.3-0.5-2-0.5c-2.4,0-4.3,1.9-4.3,4.3c0,2.4,1.9,4.3,4.3,4.3c0.7,0,1.4-0.2,2-0.5l11.1,8c0,0.2-0.1,0.5-0.1,0.7
			c0,2.4,1.9,4.3,4.3,4.3c2.4,0,4.3-1.9,4.3-4.3C59.2,139.9,57.2,138,54.9,138z"/>
		<path class="st4" d="M397.7,77.4h-74.8c-6.1,0-11.1,5-11.1,11.1v17.9c0,6.1,5,11.1,11.1,11.1h25l8.3,11.4v-11.4h41.4
			c6.1,0,11.1-5,11.1-11.1V88.5C408.8,82.4,403.8,77.4,397.7,77.4z"/>
		<g>
			<path class="st0" d="M336.3,102c0,0.1,0,0.2-0.1,0.3c-0.1,0.1-0.2,0.1-0.3,0.1h-1.4c-0.1,0-0.2,0-0.3-0.1
				c-0.1-0.1-0.1-0.2-0.1-0.3v-4.5c0-0.7-0.2-1.3-0.5-1.7c-0.3-0.4-0.8-0.6-1.5-0.6c-0.6,0-1.1,0.2-1.5,0.6c-0.4,0.4-0.5,1-0.5,1.7
				v4.5c0,0.1,0,0.2-0.1,0.3c-0.1,0.1-0.2,0.1-0.3,0.1h-1.4c-0.1,0-0.2,0-0.3-0.1c-0.1-0.1-0.1-0.2-0.1-0.3V90.3
				c0-0.1,0-0.2,0.1-0.3c0.1-0.1,0.2-0.1,0.3-0.1h1.4c0.1,0,0.2,0,0.3,0.1c0.1,0.1,0.1,0.2,0.1,0.3v3.8c0.3-0.3,0.7-0.6,1.1-0.8
				c0.4-0.2,0.9-0.3,1.5-0.3c0.7,0,1.3,0.1,1.8,0.3c0.5,0.2,0.9,0.5,1.2,0.9c0.3,0.4,0.5,0.8,0.6,1.3c0.1,0.5,0.2,1,0.2,1.6V102z"/>
			<path class="st0" d="M343.5,99.2c0,0.4,0.1,0.7,0.3,0.9c0.2,0.2,0.6,0.3,1.1,0.3h1.1c0.1,0,0.2,0,0.3,0.1
				c0.1,0.1,0.1,0.2,0.1,0.3v1.2c0,0.1,0,0.2-0.1,0.3c-0.1,0.1-0.2,0.1-0.3,0.1h-1.3c-1.1,0-2-0.3-2.6-0.8c-0.6-0.5-0.9-1.4-0.9-2.5
				v-3.8H340c-0.1,0-0.2,0-0.3-0.1c-0.1-0.1-0.1-0.2-0.1-0.3v-1.2c0-0.1,0-0.2,0.1-0.3c0.1-0.1,0.2-0.1,0.3-0.1h1.2v-2.9
				c0-0.1,0-0.2,0.1-0.3c0.1-0.1,0.2-0.1,0.3-0.1h1.4c0.1,0,0.2,0,0.3,0.1c0.1,0.1,0.1,0.2,0.1,0.3v2.9h2.3c0.1,0,0.2,0,0.3,0.1
				c0.1,0.1,0.1,0.2,0.1,0.3v1.2c0,0.1,0,0.2-0.1,0.3c-0.1,0.1-0.2,0.1-0.3,0.1h-2.3V99.2z"/>
			<path class="st0" d="M353.1,99.2c0,0.4,0.1,0.7,0.3,0.9c0.2,0.2,0.6,0.3,1.1,0.3h1.1c0.1,0,0.2,0,0.3,0.1
				c0.1,0.1,0.1,0.2,0.1,0.3v1.2c0,0.1,0,0.2-0.1,0.3c-0.1,0.1-0.2,0.1-0.3,0.1h-1.3c-1.1,0-2-0.3-2.6-0.8c-0.6-0.5-0.9-1.4-0.9-2.5
				v-3.8h-1.2c-0.1,0-0.2,0-0.3-0.1c-0.1-0.1-0.1-0.2-0.1-0.3v-1.2c0-0.1,0-0.2,0.1-0.3c0.1-0.1,0.2-0.1,0.3-0.1h1.2v-2.9
				c0-0.1,0-0.2,0.1-0.3c0.1-0.1,0.2-0.1,0.3-0.1h1.4c0.1,0,0.2,0,0.3,0.1c0.1,0.1,0.1,0.2,0.1,0.3v2.9h2.3c0.1,0,0.2,0,0.3,0.1
				c0.1,0.1,0.1,0.2,0.1,0.3v1.2c0,0.1,0,0.2-0.1,0.3c-0.1,0.1-0.2,0.1-0.3,0.1h-2.3V99.2z"/>
			<path class="st0" d="M364.6,102.7c-0.4,0-0.7,0-1-0.1c-0.3-0.1-0.5-0.2-0.8-0.3c-0.2-0.1-0.4-0.2-0.6-0.3
				c-0.2-0.1-0.3-0.2-0.4-0.3v3.8c0,0.1,0,0.2-0.1,0.3c-0.1,0.1-0.2,0.1-0.3,0.1h-1.4c-0.1,0-0.2,0-0.3-0.1
				c-0.1-0.1-0.1-0.2-0.1-0.3V93.7c0-0.1,0-0.2,0.1-0.3c0.1-0.1,0.2-0.1,0.3-0.1h1.4c0.1,0,0.2,0,0.3,0.1c0.1,0.1,0.1,0.2,0.1,0.3
				v0.4c0.1-0.1,0.2-0.2,0.4-0.3c0.2-0.1,0.3-0.2,0.6-0.3c0.2-0.1,0.5-0.2,0.8-0.3c0.3-0.1,0.6-0.1,1-0.1c0.6,0,1.1,0.1,1.6,0.3
				c0.5,0.2,0.9,0.5,1.2,0.9c0.3,0.4,0.6,0.8,0.8,1.3c0.2,0.5,0.3,1,0.3,1.6c0,0.2,0,0.4,0,0.6c0,0.2,0,0.4,0,0.6
				c0,0.5-0.1,1.1-0.3,1.6c-0.2,0.5-0.5,1-0.8,1.3c-0.3,0.4-0.7,0.7-1.2,0.9C365.8,102.6,365.2,102.7,364.6,102.7z M366.3,98.4
				c0-0.3,0-0.7,0-1c-0.1-0.8-0.3-1.3-0.7-1.7c-0.4-0.3-0.9-0.5-1.5-0.5c-0.6,0-1.1,0.2-1.5,0.5c-0.4,0.3-0.6,0.8-0.7,1.5
				c0,0.2,0,0.4,0,0.7c0,0.3,0,0.5,0,0.7c0.1,0.6,0.3,1.1,0.7,1.5s0.9,0.5,1.5,0.5c0.6,0,1.1-0.2,1.5-0.5
				C366,99.7,366.2,99.1,366.3,98.4z"/>
			<path class="st0" d="M374.5,93.5c0.1,0,0.2,0,0.3,0.1c0.1,0.1,0.1,0.2,0.1,0.3v1.7c0,0.1,0,0.2-0.1,0.3c-0.1,0.1-0.2,0.1-0.3,0.1
				h-1.7c-0.1,0-0.2,0-0.3-0.1c-0.1-0.1-0.1-0.2-0.1-0.3V94c0-0.1,0-0.2,0.1-0.3c0.1-0.1,0.2-0.1,0.3-0.1H374.5z M374.5,99.8
				c0.1,0,0.2,0,0.3,0.1c0.1,0.1,0.1,0.2,0.1,0.3v1.7c0,0.1,0,0.2-0.1,0.3s-0.2,0.1-0.3,0.1h-1.7c-0.1,0-0.2,0-0.3-0.1
				c-0.1-0.1-0.1-0.2-0.1-0.3v-1.7c0-0.1,0-0.2,0.1-0.3c0.1-0.1,0.2-0.1,0.3-0.1H374.5z"/>
			<path class="st0" d="M384.3,89c0.1-0.1,0.1-0.3,0.3-0.4s0.3-0.2,0.5-0.2h1.3c0.1,0,0.2,0,0.3,0.1c0.1,0.1,0.1,0.2,0.1,0.3
				c0,0,0,0.1,0,0.2l-6,14.4c0,0.1-0.1,0.2-0.2,0.4s-0.3,0.2-0.5,0.2h-1.3c-0.1,0-0.2,0-0.3-0.1c-0.1-0.1-0.1-0.2-0.1-0.3
				c0,0,0-0.1,0-0.2L384.3,89z"/>
			<path class="st0" d="M391.6,89c0.1-0.1,0.1-0.3,0.3-0.4c0.1-0.1,0.3-0.2,0.5-0.2h1.3c0.1,0,0.2,0,0.3,0.1
				c0.1,0.1,0.1,0.2,0.1,0.3c0,0,0,0.1,0,0.2l-6,14.4c0,0.1-0.1,0.2-0.2,0.4s-0.3,0.2-0.5,0.2H386c-0.1,0-0.2,0-0.3-0.1
				c-0.1-0.1-0.1-0.2-0.1-0.3c0,0,0-0.1,0-0.2L391.6,89z"/>
		</g>
		<g>
			<path class="st5" d="M259.8,105.1c0.9,2.4,2.4,4.5,4.2,6.3c3.1,3,7.3,4.8,12,4.8c4.5,0,8.8-1.8,12.1-4.9c1.1-1,1.6-2.4,1.5-3.8h0
				v-4.1h-2.2c-2-1.4-4.8-1.3-6.6,0.5c-1.3,1.3-3.1,2-4.9,2c-3.9,0-7.1-3.2-7.1-7.1s3.2-7.1,7.1-7.1c1.9,0,3.6,0.7,4.9,2
				c2,2,5.3,1.9,7.3-0.1c1-1,1.5-2.3,1.5-3.6h0V86h-2c-3.2-2.9-7.3-4.5-11.6-4.5c-4.7,0-8.9,1.9-12,4.9c-1.8,1.7-3.2,3.9-4.2,6.3
				H252h-26h-7.6c-0.9-2.4-2.3-4.5-4.1-6.2c-3.1-3-7.4-4.9-12.1-4.9c-4.3,0-8.4,1.6-11.6,4.5h-2V90h0c0,1.3,0.5,2.6,1.5,3.6
				c2,2,5.2,2.1,7.3,0.1c1.3-1.3,3.1-2,4.9-2c3.9,0,7.1,3.2,7.1,7.1s-3.2,7.1-7.1,7.1c-1.9,0-3.6-0.7-4.9-2
				c-1.8-1.8-4.6-1.9-6.6-0.5h-2.2v4.1h0c0,1.4,0.5,2.8,1.5,3.8c3.3,3.2,7.6,4.9,12.1,4.9c5.4,0,10.2-2.5,13.4-6.4
				c1.2-1.4,2.1-3,2.8-4.8h6h27.6H259.8"/>
			<path class="st6" d="M280.9,100c-1.3,1.3-3.1,2-4.9,2c-3.9,0-7.1-3.2-7.1-7.1c0-3.9,3.2-7.1,7.1-7.1c1.9,0,3.6,0.7,4.9,2
				c2,2,5.3,1.9,7.3-0.1c2-2,1.9-5.3-0.1-7.3c-3.3-3.2-7.6-4.9-12.1-4.9c-4.7,0-8.9,1.9-12,4.9c-1.8,1.7-3.2,3.9-4.2,6.3H252h-26
				h-7.6c-0.9-2.4-2.3-4.5-4.1-6.2c-3.1-3-7.4-4.9-12.1-4.9c-4.5,0-8.8,1.8-12.1,4.9c-2,2-2.1,5.2-0.1,7.3c2,2,5.2,2.1,7.3,0.1
				c1.3-1.3,3.1-2,4.9-2c3.9,0,7.1,3.2,7.1,7.1c0,3.9-3.2,7.1-7.1,7.1c-1.9,0-3.6-0.7-4.9-2c-2-2-5.3-1.9-7.3,0.1
				c-2,2-1.9,5.3,0.1,7.3c3.3,3.2,7.6,4.9,12.1,4.9c5.4,0,10.2-2.5,13.4-6.4c1.2-1.4,2.1-3,2.8-4.8h6h27.6h7.8
				c0.9,2.4,2.4,4.5,4.2,6.3c3.1,3,7.3,4.8,12,4.8c4.5,0,8.8-1.8,12.1-4.9c2-2,2.1-5.2,0.1-7.3C286.2,98.1,282.9,98.1,280.9,100z"/>
		</g>
		<g>
			<path class="st5" d="M273.3,362.9h-56.7c0,69.1-30.8,78.1-30.8,78.1h118.3C304.1,441,273.3,432,273.3,362.9z"/>
			<path class="st7" d="M273.3,362.9h-56.7c0,7.4-0.4,14.1-1,20.2l62.9,22.5C275.4,394.9,273.3,381,273.3,362.9z"/>
		</g>
		<g>
			<path class="st5" d="M380.2,370.7H109.6c-2.9,0-5.3-2.4-5.3-5.3V187.1c0-2.9,2.4-5.3,5.3-5.3h270.6c2.9,0,5.3,2.4,5.3,5.3v178.3
				C385.6,368.3,383.2,370.7,380.2,370.7z"/>
			<g>
				<path class="st3" d="M368.6,356.7H121.2c-1.4,0-2.5-1.1-2.5-2.5V198.3c0-1.4,1.1-2.5,2.5-2.5h247.4c1.4,0,2.5,1.1,2.5,2.5v155.9
					C371.1,355.6,370,356.7,368.6,356.7z"/>
				<path class="st8" d="M371.1,214.7H118.7v-16.7c0-1.3,1-2.3,2.3-2.3h247.8c1.3,0,2.3,1,2.3,2.3V214.7z"/>
				<g>
					<circle class="st6" cx="135.5" cy="205.3" r="4.2"/>
					<circle class="st6" cx="152.8" cy="205.3" r="4.2"/>
					<circle class="st6" cx="170.1" cy="205.3" r="4.2"/>
				</g>
			</g>
			<g>
				<path class="st8" d="M282.4,298.1H159.3c-1.3,0-2.4-1.1-2.4-2.4v-5c0-1.3,1.1-2.4,2.4-2.4h123.1c1.3,0,2.4,1.1,2.4,2.4v5
					C284.8,297,283.7,298.1,282.4,298.1z"/>
				<path class="st8" d="M282.4,316.4H159.3c-1.3,0-2.4-1.1-2.4-2.4v-5c0-1.3,1.1-2.4,2.4-2.4h123.1c1.3,0,2.4,1.1,2.4,2.4v5
					C284.8,315.3,283.7,316.4,282.4,316.4z"/>
				<path class="st8" d="M209.9,334.7h-50.6c-1.3,0-2.4-1.1-2.4-2.4v-5c0-1.3,1.1-2.4,2.4-2.4h50.6c1.3,0,2.4,1.1,2.4,2.4v5
					C212.3,333.6,211.3,334.7,209.9,334.7z"/>
			</g>
			<g>
				<path class="st6" d="M325.1,271.5H164.7c-8.7,0-15.7-7-15.7-15.7l0,0c0-8.7,7-15.7,15.7-15.7h160.4c8.7,0,15.7,7,15.7,15.7l0,0
					C340.8,264.5,333.8,271.5,325.1,271.5z"/>
				<path class="st5" d="M325.1,271.5h-9.5c-8.7,0-15.7-7-15.7-15.7l0,0c0-8.7,7-15.7,15.7-15.7h9.5c8.7,0,15.7,7,15.7,15.7l0,0
					C340.8,264.5,333.8,271.5,325.1,271.5z"/>
				<path class="st3" d="M329.9,263.2l-5.8-5.8c2-2.6,1.8-6.3-0.6-8.7c-2.6-2.6-6.8-2.6-9.4,0c-2.6,2.6-2.6,6.8,0,9.4
					c1.3,1.3,2.9,1.9,4.7,1.9c1.5,0,2.9-0.5,4-1.4l5.8,5.8L329.9,263.2z M315.4,256.8c-1.9-1.9-1.9-5,0-6.9c1-1,2.2-1.4,3.5-1.4
					c1.3,0,2.5,0.5,3.5,1.4c1.9,1.9,1.9,5,0,6.9C320.4,258.7,317.2,258.7,315.4,256.8z"/>
			</g>
			<g>
				<path class="st8" d="M198.2,259.1c0.5,0.3,1.3,0.6,2,0.6c1.1,0,1.6-0.6,1.6-1.3c0-0.7-0.4-1.1-1.6-1.6c-1.5-0.5-2.2-1.4-2.2-2.4
					c0-1.4,1.1-2.5,2.9-2.5c0.9,0,1.6,0.2,2.1,0.5l-0.4,1.1c-0.3-0.2-0.9-0.5-1.7-0.5c-0.9,0-1.4,0.5-1.4,1.2c0,0.7,0.5,1,1.6,1.4
					c1.5,0.6,2.2,1.3,2.2,2.6c0,1.5-1.2,2.5-3.2,2.5c-0.9,0-1.8-0.2-2.4-0.6L198.2,259.1z"/>
				<path class="st8" d="M209.7,256.7c0,2.1,1.4,2.9,2.9,2.9c1.1,0,1.8-0.2,2.3-0.4l0.3,1.1c-0.5,0.2-1.5,0.5-2.8,0.5
					c-2.6,0-4.2-1.7-4.2-4.3c0-2.6,1.5-4.6,4-4.6c2.8,0,3.5,2.4,3.5,4c0,0.3,0,0.6-0.1,0.7H209.7z M214.2,255.6c0-1-0.4-2.5-2.1-2.5
					c-1.6,0-2.2,1.4-2.4,2.5H214.2z"/>
				<path class="st8" d="M225.8,260.7l-0.1-1.1h-0.1c-0.5,0.7-1.4,1.3-2.6,1.3c-1.7,0-2.6-1.2-2.6-2.4c0-2,1.8-3.2,5.1-3.2v-0.2
					c0-0.7-0.2-2-1.9-2c-0.8,0-1.6,0.2-2.2,0.6l-0.4-1c0.7-0.5,1.7-0.8,2.8-0.8c2.6,0,3.2,1.8,3.2,3.5v3.2c0,0.7,0,1.5,0.1,2H225.8z
					 M225.5,256.3c-1.7,0-3.6,0.3-3.6,1.9c0,1,0.7,1.5,1.5,1.5c1.1,0,1.8-0.7,2-1.4c0.1-0.2,0.1-0.3,0.1-0.5V256.3z"/>
				<path class="st8" d="M233,254.8c0-1,0-1.9-0.1-2.6h1.3l0.1,1.7h0.1c0.4-1.1,1.3-1.9,2.3-1.9c0.2,0,0.3,0,0.4,0.1v1.5
					c-0.2,0-0.3-0.1-0.5-0.1c-1.1,0-1.9,0.8-2.1,2c0,0.2-0.1,0.5-0.1,0.7v4.5H233V254.8z"/>
				<path class="st8" d="M248.1,260.4c-0.4,0.2-1.3,0.5-2.4,0.5c-2.6,0-4.2-1.7-4.2-4.3c0-2.6,1.8-4.5,4.6-4.5
					c0.9,0,1.7,0.2,2.1,0.4l-0.4,1.2c-0.4-0.2-0.9-0.4-1.8-0.4c-1.9,0-3,1.4-3,3.2c0,2,1.3,3.2,2.9,3.2c0.9,0,1.5-0.2,1.9-0.4
					L248.1,260.4z"/>
				<path class="st8" d="M253.4,248.2h1.5v5.3h0c0.2-0.4,0.6-0.8,1.1-1.1c0.5-0.3,1-0.4,1.6-0.4c1.1,0,3,0.7,3,3.6v5h-1.5v-4.9
					c0-1.4-0.5-2.5-2-2.5c-1,0-1.8,0.7-2.1,1.5c-0.1,0.2-0.1,0.4-0.1,0.7v5.1h-1.5V248.2z"/>
			</g>
		</g>
		<g>
			<path class="st9" d="M218.5,441c-12.6-9.7-41.9-29.3-67-23c-14.4-19-35.7-17.7-47-13.4c-11.8-16.3-74.8-23.9-82.4,36.4H218.5z"/>
			<path class="st9" d="M271.3,441c12.6-9.7,41.9-29.3,67-23c14.4-19,35.7-17.7,47-13.4c11.8-16.3,74.8-23.9,82.4,36.4H271.3z"/>
		</g>
		<g>
			<circle class="st7" cx="121.7" cy="100.6" r="41.9"/>
			
				<ellipse transform="matrix(0.7071 -0.7071 0.7071 0.7071 -33.6921 116.2935)" class="st3" cx="123.5" cy="98.8" rx="39.9" ry="39.9"/>
			<g>
				<path class="st10" d="M123.5,130.1c-17.3,0-31.3-14-31.3-31.3c0-17.3,14-31.3,31.3-31.3c17.3,0,31.3,14,31.3,31.3
					C154.8,116.1,140.8,130.1,123.5,130.1z M123.5,76.2c-12.5,0-22.7,10.2-22.7,22.7c0,12.5,10.2,22.7,22.7,22.7
					c12.5,0,22.7-10.2,22.7-22.7C146.2,86.3,136,76.2,123.5,76.2z"/>
			</g>
			<g>
				<path class="st10" d="M123.5,114.3c-8.5,0-15.5-6.9-15.5-15.5s6.9-15.5,15.5-15.5c8.5,0,15.5,6.9,15.5,15.5
					S132.1,114.3,123.5,114.3z M123.5,92c-3.8,0-6.8,3.1-6.8,6.8s3.1,6.8,6.8,6.8c3.8,0,6.8-3.1,6.8-6.8S127.3,92,123.5,92z"/>
			</g>
			<g>
				<path class="st5" d="M175.8,71.3l-43.9,23c-0.6,0.3-1.4,0.1-1.7-0.5l-0.7-1.4l-6.3,6.8c-0.6,0.6-0.1,1.6,0.8,1.5l9.2-1.3
					l-0.7-1.4c-0.3-0.6-0.1-1.4,0.5-1.7l43.9-23L175.8,71.3z"/>
				<g>
					<polygon class="st3" points="168.6,75.1 166.2,76.3 167.1,69.4 169.5,68.1 					"/>
					<polygon class="st10" points="171,73.8 168.6,75.1 169.5,68.1 171.9,66.8 					"/>
					<polygon class="st3" points="173.4,72.5 171,73.8 171.9,66.8 174.3,65.6 					"/>
					<polygon class="st10" points="175.8,71.3 173.4,72.5 174.3,65.6 176.7,64.3 					"/>
				</g>
				<g>
					<polygon class="st3" points="169.6,76.9 167.2,78.2 173.4,81.4 175.8,80.1 					"/>
					<polygon class="st10" points="172,75.7 169.6,76.9 175.8,80.1 178.2,78.9 					"/>
					<polygon class="st3" points="174.4,74.4 172,75.7 178.2,78.9 180.6,77.6 					"/>
					<polygon class="st10" points="176.8,73.1 174.4,74.4 180.6,77.6 183,76.3 					"/>
				</g>
			</g>
		</g>
		<g>
			<path class="st3" d="M226.3,112.7c0,1.4-1.1,2.5-2.5,2.5c-1.4,0-2.5-1.1-2.5-2.5c0-1.4,1.1-2.5,2.5-2.5
				C225.2,110.2,226.3,111.3,226.3,112.7z"/>
			<path class="st3" d="M226.3,131.8c0,1.4-1.1,2.5-2.5,2.5c-1.4,0-2.5-1.1-2.5-2.5s1.1-2.5,2.5-2.5
				C225.2,129.3,226.3,130.4,226.3,131.8z"/>
			<path class="st3" d="M226.3,150.9c0,1.4-1.1,2.5-2.5,2.5c-1.4,0-2.5-1.1-2.5-2.5s1.1-2.5,2.5-2.5
				C225.2,148.4,226.3,149.5,226.3,150.9z"/>
		</g>
		<g>
			<path class="st11" d="M306.7,392.1l3.2,31.1c0.2,2-0.8,3.9-2.5,4.9c-5.7,3.2-17.8,10.2-17.4,11.8c0.5,2.1,24.1,1.5,31.3-3.1
				c7.2-4.6,0.3-8,0-16.2c-0.3-8.2,0.3-28.5,0.3-28.5H306.7z"/>
			<path class="st5" d="M321.3,436.8c5.5-3.6,2.7-6.4,1-11.2l-9.1,3.8c-1.1-1.1-2.8-2-4.4-2.6c-0.4,0.5-0.9,1-1.5,1.3
				c-5.7,3.2-17.8,10.2-17.4,11.8C290.5,441.9,314.2,441.4,321.3,436.8z"/>
			<path class="st11" d="M356.3,390.3l14.9,27.5c1,1.8,0.8,3.9-0.5,5.5c-4,5.1-12.5,16.2-11.6,17.5c1.3,1.7,22.9-7.8,27.8-14.8
				c4.9-7-2.8-7.5-6.2-14.9c-3.4-7.5-10.7-26.4-10.7-26.4L356.3,390.3z"/>
			<g class="st7">
				<path d="M356.3,390.3l9.1,16.8l14.1,1.2c-3.7-8.6-9.5-23.7-9.5-23.7L356.3,390.3z"/>
				<path d="M306.7,392.1l1.1,10.1l13.6,1.2c0.1-6.1,0.2-11.3,0.2-11.3H306.7z"/>
			</g>
			<path class="st5" d="M386.9,426c3.7-5.4,0.1-6.9-3.4-10.7l-7,6.9c-1.4-0.6-3.3-0.7-5-0.7c-0.2,0.6-0.4,1.3-0.9,1.8
				c-4,5.1-12.5,16.2-11.6,17.5C360.4,442.5,382.1,433,386.9,426z"/>
			<path class="st12" d="M324.7,249.8h33.6c0,0,8.3,9,6.7,25.7c-1.5,16.7-1,44.7,3.6,53.4c4.6,8.7,8.2,14.9,7.4,22.6
				c-0.8,7.7,11.6,13,11.3,24.9c-0.1,5.6,1.4,9.9,3.4,13.1c2,3.2-0.2,7.4-4,7.4h-82.1l-3.5-49.1c-0.7-10.2,0.2-20.5,2.7-30.5
				C309,297,318.3,262.1,324.7,249.8z"/>
			<path class="st7" d="M365,312.3c-1.1-11.8-0.9-26.4,0-36.8c1.5-16.7-6.7-25.7-6.7-25.7h-33.6c-1.6,3.1-3.4,7.5-5.2,12.8
				C322.7,276.9,333.1,304.2,365,312.3z"/>
			<path class="st11" d="M322.3,189.9c-4.3,3.2-28.2,25.5-28.2,25.5l5.4-24.7l-6.4-0.9c0,0-19.5,33.5-7.2,38.5
				c12.3,5,35.6-20.9,35.6-20.9S328.1,197.6,322.3,189.9z"/>
			<path class="st7" d="M298.2,196.9l1.4-6.2l-6.4-0.9c0,0-2.8,4.8-5.6,11C292.8,201,296.4,198.5,298.2,196.9z"/>
			<path class="st11" d="M320.9,158.6l-0.7,2.8l2.1,0.3c0,0-2,15.1,11.9,13.8v11.7l13.1-1.1l-2.5-34.7L325,136.7
				C325,136.7,313.6,147,320.9,158.6z"/>
			<path class="st7" d="M329.4,175.2c1.4,0.4,2.9,0.5,4.9,0.3v11.7l13.1-1.1l-1.3-18C338.5,174,331.6,175.4,329.4,175.2z"/>
			<linearGradient id="SVGID_1_" gradientUnits="userSpaceOnUse" x1="339.7351" y1="241.2575" x2="339.7351" y2="199.7309">
				<stop  offset="0" style="stop-color:#3C57AB"/>
				<stop  offset="1" style="stop-color:#6582DB"/>
			</linearGradient>
			<path class="st13" d="M361.5,211.8l-3.7-23.5c0,0-1.3-0.1-3.3-0.2c-1.8-0.1-3.3-1.6-3.3-3.5l0,0c0-1.4-1.1-2.5-2.5-2.5h-17.9
				c-1.4,0-2.5,1.1-2.5,2.5v0.8c0,1.6-1,2.9-2.5,3.4l-3.6,1.1c0,0-0.2,7-2.1,11.1c-1.9,4.1-3.9,9.2,0,14.6c3.9,5.3,5.1,18,2.2,28.6
				c-2.9,10.6-0.3,9.6,8.9,9.6s18,0,23.5,0c5.5,0,7.5-2.1,6.3-10.8C360,234.2,360.3,218.3,361.5,211.8z"/>
			<path class="st3" d="M384.8,281.1h-47c-1.6,0-2.8-1.5-2.5-3l6.3-31.2c0.2-1.2,1.3-2,2.5-2h47c1.6,0,2.8,1.5,2.5,3l-6.3,31.2
				C387,280.3,386,281.1,384.8,281.1z"/>
			<path class="st11" d="M355.7,188.2c8.2-4,26.8,30.6,26.8,46.5c0,15.9-15.9,40.6-15.9,40.6s0.2,3.5-2,6c-2.1,2.6-8.9,3.6-9.7,1.7
				c-0.8-1.9,0-4.2,0-4.2s-3.9,3.3-4.6,2.6c-0.8-0.8,2.1-6.7,10.5-10.5l11.5-34.6c0,0-12.3-25.3-15.2-32.7
				C354.1,196.1,350.9,190.5,355.7,188.2z"/>
			<path class="st11" d="M293.4,180.2c2.5-4.2,6.8-2.6,8.9-1.7c2.1,0.9,3.4,6.5,2.6,7.9c-0.9,1.4-1.6,0-1.6,0s-0.4,6.7-6,6.7
				S290.6,184.8,293.4,180.2z"/>
			<polygon class="st10" points="300.7,187 295.2,186.3 295.7,168.3 301.2,169 			"/>
			<g>
				<polygon class="st3" points="252.3,146.6 236.1,139.7 236.5,136.3 252.6,144.1 				"/>
				<polygon class="st3" points="251.1,155.7 234.5,152.3 234.9,148.9 251.4,153.2 				"/>
				<polygon class="st3" points="250,164.8 232.9,164.9 233.3,161.5 250.3,162.3 				"/>
				<polygon class="st3" points="248.8,173.9 231.3,177.5 231.7,174.1 249.1,171.4 				"/>
			</g>
			<path class="st14" d="M323.7,143.2c0,0,1,10.4,15.2,13.9l2.2,48.1c0.1,1.9,2.6,2.5,3.5,0.8c0.9-1.6,2-3.9,3.2-6.8
				c3.8-9.2,10.4-4.1,10.4-14.9c0-10.8,1.9-52.4-22.9-52.4c-24.9,0-25.7,25.2-14.4,26.8C320.9,158.6,320.6,150.2,323.7,143.2z"/>
			<polygon class="st10" points="295.2,174 258.2,181.8 263.4,141.3 297.3,158 			"/>
			<path class="st10" d="M308.4,174.6l-6.7-0.9l1.8-13.9l6.7,0.9c1.9,0.2,3.2,1.9,2.9,3.8l-0.9,7.1
				C312,173.5,310.3,174.9,308.4,174.6z"/>
			
				<rect x="296.2" y="158.1" transform="matrix(0.992 0.1258 -0.1258 0.992 23.325 -36.3576)" class="st15" width="6.4" height="16.7"/>
			
				<ellipse transform="matrix(0.1258 -0.9921 0.9921 0.1258 67.733 399.9209)" class="st15" cx="260.8" cy="161.5" rx="20.4" ry="5.8"/>
		</g>
		<g>
			<linearGradient id="SVGID_2_" gradientUnits="userSpaceOnUse" x1="95.3537" y1="317.8621" x2="95.3537" y2="263.3843">
				<stop  offset="0" style="stop-color:#3C57AB"/>
				<stop  offset="1" style="stop-color:#6582DB"/>
			</linearGradient>
			<path class="st16" d="M97.8,250.1l26.6,67.4c5.2,13.2,6.6,27.5,4,41.4l-11.1,60.1H98.1c0,0-0.6-62.6,7.4-81.9l-39.4-49.7
				c0,0-12.1-18.5,1.1-37.4H97.8z"/>
			<path class="st3" d="M105.5,173.5l11.2,10.7l-30.3,55.8C86.5,240.1,90,199.4,105.5,173.5z"/>
			<path class="st11" d="M165.3,220.5c0,0,2.7,1.8,2.3,5.6c-0.4,3.7-2.2,9.5-6,9.4C157.8,235.3,162.3,218.2,165.3,220.5z"/>
			<g>
				<path class="st5" d="M174.7,171.6c-10.2-2.3-20.7,3.6-24,13.5c-3.2,9.4,0.9,19.4,8.9,24.2c1.8,1.1,2.7,3.3,2.1,5.4l-7.2,27.2
					c-0.3,1.2,0.4,2.5,1.6,2.8l0,0c1.2,0.3,2.5-0.4,2.8-1.6l7.2-27.1c0.6-2.1,2.4-3.6,4.6-3.6c8.9-0.2,17-6.2,19.4-15.2
					C193,185.8,186.1,174.2,174.7,171.6z"/>
				
					<ellipse transform="matrix(0.5738 -0.819 0.819 0.5738 -84.4891 221.0363)" class="st8" cx="170.1" cy="191.7" rx="15.8" ry="15.8"/>
				<g>
					<path class="st3" d="M180.3,179.6L158,201.9c1.8,2.2,4.2,3.9,7.1,4.8l20-20C184.2,184,182.5,181.5,180.3,179.6z"/>
					<path class="st3" d="M156.7,199.9l21.7-21.7c-1.3-0.8-2.6-1.4-4.1-1.8c-0.1,0-0.1,0-0.2,0l-19.2,19.2
						C155.2,197.1,155.8,198.6,156.7,199.9z"/>
				</g>
			</g>
			<path class="st11" d="M145.8,231.5l7.5-4.2c0,0,2-7.1,6.6-7.1c3.7,0,3.9,6.1,3.2,6.4c-1.5,0.7-2.8-3.1-2.8-3.1
				s-1.7,10.4-5.4,11.5l-5.8,3.6L145.8,231.5z"/>
			<linearGradient id="SVGID_3_" gradientUnits="userSpaceOnUse" x1="104.4057" y1="227.9846" x2="151.429" y2="227.9846">
				<stop  offset="0" style="stop-color:#3C57AB"/>
				<stop  offset="1" style="stop-color:#6582DB"/>
			</linearGradient>
			<path class="st17" d="M130,196.5c3.7,3.4-9.4,44.7-9.4,44.7l27.9-13.5l2.9,10.6c0,0-24.8,19.2-37.5,21.6
				c-12.7,2.4-11.5-12.3-3.6-37.8C110.3,222.1,123.6,190.6,130,196.5z"/>
			<path class="st7" d="M128.9,211.2c1.6-7.3,2.5-13.4,1.1-14.7c-6.4-5.9-19.6,25.6-19.6,25.6c-1.4,4.4-2.5,8.5-3.4,12.2
				L128.9,211.2z"/>
			<linearGradient id="SVGID_4_" gradientUnits="userSpaceOnUse" x1="62.7661" y1="366.8635" x2="62.7661" y2="310.6371">
				<stop  offset="0" style="stop-color:#3C57AB"/>
				<stop  offset="1" style="stop-color:#6582DB"/>
			</linearGradient>
			<path class="st18" d="M81.1,246.6l6.6,69.2c1.1,11.5-0.5,23.1-4.6,34l-26.4,69.3H37.6c0,0,6.8-69.6,23.8-86.2L49.5,284
				c0,0-12.1-18.5,1.1-37.4H81.1z"/>
			<path class="st11" d="M55.6,416.4l-3.7,13c0,0,23,7.7,23.5,10.7c0.5,3-42.4,0-42.4,0s0-6.1,5.4-11.2l2.3-12.5H55.6z"/>
			<path class="st14" d="M75.4,440c-0.5-3-23.5-10.7-23.5-10.7l1.4-4.8c-4.4,0.3-5.5,4.3-5.5,4.3h-9.3C33,433.9,33,440,33,440
				S75.9,442.9,75.4,440z"/>
			<path class="st11" d="M115.1,416.4l-0.9,13c0,0,23,7.7,23.5,10.7c0.5,3-42.4,0-42.4,0s0-6.1,5.4-11.2l-0.5-12.5H115.1z"/>
			<path class="st14" d="M137.7,440c-0.5-3-23.5-10.7-23.5-10.7l0.3-4.8c-4.4,0.3-4.5,4.3-4.5,4.3h-9.3c-5.4,5-5.4,11.2-5.4,11.2
				S138.2,442.9,137.7,440z"/>
			<path class="st11" d="M146.5,161.7l-5.6,10.4l-2.7-1.8c0,0-4.2,9.2-9.2,8.7c-5.1-0.5-5.6-2-5.6-2l-6.5,7.3
				c0,0-10.3-3.2-11.2-10.7l6.1-9.8l15.7-16.1L146.5,161.7z"/>
			<path class="st14" d="M134.9,155.6c0,0,8.4,7,13.8,10.5c5.4,3.5,12.6-1.5,12.6-10.2c0-8.6-10.8-11.8-14.4-9.7
				c0,0-9.2-7.5-15.3-7.5c-5.8,0-5.8,4.9-5.8,4.9s-5.4-3.3-10,1.6c-4.7,4.9-4.2,18.4-4.2,18.4l5.4,3.2l3.3-3.2c0,0-1.7-10.5,5.6-9.3
				c2.8,0.5,0.7,6.3,0.7,6.3S132.1,160.5,134.9,155.6z"/>
			<linearGradient id="SVGID_5_" gradientUnits="userSpaceOnUse" x1="81.062" y1="226.5387" x2="129.985" y2="226.5387">
				<stop  offset="0" style="stop-color:#3C57AB"/>
				<stop  offset="1" style="stop-color:#6582DB"/>
			</linearGradient>
			<polygon class="st19" points="116.8,184.3 81.1,246.6 82.8,268.8 105.5,268.8 97.3,245.7 130,196.5 			"/>
			<polygon class="st8" points="88.2,234.1 116.8,184.3 122.3,199.2 103.1,212.5 106.9,222.1 			"/>
			<linearGradient id="SVGID_6_" gradientUnits="userSpaceOnUse" x1="35.6917" y1="217.3791" x2="105.5449" y2="217.3791">
				<stop  offset="0" style="stop-color:#3C57AB"/>
				<stop  offset="1" style="stop-color:#6582DB"/>
			</linearGradient>
			<polygon class="st20" points="105.5,173.5 85.2,244.7 73.5,268.8 35.7,268.8 54.5,232.2 70.6,174.7 90,165.9 			"/>
			<polygon class="st7" points="61.2,208.3 86.1,178.1 69,180.3 			"/>
			<polygon class="st8" points="105.5,173.5 85.2,244.7 82.3,209.1 91.5,208.2 89.8,176.9 			"/>
			<path class="st11" d="M52.8,229.8l2.1,6l8.3,4.1c1.4,0.7,2.5,2,3.1,3.5l2.3,6.5l-2.3,1c-1.9,0.8-4.1,0.1-5.1-1.6l-0.8-1.3
				l-8.3-3.6c-1.8-0.8-3-2.4-3.1-4.3l-0.2-2l-2.7-5.5L52.8,229.8z"/>
			<linearGradient id="SVGID_7_" gradientUnits="userSpaceOnUse" x1="30.1414" y1="201.2034" x2="91.6606" y2="201.2034">
				<stop  offset="0" style="stop-color:#3C57AB"/>
				<stop  offset="1" style="stop-color:#6582DB"/>
			</linearGradient>
			<path class="st21" d="M90,165.9c-7.2-3.5-56,16.2-59.4,28.2c-3.4,12,15.5,42.8,15.5,42.8l8.5-4.7l-8.4-30.3
				c0,0,22.5-12.4,31.8-17.6C87.5,179,95.2,168.5,90,165.9z"/>
			<path class="st7" d="M117.2,419.1l6-32.5l-17.7-49.4c-8.1,19.3-7.4,81.9-7.4,81.9H117.2z"/>
		</g>
		<line class="st22" x1="0.9" y1="441.3" x2="499.1" y2="441.3"/>
		<path class="st3" d="M219.3,160.7h-4c-0.7,0-1.2-0.6-1.2-1.2v-4h-1.9v4c0,0.7-0.6,1.2-1.2,1.2h-4v1.9h4c0.7,0,1.2,0.6,1.2,1.2v4
			h1.9v-4c0-0.7,0.6-1.2,1.2-1.2h4V160.7z"/>
		<path class="st3" d="M385.8,142.2h-4c-0.7,0-1.2-0.6-1.2-1.2v-4h-1.9v4c0,0.7-0.6,1.2-1.2,1.2h-4v1.9h4c0.7,0,1.2,0.6,1.2,1.2v4
			h1.9v-4c0-0.7,0.6-1.2,1.2-1.2h4V142.2z"/>
		<path class="st3" d="M439.6,368.2h-4c-0.7,0-1.2-0.6-1.2-1.2v-4h-1.9v4c0,0.7-0.6,1.2-1.2,1.2h-4v1.9h4c0.7,0,1.2,0.6,1.2,1.2v4
			h1.9v-4c0-0.7,0.6-1.2,1.2-1.2h4V368.2z"/>
		<path class="st3" d="M232.9,69.8h-4c-0.7,0-1.2-0.6-1.2-1.2v-4h-1.9v4c0,0.7-0.6,1.2-1.2,1.2h-4v1.9h4c0.7,0,1.2,0.6,1.2,1.2v4
			h1.9v-4c0-0.7,0.6-1.2,1.2-1.2h4V69.8z"/>
		<g>
			
				<ellipse transform="matrix(0.2309 -0.973 0.973 0.2309 -142.0564 552.9564)" class="st5" cx="278.8" cy="366.3" rx="22.8" ry="22.8"/>
			<g>
				<path class="st8" d="M278.8,348.2c-10,0-18.2,8.2-18.2,18.2s8.2,18.2,18.2,18.2c10,0,18.2-8.2,18.2-18.2
					S288.8,348.2,278.8,348.2z M278.8,374.6c-4.5,0-8.2-3.7-8.2-8.2c0-4.5,3.7-8.2,8.2-8.2c4.5,0,8.2,3.7,8.2,8.2
					C287,370.9,283.3,374.6,278.8,374.6z"/>
				<path class="st8" d="M317.2,374.4c0.5-2.6,0.8-5.3,0.8-8.1c0-2.8-0.3-5.5-0.8-8.1h-9.1c-0.7-2.5-1.6-4.8-2.9-6.9l6.4-6.4
					c-3-4.6-6.9-8.5-11.5-11.5l-6.4,6.4c-2.2-1.2-4.5-2.2-6.9-2.9v-9.1c-2.6-0.5-5.3-0.8-8.1-0.8c-2.8,0-5.5,0.3-8.1,0.8v9.1
					c-2.5,0.7-4.8,1.6-6.9,2.9l-6.4-6.4c-4.6,3-8.5,6.9-11.5,11.5l6.4,6.4c-1.2,2.2-2.2,4.5-2.9,6.9h-9.1c-0.5,2.6-0.8,5.3-0.8,8.1
					c0,2.8,0.3,5.5,0.8,8.1h9.1c0.7,2.5,1.6,4.8,2.9,6.9l-6.4,6.4c3,4.6,6.9,8.5,11.5,11.5l6.4-6.4c2.2,1.2,4.5,2.2,6.9,2.9v9.1
					c2.6,0.5,5.3,0.8,8.1,0.8c2.8,0,5.5-0.3,8.1-0.8v-9.1c2.5-0.7,4.8-1.6,6.9-2.9l6.4,6.4c4.6-3,8.5-6.9,11.5-11.5l-6.4-6.4
					c1.2-2.2,2.2-4.5,2.9-6.9H317.2z M278.8,386.9c-11.3,0-20.5-9.2-20.5-20.5s9.2-20.5,20.5-20.5c11.3,0,20.5,9.2,20.5,20.5
					S290.1,386.9,278.8,386.9z"/>
			</g>
		</g>
		<g>
			<path class="st5" d="M233.1,399.6c0,6.9-5.6,12.5-12.5,12.5c-6.9,0-12.5-5.6-12.5-12.5c0-6.9,5.6-12.5,12.5-12.5
				C227.5,387.1,233.1,392.7,233.1,399.6z"/>
			<g>
				<path class="st8" d="M220.6,389.7c-5.5,0-10,4.5-10,10c0,5.5,4.5,10,10,10c5.5,0,10-4.5,10-10
					C230.6,394.1,226.1,389.7,220.6,389.7z M220.6,404.2c-2.5,0-4.5-2-4.5-4.5c0-2.5,2-4.5,4.5-4.5c2.5,0,4.5,2,4.5,4.5
					C225.1,402.1,223.1,404.2,220.6,404.2z"/>
				<path class="st8" d="M241.7,404.1c0.3-1.4,0.5-2.9,0.5-4.5c0-1.5-0.2-3-0.5-4.5h-5c-0.4-1.3-0.9-2.6-1.6-3.8l3.5-3.5
					c-1.6-2.5-3.8-4.7-6.3-6.3l-3.5,3.5c-1.2-0.7-2.5-1.2-3.8-1.6v-5c-1.4-0.3-2.9-0.5-4.5-0.5c-1.5,0-3,0.2-4.5,0.5v5
					c-1.3,0.4-2.6,0.9-3.8,1.6l-3.5-3.5c-2.5,1.6-4.7,3.8-6.3,6.3l3.5,3.5c-0.7,1.2-1.2,2.5-1.6,3.8h-5c-0.3,1.4-0.5,2.9-0.5,4.5
					c0,1.5,0.2,3,0.5,4.5h5c0.4,1.3,0.9,2.6,1.6,3.8l-3.5,3.5c1.6,2.5,3.8,4.7,6.3,6.3l3.5-3.5c1.2,0.7,2.5,1.2,3.8,1.6v5
					c1.4,0.3,2.9,0.5,4.5,0.5c1.5,0,3-0.2,4.5-0.5v-5c1.3-0.4,2.6-0.9,3.8-1.6l3.5,3.5c2.5-1.6,4.7-3.8,6.3-6.3l-3.5-3.5
					c0.7-1.2,1.2-2.5,1.6-3.8H241.7z M220.6,410.9c-6.2,0-11.3-5.1-11.3-11.3c0-6.2,5.1-11.3,11.3-11.3c6.2,0,11.3,5.1,11.3,11.3
					C231.9,405.8,226.8,410.9,220.6,410.9z"/>
			</g>
		</g>
	</g>
</g>
<g id="DESIGNED_BY_FREEPIK">
</g>
</svg>
