<?xml version="1.0" encoding="utf-8"?>
<!-- Generator: Adobe Illustrator 23.0.3, SVG Export Plug-In . SVG Version: 6.00 Build 0)  -->
<svg version="1.1" xmlns="http://www.w3.org/2000/svg" xmlns:xlink="http://www.w3.org/1999/xlink" x="0px" y="0px"
	 viewBox="0 0 500 500" style="enable-background:new 0 0 500 500;" xml:space="preserve">
<style type="text/css">
	.st0{fill-rule:evenodd;clip-rule:evenodd;fill:#DCE7F5;}
	.st1{fill-rule:evenodd;clip-rule:evenodd;fill:#6C9BD2;}
	.st2{fill-rule:evenodd;clip-rule:evenodd;fill:#C1D7EF;}
	.st3{fill-rule:evenodd;clip-rule:evenodd;fill:#9FBDE3;}
	.st4{fill-rule:evenodd;clip-rule:evenodd;fill:#282A3A;}
	.st5{fill-rule:evenodd;clip-rule:evenodd;fill:#00030C;}
	.st6{fill-rule:evenodd;clip-rule:evenodd;fill:#0A1731;}
	.st7{fill-rule:evenodd;clip-rule:evenodd;fill:#FFFFFF;}
	.st8{fill-rule:evenodd;clip-rule:evenodd;fill:#E77B7B;}
	.st9{fill-rule:evenodd;clip-rule:evenodd;fill:#DA5E81;}
	.st10{fill-rule:evenodd;clip-rule:evenodd;fill:#FCD883;}
	.st11{fill-rule:evenodd;clip-rule:evenodd;fill:#000618;}
	.st12{fill-rule:evenodd;clip-rule:evenodd;fill:#DC5645;}
	.st13{fill-rule:evenodd;clip-rule:evenodd;fill:#F9E7D8;}
	.st14{fill-rule:evenodd;clip-rule:evenodd;fill:#EDC8AB;}
	.st15{fill-rule:evenodd;clip-rule:evenodd;fill:#F1C8B3;}
	.st16{fill-rule:evenodd;clip-rule:evenodd;fill:#BD3F65;}
	.st17{fill-rule:evenodd;clip-rule:evenodd;fill:#E8685B;}
	.st18{fill-rule:evenodd;clip-rule:evenodd;fill:#F4AD85;}
	.st19{fill-rule:evenodd;clip-rule:evenodd;fill:#EF8871;}
	.st20{fill-rule:evenodd;clip-rule:evenodd;fill:#00081A;}
	.st21{fill-rule:evenodd;clip-rule:evenodd;fill:#D7E4F4;}
	.st22{fill-rule:evenodd;clip-rule:evenodd;fill:#ECA943;}
	.st23{fill-rule:evenodd;clip-rule:evenodd;fill:#E28A40;}
	.st24{fill-rule:evenodd;clip-rule:evenodd;fill:#B19269;}
	.st25{fill-rule:evenodd;clip-rule:evenodd;fill:#F8CAB0;}
</style>
<g id="BACKGROUND">
</g>
<g id="OBJECTS">
	<g>
		<path class="st0" d="M68.2,433.3C-57.4,312,89.3,180.1,151.3,261C88.8,0.3,478.4-19.6,390.1,257.2c0,0,149.5,6.1,58.2,167
			L68.2,433.3L68.2,433.3z M54.7,427.5c0,0-46.4-31.1-42.6-102c0,0,0.1-1.8-0.9-1.9c-1-0.1-17.2,57.1,17,99.5L54.7,427.5z"/>
		<g>
			<g>
				<path class="st1" d="M417,233.8c-27.2-21.5-45.6,7.3-41.8,35.6c3.7,26.9,35.3,118.5,31.6,157.5l10.7-0.3
					C441.7,376.1,451.8,261.4,417,233.8z"/>
				<path class="st2" d="M413.7,426.7c22.3-79.3-14.2-187-14.4-187.3c-0.2-0.7-1.1-1.1-1.9-0.9c-0.8,0.2-1.3,0.9-1.1,1.5
					c0.1,0.4,36.7,108.2,14.2,186.7L413.7,426.7z"/>
			</g>
			<g>
				<path class="st3" d="M354.1,284.7c-28.2-11.4-34.1,15.4-22.4,37.1c9.7,18,51.4,71,67.7,105.3l14.1-0.4
					C412.8,378.7,387.4,298.2,354.1,284.7z"/>
				<path class="st1" d="M408.3,426.9c-11.8-64.6-66.5-133.8-66.7-134c-0.4-0.5-1.2-0.6-1.7-0.3c-0.6,0.3-0.7,1-0.4,1.5
					c0.2,0.2,54.6,68.9,66.3,132.9L408.3,426.9z"/>
			</g>
			<g>
				<path class="st2" d="M472.5,312.3c26.5-10.5,31.7,14.6,20.6,34.9c-7.5,13.7-35.3,49-53.7,78.9l-22.4,0.6
					C422.9,382,445.1,323.1,472.5,312.3z"/>
				<path class="st1" d="M425,426.4c16.9-54.3,58.8-106.2,59-106.4c0.4-0.5,1.1-0.6,1.6-0.3c0.5,0.3,0.7,0.9,0.3,1.4
					c-0.2,0.2-41.6,51.6-58.5,105.3L425,426.4z"/>
			</g>
		</g>
		<g>
			<g>
				<path class="st1" d="M117.4,233.8c27.2-21.5,45.6,7.3,41.8,35.6c-3.7,26.9-35.3,118.5-31.6,157.5l-10.7-0.3
					C92.7,376.1,82.6,261.4,117.4,233.8z"/>
				<path class="st2" d="M120.8,426.7c-22.3-79.3,14.2-187,14.4-187.3c0.2-0.7,1.1-1.1,1.9-0.9c0.8,0.2,1.3,0.9,1.1,1.5
					c-0.1,0.4-36.7,108.2-14.2,186.7L120.8,426.7z"/>
			</g>
			<g>
				<path class="st3" d="M180.4,284.7c28.2-11.4,34.1,15.4,22.4,37.1c-9.7,18-51.4,71-67.7,105.3l-14.1-0.4
					C121.7,378.7,147.1,298.2,180.4,284.7z"/>
				<path class="st1" d="M126.1,426.9c11.8-64.6,66.5-133.8,66.7-134c0.4-0.5,1.2-0.6,1.7-0.3c0.6,0.3,0.7,1,0.4,1.5
					c-0.2,0.2-54.6,68.9-66.3,132.9L126.1,426.9z"/>
			</g>
			<g>
				<path class="st2" d="M62,312.3c-26.5-10.5-31.7,14.6-20.6,34.9c7.5,13.7,35.3,49,53.7,78.9l22.4,0.6
					C111.6,382,89.3,323.1,62,312.3z"/>
				<path class="st1" d="M109.4,426.4c-16.9-54.3-58.8-106.2-59-106.4c-0.4-0.5-1.1-0.6-1.6-0.3c-0.5,0.3-0.7,0.9-0.3,1.4
					c0.2,0.2,41.6,51.6,58.5,105.3L109.4,426.4z"/>
			</g>
		</g>
		<path class="st4" d="M474.8,415.8H7c-3.1,0-5.6,2.7-5.6,6l0,0c0,3.3,2.5,6,5.6,6h18.8c1.7,0,3.1,1.5,3.1,3.3l0,0
			c0,1.8-1.4,3.3-3.1,3.3h-6.9c-2.1,0-3.9,1.9-3.9,4.1l0,0c0,2.3,1.7,4.1,3.9,4.1h443.3c2.1,0,3.9-1.9,3.9-4.1l0,0
			c0-2.3-1.7-4.1-3.9-4.1h-5.4c-1.7,0-3.1-1.5-3.1-3.3l0,0c0-1.8,1.4-3.3,3.1-3.3h18c3.1,0,5.6-2.7,5.6-6l0,0
			C480.4,418.5,477.9,415.8,474.8,415.8L474.8,415.8z M471.9,442.6c-2,0-3.7-1.8-3.7-4v-0.3c0-2.2,1.7-4,3.7-4l0,0
			c2,0,3.7,1.8,3.7,4v0.3C475.6,440.8,474,442.6,471.9,442.6L471.9,442.6z"/>
		<g>
			<path class="st5" d="M313.5,88H174.2c-12.8,0-23.2,10.4-23.2,23.2v288.3c0,12.8,10.4,23.2,23.2,23.2h139.3
				c12.8,0,23.2-10.4,23.2-23.2V111.2C336.7,98.4,326.3,88,313.5,88z"/>
			<path class="st5" d="M321.2,88H181.8c-12.8,0-23.2,10.4-23.2,23.2v288.3c0,12.8,10.4,23.2,23.2,23.2h139.3
				c12.8,0,23.2-10.4,23.2-23.2V111.2C344.4,98.4,333.9,88,321.2,88z"/>
			<path class="st6" d="M321.2,91.6c10.7,0,19.5,8.8,19.5,19.5v288.3c0,10.7-8.8,19.5-19.5,19.5H181.8c-10.7,0-19.5-8.8-19.5-19.5
				V111.2c0-10.7,8.8-19.5,19.5-19.5H321.2z"/>
			<path class="st7" d="M321.2,99c6.7,0,12.1,5.5,12.1,12.1v288.3c0,6.7-5.5,12.1-12.1,12.1H181.8c-6.7,0-12.1-5.5-12.1-12.1V111.2
				c0-6.7,5.5-12.1,12.1-12.1H321.2z"/>
			<path class="st6" d="M251.5,110.1h41.6c2.9,0,5.3-2.4,5.3-5.3v-2c0.7-2.1,2.7-3.7,5.1-3.7l-5.1-1.9v-1.9h-47h-47v1.9l-5.1,1.9
				c2.4,0,4.4,1.6,5.1,3.7v2c0,2.9,2.4,5.3,5.3,5.3H251.5z"/>
			<path class="st5" d="M262,102.8c0.8,0,1.5-0.7,1.5-1.5c0-0.8-0.7-1.5-1.5-1.5h-27.1c-0.8,0-1.5,0.7-1.5,1.5
				c0,0.8,0.7,1.5,1.5,1.5H262L262,102.8z M266.9,99.8c-0.8,0-1.5,0.7-1.5,1.5c0,0.8,0.7,1.5,1.5,1.5h1.2c0.8,0,1.5-0.7,1.5-1.5
				c0-0.8-0.7-1.5-1.5-1.5H266.9z"/>
			<g>
				<g>
					<path class="st1" d="M187,390.9h9.8c0.5,0,0.9,0.2,1.2,0.5l0,0c0.3,0.3,0.5,0.7,0.5,1.2l0,10c0,0.3,0,0.4-0.4,0.6
						c-0.5,0.2-0.5,0-0.7-0.3l0,0c-0.1-0.3-0.7-1.2-1.6-1.9c-0.5-0.3-1-0.6-1.6-0.6h-0.8v0.6c0,0.4-0.2,0.7-0.4,1
						c-0.3,0.3-0.6,0.4-1,0.4h-5.3c-0.4,0-0.8,0.2-1.1,0.4c-0.6,0.4-1,1.1-1.1,1.3l0,0.1c-0.2,0.3-0.3,0.5-0.7,0.3
						c-0.3-0.1-0.3-0.3-0.3-0.5c-0.1-2.4,0-5,0-7.4c0-0.4,0.2-0.7,0.4-1c0.3-0.3,0.6-0.4,1-0.4h0.5v-2.5c0-0.5,0.2-0.9,0.5-1.2
						C186.1,391.1,186.6,390.9,187,390.9L187,390.9z M195.4,397.1h0.6c0.2,0,0.3-0.1,0.3-0.3c0-0.2-0.1-0.3-0.3-0.3h-0.6
						c-0.2,0-0.3,0.1-0.3,0.3C195.1,396.9,195.2,397.1,195.4,397.1L195.4,397.1z M194.2,396.4h-5.4c-0.2,0-0.3,0.1-0.3,0.3
						c0,0.2,0.1,0.3,0.3,0.3h5.4c0.2,0,0.3-0.1,0.3-0.3C194.5,396.6,194.3,396.4,194.2,396.4L194.2,396.4z M188.4,393.9h-0.6
						c-0.2,0-0.3,0.1-0.3,0.3c0,0.2,0.1,0.3,0.3,0.3h0.6c0.2,0,0.3-0.1,0.3-0.3C188.7,394,188.6,393.9,188.4,393.9L188.4,393.9z
						 M189.7,394.5h6.3c0.2,0,0.3-0.1,0.3-0.3c0-0.2-0.1-0.3-0.3-0.3h-6.3c-0.2,0-0.3,0.1-0.3,0.3
						C189.3,394.4,189.5,394.5,189.7,394.5L189.7,394.5z M192.3,400.4H187c-0.5,0-0.9-0.2-1.2-0.5c-0.3-0.3-0.5-0.7-0.5-1.2v-2.5
						h-0.5c-0.1,0-0.2,0-0.2,0.1c-0.1,0.1-0.1,0.1-0.1,0.2v5.8c0.1-0.1,0.3-0.3,0.5-0.4c0.5-0.4,1.1-0.6,1.8-0.6h5.3
						c0.1,0,0.2,0,0.2-0.1c0.1-0.1,0.1-0.1,0.1-0.2V400.4L192.3,400.4z M196.8,392H187c-0.2,0-0.3,0.1-0.4,0.2
						c-0.1,0.1-0.2,0.3-0.2,0.4v3.1v3c0,0.2,0.1,0.3,0.2,0.4c0.1,0.1,0.3,0.2,0.4,0.2h5.9h1.3c0.9,0,1.7,0.3,2.3,0.8
						c0.3,0.3,0.7,0.5,0.9,0.8v-8.3c0-0.2-0.1-0.3-0.2-0.4C197.1,392.1,197,392,196.8,392z"/>
					<path class="st1" d="M232,386c1.1,0,2.1,0.5,2.8,1.2c0.7,0.7,1.2,1.7,1.2,2.8c0,1.1-0.5,2.1-1.2,2.8l0,0
						c-0.7,0.7-1.7,1.1-2.8,1.1c-1.1,0-2.1-0.5-2.8-1.2l0,0c-0.7-0.7-1.2-1.7-1.2-2.8c0-1.1,0.5-2.1,1.2-2.8
						C229.9,386.4,230.9,386,232,386L232,386z M236.5,400.4L236.5,400.4L236.5,400.4V400c0-1.2-0.5-2.3-1.3-3.1l0,0
						c-0.8-0.8-1.9-1.3-3.2-1.3c-1.2,0-2.3,0.5-3.2,1.3c-0.8,0.8-1.3,1.9-1.3,3.2v0.4v0v0v2.9c0,0.1,0,0.1,0.1,0.2l0,0
						c0,0,0.1,0.1,0.2,0.1h8.5c0.1,0,0.1,0,0.2-0.1c0,0,0.1-0.1,0.1-0.2V400.4L236.5,400.4z M237.6,400.4L237.6,400.4v2.9
						c0,0.4-0.2,0.7-0.4,0.9l0,0c-0.2,0.2-0.6,0.4-0.9,0.4h-8.5c-0.4,0-0.7-0.2-0.9-0.4l0,0c-0.2-0.2-0.4-0.6-0.4-0.9v-2.9l0,0v0
						V400c0-1.5,0.6-2.9,1.6-3.9c1-1,2.4-1.6,3.9-1.6c1.5,0,2.9,0.6,3.9,1.6l0,0c1,1,1.6,2.4,1.6,3.9V400.4L237.6,400.4L237.6,400.4
						z M234.1,387.9c-0.5-0.5-1.3-0.9-2.1-0.9c-0.8,0-1.5,0.3-2.1,0.9c-0.5,0.5-0.9,1.3-0.9,2.1c0,0.8,0.3,1.5,0.9,2.1l0,0
						c0.5,0.5,1.3,0.9,2.1,0.9c0.8,0,1.5-0.3,2-0.8l0,0c0.5-0.5,0.9-1.3,0.9-2.1C234.9,389.2,234.6,388.5,234.1,387.9z"/>
					<path class="st1" d="M275,391.5c0.4,0.1,0.7,0.3,1,0.5c0.3,0.2,0.6,0.4,0.9,0.6l1.1-0.7l0.1,0c0.2-0.1,0.4-0.1,0.6-0.1
						c0.2,0.1,0.4,0.2,0.5,0.4l1,1.8c0.1,0.2,0.1,0.4,0.1,0.6c-0.1,0.2-0.2,0.4-0.4,0.5l-1.1,0.7c0,0.1,0,0.2,0.1,0.3
						c0,0.3,0.1,0.5,0.1,0.8c0,0.3,0,0.5-0.1,0.8c0,0.1,0,0.2-0.1,0.3l1.1,0.7c0.2,0.1,0.3,0.3,0.4,0.5c0.1,0.2,0,0.4-0.1,0.6
						l-1,1.8c-0.1,0.2-0.3,0.3-0.5,0.4c-0.2,0.1-0.4,0-0.6-0.1l-1.1-0.7c-0.3,0.2-0.6,0.5-0.9,0.6c-0.3,0.2-0.7,0.3-1,0.5v1.3
						c0,0.2-0.1,0.4-0.2,0.6c-0.2,0.2-0.4,0.3-0.6,0.3h-2.1c-0.2,0-0.4-0.1-0.6-0.2l0-0.1c-0.1-0.1-0.2-0.3-0.2-0.5v-1.3
						c-0.4-0.1-0.7-0.3-1-0.5c-0.3-0.2-0.6-0.4-0.9-0.6l-1.1,0.7l-0.1,0c-0.2,0.1-0.4,0.1-0.6,0.1c-0.2-0.1-0.4-0.2-0.5-0.4l-1-1.8
						c-0.1-0.2-0.1-0.4-0.1-0.6c0.1-0.2,0.2-0.4,0.4-0.5l1.1-0.7c0-0.1,0-0.2-0.1-0.3c0-0.3-0.1-0.5-0.1-0.8c0-0.3,0-0.5,0.1-0.8
						c0-0.1,0-0.2,0.1-0.3l-1.1-0.7c-0.2-0.1-0.3-0.3-0.4-0.5c-0.1-0.2,0-0.4,0.1-0.6l1-1.8c0.1-0.2,0.3-0.3,0.5-0.4
						c0.2-0.1,0.4,0,0.6,0.1l1.1,0.7c0.3-0.2,0.6-0.5,0.9-0.6c0.3-0.2,0.7-0.3,1-0.5v-1.3c0-0.2,0.1-0.4,0.2-0.6
						c0.2-0.2,0.4-0.3,0.6-0.3h2.1c0.2,0,0.4,0.1,0.6,0.2l0,0.1c0.1,0.1,0.2,0.3,0.2,0.5V391.5L275,391.5z M275.5,392.9
						c-0.3-0.2-0.7-0.4-1.1-0.5c-0.3-0.1-0.4-0.3-0.4-0.5v-1.5h-1.6v1.5c0,0.2-0.2,0.5-0.4,0.5c-0.4,0.1-0.8,0.3-1.1,0.5
						c-0.4,0.2-0.7,0.5-1,0.7c-0.2,0.2-0.5,0.2-0.7,0.1l-1.3-0.7l-0.8,1.4l1.2,0.7c0.2,0.1,0.4,0.4,0.3,0.6
						c-0.1,0.2-0.1,0.4-0.1,0.6c0,0.2,0,0.4,0,0.6c0,0.2,0,0.4,0,0.6c0,0.2,0.1,0.4,0.1,0.6l0,0c0.1,0.2,0,0.5-0.3,0.6l-1.3,0.7
						l0.8,1.4l1.3-0.7c0.2-0.1,0.5-0.1,0.7,0.1c0.3,0.3,0.6,0.6,1,0.8c0.3,0.2,0.7,0.4,1.1,0.5c0.3,0.1,0.4,0.3,0.4,0.5v1.5h1.6V402
						c0-0.2,0.2-0.5,0.4-0.5c0.4-0.1,0.8-0.3,1.1-0.5c0.4-0.2,0.7-0.5,1-0.7c0.2-0.2,0.5-0.2,0.7-0.1l1.3,0.7l0.8-1.4l-1.2-0.7
						c-0.2-0.1-0.4-0.4-0.3-0.6c0.1-0.2,0.1-0.4,0.1-0.6c0-0.2,0-0.4,0-0.6c0-0.2,0-0.4,0-0.6c0-0.2-0.1-0.4-0.1-0.6l0,0
						c-0.1-0.2,0-0.5,0.3-0.6l1.3-0.7l-0.8-1.4l-1.3,0.7c-0.2,0.1-0.5,0.1-0.7-0.1C276.2,393.3,275.8,393.1,275.5,392.9L275.5,392.9
						z M273.1,394c-0.8,0-1.5,0.3-2.1,0.8l0,0c-0.5,0.5-0.9,1.3-0.9,2.1c0,0.8,0.3,1.6,0.9,2.1l0,0c0.5,0.5,1.3,0.9,2.1,0.9
						c0.8,0,1.6-0.3,2.1-0.9c0.5-0.5,0.9-1.3,0.9-2.1c0-0.8-0.3-1.6-0.9-2.1C274.7,394.3,273.9,394,273.1,394L273.1,394z
						 M274.4,395.6c-0.3-0.3-0.8-0.5-1.3-0.5c-0.5,0-1,0.2-1.3,0.5l0,0c-0.3,0.3-0.5,0.8-0.5,1.3c0,0.5,0.2,1,0.5,1.3l0,0
						c0.3,0.3,0.8,0.5,1.3,0.5c0.5,0,1-0.2,1.3-0.5c0.3-0.3,0.5-0.8,0.5-1.3C275,396.4,274.8,396,274.4,395.6z"/>
					<path class="st1" d="M318.3,395.1c1,1,1.4,2.2,1.4,3.5c0,1.3-0.5,2.5-1.4,3.5l0,0c-1,0.9-2.2,1.4-3.4,1.4
						c-1.1,0-2.2-0.4-3.1-1.1l-2,2c-0.2,0.2-0.6,0.2-0.8,0c-0.2-0.2-0.2-0.6,0-0.8l2-2c-0.7-0.9-1.1-2-1.1-3.1
						c0-1.3,0.5-2.5,1.4-3.5c1-1,2.2-1.4,3.5-1.4S317.3,394.1,318.3,395.1L318.3,395.1L318.3,395.1z M312.1,401.2L312.1,401.2
						L312.1,401.2c0.8,0.8,1.7,1.1,2.7,1.1c1,0,1.9-0.4,2.7-1.1l0,0c0.7-0.7,1.1-1.7,1.1-2.7c0-1-0.4-1.9-1.1-2.7
						c-0.7-0.7-1.7-1.1-2.7-1.1c-1,0-1.9,0.4-2.7,1.1c-0.7,0.7-1.1,1.7-1.1,2.7C311,399.5,311.4,400.5,312.1,401.2z"/>
				</g>
				<circle class="st8" cx="198.1" cy="391.2" r="2.9"/>
				<path class="st7" d="M197.8,392.6h0.6v-2.2c0.2,0.2,0.5,0.3,0.7,0.4v-0.5c-0.1,0-0.3-0.1-0.5-0.3c-0.2-0.1-0.3-0.3-0.4-0.5h-0.5
					V392.6z"/>
				<g>
					<path class="st1" d="M322.3,105.2c0.3,0,0.5-0.2,0.5-0.5c0-0.3-0.2-0.5-0.5-0.5h-10.7c-0.3,0-0.5,0.2-0.5,0.5
						c0,0.3,0.2,0.5,0.5,0.5H322.3L322.3,105.2z M322.3,112.3c0.3,0,0.5-0.2,0.5-0.5s-0.2-0.5-0.5-0.5h-10.7c-0.3,0-0.5,0.2-0.5,0.5
						s0.2,0.5,0.5,0.5H322.3L322.3,112.3z M322.3,108.7c0.3,0,0.5-0.2,0.5-0.5c0-0.3-0.2-0.5-0.5-0.5h-10.7c-0.3,0-0.5,0.2-0.5,0.5
						c0,0.3,0.2,0.5,0.5,0.5H322.3z"/>
					<path class="st1" d="M180.6,105.2L180.6,105.2L180.6,105.2z M193.5,105.7h-6.3v5.1h6.3c0.1,0,0.3-0.1,0.4-0.1
						c0.1-0.1,0.1-0.2,0.1-0.4v-4.1c0-0.1-0.1-0.3-0.1-0.4C193.8,105.8,193.7,105.7,193.5,105.7L193.5,105.7z M181.7,104.7h11.9
						c0.4,0,0.8,0.2,1.1,0.4c0.3,0.3,0.4,0.6,0.4,1.1v4.1c0,0.4-0.2,0.8-0.4,1.1c-0.3,0.3-0.6,0.4-1.1,0.4h-11.9
						c-0.4,0-0.8-0.2-1-0.4l0,0c-0.3-0.3-0.4-0.6-0.4-1.1v-4.1c0-0.4,0.2-0.8,0.4-1.1C180.9,104.9,181.3,104.7,181.7,104.7z"/>
				</g>
			</g>
		</g>
		<g>
			<path class="st2" d="M152.2,357.8c14.7,0,26.7-12,26.7-26.7c0-14.7-12-26.7-26.7-26.7c-14.7,0-26.7,12-26.7,26.7
				C125.6,345.8,137.5,357.8,152.2,357.8z"/>
			<g>
				<path class="st7" d="M149.6,353.7c14,0,25.4-11.4,25.4-25.4c0-14-11.4-25.4-25.4-25.4c-14,0-25.4,11.4-25.4,25.4
					C124.1,342.2,135.6,353.7,149.6,353.7z"/>
				<path class="st9" d="M136.5,318.1L136.5,318.1c3.4-3.4,8.9-3.4,12.2,0l0.8,0.8l0.8-0.8c3.4-3.4,8.9-3.4,12.2,0l0,0
					c3.4,3.4,3.4,8.9,0,12.2l-0.8,0.8l-12.2,12.2l-12.2-12.2l-0.8-0.8C133.2,327,133.2,321.5,136.5,318.1z"/>
			</g>
		</g>
		<path class="st0" d="M325.2,336.2c13.3,0,24.2-10.9,24.2-24.2c0-13.3-10.9-24.2-24.2-24.2S301,298.7,301,312
			C301,325.4,311.9,336.2,325.2,336.2z"/>
		<g>
			<path class="st10" d="M371.5,125.6c13.3,0,24.2-10.9,24.2-24.2c0-13.4-10.9-24.2-24.2-24.2s-24.2,10.9-24.2,24.2
				C347.2,114.7,358.1,125.6,371.5,125.6z"/>
			<path class="st11" d="M358.7,94c0,0.8-0.6,1.4-1.4,1.4c-0.8,0-1.4-0.6-1.4-1.4c0-1.5,0.6-2.9,1.7-4l0,0c1.1-1,2.4-1.6,3.9-1.6
				c1.5,0,2.9,0.6,4,1.6c1.1,1.1,1.6,2.5,1.6,4c0,0.8-0.6,1.4-1.4,1.4c-0.8,0-1.4-0.6-1.4-1.4c0-0.7-0.3-1.5-0.8-2
				c-0.5-0.5-1.2-0.8-2-0.8c-0.7,0-1.4,0.3-1.9,0.8l0,0.1C359,92.6,358.7,93.3,358.7,94L358.7,94z M376,106.9
				C376,106.9,376,106.9,376,106.9L376,106.9c1,1,1.5,2.2,1.5,3.5c0,1.3-0.5,2.5-1.4,3.4l-0.1,0.1c-0.9,0.9-2.2,1.4-3.5,1.4
				c-0.7,0-1.4-0.2-2.1-0.5c-0.7-0.3-1.2-0.8-1.7-1.3c-0.5-0.6-0.4-1.5,0.2-2c0.6-0.5,1.5-0.4,2,0.2c0.2,0.2,0.5,0.4,0.7,0.6
				c0.3,0.1,0.6,0.2,0.9,0.2c0.6,0,1.1-0.2,1.5-0.6l0,0c0.4-0.4,0.6-0.9,0.6-1.5c0-0.6-0.2-1.1-0.6-1.5l0,0
				c-0.4-0.4-0.9-0.6-1.5-0.6c-0.8,0-1.4-0.6-1.4-1.4c0-0.8,0.6-1.4,1.4-1.4c0.6,0,1.1-0.2,1.5-0.6c0.4-0.4,0.6-0.9,0.6-1.5
				c0-0.6-0.2-1.1-0.6-1.5l0,0c-0.4-0.4-0.9-0.6-1.5-0.6c-0.3,0-0.6,0.1-0.9,0.2c-0.3,0.1-0.5,0.3-0.7,0.6c-0.5,0.6-1.4,0.7-2,0.2
				c-0.6-0.5-0.7-1.4-0.2-2c0.5-0.6,1-1,1.7-1.3c0.7-0.3,1.4-0.5,2.1-0.5c1.3,0,2.6,0.5,3.5,1.5l0,0c0.9,0.9,1.4,2.2,1.4,3.5
				C377.5,104.7,377,105.9,376,106.9C376,106.8,376,106.9,376,106.9L376,106.9z M382.4,94c0-0.7-0.3-1.5-0.8-2
				c-0.5-0.5-1.2-0.8-2-0.8c-0.7,0-1.4,0.3-1.9,0.8l0,0.1c-0.5,0.5-0.8,1.2-0.8,2c0,0.8-0.6,1.4-1.4,1.4c-0.8,0-1.4-0.6-1.4-1.4
				c0-1.5,0.6-2.9,1.7-4l0,0c1.1-1,2.4-1.6,3.9-1.6c1.5,0,2.9,0.6,4,1.6c1.1,1.1,1.6,2.5,1.6,4c0,0.8-0.6,1.4-1.4,1.4
				C383,95.4,382.4,94.8,382.4,94z"/>
			<path class="st12" d="M380.7,102.7L380.7,102.7c1.4-1.4,3.8-1.4,5.3,0l0.4,0.4l0.4-0.4c1.4-1.4,3.8-1.4,5.3,0l0,0
				c1.4,1.4,1.4,3.8,0,5.3l-0.4,0.4l-5.3,5.3l-5.3-5.3l-0.4-0.4C379.2,106.5,379.2,104.2,380.7,102.7z"/>
		</g>
		<path class="st0" d="M369.1,205.7c1.9,0,3.4-1.5,3.4-3.4c0-1.9-1.5-3.4-3.4-3.4c-1.9,0-3.4,1.5-3.4,3.4
			C365.7,204.2,367.2,205.7,369.1,205.7z"/>
		<g>
			<path class="st0" d="M194,362.1c0,6.2,5,11.2,11.2,11.2h128.2v3.9v2.6h-135c-6.2,0-11.2-5-11.2-11.2v-211v-7.4
				c0-4.9,3.2-9.1,7.6-10.6c-0.5,1.3-0.8,2.7-0.8,4.2v12.4v18.6V362.1z"/>
			<g>
				<path class="st7" d="M382.7,132.4H205.1c-6.2,0-11.2,5-11.2,11.2v218.5c0,6.2,5,11.2,11.2,11.2h177.6c6.2,0,11.2-5,11.2-11.2
					V143.6C393.9,137.5,388.9,132.4,382.7,132.4z"/>
				<path class="st1" d="M382.7,132.4H205.1c-6.2,0-11.2,5-11.2,11.2v31.1h199.9v-31.1C393.9,137.5,388.9,132.4,382.7,132.4z"/>
				<path class="st13" d="M379,187.2H208.9c-1.4,0-2.6,1.2-2.6,2.6v117.6c0,1.4,1.2,2.6,2.6,2.6H379c1.4,0,2.6-1.2,2.6-2.6V189.9
					C381.6,188.4,380.4,187.2,379,187.2z"/>
				<path class="st14" d="M357.7,362.1c8.3,0,15.1-6.8,15.1-15.1s-6.8-15.1-15.1-15.1c-8.3,0-15.1,6.8-15.1,15.1
					S349.4,362.1,357.7,362.1z"/>
				<path class="st7" d="M357.7,336.5c1.6,0,3.1,0.7,4.1,1.7c1.1,1.1,1.7,2.5,1.7,4.1c0,1.6-0.7,3.1-1.7,4.1l0,0
					c-1.1,1-2.5,1.7-4.1,1.7c-1.6,0-3.1-0.7-4.1-1.7l0,0c-1.1-1.1-1.7-2.5-1.7-4.1c0-1.6,0.7-3.1,1.7-4.1
					C354.6,337.2,356.1,336.5,357.7,336.5L357.7,336.5z M349.6,357.5c2.3,1.7,5.1,2.8,8.1,2.8c3.1,0,5.9-1,8.1-2.8v0v0V357
					c0-2.2-0.9-4.2-2.3-5.7l0,0c-1.5-1.5-3.5-2.4-5.8-2.4s-4.3,0.9-5.8,2.4c-1.5,1.5-2.4,3.5-2.4,5.7L349.6,357.5L349.6,357.5
					L349.6,357.5z"/>
				<g>
					<path class="st14" d="M332.6,333H216.1c-0.6,0-1.1,0.5-1.1,1.1v1.2c0,0.6,0.5,1.1,1.1,1.1h116.5c0.6,0,1.1-0.5,1.1-1.1V334
						C333.7,333.4,333.2,333,332.6,333z"/>
					<path class="st14" d="M332.6,344h-76.4c-0.6,0-1.1,0.5-1.1,1.1v1.2c0,0.6,0.5,1.1,1.1,1.1h76.4c0.6,0,1.1-0.5,1.1-1.1V345
						C333.7,344.4,333.2,344,332.6,344z"/>
					<path class="st14" d="M246.6,344h-9.5c-0.6,0-1.1,0.5-1.1,1.1v1.2c0,0.6,0.5,1.1,1.1,1.1h9.5c0.6,0,1.1-0.5,1.1-1.1V345
						C247.7,344.4,247.2,344,246.6,344z"/>
					<path class="st14" d="M273.8,355.5h39.6c0.6,0,1.1,0.5,1.1,1.1v1.2c0,0.6-0.5,1.1-1.1,1.1h-39.6c-0.6,0-1.1-0.5-1.1-1.1v-1.2
						C272.8,356,273.2,355.5,273.8,355.5z"/>
					<path class="st14" d="M323.1,355.5h9.5c0.6,0,1.1,0.5,1.1,1.1v1.2c0,0.6-0.5,1.1-1.1,1.1h-9.5c-0.6,0-1.1-0.5-1.1-1.1v-1.2
						C322,356,322.5,355.5,323.1,355.5z"/>
				</g>
				<path class="st15" d="M335.7,187.2v122.9h-5v-37L311.9,292l18.1,18.1h-4.7l-15.8-15.8l-15.8,15.8H289l18.1-18.1l-18.9-18.9v37
					h-5V187.2h5v28.7l18.9-18.9l-9.8-9.8h4.7l7.4,7.4l7.4-7.4h4.7l-9.8,9.8l18.9,18.9v-28.7H335.7L335.7,187.2z M288.2,263.4
					l18.9-18.9l-18.9-18.9V263.4L288.2,263.4z M330.8,225.6l-18.9,18.9l18.9,18.9V225.6L330.8,225.6z M288.2,220.6v0.3l21.3,21.3
					l21.3-21.3v-0.3l-21.3-21.3L288.2,220.6L288.2,220.6z M288.2,268.1v0.3l21.3,21.3l21.3-21.3v-0.3l-21.3-21.3L288.2,268.1z"/>
				<path class="st9" d="M303.4,268.2l4.6-1.5c0,0,31.3,12,34.9,14.8c3.6,2.8,4.5,3.8,8.2,9.2c3.1,4.5,9.8,17,11.9,21H217.5h-4.9
					c16.1-17.3,32.8-44.2,58-44.7c8-0.2,16.2,0.1,16.2,0.1L303.4,268.2z"/>
				<path class="st16" d="M335.2,311.7h-5.7c2.4-6.5,3.8-17.6,3.8-9C333.3,307,334.2,309.8,335.2,311.7L335.2,311.7z M251.9,311.7
					h-29.1c-0.8-6.7,0.4-13.3,9.2-7.2c15.1,10.6,29-22.7,26.8-13.7C257.6,296.2,254.3,305.3,251.9,311.7z"/>
				<path class="st7" d="M319.3,271.1c-1.6,9-8.5,16.1-18.4,17.2c-0.3,0-0.7,0.1-1,0.1c-0.3,0.1-0.7,0.1-1,0.1
					c-12.2,1.4-22-7.2-23.4-19.2l-0.3-2.4c6.2,0,11.5,0.1,11.5,0.1l16.6,1.1l4.6-1.5C308,266.7,313,268.6,319.3,271.1z"/>
				<path class="st5" d="M328.2,230.7c0,0-0.1,3.3,2.6,6.7c2.7,3.3,1.1,8.8-0.1,11.3c-1.2,2.5-6.6,3.6-6.6,3.6s0,5.5-4.7,9.2
					c-4.7,3.8-12.9,1.3-12.9,1.3l-18.2,2c0,0-4.6,0.5-7.5,0.8c-3,0.3-8.8-2.7-11-4c-2.2-1.4-2.7-7.1-2.7-7.1s-8-1.7-9.6-5.4
					c-1.6-3.7,2.4-12.3,1.7-18.3L328.2,230.7z"/>
				<g>
					<path class="st17" d="M322.5,216.2c0.2,0,0.4,0,0.6,0l0,0l0,0c3.8,0.4,7.1,3.3,7.6,7.3c0.6,4.6-2.7,8.9-7.3,9.5
						c-4.6,0.6-8.9-2.7-9.5-7.3c-0.4-2.7,0.6-5.3,2.4-7.1c0.1,2.5,0.8,5.5,4,5.5l-0.6-4.8C319.4,217.4,321.1,216.3,322.5,216.2z"/>
					<path class="st17" d="M261.7,223c-0.2,0.1-0.4,0.1-0.6,0.2l0,0l0,0c-3.7,1.2-6.2,4.8-5.8,8.8c0.4,4.7,4.6,8.1,9.2,7.7
						c4.7-0.4,8.1-4.6,7.7-9.2c-0.3-2.7-1.8-5-3.9-6.4c0.5,2.5,0.4,5.6-2.7,6.3l-0.5-4.9C264.9,223.5,263,222.8,261.7,223z"/>
				</g>
				<path class="st17" d="M308.2,254.7c0.5,4.4,1,9.2,1.4,12.3c0.8,6.8-3.4,12.1-9.8,12.8c-0.3,0-0.6,0.1-0.9,0.1
					c-0.3,0.1-0.6,0.1-0.9,0.1c-6.4,0.7-11.6-3.5-12.4-10.3c-0.3-3.1-0.9-7.9-1.4-12.3c1.9-2.4,6.5-6,11.2-7.9
					C300.5,250.3,305.8,252.8,308.2,254.7z"/>
				<path class="st18" d="M287.5,178.7c15.9-1.8,30.3,9.7,32.1,25.6l2.4,21.1l0.6,5.1c0.2,2.2,0.2,4.3,0,6.4
					c-7.6,30.1-42.2,34-56.3,6.3c-0.7-2-1.2-4.1-1.4-6.3l-0.6-5.1l-2.4-21.1C260.1,194.9,271.6,180.5,287.5,178.7z"/>
				<path class="st19" d="M301.3,180.5c9.7,3.8,17,12.8,18.3,23.8l1,8.6l-6.8-1.2c0,0-5.2-6.1-14.3-2.9c-9.1,3.2-22.1,7.3-25.6,8.6
					c-3.5,1.3-6.7,6-4.4,14.9c2.3,8.9,6,28.9,27.4,29.4c-11.4,1.3-23.5-4.7-30.6-18.5c-0.7-2-1.2-4.1-1.4-6.3l-0.6-5.1l-2.4-21.1
					c-1-9.2,2.4-18,8.6-24c2.6-1.2,4.9-2.2,6.6-2.6C282.2,182.8,292.9,181.4,301.3,180.5z"/>
				<g>
					<path class="st7" d="M301.8,239.6c0.6,4.1-2.2,7.9-6.3,8.6c-4.1,0.6-7.9-2.2-8.6-6.3l0,0c-0.1-0.7,0.4-1.4,1.1-1.5l12.3-1.9
						C301,238.4,301.7,238.9,301.8,239.6L301.8,239.6z"/>
					<path class="st7" d="M299.9,245.8c-1.1,1.2-2.6,2.1-4.4,2.4c-1.4,0.2-2.8,0-4.1-0.5c0.3-1.6,1.8-3,3.8-3.4
						C297.2,243.9,299,244.5,299.9,245.8z"/>
					<path class="st7" d="M287.9,240.4l11.5-1.8c0.4,1.2,0,2.6-0.8,3c-1,0.5-9.4,1.6-10.1,1C288.2,242.4,288,241.4,287.9,240.4z"/>
				</g>
				<g>
					<path class="st17" d="M277.3,235.8c2.1-0.3,4,1.2,4.3,3.3c0.3,2.1-1.2,4-3.3,4.3c-2.1,0.3-4-1.2-4.3-3.3
						C273.8,238,275.2,236.1,277.3,235.8z"/>
					<path class="st17" d="M309.9,231.5c2.1-0.3,4,1.2,4.3,3.3c0.3,2.1-1.2,4-3.3,4.3c-2.1,0.3-4-1.2-4.3-3.3
						C306.3,233.7,307.8,231.8,309.9,231.5z"/>
				</g>
				<path class="st5" d="M310,218c0.5,0.2,1.2-0.1,1.4-0.6c0.2-0.5-0.1-1.2-0.6-1.4c-2.9-1.1-6.5-0.9-9,1c-0.5,0.4-0.6,1-0.2,1.5
					c0.4,0.5,1,0.6,1.5,0.2C305,217.2,307.7,217.2,310,218z"/>
				<path class="st5" d="M275.1,231.4c-0.1-0.7,0.1-1.4,0.6-2c0.4-0.6,1.1-0.9,1.8-1c0.7-0.1,1.4,0.1,2,0.6c0.6,0.4,0.9,1.1,1,1.8
					c0.1,0.6,0.6,1,1.2,0.9c0.6-0.1,1-0.6,0.9-1.2c-0.1-1.3-0.8-2.4-1.8-3.2c-1-0.8-2.3-1.2-3.5-1c-1.3,0.1-2.4,0.8-3.2,1.8
					c-0.4,0.5-0.7,1.1-0.9,1.7c-0.1,0-0.4,0.1-0.7-0.1c-0.1-0.1-0.3,0-0.4,0.1c-0.1,0.1,0,0.3,0.1,0.4c0.3,0.2,0.6,0.2,0.8,0.2l0,0
					c-0.2,0.1-0.6,0.1-0.9,0c-0.2-0.1-0.3,0-0.4,0.2c-0.1,0.2,0,0.3,0.2,0.4c0.4,0.1,0.8,0.1,1.1,0.1v0c-0.3,0.1-0.6,0.2-0.9,0.2
					c-0.2,0-0.3,0.1-0.3,0.3c0,0.2,0.1,0.3,0.3,0.3c0.4,0,0.7-0.1,1-0.2c0.1,0.5,0.6,0.9,1.1,0.8C274.8,232.5,275.2,232,275.1,231.4
					z"/>
				<path class="st5" d="M273.2,222.1c2.1-1.3,4.7-1.9,7-0.8c0.5,0.2,1.2,0,1.4-0.5c0.2-0.5,0-1.2-0.5-1.4c-2.9-1.3-6.5-0.7-9,1
					c-0.5,0.3-0.6,1-0.3,1.5C272,222.3,272.7,222.4,273.2,222.1z"/>
				<path class="st5" d="M321.8,224.2c-1.4,0.2-3.3-1.7-3.5-3.4c-0.2-1.8-0.4-3.7-0.4-3.7l3.8-2.9l3.5,2.5
					C321,216.7,321.4,220.6,321.8,224.2L321.8,224.2z M266.3,222.9c0,0,0.2,1.9,0.4,3.7c0.2,1.8-1.2,4-2.6,4.1
					c-0.3-2.3-0.5-7.7-4.1-7.1l4.3-2.4L266.3,222.9z"/>
				<path class="st5" d="M310.1,227.5c-0.1-0.7-0.4-1.3-1-1.8c-0.6-0.4-1.3-0.6-2-0.6c-0.7,0.1-1.3,0.4-1.8,1
					c-0.4,0.6-0.6,1.3-0.6,2c0.1,0.6-0.4,1.1-0.9,1.2c-0.6,0.1-1.1-0.4-1.2-0.9c-0.1-1.3,0.2-2.5,1-3.5c0.8-1,1.9-1.6,3.2-1.8
					c1.3-0.1,2.5,0.2,3.5,1c0.5,0.4,0.9,0.9,1.2,1.5c0.1,0,0.4,0,0.6-0.2c0.1-0.1,0.3-0.1,0.4,0c0.1,0.1,0.1,0.3,0,0.4
					c-0.2,0.2-0.5,0.3-0.8,0.4l0,0c0.3,0,0.6,0,0.9-0.2c0.1-0.1,0.3,0,0.4,0.1c0.1,0.1,0,0.3-0.1,0.4c-0.4,0.2-0.7,0.3-1.1,0.3l0,0
					c0.3,0.1,0.6,0.1,1,0c0.2,0,0.3,0.1,0.4,0.2c0,0.2-0.1,0.3-0.2,0.4c-0.4,0.1-0.7,0.1-1,0c0,0.5-0.4,1-0.9,1
					C310.7,228.5,310.2,228,310.1,227.5z"/>
				<path class="st20" d="M310.1,179.7c17.2-2.6,20,13.4,15.7,37.3c-3.1-1.3-5.5-0.5-7.9,0.2c0,0-9.7-6.3-14-18.1
					c0,0-9.2,8.9-19.1,11.6c-9.9,2.7-19.3,5.4-18.5,12.3c-2.5,0.5-6-0.5-8.8,2.6c0,0-9.5-20.6-9.8-27.2
					C246.4,172.4,294.6,151.2,310.1,179.7z"/>
				<path class="st6" d="M247.7,195.5c0.1-1.3,0.3-2.5,0.7-3.7c10.7,2.7,40.1,6.9,45.6-24.8c4.7,1.2,9,3.6,12.4,7.4
					c-2.7,7.7-8.4,16.8-20.4,22.7C269.9,205,255.6,199.9,247.7,195.5z"/>
				<path class="st5" d="M327.6,198.7c0.1,5.3-0.5,11.5-1.8,18.3c-3.1-1.3-5.5-0.5-7.9,0.2c0,0-9.7-6.3-14-18.1
					c0,0-9.2,8.9-19.1,11.6c-9.9,2.7-19.3,5.4-18.5,12.3c-2.5,0.5-6-0.5-8.8,2.6c0,0-5.8-12.5-8.5-21.2
					c39.1,10.8,56.2-11.5,56.2-11.5C313.8,202.9,322,201.7,327.6,198.7z"/>
				<g>
					<path class="st18" d="M235.5,311.7c-0.5-0.4-1-0.8-1.1-1.2c-0.4-0.9-2.4-51.6-2.4-52.1c0.1-0.5-0.5-0.9-0.5-0.9
						s-9.9,0.9-13.6-1.8c0,0-1.1,0.5-1.2,0.8c-0.1,0.3-2,30.7-4.1,55.3H235.5z"/>
					<path class="st19" d="M235.5,311.7c-0.5-0.4-1-0.8-1.1-1.2c-0.4-0.9-2.4-51.6-2.4-52.1c0.1-0.5-0.5-0.9-0.5-0.9
						s-9.9,0.9-13.6-1.8c0,0-1.1,0.5-1.2,0.8c0,0.1-0.1,1.7-0.3,4.4c1.3-0.4,2.9-0.6,4.7-0.2c4.3,1.1,5.9,4.8,6.6,11.3
						c0.5,5.6,3.5,31.6,4.6,39.7H235.5z"/>
					<path class="st18" d="M241.2,245.9c2.2-4.5,5.7-7.1,7.1-7.9c1.8-1.1-3.8-7-8.4-0.7c0,0-3.1,2-4.3,0.9
						c-1.1-1.2,2.4-22.5,2.8-24.9c0.4-2.3-2.2-3.2-3.1-2.8c-0.9,0.4-1.4,3.8-2.4,8.1c-1,4.3-2.1,9-2.6,9.3c-0.5,0.3-1.4,0.1-1.8-2.5
						c-0.4-2.5-2-16.6-2.9-17.5s-3.3-0.3-3.7,1.8c-0.4,2.1,1.6,15.3,1.5,17.9l0.1,2.9c0,0-4.2-0.3-5.3,4.2c0,0-4.6-0.5-5.1,4
						c-0.5,4.4-0.5,13.9,3.3,17.5c3.5,3.1,9,4.5,13.8,3.4C237.8,258.1,238.2,252.1,241.2,245.9z"/>
					<path class="st19" d="M213.3,248.5c0.5,3.2,1.4,6.2,3.2,7.9c3.5,3.1,9,4.5,13.8,3.4c5.9-1.4,7.4-5.4,9.2-10L213.3,248.5z
						 M213.3,248.5l26.2,1.4c-3.1,6.4-12.6,6.8-14.6,1.5c-2-5.3,2.8-6.2,2.8-6.2c2.4,0.8,5.8,0.2,6.3-0.6c0.5-0.8-0.4-0.9-0.4-0.9
						c-3.7,0.7-7.3-3.7-7.8-5.2c-0.5-1.4-1.1-0.2-1.1-0.2l-1.1,7.6c-1.3,4.8-5.6,2.4-5.6,2.4C216.1,251.2,213.3,248.5,213.3,248.5z"
						/>
				</g>
				<path class="st18" d="M360.7,311.7c0,0-2.2-35.7-2.5-36.5c-0.3-0.8-4.4-8.4-4.9-10.1c-0.3-1.1,0.3-7.1,0.6-12l13.1,7.9l7.5-3.2
					c-0.1,2.7-0.2,6.4-0.3,8.1c-0.1,2.9-2,7.4-2.2,8.6c-0.2,1.1,4.9,37.3,4.9,37.3H360.7z"/>
				<path class="st19" d="M353.3,262.2c0.1-2.5,0.4-6.1,0.6-9.2l13.1,7.9l7.5-3.2c-0.1,2.7-0.2,6.4-0.3,8.1c-0.1,2.9-2,7.4-2.2,8.6
					c-0.2,1.1,4.9,37.3,4.9,37.3h-6.7c-1.6-18.8-1.6-32.2-2.8-34.7c-0.3-0.6-0.8-1.1-0.6-1.6c0.2-0.5,1.4-2.1,0.9-3
					c-0.5-0.9-11.2-10.9-12.3-11.2C355.1,261,354.1,261.6,353.3,262.2z"/>
				<path class="st20" d="M350.6,245.6l-3.8,3.8c-0.8,0.8-0.8,2.1,0,2.9l20,20c0.8,0.8,2.1,0.8,2.9,0l3.8-3.8c0.8-0.8,0.8-2.1,0-2.9
					l-20-20C352.6,244.9,351.3,244.9,350.6,245.6z"/>
				<path class="st5" d="M370.2,271.7l3.2-3.2c0.8-0.8,0.8-2.1,0-2.9L358,250.2l-3.2,3.2c-0.8,0.8-0.8,2.1,0,2.9L370.2,271.7z"/>
				<path class="st7" d="M330.8,240.9c0,0.5,0.4,0.9,0.9,0.7c0.2-0.1,0.3-0.2,0.4-0.4c0.2-0.3,0.4-0.5,0.6-0.8
					c0.5-0.6,0.9-1.2,1.4-1.8c1.3-1.8,2.7-3.5,4-5.3c2-2.7,4-5.3,6.1-8c0.2-0.2,0.2-0.4,0.1-0.7c-0.1-0.2-0.3-0.4-0.5-0.4l-3.5-0.6
					c-0.3,0-0.5,0-0.7,0.2l-10.3,12c-0.2,0.2-0.2,0.5-0.1,0.7c0.3,0.8,0.6,1.5,0.9,2.3c0.2,0.5,0.3,0.9,0.5,1.4
					C330.6,240.4,330.7,240.7,330.8,240.9z"/>
				<path class="st21" d="M341.7,228.5c0.8-1.1,1.6-2.2,2.5-3.2c0.2-0.2,0.2-0.4,0.1-0.7c-0.1-0.2-0.3-0.4-0.5-0.4l-3.5-0.6
					c-0.3,0-0.5,0-0.7,0.2l-2.9,3.4c-0.2,0.2-0.2,0.4-0.1,0.7l1.2,3.4c0.1,0.2,0.3,0.4,0.5,0.5c0.2,0.1,0.5,0,0.7-0.2
					C339.8,230.4,340.7,229.4,341.7,228.5z"/>
				<path class="st22" d="M326.6,249.3c-0.8,0.8,1,3.8,4,6.8c3,3,6.1,4.8,6.8,4l13.3-11.6l-6.3-6.3l-6.3-6.3L326.6,249.3z"/>
				<path class="st23" d="M332.3,257.7c2.4,2.1,4.6,3.1,5.2,2.5l5.5-4.8c-1.7-1.9-3.7-3.8-3.7-3.8l-4.7-1.2
					C334.7,250.4,336.7,252.7,332.3,257.7z"/>
				<path class="st7" d="M328.4,242.5c-1.1,1.1,1.5,5.6,5.9,10c4.4,4.4,8.9,7,10,5.9l19.5-17l-9.2-9.2l-9.2-9.2L328.4,242.5z"/>
				<path class="st21" d="M336.3,254.4c3.7,3.3,7.1,5,8.1,4.1l19.5-17l-4-4l-14.7,14.7C342.5,254.8,339.2,255.2,336.3,254.4z"/>
				<path class="st22" d="M345.4,223c0,0,11.3-13.2,16.8-43l24.3,20.3l20.3,24.3c-29.9,5.6-43,16.8-43,16.8
					c-1.1,1.1-6.2-2.1-11.3-7.1C347.5,229.2,344.3,224.1,345.4,223z"/>
				<path class="st23" d="M384.6,198.6l1.9,1.6l20.3,24.3c-29.9,5.6-43,16.8-43,16.8c-0.7,0.7-2.9-0.2-5.7-2.3l18.2-18.2
					c9.3-9.3-0.6-25.2-0.6-25.2S379.4,196.8,384.6,198.6z"/>
				<path class="st7" d="M363.3,177.8c-4,4,3.1,17.4,15.7,30.1c12.6,12.6,26.1,19.7,30.1,15.7c4-4-3.1-17.4-15.7-30.1
					C380.7,180.8,367.3,173.8,363.3,177.8z"/>
				<path class="st6" d="M366,179.7c-3.1,3.1,3.5,14.9,14.9,26.2c11.3,11.3,23.1,18,26.2,14.9c3.1-3.1-3.5-14.9-14.9-26.2
					C380.9,183.3,369.1,176.6,366,179.7z"/>
				<path class="st5" d="M365.2,182.6c0.5,5,6.5,14.3,15.6,23.4c9.1,9.1,18.4,15.2,23.4,15.6c-0.5-5-6.5-14.3-15.6-23.4
					C379.5,189.1,370.2,183,365.2,182.6z"/>
				<path class="st7" d="M385.5,210.3l4.7-6.4l-3.7-3.7l-3.7-3.7l-6.4,4.7c1.4,1.6,2.8,3.1,4.4,4.7C382.4,207.5,384,209,385.5,210.3
					z"/>
				<path class="st24" d="M382.8,196.6c-0.6,0.6,0.5,2.8,2.5,4.9c2,2,4.2,3.2,4.9,2.5c0.6-0.6-0.5-2.8-2.5-4.9
					C385.6,197.1,383.5,195.9,382.8,196.6z"/>
				<path class="st18" d="M369.9,256.1c0,0,1.2-0.9,2.1-0.8c0.9,0.2,2.3,1.7,2.6,2.4c0.3,0.7-0.8,5.4-1.6,6.7
					c-0.8,1.3-2.7,2.8-3.4,3.1c-0.7,0.3-1.9-0.5-2-1.7c-0.1-1.2,0-2.4,1.3-3.9C370.1,260.3,369.9,256.1,369.9,256.1z"/>
				<path class="st18" d="M365.9,253.9c0,0,1.2-1,2.3-0.8c1,0.2,2.5,1.8,2.8,2.6c0.4,0.7-0.9,5.9-1.8,7.2c-0.9,1.4-2.9,3-3.7,3.3
					c-0.8,0.3-2-0.6-2.1-1.9c-0.1-1.3,0-2.6,1.4-4.2C366.2,258.4,365.9,253.9,365.9,253.9z"/>
				<path class="st18" d="M361.3,251.4c0,0,1-1.2,2.1-1.2c1,0,2.7,1.3,3.2,2c0.5,0.7,0.2,5.9-0.4,7.4c-0.6,1.5-2.3,3.5-3,4
					c-0.7,0.5-2.1-0.2-2.4-1.5c-0.4-1.3-0.4-2.6,0.6-4.4C362.5,255.8,361.3,251.4,361.3,251.4z"/>
				<path class="st18" d="M356.2,248.4c0,0,1.7-1.3,3-0.9c1.4,0.4,1.9,1.5,2.8,2.6c0.9,1.1,0,4.8-0.4,6c-0.5,1.1-2.5,1.3-3.4,0.4
					c-0.9-0.9-1-2.9-0.8-4.4C357.7,250.6,357.1,249.2,356.2,248.4z"/>
				<path class="st19" d="M361,248.9c0.3,0.4,0.6,0.8,1,1.3c0.9,1.1,0,4.8-0.4,6c-0.4,0.9-1.8,1.2-2.8,0.8c1.2-0.2,1.8-1.1,2-1.6
					c0.2-0.7,0.3-2,0.6-4.3C361.5,250.2,361.3,249.5,361,248.9z"/>
				<path class="st7" d="M254.8,137L254.8,137c-0.8,0-1.5,0.7-1.5,1.5v30.1c0,0.8,0.7,1.5,1.5,1.5l0,0c0.8,0,1.5-0.7,1.5-1.5v-30.1
					C256.2,137.7,255.6,137,254.8,137z"/>
				<path class="st7" d="M219.6,149.6c0.4,0,0.6-0.3,0.6-0.6c0-0.4-0.3-0.6-0.6-0.6h-14.2c-0.4,0-0.6,0.3-0.6,0.6
					c0,0.4,0.3,0.6,0.6,0.6H219.6L219.6,149.6z M219.6,158.9c0.4,0,0.6-0.3,0.6-0.6c0-0.4-0.3-0.6-0.6-0.6h-14.2
					c-0.4,0-0.6,0.3-0.6,0.6c0,0.4,0.3,0.6,0.6,0.6H219.6L219.6,158.9z M219.6,154.2c0.4,0,0.6-0.3,0.6-0.6c0-0.4-0.3-0.6-0.6-0.6
					h-14.2c-0.4,0-0.6,0.3-0.6,0.6c0,0.4,0.3,0.6,0.6,0.6H219.6z"/>
				<path class="st7" d="M242.6,144.6H232c-2.5,0-4.6,2.1-4.6,4.6v10.6c0,2.5,2.1,4.6,4.6,4.6h10.6c2.5,0,4.6-2.1,4.6-4.6v-10.6
					C247.2,146.7,245.1,144.6,242.6,144.6L242.6,144.6z M237.3,159.9c-3,0-5.4-2.4-5.4-5.4c0-3,2.4-5.4,5.4-5.4c3,0,5.4,2.4,5.4,5.4
					C242.7,157.5,240.3,159.9,237.3,159.9z"/>
				<path class="st7" d="M382.4,149.6c0.4,0,0.6-0.3,0.6-0.6c0-0.4-0.3-0.6-0.6-0.6H264.6c-0.4,0-0.6,0.3-0.6,0.6
					c0,0.4,0.3,0.6,0.6,0.6H382.4L382.4,149.6z M382.4,158.9c0.4,0,0.6-0.3,0.6-0.6c0-0.4-0.3-0.6-0.6-0.6H264.6
					c-0.4,0-0.6,0.3-0.6,0.6c0,0.4,0.3,0.6,0.6,0.6H382.4L382.4,158.9z M382.4,154.2c0.4,0,0.6-0.3,0.6-0.6c0-0.4-0.3-0.6-0.6-0.6
					H264.6c-0.4,0-0.6,0.3-0.6,0.6c0,0.4,0.3,0.6,0.6,0.6H382.4z"/>
				<path class="st25" d="M296.3,230.9c0,0,1.9,1.7,2.6,2.8c0.8,1.1-1.1,2.3-2,2.3c-1,0-1.4-1.8-1.5-3.1
					C295.2,231.6,295.6,230.3,296.3,230.9z"/>
				<path class="st7" d="M430,203.1l16.5-2.4c0.3,0,0.5,0,0.7,0.2c0.2,0.2,0.3,0.4,0.3,0.6l0.1,10.8c0,0.3-0.1,0.5-0.3,0.6
					c-0.2,0.2-0.4,0.2-0.7,0.2L425,210c-0.4-0.1-0.6-0.3-0.7-0.7l-0.7-3.6l-13.3-1.2c-0.4,0-0.7-0.4-0.8-0.8c0-0.4,0.2-0.8,0.6-0.9
					l17.9-4.6c0.2-0.1,0.5,0,0.7,0.1c0.2,0.1,0.3,0.3,0.4,0.6L430,203.1z"/>
				<path class="st7" d="M394.4,163.9l5.5-15.7c0.1-0.2,0.1-0.5-0.1-0.7c-0.1-0.2-0.3-0.4-0.6-0.4l-10.6-2.2c-0.3-0.1-0.5,0-0.7,0.2
					c-0.2,0.2-0.3,0.4-0.3,0.6l-0.9,21.8c0,0.4,0.2,0.7,0.5,0.8l3.4,1.4l-1.3,13.3c0,0.4,0.2,0.8,0.6,0.9c0.4,0.1,0.8-0.1,1-0.5
					l8-16.7c0.1-0.2,0.1-0.4,0-0.7c-0.1-0.2-0.2-0.4-0.5-0.5L394.4,163.9z"/>
				<path class="st7" d="M424.9,171.8l22.6-15.7c0.3-0.2,0.6-0.5,0.6-0.8c0.1-0.3,0-0.5-0.3-0.6l-11.2-5.5c-0.3-0.1-0.6-0.1-1,0
					c-0.4,0.1-0.8,0.3-1,0.6l-22.9,23.8c-0.4,0.4-0.4,0.8-0.2,1.1l3,2.5l-14.9,14.3c-0.5,0.4-0.5,0.9-0.1,1.2
					c0.4,0.2,1.1,0.2,1.7-0.2l26.7-16.2c0.3-0.2,0.6-0.5,0.7-0.7c0.1-0.3,0.1-0.5-0.1-0.7L424.9,171.8z"/>
				<path class="st7" d="M414.9,276.6c1.9,0,3.4-1.5,3.4-3.4s-1.5-3.4-3.4-3.4c-1.9,0-3.4,1.5-3.4,3.4S413,276.6,414.9,276.6z"/>
				<path class="st18" d="M349.8,253.8c-2.4-1.5-4.7-0.3-4.2,1.8c0.4,2,4.2,3,5.2,7.7c0.9,4.7,5,12.9,8.7,13.8
					c3.7,0.9,5.3-4,4.2-7.2C362.6,266.7,349.8,253.8,349.8,253.8z"/>
			</g>
		</g>
		<g>
			<path class="st9" d="M133.8,162.2h67.3c4.8,0,8.7,3.9,8.7,8.7v35.9v2.7v22.8c0,0.4-0.2,0.7-0.6,0.9c-0.4,0.2-0.8,0.1-1.1-0.2
				l-14.8-14.8h-59.5c-4.8,0-8.7-3.9-8.7-8.7v-38.5C125.1,166.1,129,162.2,133.8,162.2z"/>
			<path class="st7" d="M161.4,182.2c-1.7,1.6-2.7,4-3,6.2c0,0,0,0.1,0,0.1V200c0,0.2,0.1,0.4,0.3,0.6c0.7,0.8,1.7,1.6,2.8,2.3
				c1.1,0.7,2.2,1.1,3.3,1.1h5.6h6.1c2.1,0,3.9-1.5,4.3-3.6c0-0.2,0.2-0.3,0.3-0.4c1.5-0.7,1.7-2.8,1.4-4.2c0,0,0,0,0,0
				c-0.1-0.2,0-0.5,0.2-0.6c1.8-1.3,1.4-3.9,0.6-5.7c0,0,0,0,0-0.1c-0.1-0.1-0.1-0.3,0-0.4c0.2-0.6,0.3-1.2,0.3-1.9
				c0-0.7-0.2-1.4-0.6-2c-0.4-0.5-1-0.7-1.5-0.9c-0.5-0.1-1.1-0.2-1.6-0.2h-6.4c-1.1,0-1.9-0.3-2.4-1.3c-0.6-1.4,0.1-3.7,0.5-5
				c0.3-0.8,0.4-1.7,0.4-2.6c0-1.3-0.3-2.6-0.9-3.7c-0.2-0.3-0.4-0.6-0.6-0.9c-0.3-0.3-0.5-0.5-0.8-0.7c-0.1,0-0.2-0.1-0.3-0.1h-1
				c-0.5,0-0.9,0.4-0.9,0.9c0,1.9-0.2,3.8-0.7,5.6c-0.6,2.3-1.8,4-3.9,5.2C162.3,181.5,161.8,181.9,161.4,182.2L161.4,182.2z
				 M156.5,201.6v-16.8c0-0.2-0.1-0.5-0.2-0.6c0-0.1-0.1-0.1-0.2-0.2c-0.2-0.2-0.5-0.4-0.9-0.4h-5.3c-0.3,0-0.6,0.1-0.8,0.3
				c0,0,0,0-0.1,0.1l0,0c-0.2,0.2-0.3,0.5-0.3,0.8v16.8c0,0.3,0.1,0.6,0.4,0.9c0.2,0.2,0.5,0.4,0.9,0.4h5.3c0.3,0,0.6-0.1,0.8-0.3
				c0,0,0,0,0.1-0.1l0,0c0.1-0.1,0.1-0.1,0.2-0.2C156.4,202.1,156.5,201.9,156.5,201.6z"/>
		</g>
	</g>
</g>
<g id="DESIGNED_BY_FREEPIK">
</g>
</svg>
