<?xml version="1.0" encoding="utf-8"?>
<!-- Generator: Adobe Illustrator 23.0.3, SVG Export Plug-In . SVG Version: 6.00 Build 0)  -->
<svg version="1.1" id="Слой_1" xmlns="http://www.w3.org/2000/svg" xmlns:xlink="http://www.w3.org/1999/xlink" x="0px" y="0px"
	 viewBox="0 0 500 500" style="enable-background:new 0 0 500 500;" xml:space="preserve">
<style type="text/css">
	.st0{fill:url(#SVGID_1_);}
	.st1{fill:url(#SVGID_2_);}
	.st2{fill:url(#SVGID_3_);}
	.st3{fill:url(#SVGID_4_);}
	.st4{fill:url(#SVGID_5_);}
	.st5{fill:url(#SVGID_6_);}
	.st6{fill:url(#SVGID_7_);}
	.st7{fill:url(#SVGID_8_);}
	.st8{fill:url(#SVGID_9_);}
	.st9{fill:url(#SVGID_10_);}
	.st10{fill:url(#SVGID_11_);}
	.st11{fill:url(#SVGID_12_);}
	.st12{fill:#FFFFFF;}
	.st13{fill:url(#SVGID_13_);}
	.st14{filter:url(#Adobe_OpacityMaskFilter);}
	.st15{filter:url(#Adobe_OpacityMaskFilter_1_);}
	.st16{mask:url(#SVGID_14_);fill:url(#SVGID_15_);}
	.st17{fill:url(#SVGID_16_);}
	.st18{filter:url(#Adobe_OpacityMaskFilter_2_);}
	.st19{filter:url(#Adobe_OpacityMaskFilter_3_);}
	.st20{mask:url(#SVGID_17_);fill:url(#SVGID_18_);}
	.st21{fill:url(#SVGID_19_);}
	.st22{fill:#FAFAFA;}
	.st23{fill:url(#SVGID_20_);}
	.st24{fill:#EEA886;}
	.st25{fill:#414773;}
	.st26{fill:#2D314F;}
	.st27{fill:#2B3B57;}
	.st28{fill:#D9DDED;}
	.st29{fill:#353A3D;}
	.st30{fill:#E55353;}
	.st31{fill:#5C544D;}
	.st32{fill:#3C4145;}
	.st33{fill:#ADA58E;}
	.st34{fill:#3A3F47;}
	.st35{fill:#6BA3FF;}
	.st36{fill:#344052;}
	.st37{fill:#EB4747;}
	.st38{fill:#EDDAD3;}
	.st39{fill:#EEA987;}
	.st40{fill:#393D63;}
	.st41{fill:#4A4A4A;}
	.st42{fill:#A77860;}
	.st43{fill:#E8734D;}
	.st44{fill:#FCCCA2;}
	.st45{fill:#C9B9B3;}
	.st46{fill:#BA5C3D;}
	.st47{fill:#DBCAC3;}
	.st48{fill:#B07C63;}
	.st49{fill:#1D3B54;}
	.st50{fill:#757780;}
</style>
<g>
	<linearGradient id="SVGID_1_" gradientUnits="userSpaceOnUse" x1="326.693" y1="-15.5242" x2="277.1477" y2="247.4943">
		<stop  offset="0" style="stop-color:#57ABFF"/>
		<stop  offset="1" style="stop-color:#FFFFFF"/>
	</linearGradient>
	<polygon class="st0" points="358.9,58 278.1,444.1 227.9,444.1 266.7,58 	"/>
	<linearGradient id="SVGID_2_" gradientUnits="userSpaceOnUse" x1="44.8265" y1="-16.2147" x2="189.6336" y2="352.1197">
		<stop  offset="0" style="stop-color:#57ABFF"/>
		<stop  offset="1" style="stop-color:#FFFFFF"/>
	</linearGradient>
	<polygon class="st1" points="256.6,444.7 206.4,444.7 169.6,362.9 26.9,53.9 80.6,53.9 117.9,53.9 228.2,362.9 	"/>
	<linearGradient id="SVGID_3_" gradientUnits="userSpaceOnUse" x1="250" y1="381.3724" x2="250" y2="444.4417">
		<stop  offset="0" style="stop-color:#303669"/>
		<stop  offset="1" style="stop-color:#4DAEFF"/>
	</linearGradient>
	<path class="st2" d="M499.1,432.2c0,7.7-111.5,13.9-249.1,13.9S0.9,439.8,0.9,432.2c0-7.7,111.5-13.9,249.1-13.9
		S499.1,424.5,499.1,432.2z"/>
	<linearGradient id="SVGID_4_" gradientUnits="userSpaceOnUse" x1="207.3646" y1="250.2854" x2="207.3646" y2="128.6295">
		<stop  offset="0" style="stop-color:#9A5CFF"/>
		<stop  offset="0.9948" style="stop-color:#4059BF"/>
	</linearGradient>
	<path class="st3" d="M207.4,118.4c-22.3,0-40.3,18-40.3,40.3c0,22.3,18,40.3,40.3,40.3c22.3,0,40.3-18,40.3-40.3
		C247.7,136.4,229.6,118.4,207.4,118.4z M187.5,127.5c4.6-3,10.8-1.6,13.8,3c3,4.6,1.6,10.8-3,13.8c-4.6,3-10.8,1.6-13.8-3
		C181.5,136.6,182.9,130.5,187.5,127.5z M170.4,158.7c0-5.5,4.5-10,10-10c5.5,0,10,4.5,10,10c0,5.5-4.5,10-10,10
		C174.9,168.6,170.4,164.2,170.4,158.7z M202.6,187c-2.7,4.8-8.8,6.4-13.6,3.7c-4.8-2.7-6.4-8.8-3.7-13.6c2.7-4.8,8.8-6.4,13.6-3.7
		C203.7,176.2,205.3,182.2,202.6,187z M212.2,130.3c2.7-4.8,8.8-6.4,13.6-3.7c4.8,2.7,6.4,8.8,3.7,13.6c-2.7,4.8-8.8,6.4-13.6,3.7
		C211.1,141.2,209.4,135.1,212.2,130.3z M227.2,189.8c-4.6,3-10.8,1.6-13.8-3c-3-4.6-1.6-10.8,3-13.8c4.6-3,10.8-1.6,13.8,3
		C233.2,180.7,231.9,186.9,227.2,189.8z M234.3,168.6c-5.5,0-10-4.5-10-10c0-5.5,4.5-10,10-10c5.5,0,10,4.5,10,10
		C244.3,164.2,239.8,168.6,234.3,168.6z"/>
	<linearGradient id="SVGID_5_" gradientUnits="userSpaceOnUse" x1="122.4661" y1="250.2854" x2="122.4661" y2="128.6295">
		<stop  offset="0" style="stop-color:#9A5CFF"/>
		<stop  offset="0.9948" style="stop-color:#4059BF"/>
	</linearGradient>
	<path class="st4" d="M122.5,118.4c-22.3,0-40.3,18-40.3,40.3c0,22.3,18,40.3,40.3,40.3c22.3,0,40.3-18,40.3-40.3
		C162.8,136.4,144.7,118.4,122.5,118.4z M102.6,127.5c4.6-3,10.8-1.6,13.8,3c3,4.6,1.6,10.8-3,13.8c-4.6,3-10.8,1.6-13.8-3
		C96.6,136.6,98,130.5,102.6,127.5z M85.5,158.7c0-5.5,4.5-10,10-10c5.5,0,10,4.5,10,10c0,5.5-4.5,10-10,10
		C90,168.6,85.5,164.2,85.5,158.7z M117.7,187c-2.7,4.8-8.8,6.4-13.6,3.7c-4.8-2.7-6.4-8.8-3.7-13.6c2.7-4.8,8.8-6.4,13.6-3.7
		C118.8,176.2,120.4,182.2,117.7,187z M127.3,130.3c2.7-4.8,8.8-6.4,13.6-3.7c4.8,2.7,6.4,8.8,3.7,13.6c-2.7,4.8-8.8,6.4-13.6,3.7
		C126.2,141.2,124.5,135.1,127.3,130.3z M141.3,189.8c-4.6,3-10.8,1.6-13.8-3c-3-4.6-1.6-10.8,3-13.8c4.6-3,10.8-1.6,13.8,3
		C147.3,180.7,145.9,186.9,141.3,189.8z M149.4,168.6c-5.5,0-10-4.5-10-10c0-5.5,4.5-10,10-10c5.5,0,10,4.5,10,10
		C159.4,164.2,154.9,168.6,149.4,168.6z"/>
	<linearGradient id="SVGID_6_" gradientUnits="userSpaceOnUse" x1="290.9516" y1="196.1036" x2="280.6667" y2="290.2493">
		<stop  offset="0" style="stop-color:#9A5CFF"/>
		<stop  offset="0.9948" style="stop-color:#4059BF"/>
	</linearGradient>
	<polygon class="st5" points="297.1,262.5 275,252.6 275,236.3 275,220 297.1,208.8 	"/>
	<g>
		<linearGradient id="SVGID_7_" gradientUnits="userSpaceOnUse" x1="200.8714" y1="425.4876" x2="200.8714" y2="295.5771">
			<stop  offset="0" style="stop-color:#9A5CFF"/>
			<stop  offset="0.9948" style="stop-color:#4059BF"/>
		</linearGradient>
		<polygon class="st6" points="215.2,425.5 176,298.6 186.6,295.6 225.7,422.4 		"/>
	</g>
	<g>
		
			<linearGradient id="SVGID_8_" gradientUnits="userSpaceOnUse" x1="-4725.0923" y1="425.4876" x2="-4725.0923" y2="295.5771" gradientTransform="matrix(-1 0 0 1 -4585.1201 0)">
			<stop  offset="0" style="stop-color:#9A5CFF"/>
			<stop  offset="0.9948" style="stop-color:#4059BF"/>
		</linearGradient>
		<polygon class="st7" points="125.7,425.5 115.1,422.4 154.3,295.6 164.8,298.6 		"/>
	</g>
	<linearGradient id="SVGID_9_" gradientUnits="userSpaceOnUse" x1="169.2124" y1="322.4014" x2="169.2124" y2="292.8966">
		<stop  offset="0" style="stop-color:#9A5CFF"/>
		<stop  offset="0.9948" style="stop-color:#4059BF"/>
	</linearGradient>
	<rect x="140" y="292.9" class="st8" width="58.5" height="29.5"/>
	<linearGradient id="SVGID_10_" gradientUnits="userSpaceOnUse" x1="176.3626" y1="294.8531" x2="176.3626" y2="93.2911">
		<stop  offset="0" style="stop-color:#9A5CFF"/>
		<stop  offset="0.9948" style="stop-color:#4059BF"/>
	</linearGradient>
	<path class="st9" d="M275,220h-11.4v-8.7h-11.5v-5.1h-8.8V202H86.6v4.2h-8.8v84.3c0,9.5,7.7,17.2,17.2,17.2h140
		c9.5,0,17.2-7.7,17.2-17.2v-29.2h11.5v-8.7H275V220z"/>
	<linearGradient id="SVGID_11_" gradientUnits="userSpaceOnUse" x1="155.1152" y1="382.2547" x2="303.2466" y2="382.2547">
		<stop  offset="0" style="stop-color:#FFAE70"/>
		<stop  offset="1" style="stop-color:#FFD970"/>
	</linearGradient>
	<rect x="155.1" y="335.9" class="st10" width="148.1" height="92.7"/>
	<linearGradient id="SVGID_12_" gradientUnits="userSpaceOnUse" x1="155.1152" y1="327.1577" x2="303.2466" y2="327.1577">
		<stop  offset="0" style="stop-color:#FFAE70"/>
		<stop  offset="1" style="stop-color:#FFD970"/>
	</linearGradient>
	<rect x="155.1" y="318.4" class="st11" width="148.1" height="17.5"/>
	<polygon class="st12" points="175.8,334.4 157,334.4 162.4,319.9 181.2,319.9 	"/>
	<polygon class="st12" points="213.7,334.4 194.9,334.4 200.3,319.9 219.1,319.9 	"/>
	<polygon class="st12" points="251.9,334.4 233.1,334.4 238.6,319.9 257.3,319.9 	"/>
	<polygon class="st12" points="293.6,334.4 274.8,334.4 280.3,319.9 299,319.9 	"/>
	<linearGradient id="SVGID_13_" gradientUnits="userSpaceOnUse" x1="143.0813" y1="259.8894" x2="260.1661" y2="259.8894">
		<stop  offset="0" style="stop-color:#FFAE70"/>
		<stop  offset="1" style="stop-color:#FFD970"/>
	</linearGradient>
	<polygon class="st13" points="260.2,213.7 155.4,318.4 143.1,306.1 247.8,201.3 	"/>
	<polygon class="st12" points="169,302.8 155.7,316.1 149.3,302 162.6,288.7 	"/>
	<polygon class="st12" points="195.8,276 182.5,289.3 176.1,275.2 189.4,261.9 	"/>
	<polygon class="st12" points="222.8,249 209.5,262.2 203.1,248.1 216.4,234.9 	"/>
	<polygon class="st12" points="252.3,219.5 239,232.7 232.6,218.6 245.9,205.4 	"/>
	<defs>
		<filter id="Adobe_OpacityMaskFilter" filterUnits="userSpaceOnUse" x="158.4" y="348.3" width="141.6" height="2.6">
			<feFlood  style="flood-color:white;flood-opacity:1" result="back"/>
			<feBlend  in="SourceGraphic" in2="back" mode="normal"/>
		</filter>
	</defs>
	<mask maskUnits="userSpaceOnUse" x="158.4" y="348.3" width="141.6" height="2.6" id="SVGID_14_">
		<g class="st14">
			<defs>
				<filter id="Adobe_OpacityMaskFilter_1_" filterUnits="userSpaceOnUse" x="158.4" y="348.3" width="141.6" height="2.6">
					<feFlood  style="flood-color:white;flood-opacity:1" result="back"/>
					<feBlend  in="SourceGraphic" in2="back" mode="normal"/>
				</filter>
			</defs>
			<mask maskUnits="userSpaceOnUse" x="158.4" y="348.3" width="141.6" height="2.6" id="SVGID_14_">
				<g class="st15">
				</g>
			</mask>
			<linearGradient id="SVGID_15_" gradientUnits="userSpaceOnUse" x1="308.8934" y1="349.6129" x2="181.5057" y2="349.6129">
				<stop  offset="0" style="stop-color:#FFFFFF"/>
				<stop  offset="1" style="stop-color:#000000"/>
			</linearGradient>
			<rect x="158.4" y="348.3" class="st16" width="141.6" height="2.6"/>
		</g>
	</mask>
	<linearGradient id="SVGID_16_" gradientUnits="userSpaceOnUse" x1="308.8934" y1="349.6129" x2="181.5057" y2="349.6129">
		<stop  offset="0" style="stop-color:#EDEDED"/>
		<stop  offset="1" style="stop-color:#FFFFFF"/>
	</linearGradient>
	<rect x="158.4" y="348.3" class="st17" width="141.6" height="2.6"/>
	<defs>
		<filter id="Adobe_OpacityMaskFilter_2_" filterUnits="userSpaceOnUse" x="259" y="408.8" width="49.1" height="2.1">
			<feFlood  style="flood-color:white;flood-opacity:1" result="back"/>
			<feBlend  in="SourceGraphic" in2="back" mode="normal"/>
		</filter>
	</defs>
	<mask maskUnits="userSpaceOnUse" x="259" y="408.8" width="49.1" height="2.1" id="SVGID_17_">
		<g class="st18">
			<defs>
				<filter id="Adobe_OpacityMaskFilter_3_" filterUnits="userSpaceOnUse" x="259" y="408.8" width="49.1" height="2.1">
					<feFlood  style="flood-color:white;flood-opacity:1" result="back"/>
					<feBlend  in="SourceGraphic" in2="back" mode="normal"/>
				</filter>
			</defs>
			<mask maskUnits="userSpaceOnUse" x="259" y="408.8" width="49.1" height="2.1" id="SVGID_17_">
				<g class="st19">
				</g>
			</mask>
			<linearGradient id="SVGID_18_" gradientUnits="userSpaceOnUse" x1="319.5699" y1="409.8082" x2="278.3087" y2="409.8082">
				<stop  offset="0" style="stop-color:#FFFFFF"/>
				<stop  offset="1" style="stop-color:#000000"/>
			</linearGradient>
			<rect x="259" y="408.8" class="st20" width="49.1" height="2.1"/>
		</g>
	</mask>
	<linearGradient id="SVGID_19_" gradientUnits="userSpaceOnUse" x1="319.5699" y1="409.8082" x2="278.3087" y2="409.8082">
		<stop  offset="0" style="stop-color:#EDEDED"/>
		<stop  offset="1" style="stop-color:#FFFFFF"/>
	</linearGradient>
	<rect x="259" y="408.8" class="st21" width="49.1" height="2.1"/>
	<g>
		<path class="st22" d="M475.4,248.3c0,0-92.8-22.7-155.8,91.3c-54.8,99.3-240,85.7-270.7,45.4l-27.1-37.6
			c30.6,40.3,215.8,53.9,270.7-45.4c63-114.1,155.8-91.3,155.8-91.3L475.4,248.3z"/>
		<linearGradient id="SVGID_20_" gradientUnits="userSpaceOnUse" x1="147.4395" y1="374.6963" x2="561.124" y2="85.8548">
			<stop  offset="0" style="stop-color:#40D5E6"/>
			<stop  offset="0.4297" style="stop-color:#535ACD"/>
			<stop  offset="1" style="stop-color:#5577FF"/>
		</linearGradient>
		<path class="st23" d="M450.6,207.3c-13.6-3.4-35.5-3.5-57.6,2.6c-28.7,7.9-53.7,25.2-73.3,46.9c-36.3,40-29.9,63.1-79.8,91.1
			c-27.2,15.3-59.7,23-91.2,25.3c-54.2,4-108.8-8.3-123.8-28.1l0,0l28.3,44.1c8,10.5,17.7,17.2,39.6,22.7
			c20.2,5.1,41.8,7.2,62.4,7.2c39.7,0,81.9-7.9,116.4-27.5c18.3-10.4,33.3-23.6,44.4-39.1c9.2-12.9,16.4-31.6,38.6-55.3
			c34.2-36.5,79.6-55.3,130.1-42.9L450.6,207.3z M52,382.7L39.3,365c7.5,3.7,16.5,6.8,26.4,9.3L85.6,402
			C69.9,397.1,57.9,390.5,52,382.7z M92.4,403.9l-20.2-28.1c12.8,2.8,27,4.7,41.9,5.4l21.3,29.5C119.8,409.7,105.1,407.3,92.4,403.9
			z M175.8,410.7c-11.7,0.9-23.5,1-34.8,0.4l-21.4-29.7c9.7,0.3,19.6,0.1,29.6-0.6c10-0.7,19.6-1.9,28.9-3.6l22.1,30.7
			C192.4,409.2,184.2,410.1,175.8,410.7z M205.1,407l-22.1-30.7c21.4-4.3,40.8-11.1,57.6-20.1l22.6,31.3
			C246.3,396.4,226.8,403,205.1,407z M267,385.4l-22.6-31.4c18.3-10.4,33.3-23.6,44.4-39.1l22.3,31C300.5,361.8,285.5,375,267,385.4
			z M316.2,337.7c-0.8,1.5-1.6,2.9-2.5,4.3l-22.3-30.9c1.6-2.4,3-4.8,4.4-7.3c8.5-15.4,18.1-29,28.5-40.7l22.5,31.2
			C336.3,306,325.9,320.2,316.2,337.7z M349.9,291l-22.5-31.3c14.1-15.1,29.7-26.7,46.6-34.7l22.5,31.3
			C381.8,263.5,365.7,274.4,349.9,291z M420.1,247.4c-6,1.7-12.6,3.9-19.5,7l-22.5-31.2c5.4-2.3,10.9-4.3,16.6-5.9
			c25.7-7.2,46.1-4.2,51.4-3.2l20.9,29C457.1,242.1,440.2,241.9,420.1,247.4z"/>
	</g>
	<g>
		<g>
			<g>
				<path class="st24" d="M63.2,276.5c0,0,1.8-3.2-1.1-11.7c-2.8-8.3-12.5-7.5-15.6-2.2c-3.1,5.3-2,8.6,2.5,14.6
					C53.6,283.1,61.4,279.2,63.2,276.5z"/>
			</g>
		</g>
		<g>
			<g>
				<path class="st24" d="M40.8,423.6c0,0-0.5,3.5-0.5,4c-0.1,0.5-5.3-0.3-5.3-0.3l-0.4-4.2C34.5,423.2,40.1,423.1,40.8,423.6z"/>
			</g>
		</g>
		<g>
			<g>
				<path class="st25" d="M40.3,427.2c0,0,1.7,2.1,3.3,3c1.6,0.9,4.2,1.3,5.1,2.2c0.7,0.7,2.5,3.7-4.2,3.6
					c-6.7-0.1-9.9,0.4-10.7-0.7c-0.7-1.1,1-8.4,1-8.4S36.5,427.4,40.3,427.2z"/>
			</g>
		</g>
		<g>
			<g>
				<path class="st24" d="M77.2,423.6c0,0-0.5,3.5-0.5,4c-0.1,0.5-5.3-0.3-5.3-0.3l-0.4-4.2C70.9,423.2,76.6,423.1,77.2,423.6z"/>
			</g>
		</g>
		<g>
			<g>
				<path class="st25" d="M76.8,427.2c0,0,1.7,2.1,3.3,3c1.6,0.9,7.6,1.7,8.5,2.6c0.7,0.7,1.8,3.5-7.6,3.2
					c-6.7-0.2-9.9,0.4-10.7-0.7c-0.7-1.1,1-8.4,1-8.4S73.4,427.3,76.8,427.2z"/>
			</g>
		</g>
		<g>
			<g>
				<path class="st26" d="M42.5,336.2c0,0-2.7,8.4-2.3,15.6c0.4,7.2-1.4,15.2-2.1,22.7c-0.8,8.4-4.1,28.4-4.2,32.9
					c-0.1,4.5,0.5,18.9,0.5,18.9l6.5,0.2c0,0,5.5-34.9,6.9-38.4c1.4-3.6,8.5-28.9,8.7-31.8C56.8,353.4,42.5,336.2,42.5,336.2z"/>
			</g>
		</g>
		<g>
			<g>
				<path class="st26" d="M69.7,335.3c0,0,4,22.2,4.4,26.6c0.5,4.4,0.8,21.4,1,24.2c0.2,2.8,1.6,36.2,2.8,40.3h-7.3
					c0,0-7.5-24.3-7.5-35.8c0-11.5-5-25-8.2-32.6c-3.2-7.6-10.5-7.8-12.5-21.9C42.5,336.2,67,330.8,69.7,335.3z"/>
			</g>
		</g>
		<g>
			<g>
				<path class="st24" d="M60.6,278.7c0,0-0.8,2.4,0,4.1c0.8,1.7-10.5,0.7-10.5,0.7s0.5-3.5-1-6.4S60.6,278.7,60.6,278.7z"/>
			</g>
		</g>
		<g>
			<g>
				<path class="st27" d="M42,338c0,0,4.1,4.2,28-0.7l-0.4-2.1l-27.2,1L42,338z"/>
			</g>
		</g>
		<g>
			<g>
				<path class="st24" d="M62.3,283.4c0,0,4.2,0.4,5.4,0.7c1.2,0.2,9.3-1.4,10.9-1.6c1.7-0.2,8.7-5,8.9-5.6
					c0.2-0.6,4.3-10.8,4.5-13.1c0.2-2.2,4-1.1,3.6,0.5c-0.6,2.9-1.4,9.8-1.8,11.8c-0.5,2.2-1.7,7.1-2.4,7.7c-0.7,0.6-7,5.4-13.2,7.5
					c-6.2,2.1-10.9,5.1-10.9,5.1H36.8c0,0-11.9-17-12.2-19.6c-0.3-2.6,8.3-19.6,10-21.7c1.7-2.1,4.2,0.7,4.2,0.7s-5.1,15-5.8,17.2
					c-0.7,2.1,6,11.5,7.8,11.6c1.8,0,6.5-0.6,8.6-0.7c2.1-0.1,4.3-1,4.3-1L62.3,283.4z"/>
			</g>
		</g>
		<g>
			<g>
				<path class="st28" d="M75.5,294.8c0,0-3.7,2.5-4.1,6.8c-0.3,4.3-1.7,11-2.4,13.3c-0.7,2.3,0.6,19.1,0.8,20.3
					c0.2,1.2-23.7,4-27.4,1.2c0,0-1-15.6-1.5-20.1c-0.4-4.4-2.5-15.2-3.2-16.7c-0.7-1.5-9-13.1-9.3-14.6c0,0,4.3-6.8,7.4-6.9
					c0,0,4.9,5.7,6.5,6c1.6,0.3,11.4-1.5,11.4-1.5c0,0,1.1,1.5,6.7-0.3c0,0,6.7,0.8,7.8,0.9c1.3,0.2,10.6-1.2,10.6-1.2
					s3.7,6.3,3.1,9.4L75.5,294.8z"/>
			</g>
		</g>
		<g>
			<g>
				<path class="st24" d="M91.8,265.1c0,0,0.8-4-0.2-5.1c-0.6-0.6-2-2.4-2.1-2.6c-0.1-0.3-1.6-1.1-1.6-1.5c0-0.4,1.4-0.9,2.7,0.3
					c1.3,1.2,2,1.4,2.6,1.3c0.5-0.1,1.2-4.3,1.3-5.4c0.1-1,0.5-3.8,1.1-3.6c0.6,0.2,0.6,1.4,0.6,1.4s0.8-2.1,1.3-1.7
					c0.5,0.4,0.4,1.4,0.4,1.4s0.9-1.2,1.2-0.3c0.3,0.9,0,1.6,0,1.6s1-0.5,1,0.8c0.1,1.3-0.3,5.2-1,6.6c-0.7,1.4-3.3,5-3.6,6.4
					C95.3,266.1,91.8,265.1,91.8,265.1z"/>
			</g>
		</g>
		<g>
			<g>
				<path class="st24" d="M38,258.2c0,0,2.8-4.8,3.8-5.2c1-0.4,2.3-0.7,3.5-1.5c1.2-0.9,2.8-1.6,2.7-1.9c-0.1-0.3-1.5-0.2-3,0.5
					c-1.5,0.7-2.2,0.3-2.3,0c-0.1-0.3,0.8-2.8,1.3-3.3c0.5-0.6,3.7-3.8,3.2-4.3c-0.5-0.5-2.6,1.3-3,1.7c0,0,1.7-3.5,1-3.7
					c-0.7-0.2-1.9,1.1-1.9,1.1s0.1-3-3.1,1.9c0,0,0.7-1.6-0.3-1.1c-1,0.5-2,3.6-2.3,5.1c-0.3,1.5-1.7,6.4-2.9,7.6
					C33.4,256.2,38,258.2,38,258.2z"/>
			</g>
		</g>
		<g>
			<g>
				<path class="st29" d="M49.1,277.1c0,0,1.5,0.1,4.7-1c3.2-1.1,3.4-6.7,4.1-6c1.4,1.3,2.7,0.4,3.3-0.4c0,0-1.6-2.1-0.8-3
					s1.9-1.7,1.9-1.7s-2.2-10.8-12.5-5.9C37.8,264.8,49.1,277.1,49.1,277.1z"/>
			</g>
		</g>
		<g>
			<g>
				<path class="st28" d="M60.6,282.8l-0.4-1.6c0,0-6.5-0.1-10.1,0.4l-0.4,1.9C49.8,283.5,54.3,285.6,60.6,282.8z"/>
			</g>
		</g>
		<g>
			<g>
				<path class="st24" d="M59,268.7c-0.6-1-2.8-1.6-3,1.1c-0.2,2.2,3.9,4.5,4,2.5C59.9,270.3,59.4,269.4,59,268.7z"/>
			</g>
		</g>
		<g>
			<g>
				<path class="st30" d="M92,264.2c0,0,2.4,0.1,3.5,1.1c0,0,0.1,0.7-0.2,1.2c0,0-2-1-3.6-1.1C91.7,265.4,91.7,264.5,92,264.2z"/>
			</g>
		</g>
		<g>
			<g>
				<path class="st29" d="M94.8,264.8c0.2,0.5,0,1.1-0.5,1.3c-0.5,0.2-1.1,0-1.3-0.5c-0.2-0.5,0-1.1,0.5-1.3
					C93.9,264.1,94.5,264.3,94.8,264.8z"/>
			</g>
		</g>
	</g>
	<g>
		<g>
			<g>
				<g>
					<g>
						<g>
							<path class="st31" d="M240,325.7c0,0,1,3.8,1.1,4.4c0.1,0.6,6.1-1,6.1-1l0-4.6C247.2,324.4,240.7,325.1,240,325.7z"/>
						</g>
					</g>
				</g>
			</g>
		</g>
		<g>
			<g>
				<g>
					<g>
						<g>
							<path class="st32" d="M241,329.6c0,0-1.7,2.5-3.4,3.7c-1.7,1.2-8.4,2.8-9.4,3.9c-0.7,0.8-1.7,4,9.1,2.6
								c7.6-1,11.4-0.8,12.1-2.1c0.7-1.3-2.2-9.1-2.2-9.1S245.5,329.5,241,329.6z"/>
						</g>
					</g>
				</g>
			</g>
		</g>
		<g>
			<g>
				<g>
					<g>
						<g>
							<g>
								<polygon class="st33" points="238.8,433.4 217.3,214.4 220,214.1 241.5,433.1 								"/>
							</g>
						</g>
					</g>
				</g>
			</g>
			<g>
				<g>
					<g>
						<g>
							<g>
								<polygon class="st33" points="282.6,429.1 261.1,210.1 263.8,209.9 285.3,428.8 								"/>
							</g>
						</g>
					</g>
				</g>
			</g>
			<g>
				<g>
					<g>
						<g>
							<g>
								<g>
									
										<rect x="219" y="215.8" transform="matrix(0.9953 -9.656081e-02 9.656081e-02 0.9953 -19.8439 24.289)" class="st33" width="44" height="2.7"/>
								</g>
							</g>
						</g>
					</g>
				</g>
				<g>
					<g>
						<g>
							<g>
								<g>
									
										<rect x="221" y="236.2" transform="matrix(0.9953 -9.655964e-02 9.655964e-02 0.9953 -21.8016 24.5748)" class="st33" width="44" height="2.7"/>
								</g>
							</g>
						</g>
					</g>
				</g>
				<g>
					<g>
						<g>
							<g>
								<g>
									
										<rect x="223" y="256.6" transform="matrix(0.9953 -9.655181e-02 9.655181e-02 0.9953 -23.7578 24.8588)" class="st33" width="44" height="2.7"/>
								</g>
							</g>
						</g>
					</g>
				</g>
				<g>
					<g>
						<g>
							<g>
								<g>
									
										<rect x="225" y="276.9" transform="matrix(0.9953 -9.645896e-02 9.645896e-02 0.9953 -25.692 25.1194)" class="st33" width="44" height="2.7"/>
								</g>
							</g>
						</g>
					</g>
				</g>
				<g>
					<g>
						<g>
							<g>
								<g>
									
										<rect x="226.9" y="297.3" transform="matrix(0.9953 -9.656081e-02 9.656081e-02 0.9953 -27.676 25.4335)" class="st33" width="44" height="2.7"/>
								</g>
							</g>
						</g>
					</g>
				</g>
				<g>
					<g>
						<g>
							<g>
								<g>
									
										<rect x="228.9" y="317.7" transform="matrix(0.9953 -9.656054e-02 9.656054e-02 0.9953 -29.6339 25.7195)" class="st33" width="44" height="2.7"/>
								</g>
							</g>
						</g>
					</g>
				</g>
				<g>
					<g>
						<g>
							<g>
								<g>
									
										<rect x="230.9" y="338" transform="matrix(0.9953 -9.655271e-02 9.655271e-02 0.9953 -31.5894 26.0034)" class="st33" width="44" height="2.7"/>
								</g>
							</g>
						</g>
					</g>
				</g>
				<g>
					<g>
						<g>
							<g>
								<g>
									
										<rect x="232.9" y="358.4" transform="matrix(0.9953 -9.654252e-02 9.654252e-02 0.9953 -33.5439 26.2865)" class="st33" width="44" height="2.7"/>
								</g>
							</g>
						</g>
					</g>
				</g>
				<g>
					<g>
						<g>
							<g>
								<g>
									
										<rect x="234.8" y="378.8" transform="matrix(0.9953 -9.656982e-02 9.656982e-02 0.9953 -35.5112 26.5806)" class="st33" width="44" height="2.7"/>
								</g>
							</g>
						</g>
					</g>
				</g>
			</g>
			<g>
				<g>
					<g>
						<g>
							<g>
								<g>
									
										<rect x="236.8" y="399.2" transform="matrix(0.9953 -9.655153e-02 9.655153e-02 0.9953 -37.4626 26.8613)" class="st33" width="44" height="2.7"/>
								</g>
							</g>
						</g>
					</g>
				</g>
				<g>
					<g>
						<g>
							<g>
								<g>
									
										<rect x="238.8" y="419.5" transform="matrix(0.9953 -9.655181e-02 9.655181e-02 0.9953 -39.4205 27.1475)" class="st33" width="44" height="2.7"/>
								</g>
							</g>
						</g>
					</g>
				</g>
			</g>
		</g>
		<g>
			<g>
				<g>
					<g>
						<g>
							<path class="st32" d="M232.7,246.1c0,0-4.3,16-5.5,21.8c-1,5-3,18.3-3.3,21.4c-0.3,3.2,12.7,33.8,14.1,39.3l11.9-1.9
								c0,0-12.5-31.8-9.3-38.9c4.9-10.5,5.5-10.2,9.3-18.9c3.8-8.7,12.6-8.9,14.9-25C264.9,243.9,235.9,241,232.7,246.1z"/>
						</g>
					</g>
				</g>
			</g>
		</g>
		<g>
			<g>
				<g>
					<g>
						<g>
							<path class="st24" d="M253.8,168.2c0,0-7.9-2.9-11.5,3.1c-3.6,6-3.3,18,0.7,19.5c4,1.5,9.9,0.7,12-3c2-3.8,3.9-9.2,3.8-12.8
								C258.6,171.3,255.9,169.2,253.8,168.2z"/>
						</g>
					</g>
				</g>
			</g>
		</g>
		<g>
			<g>
				<g>
					<g>
						<g>
							<path class="st24" d="M244.3,190.4c0,0,0.3,2.1-0.2,3.1c-0.5,1,9.9,1,9.9,1s0.8-5.5,2.5-10.2
								C258.1,179.6,244.3,190.4,244.3,190.4z"/>
						</g>
					</g>
				</g>
			</g>
		</g>
		<g>
			<g>
				<g>
					<g>
						<g>
							<path class="st34" d="M256.5,184.3c0,0-0.7,1.2-3.7,0.7c-2.9-0.5-6.5-4.4-7.8-4.8c-1.2-0.4-1.2-1.2-1.2-1.2l-0.8,1.1
								l-1.3,0.1c0,0,1.2-3.5-0.6-4.9c-1.8-1.4,1.9-11.3,11.3-8c0,0,7.2,2,7,6.1C259.1,177.5,258.1,182.2,256.5,184.3z"/>
						</g>
					</g>
				</g>
			</g>
		</g>
		<g>
			<g>
				<g>
					<g>
						<g>
							<path class="st24" d="M244,177.6c0.2-0.7,1.9-2.7,2.6-0.6c0.7,2.1-1,5-2,4.7S243.6,179.3,244,177.6z"/>
						</g>
					</g>
				</g>
			</g>
		</g>
		<g>
			<g>
				<g>
					<g>
						<path class="st35" d="M274.1,220.5c-0.1,1-1.3,2.2-2.1,2.7c-0.5,0.4-1.1,0.6-1.8,0.6l-0.5,0l0,0l-8.2,0.3
							c0,0-6.1-19.7,5.3-27.2C267.2,196.9,274.8,211,274.1,220.5z"/>
					</g>
				</g>
			</g>
		</g>
		<g>
			<g>
				<g>
					<g>
						<g>
							<path class="st32" d="M249.4,337.7c-0.7,1.3-4.5,1.1-12.1,2.1c-2.1,0.3-3.7,0.4-5,0.4l-0.4-4.6c2.2-0.8,4.8-1.6,5.8-2.3
								c1.7-1.2,3.4-3.7,3.4-3.7c4.5,0,6.2-0.9,6.2-0.9S250,336.4,249.4,337.7z"/>
						</g>
					</g>
				</g>
			</g>
		</g>
		<g>
			<g>
				<g>
					<g>
						<path class="st35" d="M244.3,192.8c0,0,6.4-1.5,10-0.3l0.5,0.5c0,0,1.1,2.1-3,2.3C247.7,195.6,241.2,195.9,244.3,192.8z"/>
					</g>
				</g>
			</g>
		</g>
		<g>
			<g>
				<g>
					<g>
						<g>
							<path class="st31" d="M269.4,343.4c0,0,1,3.8,1.1,4.4c0.1,0.6,6.1-1,6.1-1l0-4.6C276.6,342.1,270.1,342.8,269.4,343.4z"/>
						</g>
					</g>
				</g>
			</g>
		</g>
		<g>
			<g>
				<g>
					<g>
						<g>
							<path class="st32" d="M264.9,243.9c0,0,2.2,8.9,2.8,17.9c0.6,8.3,1.7,17.3,2.5,25.9c1,9.6,3.7,25.2,3.8,30.3
								c0.1,5.1,4.5,27.6,4.5,27.6l-11.1,1.3c0,0-7.2-39.8-8.9-43.8c-1.7-4.1-10.1-33-10.4-36.3
								C247.9,263.6,264.9,243.9,264.9,243.9z"/>
						</g>
					</g>
				</g>
			</g>
		</g>
		<g>
			<g>
				<g>
					<g>
						<g>
							<path class="st32" d="M270.4,347.3c0,0-1.7,2.5-3.4,3.7c-1.7,1.2-8.4,2.8-9.4,3.9c-0.7,0.8-1.7,4,9.1,2.6
								c7.6-1,11.4-0.8,12.1-2.1c0.7-1.3-2.2-9.1-2.2-9.1S274.9,347.2,270.4,347.3z"/>
						</g>
					</g>
				</g>
			</g>
		</g>
		<g>
			<g>
				<g>
					<g>
						<path class="st35" d="M230.5,266.1c-0.9-0.1,2.3-28.3,2.1-30c-0.2-1.2-0.1-10.3-0.1-16l-1-5.8c-0.6-0.4-1.3-0.9-2.3-1.4
							c-1.4-0.8-3.2-1.8-5.2-2.8c0.2-1.4,0.4-2.4,0.5-3.1c0.5-5.1,3.9-7.8,5.8-8.9c0.8-0.5,1.3-0.7,1.3-0.7c0.7-0.3,1.5-0.6,2.2-0.9
							c4.6-1.9,10.5-3.7,10.5-3.7h9.5c0,0,7.2,1.4,11.5,3.2c0.6,0.2,1.1,0.5,1.6,0.9l-1.3,27c0,0,0,0,0,0c0,0,0,0,0,0
							c-0.6,3.8-1.2,8.3-1.4,11.4c-0.1,1.3,1.4,8.2,2.2,14.5l2.7,15.1C269,265.1,267.5,271.4,230.5,266.1z"/>
					</g>
				</g>
			</g>
		</g>
		<g>
			<g>
				<g>
					<g>
						<g>
							<path class="st24" d="M182,178.4c0,0,0.6,0.7,1,0.9c0,0,0.7,0.3,1.3,0.5c0.2,0.1,0.3,0.1,0.4,0.2c0.4,0.2,1.1,0.8,2.1,1.1
								c1,0.3,5.6,1.3,5.6,1.3l1.1-2.7l0.8-2.2c0,0-4.2-5.5-5.2-5.9c-0.1,0-0.2-0.1-0.3-0.1c-0.8-0.2-1.5-0.1-1.9-0.2
								c-0.2,0-1.8-0.2-2.1,0.1c-0.5,0.5-0.6,1-0.5,1.4c0,0-0.9,1-1,1.8c0,0-0.9,0.9-0.6,2C182.5,176.8,181.7,177.7,182,178.4z"/>
						</g>
					</g>
				</g>
			</g>
		</g>
		<g>
			<g>
				<g>
					<g>
						<g>
							<path class="st35" d="M231.1,214c-1.1-0.7-2.4-1.6-7.2-4c-8.8-4.4-19.7-12.4-21.8-13.6c-3.2-1.8-13.2-14.1-13.2-14.1
								c0.5-1.9,5.3-5.6,5.3-5.6s15.3,14.4,18.6,16.2c2.9,1.5,17,3.1,20.9,3.5c0.6,0.1,1,0.1,1,0.1
								C238.8,202.2,233.4,215.5,231.1,214z"/>
						</g>
					</g>
				</g>
			</g>
		</g>
	</g>
	<g>
		<g>
			<g>
				<g>
					<path class="st36" d="M358.4,252.6c0,0,5.9,3.2,4,11.1c-1.9,7.9-2.6,9-1.1,12.2c1.5,3.2,2.8,16.6,1.2,19.1
						c-1.6,2.5-18-12-19.8-23.5c-1.8-11.5,2.3-16.4,3.7-18.3C348,251.4,353.3,249.7,358.4,252.6z"/>
				</g>
			</g>
		</g>
		<g>
			<path class="st24" d="M356.8,280.6c0,0-4.5,1.4-4.2,4.9c0.3,3.5,2.6,7.2,3.2,8.5c0.6,1.4,6.9,18,6.8,18.5
				c-0.1,0.5,0.7,6,1.1,12.5c0.4,7.4,0.4,11,0.4,11l5,0.1c0,0,1.1-19.2-0.2-24c-1.3-4.8-3.9-22-3.9-22S362.9,281.6,356.8,280.6z"/>
		</g>
		<path class="st37" d="M366.3,294.2l-9.3,3.9c0,0-8.6-21.3-1.4-18.9C362.7,281.6,365.9,286.1,366.3,294.2z"/>
		<path class="st38" d="M372.7,432.3c-1.9-1.4-6.1-9.4-6.1-9.4s-1.9-5.5-5.4-4c-2.2,1-2.4,3.4-2,5.3l0.8,9.3l0.6,0.1l0.1-6.4
			c0.9,1.9,1.4,5.6,2.6,7c1.3,1.7,7.8,1.5,9,1.6C373.5,435.8,375.2,434.1,372.7,432.3z"/>
		<path class="st38" d="M334.2,428.9c-1.1-2.1-1.3-11.1-1.3-11.1s0.8-5.8-3.1-5.9c-2.4-0.1-3.7,1.9-4.1,3.8l-3.4,8.6l0.6,0.3
			l2.9-5.7c0,2.1-1.2,5.7-0.8,7.4c0.5,2.1,6.3,4.8,7.4,5.4C333.3,432.4,335.6,431.7,334.2,428.9z"/>
		<g>
			<path class="st39" d="M349.8,345.9c0.2,1.1,1.4,5.8,2.8,11.1l0,0c1.3,4.8,2.7,10,3.5,13.3c0.3,1.2,0.5,2.2,0.7,2.8
				c0.8,3.9-0.6,9.9-1.2,15c-0.6,5.1,5.4,33.9,5.4,33.9c1.3,0.7,3.9-3.3,3.9-3.3c-0.9-1.9,0.8-34,1.4-35.9c0.6-2,1.2-7.5,0.8-9.6
				c-0.1-0.4-0.1-1-0.1-1.7c0.1-2.7,0.9-7.2,1.4-12.1c0.7-6.2-1-21.7-1.2-23.1c0-0.1-0.1-0.3-0.1-0.5c-0.5-2.2-2.3-8.4-2.3-8.4
				c-4.1-1.4-7.2-1.8-9.5-1.4c-3.1,0.5-4.9,2.3-5.9,4.6C347.2,335.9,349.6,344.5,349.8,345.9z"/>
		</g>
		<g>
			<path class="st39" d="M329.3,412.5l4,1.9c1-3.4,20.4-25.7,21.7-28.3c1.3-2.6,2.9-7.6,3.1-9.5c0-0.3,0.1-0.9,0.2-1.6
				c0.5-2.8,1.5-8.2,2.7-12.3c0.2-0.8,0.4-1.5,0.7-2.2c1.2-3.5,2.5-15.9,3.3-23.2c0.3-3.2,0.5-5.5,0.5-5.5s-0.1-0.1-0.2-0.2
				c-1.4-1.3-14.8-11.3-19-4.9c-1.1,1.7-1.9,4.1-2.5,6.1c-1.7,6-0.8,12.6,0.6,18.8c1.6,6.9,2.5,9.2,3.6,18.8
				c0.3,3.1-0.6,7.4-1.4,8.5c-2.3,3.2-4.5,6-9.7,17.7C335.1,400.5,329.3,412.5,329.3,412.5z"/>
		</g>
		<g>
			<path class="st37" d="M367.2,335.7c-3.9,0.6-29.2-4.7-29.3-5.8c-0.1-1.1,3.4-13.4,4.5-17c1.1-3.6,0-4.6-0.5-7.5
				c-0.2-1.1-1-3.3-1.8-5.7c-0.3-0.8-0.6-1.7-0.8-2.5c-1-3.1-1.5-6.2-1.7-8c-1.4-8.7,5.3-9.5,5.3-9.5c2.5-0.5,6.8-1.8,6.8-1.8
				l6.8,1.4c0,0,0.6,0.2,1.6,0.9c0,0,0,0,0,0c0.5,0.3,1,0.8,1.5,1.3c0.7,0.8,2.2,2.9,3.7,5.3c0.5,0.7,0.9,1.5,1.3,2.2
				c1.4,2.4,2.4,4.3,2.3,6.5c0,2.1-2.4,6.6-2.7,8.7c-0.3,2.1-1.4,9.6-1.1,11.6C363.3,317.9,367.2,335.7,367.2,335.7z"/>
		</g>
		<path class="st38" d="M340.1,350.7c3.5,10.9,5.5,14,3.2,18.8c0,0,0.9-1.2,7.2-0.1c1.7,0.3,3.6,0.6,5.6,0.9
			c3.4,0.5,8.3,1.3,12.1,1.5c0.1-2.7,0.5-13.5,0.6-18.4c0-7.3-1.3-15.8-1.6-17.1c0-0.1-0.1-0.3-0.1-0.5c-3-1.9-7.4-3.2-11.9-4.2
			c-2-0.4-3.9-0.8-5.8-1.1c-5.9-0.9-10.8-1.3-11.4-1.3C336.7,335.2,337.2,341.3,340.1,350.7z"/>
		<path class="st24" d="M356.4,279.2c0,0,4.2,7.3,2.7,7.8c-1.6,0.5-9.9-1.3-13.2-8.1C345.9,278.9,351.4,276.4,356.4,279.2z"/>
		<path class="st24" d="M355.8,282.6c0,0-3.8,1.6-7.2-3.7c0,0,0.9-6-1-9.4c-1.9-3.5,8.5,4.1,8.5,4.1s-0.2,0.7-0.3,1.8
			c-0.1,0.5-0.2,1.2-0.3,1.8c-0.1,0.6-0.1,1.1-0.1,1.7C355.3,280.3,355.4,281.6,355.8,282.6z"/>
		<g>
			<path class="st39" d="M365,418.7c0,0,4.5,10,5.4,11.4c0.8,1.4-1.8,1.3-3.4,0.5c-1.6-0.7-5.5-7.4-5.9-8.7c-0.4-1.3,0-3.1,0-3.1
				L365,418.7z"/>
		</g>
		<g>
			<path class="st39" d="M333.3,412.9c0,0-0.4,11-0.3,12.6c0.1,1.6-2.2,0.3-3.3-1c-1.1-1.4-1.6-9.1-1.4-10.4
				c0.2-1.3,1.4-2.7,1.4-2.7L333.3,412.9z"/>
		</g>
		<path class="st40" d="M346.4,290.7c-0.8,4-6.3,9-6.3,9c-0.3-0.8-0.6-1.7-0.8-2.5C343.1,294.7,346.4,290.7,346.4,290.7z"/>
		
			<rect x="341" y="323.8" transform="matrix(0.992 -0.126 0.126 0.992 -39.1678 47.4965)" class="st41" width="30.1" height="19.3"/>
		<g>
			<path class="st24" d="M341.8,280.8c0,0,4.7,0.6,5,4.1c0.3,3.5-1.4,7.5-1.7,9c-0.4,1.5-2,16.2-1.8,16.7c0.2,0.5,2.5,10.5,3.2,15.5
				c0.7,5,3.3,11.8,3.3,11.8l-3.8,1c0,0-9.8-21.4-9.4-26.4c0.5-5-1.2-20.8-1.2-20.8S333.8,282,341.8,280.8z"/>
		</g>
		<g>
			<g>
				<g>
					<g>
						<g>
							<path class="st24" d="M347.2,346.1c0,0-0.5-0.5-0.6-0.8c0,0-0.1-0.6-0.3-1c0-0.1-0.1-0.2-0.1-0.3c-0.1-0.3-0.5-0.9-0.7-1.6
								c-0.1-0.8,0.1-4.2,0.1-4.2l1.9-0.4l1.7-0.6c0,0,3.1,3.6,3.4,4.3c0,0.1,0,0.1,0,0.2c0.1,0.6,0,1.1,0,1.4c0,0.1,0,1.3-0.3,1.6
								c-0.4,0.3-0.8,0.4-1.1,0.3c0,0-0.8,0.6-1.4,0.6c0,0-0.7,0.6-1.5,0.3C348.4,345.9,347.6,346.4,347.2,346.1z"/>
						</g>
					</g>
				</g>
			</g>
		</g>
		<path class="st37" d="M334.7,295.9l9.9,2.3c0,0,7.8-15.2,0.8-18C338,277.3,333,287.6,334.7,295.9z"/>
		<g>
			<g>
				<g>
					<g>
						<g>
							<path class="st24" d="M369.1,343.9c0,0,0.4-0.5,0.4-0.9c0,0,0.1-0.6,0.1-1c0-0.1,0-0.2,0.1-0.3c0.1-0.3,0.4-0.9,0.4-1.7
								c0-0.8-0.8-4.2-0.8-4.2l-2-0.1l-1.8-0.3c0,0-2.5,4.1-2.6,4.8c0,0.1,0,0.1,0,0.2c0,0.6,0.2,1.1,0.3,1.4c0,0.1,0.2,1.3,0.5,1.5
								c0.4,0.3,0.8,0.3,1.1,0.1c0,0,0.9,0.5,1.5,0.3c0,0,0.8,0.4,1.5,0.1C367.8,343.9,368.7,344.3,369.1,343.9z"/>
						</g>
					</g>
				</g>
			</g>
		</g>
		<path class="st24" d="M365.4,335.5c0,0,0.4-6.9-0.9-12c-1.2-5.1,4.9-1.5,4.9-1.5l-0.2,14.5L365.4,335.5z"/>
		<g>
			<g>
				<g>
					<path class="st39" d="M357.5,253.5c0,0,8.6,3.2,3.1,18c-5.4,14.8-16.5-2.5-14.9-11.6C347.5,250.7,357.5,253.5,357.5,253.5z"/>
				</g>
			</g>
		</g>
		<g>
			<g>
				<g>
					<path class="st36" d="M362,262.5c0,0-4.5,4-11.8,4.2c0,0-1.7,4.1-2,5.4c0,0-7.2-12.3,1.1-18.6C357.5,247.3,365,259.9,362,262.5
						z"/>
				</g>
			</g>
		</g>
		<g>
			<g>
				<g>
					<path class="st39" d="M351.2,267.6c0-1.1-0.6-3.6-2.2-3c-1.7,0.6-0.2,5.8,0.9,5.5C349.9,270.1,351.2,270.2,351.2,267.6z"/>
				</g>
			</g>
		</g>
		<path class="st42" d="M355.4,278.7c-4-1.1-5.6-5-5.6-5.1c3.3,4.2,5.8,3.6,5.8,3.6C355.4,277.8,355.4,278.1,355.4,278.7z"/>
	</g>
	<g>
		<g>
			<g>
				<g>
					<path class="st24" d="M443.9,339.9c0,0-0.4,2-1.5,2.3c-1,0.3-2,1.3-2.3,1.6c-0.4,0.4-2.2,1.2-1.7,1.7c0.5,0.5,3-1.1,3.6-1.4
						s-0.3,2.5,0,3.1c0.2,0.6,4.9,1.8,5.3-0.2c0.4-2-0.5-4.3-0.4-4.6c0.1-0.3,0.3-1.4,0.3-1.4L443.9,339.9z"/>
				</g>
			</g>
		</g>
		<g>
			<g>
				<g>
					<path class="st24" d="M442,346.7c0,0-0.7,6.1-0.4,6.5c0.3,0.4,0.6,0.5,0.7-0.1c0.1-0.6,0.9-5.9,0.9-5.9s0.4,7.4,0.5,7.8
						c0.1,0.2,0.7,0.3,0.8,0c0.1-0.3,0.1-7.6,0.1-7.6s0.3,6.9,0.6,7.2c0.2,0.3,0.8,0.2,0.8-0.3c0-0.5,0.1-6.9,0.1-6.9s0.6,5,0.9,5.1
						c0.2,0.1,0.8,0.2,0.6-1.1c-0.2-1.3-0.3-4.4-0.3-4.4L442,346.7z"/>
				</g>
			</g>
		</g>
		<path class="st24" d="M411,435.9h-1.4c0,0,0.5-5.2-0.8-5.3c-1.3-0.1-4.4,4.2-6.3,4.9c-1.9,0.7-11.6,1.2-11.6-0.6
			c-0.1-1.8,3.7-2.5,4.9-3c1.2-0.5,6.9-6.1,7.9-6.7c1-0.7,2.7-4,2.7-4h5.2c0,0,0.6,2.8,0.9,5.1c0.1,0.8,0.2,1.6,0.2,2.1
			C412.7,430.4,411,435.9,411,435.9z"/>
		<path class="st24" d="M434.9,434.9h-1.1v-4.8c-1,0.1-4.2,3.1-5.2,4c-1,0.9-2.4,0.8-6.6,1.1c-4.2,0.3-4.6-2.2-3.9-3.1
			c0.7-0.9,2.8-1.2,3.9-1.8c1.1-0.5,5.5-5.5,6.7-6.7c1.2-1.2,1.9-4.5,1.9-4.5l4.9,0.4c0,0,0,3.1,0.5,5.7v0c0,0,0,0,0,0
			c0,0.2,0.1,0.4,0.2,0.6C437,428.5,434.9,434.9,434.9,434.9z"/>
		<path class="st24" d="M423.5,273c0,0,2.4,5,1.1,9.2c0,0,7.4-1,7.6-1.9c0.2-0.9-0.9-8.6-0.1-11C432.9,266.9,423.5,273,423.5,273z"
			/>
		<path class="st43" d="M423.3,280.5c0,0-4.3,1.8-6.2,2.4c-1.9,0.6-5.9,2.8-5.1,9.9c0.9,7.1,2.5,13.3,3.2,16.3s1,10.9,0.5,14.8
			c0,0,10.7,1.8,22.8-1.7c0,0-2.7-6.3-2.7-8c-0.1-1.7,6.2-16,6.3-18.2c0.2-2.2,0.9-11.9-2.5-13.8c-3.5-1.9-6.1-1.4-7.6-2.3
			C430.6,279,425.3,279.6,423.3,280.5z"/>
		<path class="st43" d="M449.5,318.1c0.2,3-1.4,23.9-1.4,23.9l-5.9,0.7c0,0,0.4-20.6,0.8-25.4c0.1-1.4-0.2-3.5-0.7-5.9v0
			c-0.3-1.5-0.7-3-1.1-4.5c-1.1-4.1-2.3-7.6-2.3-7.6s-6.6-17.2,1.7-16.5c0,0,3.1,3.2,4.4,8.4c1.3,5.2,2.8,13.1,2.9,16.2
			C447.7,310.4,449.3,315.9,449.5,318.1z"/>
		<path class="st38" d="M417.2,323.7c0,0-1.9,4.5-2.1,5.7c-0.2,1.1-6.2,16-6.6,20.4c-0.4,4.4-1.7,16.2-2.1,17.9
			c-0.4,1.7,1,9.2,1.2,10.9c0.2,1.7,0.1,29.2-1.9,42.8c0,0,4.7,2,8.3,0c0,0,6-21.2,5.6-33.5c-0.3-12.2-1.9-17.4,0-22.3
			c1.9-4.9,13-19.8,14.1-21.3c1.1-1.6,8.2-10.3,1.5-19.7C428.6,315,417.2,323.7,417.2,323.7z"/>
		<path class="st38" d="M440.1,363.9c-0.6,3.9,0,9.1,1.3,23.5c1.2,14.4-2.2,31.8-2.2,31.8c-4.3,1.5-9.2,0-9.2,0c0.1-1,0-35,0-38.1
			c0-3-0.9-6.5-1.1-10c-0.2-2.4-1.3-6.7-2.5-11.2c-0.4-1.3-0.8-2.7-1.1-4c0,0,0,0,0,0c-0.2-0.7-0.4-1.4-0.6-2.1
			c-1.7-6.1-4.1-29.5-4.1-29.5s13-10.5,19.4-0.6c6.3,9.9,3.1,17.1,2.9,18.3C442.6,343.2,440.7,359.9,440.1,363.9z"/>
		<path class="st43" d="M414.9,306c0,0,1.2,18.6-2.3,29.1c0,0,13.8,2.3,31.3-3.6c0,0-4.8-12.5-4.7-14.5c0.2-2,5.2-24.7,2.8-29.8
			C439.6,282.1,415.8,289.3,414.9,306z"/>
		<path class="st24" d="M426.1,252.2c-3.1-0.1-11.2,1.1-9.7,13.2c1.5,12.1,5.9,11.1,10.2,9.4c4.3-1.6,8.9-11.4,8.7-13.9
			C435.2,258.4,435.1,252.6,426.1,252.2z"/>
		<path class="st44" d="M416.5,259.8c0,0,3.8,4.2,7.5,5c0,0,3.1,4.7,7.9,5.6c0,0,9.4-10.4,0.4-17.1
			C423.2,246.7,416.2,256.1,416.5,259.8z"/>
		<path class="st24" d="M423.2,263.3c0.1-0.7,1.4-2.1,2.7-0.7c1.2,1.4-0.6,5.1-1.4,5.2C423.7,267.8,422.9,265.8,423.2,263.3z"/>
		<path class="st45" d="M434.7,342.8c-0.1,0.2-6.6,14.6-8.3,17.1c-0.4-1.3-0.8-2.7-1.1-4c0,0,0,0,0,0S434.5,343.1,434.7,342.8z"/>
		<path class="st46" d="M442.5,296.6c0,0,0.5,9.2-0.3,14.8c-0.3-1.5-0.7-3-1.1-4.5C441.1,306.7,442.3,298.1,442.5,296.6z"/>
		<path class="st44" d="M428.6,251.5c0,0,10.9-0.3,9.3,18.6c-1.3,14.5,4.1,21.6,3.3,23.7c-0.7,2.1-3.3,5.6-9.1,2.5
			c-5.7-3.2-2-19.7-5.1-26.2c-3.1-6.4-9.9-9.4-9.9-9.4S418.4,249.6,428.6,251.5z"/>
		<path class="st43" d="M413.8,289.5c0,0-2.8,10-3.4,12.2c-0.8,2.7,3.1,6.8,6.3,5.2C419.9,305.3,413.8,289.5,413.8,289.5z"/>
		<path class="st47" d="M434.9,434.9h-1.1v-4.8c-1,0.1-4.2,3.1-5.2,4c-1,0.9-2.4,0.8-6.6,1.1c-4.2,0.3-4.6-2.2-3.9-3.1
			c0.7-0.9,2.8-1.2,3.9-1.8c4.5,0.2,10-6.1,12.6-6.1c1.4,0,1.4,0.8,1.4,0.9v0c0,0,0,0,0,0c0,0.2,0.1,0.4,0.2,0.6
			C437,428.5,434.9,434.9,434.9,434.9z"/>
		<path class="st47" d="M411,435.9h-1.4c0,0,0.5-5.2-0.8-5.3c-1.3-0.1-4.4,4.2-6.3,4.9c-1.9,0.7-11.6,1.2-11.6-0.6
			c-0.1-1.8,3.7-2.5,4.9-3c4,0,10.5-4.4,12.5-5.3c2-0.9,4.2-0.4,4.2-0.4c0.1,0.8,0.2,1.6,0.2,2.1C412.7,430.4,411,435.9,411,435.9z"
			/>
		<g>
			<path class="st38" d="M364.4,267.9l-0.6,0.6l-0.6,0.6c0,0,4.8,4.8,8.5,7.1C369.4,272.5,364.4,267.9,364.4,267.9z"/>
			<path class="st48" d="M360.6,265.3c-1.3,1.3-1.1,1.4-1.1,1.4c2.4,2.3,3.9,2.2,3.9,2.2l0.5-0.5l0.5-0.5c0,0,0-1.6-2.4-3.8
				C361.9,264.1,361.8,264,360.6,265.3z"/>
		</g>
		<g>
			<g>
				<g>
					<g>
						<g>
							<path class="st24" d="M365.8,278.1c0,0,0.6,0.4,0.9,0.5c0,0,0.6,0.1,1.1,0.1c0.1,0,0.3,0,0.3,0.1c0.3,0.1,1,0.4,1.8,0.4
								c0.8,0,4.5-0.2,4.5-0.2l0.2-2.3l0.1-1.8c0,0-4.4-3.2-5.2-3.3c-0.1,0-0.2,0-0.2,0c-0.7,0-1.2,0.3-1.5,0.3
								c-0.1,0-1.4,0.2-1.6,0.6c-0.3,0.5-0.3,0.9-0.1,1.2c0,0-0.5,0.9-0.3,1.6c0,0-0.5,0.8,0,1.6
								C365.8,276.8,365.4,277.7,365.8,278.1z"/>
						</g>
					</g>
				</g>
			</g>
		</g>
		<path class="st43" d="M425.9,289c0,0-0.8-8.7-8.8-6.4c-7,2-14,2.6-15.3,2.3c-1.3-0.3-6.2-1.2-9.1-2.8c-2.9-1.7-17.8-7.4-17.8-7.4
			l-2.4,4.4c0,0,16.9,10.3,19.4,11.1c2.5,0.8,22.7,5.5,25,5.2C419.2,294.9,425.9,294.8,425.9,289z"/>
	</g>
	<g>
		<g>
			<path class="st49" d="M120,253.1c0,0,0.2,2.3,0.7,3.1c0.5,0.9,2.2,6.1,3,7.4c0.7,1.3,3.7,2.3,3.5,4.6c-0.1,2.3-5.5,2.7-7,1.6
				c-1.5-1.1-6.4-8.1-6.9-9.1c-0.6-1-0.8-4.5,0.2-5.5c1-1,2.1-3,2.1-3.5C115.6,251.3,119.4,252.2,120,253.1z"/>
		</g>
		<g>
			<path class="st24" d="M113.7,183.7c0,0,9.7,12.8,11.4,16.6c1.7,3.8,4.6,9.2,4.6,11c0,1.8-1.5,8.9-2.2,10.3
				c-0.7,1.4-5.9,24.5-6.1,26c-0.3,1.5-1.3,5.6-1.3,5.6l-4.4-1.3c0,0-0.5-20.5,0.3-24.5c0.8-4.1,3.2-10,2.8-11.8
				c-0.4-1.9-6.3-7-10.4-9.8c-4.1-2.8-8.9-7.1-9.2-11.6c-0.3-4.5,2-9.5,2-9.5S105.7,181.4,113.7,183.7z"/>
		</g>
		<g>
			<path class="st24" d="M124.7,182.6c0,0,2.8,4.1,4.2,5.1c1.4,1,11.1,10.3,13.9,14.8c2.8,4.5,3.8,5.2,3.2,7.2c-0.6,2-1.4,7.2-2,8.6
				c-0.6,1.4-8.8,33.7-8.8,33.7s-3.3,0.8-4.3-0.6c0,0,1.9-14,1.4-19.1c-0.5-5.1,0.5-12.5,2.6-16.2c2.1-3.7,0.6-6.2-1.8-7.9
				c-2.4-1.7-16-9.3-16-9.3S100.7,176.1,124.7,182.6z"/>
		</g>
		<g>
			<path class="st49" d="M135,251.8c0,0,0.1,0.8,0.3,0.9c0.2,0.1,4.1,5.8,4.8,6.6c0.7,0.8,5.3,2.1,5.4,2.7c0.1,0.5-0.6,3.6-4.4,3.7
				c-3.8,0.1-6.9-3.2-8.5-4.4c-1.5-1.2-5.8-2.4-4.2-5.6c1.5-3.1,2.3-4.4,2.3-4.4L135,251.8z"/>
		</g>
		<g>
			<path class="st24" d="M114.1,254.6c0,0,1.2,1.9,2,4.5c0.8,2.6,3.8,6.1,5.8,6c2.1-0.1,1.7-1.6,1.7-1.6s-2.2-6-3.1-7.9
				c-0.2-0.3-0.4-1.8-0.5-2.4c-0.1-0.3-3.1-1.6-4.4-1.3C115.6,251.8,114.4,254.2,114.1,254.6z"/>
		</g>
		<g>
			<path class="st24" d="M140.3,259.5c0,0-0.7,1.8-2.4,1.5c-1.7-0.3-3.7-2.3-4.7-3.4c-1-1.1-3.9-3.4-3.9-3.4l1.6-2.8l4.2,0.3
				L140.3,259.5z"/>
		</g>
		<g>
			<path class="st44" d="M124.6,182.2c0,0,3,4,4,4.7c1,0.8,9.5,7.7,14.8,16.5c0,0-16.8-0.6-26.1,9.8c0,0-9.1-7.5-10.1-8.3
				c-1-0.8-7.5-4.6-8-10.7c-0.5-6.1,2-9.5,2-9.5S119.4,180.4,124.6,182.2z"/>
		</g>
		<g>
			<path class="st28" d="M126.7,164.5c-2.2,3.7-2.6,16.9-2,18.2c0,0-12.7,3.9-23.8,2.3c0,0,0.6-1.2,1.1-2.8c0.2-0.6,0.5-1.3,0.7-2
				c0.8-2.2,1.7-4.7,2.1-5.7c1-2.3,0.6-6.2-0.1-7.5c-0.8-1.3-5.3-11.4-5.3-11.4s-2.4-7.2,1.7-9.4c4.2-2.2,8.1-3,8.1-3l7.4-0.5
				c0,0,1.6,0.3,3.8,0.5c2.2,0.2,4.4,0.6,4.9,4.1c0.5,3.6,0.9,5.5,1.4,6.4C127.1,154.6,129.2,160.2,126.7,164.5z"/>
		</g>
		<g>
			<path class="st28" d="M103.8,144.8c0,0-4.3,0.6-6.2,3.9c-1.9,3.3-1.8,7.8-2.2,9.6c-0.4,1.8-3,18.5-2.5,20c0.5,1.4,2.3,3.9,5,3.6
				c2.7-0.3,13.8-6.1,13.8-6.1s-1.5-4.3-1.5-5.2l-10.7,3.7c0,0,2.6-17.5,2.9-19.4C102.8,153,104.9,146.5,103.8,144.8z"/>
		</g>
		<g>
			<path class="st28" d="M122.4,143.4c0,0,3.3,0.7,5.2,3.4c1.3,1.9,1.4,6.1,1.6,6.9c0.2,0.8,2.7,9.8,2.7,9.8l-6.9,4.6L122.4,143.4z"
				/>
		</g>
		<g>
			<polygon class="st49" points="125.5,160.8 101.4,153.6 100.4,154.4 98.4,173.4 125.5,183.6 			"/>
		</g>
		<g>
			<path class="st49" d="M122.9,130.2c0,0-2.3,11.1-0.7,14.1c0,0-5-1.8-6-3.9C115.3,138.4,122.9,130.2,122.9,130.2z"/>
		</g>
		<g>
			<g>
				<path class="st24" d="M117.4,138.6c0,0-0.1,1.1-0.2,2.6c0,0.5-0.1,1-0.1,1.6c-0.1,1.8-0.2,3.7-0.2,4.7c0,0-3.6,3.8-7.6-4.5
					c0,0,1.7-3.4,0.4-8.1C108.4,130.4,117.4,138.6,117.4,138.6z"/>
			</g>
		</g>
		<g>
			<path class="st24" d="M117.3,116.7c0,0,6.3,0.6,6.6,8.7c0.3,8.1-3.1,14.7-4.3,15.7c-1.2,1-7.3-0.6-8.4-4.9
				c-1-4.3-2.9-7.6-2.1-11.1C109.8,121.6,109.6,115.6,117.3,116.7z"/>
		</g>
		<g>
			<path class="st49" d="M123.8,128.4c0,0,2.8-9.7-5.4-12.5c-8.1-2.8-11.7,2.9-12.9,6.4c-1.2,3.5-1.4,13.8-1.4,13.8s5,5.9,8.1,7.7
				c0,0-1.6-11.2,0.3-18.8c0,0,6.6,2,11.3,1.4C123.9,126.4,123.9,128,123.8,128.4z"/>
		</g>
		<g>
			<path class="st42" d="M117.1,141.2c0,0.5-0.1,1-0.1,1.6c-3.7-1.9-4.5-4.2-4.5-4.2C115,141,117.1,141.2,117.1,141.2z"/>
		</g>
		<g>
			<path class="st50" d="M126.7,153.8c0,0,3.9,6.6,3,10.9c-0.9,4.3-3.8,1.8-3.8,1.8S129.8,161.6,126.7,153.8z"/>
		</g>
		<g>
			<polygon class="st49" points="127.1,183.6 142.8,170 147.2,147.7 128.1,160.8 			"/>
		</g>
		<g>
			<polygon class="st49" points="125.5,183.6 127.1,183.6 128.1,160.8 125.5,160.8 			"/>
		</g>
		<g>
			<path class="st24" d="M110.4,171.3c0,0,2-0.7,2.3-0.9c0.2-0.1,0.5-2.3,1.5-3.1c1-0.8,2.3-1.7,2.6-2.1c0.3-0.4,0.8,0.7-0.1,1.7
				c-0.9,1-0.9,1.7,1.3,1.3c1.2-0.3,5.2-2.7,5.2-1.8c0,0.5-3.9,2.7-3.9,2.7s4.4-2,4.6-1.8c0.5,0.4-3.8,2.6-4,2.7c0,0,3.8-1.5,4-1.1
				c0.2,0.4-3.7,2-3.6,2c0,0,3.1-1.1,3.1-0.9c0.1,0.4-2.5,1.6-3,1.8c-0.5,0.2-6.1,2.2-7.1,2.3c-0.9,0.1-1.7,1.1-1.7,1.1L110.4,171.3
				z"/>
		</g>
		<g>
			<path class="st28" d="M111.1,170.5c0,0,1.2,2.9,1.4,4.9c0,0-6.9,3.6-11.5,5.4l-3.5-7.6l0.7,0.1l1.2,0.4
				C99.5,173.9,108.5,171.3,111.1,170.5z"/>
		</g>
		<g>
			<path class="st24" d="M135.4,250.7c0,0,0.3,2.8,0.8,3.1C136.7,254.1,131.6,252.9,135.4,250.7z"/>
		</g>
		<path class="st50" d="M107.6,177.9c-0.1,0.1-3.8,3-5.6,4.3c0.2-0.6,0.5-1.3,0.7-2L107.6,177.9z"/>
		<polygon class="st49" points="142.8,170 148.7,148.4 147.2,147.7 		"/>
		<g>
			<g>
				<path class="st24" d="M143,169.3c0,0,0.6-1,1-2.2c0.5-1.2,1.8-5.8,1.5-6c-0.3-0.2-3.8,0.6-4.3,1.3c-0.5,0.7,0.8,0.6,0.8,0.6
					s-1.9,0.7-1.6,1.2c0.3,0.5,1.4,0.1,1.4,0.1s-1.5,0.7-1.1,1.1c0.4,0.4,1.1,0.2,1.1,0.2s-1.3,0.5-1,1c0.3,0.5,2.6,0.4,2.4,0.9
					C143,168,143,169.3,143,169.3z"/>
			</g>
		</g>
	</g>
</g>
</svg>
