<?xml version="1.0" encoding="utf-8"?>
<!-- Generator: Adobe Illustrator 23.0.3, SVG Export Plug-In . SVG Version: 6.00 Build 0)  -->
<svg version="1.1" id="Layer_2" xmlns="http://www.w3.org/2000/svg" xmlns:xlink="http://www.w3.org/1999/xlink" x="0px" y="0px"
	 viewBox="0 0 500 500" style="enable-background:new 0 0 500 500;" xml:space="preserve">
<style type="text/css">
	.st0{fill:#EDE7E4;}
	.st1{fill:#F7F6F0;}
	.st2{fill:#F1D1B6;}
	.st3{fill:#92B7C2;}
	.st4{fill:#A7C4CC;}
	.st5{opacity:0.5;fill:#D1D3D4;}
	.st6{fill:#BCCACE;}
	.st7{fill-rule:evenodd;clip-rule:evenodd;fill:#67BDD4;}
	.st8{fill:#67BDD4;}
	.st9{fill:#758798;}
	.st10{fill:#F4A086;}
	.st11{fill-rule:evenodd;clip-rule:evenodd;fill:#E3B930;}
	.st12{fill:#F7B690;}
	.st13{fill-rule:evenodd;clip-rule:evenodd;fill:#0A3C5F;}
	.st14{fill:#255880;}
	.st15{fill:#2D6C9C;}
	.st16{fill-rule:evenodd;clip-rule:evenodd;fill:#FDD247;}
	.st17{fill:#3C79A6;}
	.st18{fill:#A2D1EB;}
	.st19{fill-rule:evenodd;clip-rule:evenodd;fill:#818BEA;}
	.st20{fill-rule:evenodd;clip-rule:evenodd;fill:#222B56;}
	.st21{fill:#7EA8C4;}
	.st22{opacity:0.5;fill:#92B7C2;}
	.st23{fill:#FE6B80;}
</style>
<g>
	<g>
		<g>
			<path class="st0" d="M110.4,286c3.1-9.1,13.4-12.6,18.7-20.5c6-9.1,3.7-22.2-2.6-30.6c-0.4-0.5-30.8-60.4-62.7-34.3
				c-9.2,7.6-13.5,35.4-14.7,47.8c-1.8,19-3.5,38-5.3,57.1c-2.3,24.9,18.1,43.8,41.1,38c9.5-2.4,24.7-10.2,28.4-20.8
				C117.6,310,106.2,298.5,110.4,286z"/>
			<g>
				
					<rect x="39.6" y="381.7" transform="matrix(2.197519e-02 -0.9998 0.9998 2.197519e-02 -305.4188 453.9556)" class="st0" width="79.4" height="2.8"/>
			</g>
			<g>
				
					<rect x="38.1" y="298.9" transform="matrix(2.222507e-02 -0.9998 0.9998 2.222507e-02 -220.9011 374.7622)" class="st1" width="86.2" height="2.8"/>
			</g>
			<g>
				<polygon class="st1" points="81.9,277.3 59.5,263.7 61,261.3 81.5,273.7 103.9,252 105.9,254 				"/>
			</g>
			<g>
				<polygon class="st1" points="80.9,309.6 57.6,300.7 58.7,298.1 81,306.7 106.8,299.7 107.5,302.4 				"/>
			</g>
			<g>
				
					<rect x="86.2" y="296.1" transform="matrix(0.3621 -0.9322 0.9322 0.3621 -217.0103 277.9246)" class="st1" width="16.7" height="2.8"/>
			</g>
			<g>
				
					<rect x="67.2" y="253" transform="matrix(0.9999 -1.101860e-02 1.101860e-02 0.9999 -2.864 0.7719)" class="st1" width="2.8" height="14.6"/>
			</g>
		</g>
		<g>
			<path class="st0" d="M37.9,319.3c0.4-8.2,0.6-17.2-4.3-23.7c-4.3-5.6-12.2-8.1-19-6.2c-6.8,1.9-12.2,8-13.4,15
				c-1.1,6.3,1,12.6,1.8,18.9c1.9,14.6-3.1,30.2,2.7,43.7c3.2,7.4,11.3,13.8,18.9,11.1c8.1-2.9,10.9-13.5,11.4-21.2
				C36.8,344.4,37.2,331.8,37.9,319.3z"/>
			<g>
				
					<rect x="19.5" y="378.7" transform="matrix(0.9995 -3.081473e-02 3.081473e-02 0.9995 -12.5565 0.8369)" class="st0" width="2.8" height="58.3"/>
			</g>
			<g>
				
					<rect x="17.7" y="323.4" transform="matrix(0.9995 -3.081635e-02 3.081635e-02 0.9995 -10.8095 0.7561)" class="st1" width="2.8" height="55.3"/>
			</g>
			<g>
				<polygon class="st1" points="19,343 7.5,333.5 9.3,331.3 18.7,339 29.5,326.9 31.6,328.8 				"/>
			</g>
			<g>
				
					<rect x="13.2" y="352.7" transform="matrix(0.3679 -0.9298 0.9298 0.3679 -323.522 239.7248)" class="st1" width="2.8" height="10.4"/>
			</g>
		</g>
	</g>
	<g>
		<g>
			<path class="st2" d="M427.6,241.3c-2.6-10.3-13.7-14.9-18.8-24c-5.9-10.5-2.2-24.7,5.5-33.4c0.5-0.6,38.9-63.7,71.7-32.4
				c9.5,9.1,11.9,40,12.1,53.7c0.3,21,0.7,42.1,1,63.1c0.4,27.6-23.5,46.5-48.3,38.2c-10.3-3.4-26.3-13.3-29.4-25.3
				C417.7,267,431.2,255.4,427.6,241.3z"/>
			<g>
				
					<rect x="340.6" y="324.8" transform="matrix(5.420028e-02 -0.9985 0.9985 5.420028e-02 104.5199 762.7697)" class="st0" width="228.5" height="2.8"/>
			</g>
			<g>
				<polygon class="st0" points="459.7,233.9 435.4,206.5 437.5,204.6 460.3,230.4 484,218.5 485.2,221 				"/>
			</g>
			<g>
				<polygon class="st0" points="458,269.6 429.4,259.5 430.4,256.8 458.1,266.6 483.4,259.1 484.3,261.8 				"/>
			</g>
			<g>
				
					<rect x="442.6" y="246.1" transform="matrix(0.9571 -0.2898 0.2898 0.9571 -54.9292 139.6564)" class="st0" width="2.8" height="18.4"/>
			</g>
			<g>
				
					<rect x="467.6" y="215.2" transform="matrix(8.715827e-02 -0.9962 0.9962 8.715827e-02 218.3876 671.561)" class="st0" width="16.1" height="2.8"/>
			</g>
		</g>
		<path class="st0" d="M372.6,328.4c1.2-2.6,2.9-4.8,4.2-7.4c1.2-2.5,1.9-5.6,0.7-8.2c-1.7-3.6-6.4-4.9-8.7-8.1
			c-2.8-3.9-1.6-9.3,0.7-13.5c2.3-4.2,5.5-8,6.6-12.6c1.5-6.3-1.1-13,0-19.3c0.9-5.1,4.4-9.8,9.3-11.5c4.9-1.7,10.9,0,13.7,4.3
			c4,6.1,0.9,14.5,2.7,21.6c1.8,7.1,8.5,12.6,8.7,19.9c0.2,5-2.7,9.5-4.2,14.3c-1.6,5.5-1.3,11.3-0.7,16.9c0.6,5.7,1.4,11.4,0.6,17
			c-1.4,10.7-12.5,22.7-23.8,15C374.5,351.3,368.5,337.4,372.6,328.4z"/>
		<g>
			
				<rect x="388.9" y="277.6" transform="matrix(1 -4.294612e-03 4.294612e-03 1 -1.5449 1.6795)" class="st0" width="2.8" height="165.9"/>
		</g>
	</g>
	<path class="st0" d="M466.7,431.9c-33.4-11.8-71.6-2.3-104.1-16.4c-12.9-5.6-24.2-14.6-37.2-19.9c-54.4-22.1-120.2,36.1-174,12.5
		c-37-16.2-50.4-47.5-100.1-1.3c-17.2,16-32.8,22.7-50,38.7h489.9C483.8,439.7,475.5,435,466.7,431.9z"/>
	<g>
		<rect x="200.8" y="389.8" class="st3" width="101.1" height="56"/>
		<path class="st4" d="M326.6,445.8H176.1c-4.2,0-7.5-3.4-7.5-7.5l0,0c0-4.2,3.4-7.5,7.5-7.5h150.5c4.2,0,7.5,3.4,7.5,7.5l0,0
			C334.1,442.4,330.7,445.8,326.6,445.8z"/>
		<rect x="200.8" y="389.8" class="st5" width="101.1" height="15.8"/>
		<path class="st3" d="M419.7,393.5H83c-8.5,0-15.4-6.9-15.4-15.4V163.9c0-8.5,6.9-15.4,15.4-15.4h336.7c8.5,0,15.4,6.9,15.4,15.4
			v214.2C435,386.6,428.2,393.5,419.7,393.5z"/>
		
			<rect x="154" y="85.7" transform="matrix(-1.836970e-16 1 -1 -1.836970e-16 509.0154 6.346)" class="st1" width="194.7" height="343.9"/>
		<g>
			<path class="st6" d="M405.3,195.5H97.4c-4.1,0-7.4-3.3-7.4-7.4v-7.5c0-4.1,3.3-7.4,7.4-7.4h307.9c4.1,0,7.4,3.3,7.4,7.4v7.5
				C412.7,192.2,409.4,195.5,405.3,195.5z"/>
			<path class="st6" d="M406.2,204.8H296c-3.1,0-5.6,2.5-5.6,5.6V286c0,3.1,2.5,5.6,5.6,5.6h110.3c3.1,0,5.6-2.5,5.6-5.6v-75.6
				C411.8,207.3,409.3,204.8,406.2,204.8z"/>
			<path class="st6" d="M135.3,346.7H97.9c-4.4,0-7.9-3.5-7.9-7.9v-64c0-4.4,3.5-7.9,7.9-7.9h37.4c4.4,0,7.9,3.5,7.9,7.9v64
				C143.2,343.2,139.6,346.7,135.3,346.7z"/>
			<rect x="297.8" y="240.8" class="st1" width="102.8" height="4.2"/>
			<rect x="297.8" y="248.8" class="st1" width="55.7" height="4.2"/>
			<path class="st6" d="M202.7,346.7h-37.4c-4.4,0-7.9-3.5-7.9-7.9v-64c0-4.4,3.5-7.9,7.9-7.9h37.4c4.4,0,7.9,3.5,7.9,7.9v64
				C210.6,343.2,207.1,346.7,202.7,346.7z"/>
			<path class="st6" d="M270.2,346.7h-37.4c-4.4,0-7.9-3.5-7.9-7.9v-64c0-4.4,3.5-7.9,7.9-7.9h37.4c4.4,0,7.9,3.5,7.9,7.9v64
				C278,343.2,274.5,346.7,270.2,346.7z"/>
			<path class="st7" d="M90,248.2l27.7-27.7c2.9-2.9,7.7-2.9,10.6,0l6.8,6.8c2.9,2.9,7.7,2.9,10.6,0l0,0c2.9-2.9,7.7-2.9,10.6,0
				l10,10c2.9,2.9,7.7,2.9,10.6,0l30.3-30.3c2.9-2.9,7.7-2.9,10.6,0l14.2,14.2c2.9,2.9,7.7,2.9,10.6,0l5.2-5.2
				c2.9-2.9,7.7-2.9,10.6,0l19.9,19.9v20H90V248.2z"/>
			<path class="st6" d="M137,207.1h-18.7c-0.9,0-1.7-0.8-1.7-1.7l0,0c0-0.9,0.8-1.7,1.7-1.7H137c0.9,0,1.7,0.8,1.7,1.7l0,0
				C138.7,206.3,138,207.1,137,207.1z"/>
			<path class="st6" d="M165,207.1h-18.7c-0.9,0-1.7-0.8-1.7-1.7l0,0c0-0.9,0.8-1.7,1.7-1.7H165c0.9,0,1.7,0.8,1.7,1.7l0,0
				C166.7,206.3,166,207.1,165,207.1z"/>
			<g>
				<polygon class="st8" points="123.5,218.3 122.8,218.3 122.8,211.6 127.4,207 127.9,207.5 123.5,211.9 				"/>
			</g>
			<path class="st6" d="M267.2,207.1h-18.7c-0.9,0-1.7-0.8-1.7-1.7l0,0c0-0.9,0.8-1.7,1.7-1.7h18.7c0.9,0,1.7,0.8,1.7,1.7l0,0
				C269,206.3,268.2,207.1,267.2,207.1z"/>
			<g>
				<polygon class="st8" points="253.7,218.3 253,218.3 253,211.6 257.6,207 258.1,207.5 253.7,211.9 				"/>
			</g>
			<g>
				<polygon class="st8" points="151.5,225.1 150.8,225.1 150.8,211.6 155.4,206.9 155.9,207.4 151.5,211.8 				"/>
			</g>
			
				<ellipse transform="matrix(0.2306 -0.973 0.973 0.2306 -99.9079 242.2981)" class="st9" cx="103.3" cy="184.3" rx="6.2" ry="6.2"/>
			<rect x="122.3" y="182.2" class="st1" width="53.4" height="4.2"/>
			<rect x="191.1" y="182.2" class="st1" width="53.4" height="4.2"/>
			<rect x="260" y="182.2" class="st1" width="53.4" height="4.2"/>
			<rect x="328.9" y="182.2" class="st1" width="53.4" height="4.2"/>
			<rect x="297.8" y="211.9" class="st7" width="104.9" height="24.7"/>
		</g>
	</g>
	<g>
		<path class="st10" d="M140.8,350.5c4.8-0.7,11.9-2.3,15.8-5.1s6.7-7.5,6.3-12.3c-0.2-2.2-1.1-4.3-2-6.4l12.4-1.6
			c0.5,2.2,0.8,4.5,0.8,6.8c0.1,6.2-1.8,12.7-6.4,17c-3,2.7-6.8,4.4-10.8,5.2c-4,0.8-11.4,0.9-15.5,1
			C140.3,355,139.7,350.6,140.8,350.5z"/>
		<path class="st10" d="M129.4,351.7c-0.5,0.2-1,0.4-1.4,0.7c-0.4,0.4-0.6,0.9-0.5,1.4c0.2,0.7,1.1,1.1,1.8,1.2
			c2.3,0.5,4.7,0.6,7.1,0.8c0.3,0,0.5,0,0.8,0c0.3,0,0.6,0,1,0c1.4,0,3.1-0.2,3.9-1.5c0.5-0.9,0.7-2.1,0-2.9
			c-1.6-1.8-5.3-1.3-7.3-1.1C132.9,350.7,131.1,351.1,129.4,351.7z"/>
		<path class="st11" d="M159.7,324.3c-1.4-2.8-2.6-5.9-2-9c1.2-7,9-6.4,12.1-1.3c1.2,2,1.7,4.6,2.3,6.7c0.4,1.4,0.8,2.9,1.1,4.4
			l-12.2,3.6C160.7,327.9,160.1,325.1,159.7,324.3z"/>
		<path class="st12" d="M69.1,386.9c0,0.4,0,0.9-0.3,1.3c-0.3,0.4-0.9,0.5-1.4,0.6c-1.2,0.2-2.4,0.3-3.6,0.5
			c-0.4,0.1-0.8,0.1-1.1-0.2c-0.2-0.3-0.2-0.6-0.1-1c0.2-1.1,0.3-2.1,0.5-3.2c0.2-0.9,0.3-1.9,0.9-2.7c0.8-1.1,3.6-2.1,4.8-1
			C69.8,382.4,69.1,385.5,69.1,386.9z"/>
		<path class="st13" d="M51.3,395.8c-0.3-0.9,0.4-1.9,1.3-2.3c0.9-0.4,1.9-0.5,2.8-0.7c2.7-0.7,4.9-2.9,5.6-5.5
			c0.1-0.4,0.2-0.8,0.5-1c0.4-0.3,1-0.3,1.4-0.1c0.5,0.2,0.8,0.6,1.2,0.9c0.8,0.5,1.7,0.6,2.6,0.4c0.7-0.2,1.4-0.9,2.2-0.7
			c0.7,0.2,1.1,1,1.4,1.6c0.5,1,1,2,1.5,3c0.1,0.2,0.2,0.5,0.3,0.7l-5.1,1.2c-0.3-0.3-0.7-1.2-0.9-1.6c0.1,0.4,0.1,1.4,0,1.8
			l-14.1,3.3C51.6,396.4,51.4,396.1,51.3,395.8z"/>
		<path class="st13" d="M60.2,379.5c-1.1-0.4-2.1-1.1-3.2-1.5c-2.1-0.8-4.5-0.4-6.7-1c-2.4-0.6-4.4-2.4-5.3-4.7
			c-0.2-0.5-0.3-1.1,0-1.5c0.3-0.4,0.8-0.5,1.3-0.6c3.8-0.4,4.8,1.1,8.5,1.3c1,0.1,5.2-0.6,7.3,0.2c2.3,0.8,2.1,1.8,2.2,2.7
			c0.1,0.9-0.1,3.9-0.8,4.5C62.6,379.7,61.2,379.8,60.2,379.5z"/>
		<path class="st10" d="M64.1,371c0.1-0.4,0.2-0.9,0-1.3c-0.2-0.5-0.8-0.7-1.3-0.9c-1.1-0.4-2.3-0.9-3.4-1.3c-0.3-0.1-0.8-0.3-1.1,0
			c-0.3,0.2-0.3,0.6-0.3,0.9c-0.1,1.1-0.1,2.2-0.2,3.2c-0.1,0.9-0.1,1.9,0.3,2.8c0.6,1.2,3.1,2.9,4.4,2
			C63.8,375.6,63.8,372.3,64.1,371z"/>
		<path class="st14" d="M62.4,338.7c0.4-1.8,1-3.6,2-5.1l9.8,12c-2.3,0.7-3.6,3-4.6,6.9c-3.7,14.1-5,19.4-6,20.8
			c-0.7,1.1-5.7,0.4-6.2-0.9C56.2,368.9,60.1,347.5,62.4,338.7z"/>
		<path class="st15" d="M121.8,355.4c-2.5,1.8-15.4,2.1-18.4,1.9c-4.4-0.3-8.9-0.7-13.3-1c-2.1-0.2-7.3-1.9-9-0.7
			c-2.3,1.7-9.2,25-11.2,28c-0.7,1-6.3,1.5-6.9-0.2c-0.6-1.8,2.5-20.3,3.8-27.6c0.5-2.8,1-5.7,2-8.3c1-2.7,2.7-5.2,5.1-6.8
			c3.3-2.3,35.8-0.9,37.3,0C113.2,341.7,124.4,353.5,121.8,355.4z"/>
		<path class="st14" d="M131.2,335.1c1.7,1.2,2.9,3.1,3.5,5c1.8,5.3-0.2,11.6-4.6,15c-4.4,3.4-16.1,3.2-22.6-2.1
			c-4.3-3.5-0.2-6.4,1.1-11.8c0.7-2.7,2.5-5.6,5.1-6.6c4.5-0.4,6.5,0.7,9.8,0.3C126.5,334.6,128.2,333,131.2,335.1z"/>
		<path class="st14" d="M65.9,331.9c17.3-3.3,39,1.6,48.2,2.8c2.4,3,3,13,1.7,16.3c-2,5.3-7.3,5-11.9,3.7
			c-7.4-2.1-14.6-4.6-21.6-7.7c-3.7-1.6-11-5.1-12.7-2l-5.3-11.5C64.8,332.9,65.2,332.1,65.9,331.9z"/>
		<path class="st16" d="M166,308.1c1.2,1.6,1.5,3.6,1.7,5.5c0.6,8.7-3.4,17.3-9.1,23.8c-5.7,6.6-13.1,11.5-20.6,16.1
			c-2.3,1.5-5.7,2.5-9.4,2.6c-1-3.3-1.7-13.1-2.7-16.3c-0.5-1.7-1.1-3.5-0.6-5.3c0.7-2.7,3.5-4.2,6-5.5c6.8-3.6,12.8-8.6,17.8-14.4
			c1.7-2,3.3-4.1,5.3-5.9C157.4,306,163,304,166,308.1z"/>
		<g>
			<path class="st10" d="M164.8,306.1c0.2,0.5,0.4,1.1,0.4,1.6c0,0.6-0.3,1.2-0.8,1.4c-0.4,0.1-0.8,0.1-1.2,0
				c-2.2-0.3-4.3-0.7-6.5-1c0.5-2.5,0.2-5.2-1-7.5c-0.3-0.6-0.7-1.2-0.6-1.9c0.2-0.7,0.8-1.1,1.5-1.4c1.4-0.7,2.9-1.2,4.5-1.4
				c1.8-0.3,2.7-0.8,2.8,1C164,300.1,163.8,302.9,164.8,306.1z"/>
			<path class="st12" d="M167.6,290c1.1,1.9,1.3,4.6-0.3,6.2c-0.9,0.9-2.2,1.3-3.5,1.7c-2.2,0.7-4.5,1.3-6.7,2
				c-1.4,0.4-4.7-0.2-5.9-1c-1.2-0.8,0-1.7,0-3.1c0-2.3,2.1-5.5,2.9-7.7c0.8-2.2,0.9-3.2,3.1-4C161.1,282.7,165.8,286.9,167.6,290z"
				/>
			<path class="st13" d="M169.9,297.7c-0.6,1.1-1.2,2.2-2.2,3c-1,0.8-2.4,1.2-3.5,0.6c-1.4-0.7-1.8-2.6-2-4.2
				c-0.2-1.9-1.8-0.9-2-2.8c-0.1-0.8,1.1-4.7,0.8-5.4c-0.8-1.8-2.6-3.1-3.4-4.9c-0.9-2.2,0.2-5.1,2.4-6.1c2.2-1,5.1,0.1,6.2,2.3
				c0.8,1.6,0.5,3.6,1.4,5.1c0.8,1.3,1.9,1.2,3,2C173.9,289.8,171.4,294.9,169.9,297.7z"/>
			<path class="st12" d="M165.3,295.3c0.3-1.3-0.8-2.7-2.1-2.9c-1.3-0.2-3.1,4.2-2.7,4.7C162.9,297.6,164.8,296.8,165.3,295.3z"/>
		</g>
		<path class="st12" d="M121.8,295.8c1.5,4.6,4.3,11.4,7.8,14.7c3.5,3.3,8.6,5.3,13.2,4c2.2-0.6,4.1-1.8,5.9-3.1l3.7,11.9
			c-2.1,0.9-4.3,1.6-6.5,2c-6.1,1.2-12.9,0.5-17.8-3.3c-3.2-2.4-5.5-6-7-9.7c-1.5-3.7-2.9-11.1-3.7-15
			C117.2,296.1,121.4,294.7,121.8,295.8z"/>
		<path class="st16" d="M150.9,309.8c2.5-1.8,5.4-3.6,8.5-3.6c7.1-0.1,7.9,7.7,3.4,11.7c-1.7,1.5-4.2,2.4-6.2,3.5
			c-1.3,0.7-2.7,1.3-4.1,1.9l-5.7-11.3C147.5,311.4,150.2,310.3,150.9,309.8z"/>
		<g>
			<path class="st17" d="M122,291.2h-5.8c-0.3,0-0.7-0.3-0.8-0.6l-3.6-12.4c-0.1-0.3,0.1-0.6,0.5-0.6h5.8c0.3,0,0.7,0.3,0.8,0.6
				l3.6,12.4C122.6,290.9,122.4,291.2,122,291.2z"/>
			<path class="st18" d="M122.6,291.2h-5.8c-0.3,0-0.7-0.3-0.8-0.6l-3.6-12.4c-0.1-0.3,0.1-0.6,0.5-0.6h5.8c0.3,0,0.7,0.3,0.8,0.6
				l3.6,12.4C123.1,290.9,122.9,291.2,122.6,291.2z"/>
			<path class="st17" d="M122.1,290.5h-5.3c-0.3,0-0.6-0.3-0.7-0.6l-3.2-11.2c-0.1-0.3,0.1-0.6,0.4-0.6h5.3c0.3,0,0.6,0.3,0.7,0.6
				l3.2,11.2C122.6,290.3,122.4,290.5,122.1,290.5z"/>
		</g>
		<path class="st12" d="M121.1,289.6c-0.2-0.7-1.6-2.7-2.3-4.6c-1.3-0.5-0.6,3.3-0.2,3.8c-1.5-0.3-4.4-2-5.1-4.8
			c-0.3,0.2-1.1,1.4-1.1,1.8c-0.1,1.3,0.8,2.6,0.7,3.9c-0.1,1-0.5,1.5-0.2,2.5c0.5,1.5,1.8,2.7,3.1,3.6c0.7,0.5,1.4,1,2.2,1.2
			C122.6,298.4,121.8,291.9,121.1,289.6z"/>
	</g>
	<g>
		<g>
			<g>
				<path class="st10" d="M162.5,85.5c-5.9-3.7-12.9-5.7-19.8-5.5c-1.3,0-2.7,0.3-3.3,1.4c-0.3,0.6-0.2,1.4,0.2,2
					c0.3,0.6,0.8,1.1,1.3,1.6c5.7,5.6,12.1,10.4,18.5,15.1c2,1.5,4,2.9,6.2,3.8c2.3,0.9,4.9,1.2,7.2,0.3c1.2-0.5,2.8-1.6,3-3
					c0.2-1.1-0.9-2.5-1.4-3.4c-1.9-3.1-4.2-6-6.9-8.5C165.9,87.9,164.2,86.6,162.5,85.5z"/>
				<path class="st19" d="M138.1,82.2c-0.8-1-1.7-2.2-1.2-3.4c0.5-1.3,2.9-2,4.2-2c8.1-0.4,15.6,2.5,22.2,7.3l-10.8,11.3
					C147.1,91.6,142.2,87.2,138.1,82.2z"/>
				<path class="st10" d="M197.2,92.3c1.1,0.6,1.3,2.2,0.9,3.3c-0.5,1.2-23.3,8.7-27.7,8.8c-1.3,0.1-2.9,0-3.7-1
					c-0.8-0.9-0.6-2.3-0.3-3.4c0.5-1.9,1.5-4.1,3-5.5c1-1,2.3-0.6,3.6-0.7C177.6,93.6,196.5,91.9,197.2,92.3z"/>
				<path class="st10" d="M199.1,90.3c0.5-0.3,1.3-0.5,1.6,0c0.1,0.3-0.1,0.7-0.3,0.9c-0.3,0.2-0.6,0.5-0.7,0.8
					c-0.2,0.6,0.2,1.2,0.8,1.5c0.6,0.2,1.2,0.1,1.8,0c1.6-0.3,3.3-0.6,4.9-0.9c0.7-0.1,1.6-0.2,1.9,0.4c0.3,0.4,0.1,1-0.2,1.4
					c-0.9,1.8-2.6,3.2-4.5,3.9c-1.9,0.7-4.1,0.5-5.9-0.4c-1.1-0.5-2.1-1.4-2.7-2.5C194.3,92.5,196.9,91.6,199.1,90.3z"/>
			</g>
			<path class="st13" d="M129.2,143.8c0.1,2.1,5.5,0.8,7.5,0.8c16.7,0,26.4-5.4,24.1-13.1c-2.4-7.9-17.4-6.6-25.2-4.1
				c-1.7,0.5-4.1,1.1-5.3,2.7C128.7,132.3,128.8,136.3,129.2,143.8z"/>
			<path class="st13" d="M144.4,129.3c4.4-7.8,10.6-15.2,16.9-21.8c3.8-4,7.8-7.7,12.1-11.2c1.7-1.4,3.9-2.9,5.8-2.4
				c0.9,0.2,2.1,2,5.5,5.1L160.6,142C158.9,145.2,137.8,140.8,144.4,129.3z"/>
			<path class="st19" d="M145.7,77.9c-10.4-7.1-19.6,5.2-19.6,17.9c0,11.4,2.9,12.3-0.7,40.2h22.2l8.2-5.8
				C153,112.4,162,89,145.7,77.9z"/>
			<path class="st13" d="M133.3,128.2c8.9,0.1,18.4,1.8,27.3,4.1c5.3,1.4,10.6,3.1,15.7,5.1c2.1,0.8,4.4,2,5,3.9
				c0.2,0.8-0.7,2.8-1.7,7.3h-49.4C126.5,148.6,120,128.1,133.3,128.2z"/>
			<g>
				<path class="st20" d="M155.2,68c-0.5,0.6-1,0.3-0.9-0.5c0.6-2.5,0.7-2.9,0-5.4c-0.4-1.4-0.6-1.5,0.1-1.8
					C156.7,59.3,159.8,63,155.2,68z"/>
				<path class="st10" d="M147.1,67.7c-0.9-3.8-3.7-4.7-5.4-3.8c-1.1,7.1-2.2,10.3-5,14.2c3.5,2.2,8.9,5.2,10.2,3.4
					C146.9,80.9,147.5,69.6,147.1,67.7z"/>
				<path class="st12" d="M145.7,59.5c3.2-2.7,8.3-1.1,9.5,3.2c1,4-2.4,11.2-4.2,12.5c-3.2,2.3-8.1-2-8.5-4.2
					C142,67.8,143,61.8,145.7,59.5z"/>
				<path class="st20" d="M144.4,69.8c-0.1,0.4-0.1,0.9,0.1,1.2c0.2,0.3,0.6,0.4,0.9,0.3c0.3,0,0.7-0.2,1-0.3
					c1.4-0.5,2.9-0.6,4.4-0.2c0.7,0.1,1.3,0.4,1.7,1c0.3,0.5,0.4,1,0.3,1.6c0,0.7-0.2,1.4-0.5,2c-0.3,0.6-0.8,1.1-1.5,1.4
					c-0.9,0.4-1.9,0.2-2.9-0.1c-1.7-0.5-3.3-1.3-4.4-2.6c-1.2-1.3-2-3-1.9-4.7c0.1-0.9,0.3-1.7,0.8-2.4c0.4-0.6,0.9-1.2,1.6-1.5
					c1.1-0.4,0.9,0.5,0.8,1.2C144.7,67.7,144.6,68.7,144.4,69.8z"/>
				<path class="st20" d="M146.9,60.9c0,0.6-2.8,8.1-3,7.9c-0.7-0.5-1.2-2.8-2.7-3c-0.5-0.1-1.2,0.1-1-0.8c1-5.8,0.7-5.6,1.9-5.9
					C144.6,58.3,146.8,59.8,146.9,60.9z"/>
				<path class="st20" d="M141.2,56c5.4-2.4,13.4-2.1,15.4-0.4c3,2.6-0.6,7.8-1.9,7.8c-0.6,0-1-0.5-1.5-1c-2-2-4.3-1.2-6.1-1.2
					C143.9,61.2,136.7,58,141.2,56z"/>
				<path class="st12" d="M140.1,64.7c-0.3,0.9-0.2,1.9,0.3,2.8c1.3,2.4,3.6-0.1,3.5-1.9C143.8,63.3,140.8,62.1,140.1,64.7z"/>
			</g>
			<path class="st10" d="M191.9,145.8c2-0.1,4-0.7,5.6-1.6c-0.8-2.2-1.7-4.4-2.5-6.6c-0.1-0.3-0.2-0.6-0.4-0.8
				c-0.3-0.3-0.8-0.3-1.3-0.3c-1.7,0-4.1,0.4-3.5,2.4C190.4,141.2,191.2,143.5,191.9,145.8z"/>
			<path class="st13" d="M185.1,96.8c-3.1-3.4-10.8-5.7-11.4,2.3c-0.9,12.8,9.3,28.8,15.6,41.6l6.5-1.8
				C195.7,137.6,186.8,98.7,185.1,96.8z"/>
			<path class="st13" d="M209.6,147.6c0.1-1-0.8-1.8-1.8-2c-0.9-0.2-1.9-0.1-2.9-0.1c-2.8,0-5.4-1.7-6.7-4.1
				c-0.2-0.3-0.3-0.7-0.7-0.9c-0.4-0.2-1-0.1-1.4,0.3c-0.4,0.3-0.7,0.8-1,1.1c-0.6,0.6-1.6,1-2.5,1c-0.8,0-1.6-0.6-2.3-0.2
				c-0.6,0.3-0.8,1.2-1,1.9c-0.3,1.1-0.5,2.2-0.8,3.3c-0.1,0.2-0.1,0.5-0.1,0.7h5.3c0.2-0.3,0.4-1.3,0.5-1.8c0,0.4,0.2,1.4,0.5,1.8
				h14.4C209.4,148.3,209.6,148,209.6,147.6z"/>
			<g>
				<path class="st10" d="M175.6,192.9c2,0.3,4,0.1,5.8-0.5c-0.4-2.3-0.8-4.6-1.2-7c0-0.3-0.1-0.6-0.3-0.8c-0.3-0.4-0.7-0.5-1.2-0.6
					c-1.6-0.3-4.1-0.4-3.9,1.6C175.1,188.1,175.4,190.5,175.6,192.9z"/>
				<path class="st13" d="M182.1,142.5c-2-4.1-8.9-8.4-11.6-0.9c-4.3,12.1,1.1,30.3,3.8,44.3h6.7
					C181.3,184.6,183.2,144.8,182.1,142.5z"/>
				<path class="st13" d="M172.1,192c0.7-0.5,2.5-5.3,3.9-4.7c0.8,0.3,0.8,1.7,1.3,2.3c0.4,0.4,1.3,0.8,1.9,1l0.9-1.4
					c3.7,1.5,1,5.8,4.7,7.3c0.9,0.4,1.9,0.6,2.6,1.2c0.8,0.6,1.3,1.7,0.9,2.5c-0.2,0.3-0.5,0.6-0.8,0.7l-11.9-5c0,0-0.2-2.3,0.1-2.6
					c-0.4,0.2-1.5,1.8-1.9,1.8L172.1,192z"/>
			</g>
			<path class="st21" d="M173.3,97.4l120-25.2c0.3-0.1,0.6,0.1,0.7,0.5c0.1,0.3-0.1,0.6-0.4,0.7l-119.5,27.5c-1,0.2-1.9-0.4-2.1-1.3
				C171.7,98.6,172.3,97.6,173.3,97.4C173.3,97.4,173.3,97.4,173.3,97.4z"/>
			<g>
				<path class="st12" d="M140.8,105.1c-4.4-5.3-7.3-12-8.1-18.9c-0.1-1.2-0.1-2.8,1-3.4c0.6-0.4,1.3-0.3,2-0.1
					c0.6,0.2,1.2,0.7,1.7,1.1c6.3,4.9,11.8,10.6,17.4,16.4c1.7,1.8,3.4,3.5,4.6,5.7c1.2,2.1,1.8,4.7,1.2,7.1c-0.3,1.2-1.2,3-2.6,3.4
					c-1.1,0.3-2.6-0.6-3.6-1c-3.4-1.4-6.5-3.4-9.3-5.7C143.6,108.2,142.1,106.7,140.8,105.1z"/>
				<path class="st19" d="M135,81.5c-3.6-2.3-5.7,1-5.3,4.9c0.7,8.1,4.2,13.7,9.8,19.6l9.8-12.2C144.8,89,140.5,85,135,81.5z"/>
				<path class="st12" d="M182.6,97.2c1.2,0.3,1.9,1.7,1.7,3c-0.2,1.2-20.3,14.3-24.5,15.6c-1.3,0.4-2.8,0.8-3.8,0
					c-1-0.7-1.2-2-1.2-3.2c0-2,0.4-4.4,1.4-6.1c0.7-1.2,2.1-1.2,3.3-1.6C164,103.5,181.8,97,182.6,97.2z"/>
				<path class="st12" d="M185.4,94.8c0.5-0.3,1.3-0.6,1.6,0c0.1,0.3-0.1,0.7-0.3,1s-0.6,0.5-0.7,0.8c-0.2,0.6,0.2,1.2,0.8,1.4
					c0.6,0.2,1.2,0.1,1.8,0c1.6-0.3,3.3-0.7,4.9-1c0.7-0.1,1.5-0.2,1.9,0.4c0.3,0.4,0.1,1-0.1,1.5c-0.9,1.8-2.5,3.3-4.4,4
					c-1.9,0.7-4.1,0.6-5.9-0.2c-1.1-0.5-2.1-1.3-2.7-2.4C180.6,97.1,183.2,96.1,185.4,94.8z"/>
			</g>
		</g>
		<g>
			<path class="st22" d="M313.1,328.6l-47.9-47.9c-2.1-2.1-2.1-5.6,0-7.7l22.5-22.5c2.1-2.1,5.6-2.1,7.7,0l47.9,47.9
				c2.1,2.1,2.1,5.6,0,7.7l-22.5,22.5C318.7,330.7,315.2,330.7,313.1,328.6z"/>
			<g>
				<rect x="291.1" y="73.2" class="st21" width="0.7" height="155.2"/>
			</g>
			<path class="st23" d="M313.1,308.4l-47.9-47.9c-2.1-2.1-2.1-5.6,0-7.7l22.5-22.5c2.1-2.1,5.6-2.1,7.7,0l47.9,47.9
				c2.1,2.1,2.1,5.6,0,7.7l-22.5,22.5C318.7,310.5,315.2,310.5,313.1,308.4z"/>
		</g>
	</g>
</g>
</svg>
